<svg width="54" height="54" viewBox="0 0 54 54" fill="none" xmlns="http://www.w3.org/2000/svg">
<g opacity="0.8">
<path d="M24.7454 17.1968C24.6799 17.3116 24.4668 17.9511 24.2865 18.6234C23.9752 19.8041 23.9424 19.8533 23.3032 20.0829C22.6641 20.3124 22.6313 20.3124 21.6644 19.7221C21.1235 19.3941 20.5663 19.1318 20.4352 19.1318C20.2877 19.1318 19.6813 19.6401 19.0586 20.2632C17.7966 21.5423 17.7966 21.5095 18.7144 23.0181C19.2225 23.8545 19.2388 23.9528 19.0422 24.4448C18.8455 24.8875 18.6816 24.9859 17.6164 25.2811C16.9608 25.4615 16.3217 25.6747 16.2233 25.7402C15.9283 25.9206 15.9283 29.0363 16.207 29.2495C16.3217 29.3479 16.9608 29.5446 17.6164 29.7086C18.7308 29.971 18.8291 30.0366 19.0586 30.5941C19.3044 31.1681 19.3044 31.2172 18.7308 32.2995C18.3211 33.103 18.19 33.513 18.2883 33.7098C18.3702 33.8574 18.8947 34.3985 19.4355 34.9232C20.5499 35.9891 20.5827 36.0055 21.943 35.1692C22.7132 34.6937 22.7624 34.6937 23.3524 34.9232C23.926 35.1528 23.9752 35.2348 24.2865 36.3663C24.4668 37.0386 24.6799 37.6781 24.7454 37.7929C24.9257 38.0717 28.0395 38.0717 28.2526 37.7765C28.3509 37.6781 28.5476 37.0386 28.7115 36.3827C28.9737 35.2676 29.0392 35.1692 29.5964 34.9396C30.17 34.6937 30.2192 34.6937 30.9895 35.12C32.5628 35.9727 32.4645 35.9891 33.7264 34.7593C34.3491 34.1689 34.8572 33.5622 34.8572 33.4146C34.8572 33.267 34.595 32.7259 34.2672 32.1847C33.71 31.25 33.6936 31.2008 33.923 30.6269C34.1525 30.0858 34.2508 30.0202 35.3652 29.7086C36.0372 29.5282 36.6763 29.3151 36.791 29.2495C37.0697 29.0691 37.0697 25.9206 36.791 25.7402C36.6763 25.6747 36.0372 25.4615 35.3652 25.2811C34.2344 24.9695 34.1525 24.9203 33.923 24.3464C33.6772 23.7397 33.6936 23.7069 34.2836 22.7394C34.7097 22.0506 34.8572 21.6243 34.7916 21.3619C34.6769 20.9028 32.8414 19.1318 32.4808 19.1318C32.3333 19.1318 31.7597 19.3941 31.2189 19.7221C30.252 20.2796 30.2028 20.296 29.6292 20.0665C29.0884 19.8369 29.0228 19.7385 28.7115 18.6234C28.5312 17.9511 28.3181 17.3116 28.2526 17.1968C28.1542 17.0656 27.6134 17 26.499 17C25.3846 17 24.8437 17.0656 24.7454 17.1968ZM28.2198 23.7069C30.547 24.7236 31.3828 27.6752 29.957 29.807C28.3017 32.2503 24.6963 32.2503 23.041 29.807C20.7302 26.347 24.3685 22.0506 28.2198 23.7069Z" fill="white"/>
<rect x="0.75" y="0.75" width="52.5" height="52.5" rx="1.25" stroke="white" stroke-width="1.5"/>
</g>
</svg>
