<svg width="110" height="104" viewBox="0 0 110 104" fill="none" xmlns="http://www.w3.org/2000/svg">
<path d="M52.8631 40.0525C50.7114 40.1887 49.6355 40.3112 49.3223 40.4474C49.1725 40.5155 48.8729 40.5972 48.6414 40.6245C48.4235 40.6653 47.6473 40.856 46.9391 41.0466C46.231 41.2509 45.482 41.4552 45.2777 41.496C45.0598 41.5369 44.8964 41.6186 44.8964 41.6867C44.8964 41.7548 44.7738 41.8093 44.624 41.8093C44.4742 41.8093 44.2427 41.8637 44.1065 41.9318C43.9839 41.9999 43.6299 42.1633 43.3303 42.2859C42.3225 42.7081 39.7078 44.0427 39.4763 44.2606C39.3537 44.3695 39.0813 44.5465 38.8907 44.6419C38.7 44.7508 38.3596 44.9823 38.1553 45.1594C37.951 45.3364 37.7331 45.4862 37.6787 45.4862C37.6378 45.4862 37.4744 45.5952 37.3246 45.7177C37.1884 45.8539 36.8207 46.1399 36.5211 46.3714C35.7993 46.9161 32.9395 49.776 32.422 50.4569C32.2041 50.7565 31.9181 51.1242 31.7955 51.2604C31.6594 51.4102 31.5504 51.5736 31.5504 51.6145C31.5504 51.6689 31.4006 51.8868 31.21 52.1047C31.0193 52.3226 30.8695 52.5814 30.8695 52.6631C30.8695 52.7584 30.815 52.8401 30.7333 52.8401C30.6652 52.8401 30.5971 52.9218 30.5971 53.0308C30.5971 53.1397 30.5563 53.2486 30.4882 53.2759C30.3248 53.344 29.3715 55.019 29.3715 55.2369C29.3715 55.3459 29.317 55.4276 29.2353 55.4276C29.1672 55.4276 29.0991 55.5501 29.0991 55.6999C29.0991 55.8497 29.0446 55.9723 28.9629 55.9723C28.8948 55.9723 28.8267 56.0404 28.8267 56.1085C28.8267 56.1902 28.6769 56.5579 28.4863 56.9528C28.2956 57.3341 28.1458 57.7427 28.1458 57.838C28.1458 57.9334 28.0914 58.0151 28.0096 58.0151C27.9416 58.0151 27.8735 58.1512 27.8735 58.3283C27.8735 58.5053 27.819 58.696 27.7509 58.7641C27.6828 58.8458 27.4649 59.3905 27.2606 59.9897C27.07 60.5889 26.8521 61.1881 26.784 61.3107C26.7023 61.4469 26.6478 61.6784 26.6478 61.8146C26.6478 61.9644 26.5933 62.1278 26.5116 62.1686C26.4435 62.2095 26.3755 62.4682 26.3755 62.727C26.3755 62.9857 26.321 63.19 26.2665 63.19C26.212 63.19 26.0758 63.5713 25.9805 64.0344C25.8852 64.511 25.7218 65.2055 25.6128 65.6005C25.5039 65.9818 25.4222 66.5401 25.4222 66.8261C25.4222 67.1121 25.3677 67.4117 25.2996 67.4798C25.1634 67.6296 25 69.8085 25 71.4972C25 74.3843 25.6401 77.6799 26.5253 79.4231C26.5933 79.5592 26.6478 79.7635 26.6478 79.8725C26.6478 79.9814 26.7159 80.0767 26.784 80.0767C26.8657 80.0767 26.9202 80.1857 26.9202 80.3082C26.9338 80.4444 27.1108 80.853 27.3424 81.2343C27.5602 81.602 27.7781 82.0242 27.8326 82.1467C27.8735 82.2829 27.9552 82.3919 28.0233 82.3919C28.0914 82.3919 28.1458 82.4463 28.1458 82.528C28.1458 82.6778 29.1127 84.0669 29.2625 84.135C29.3306 84.1622 29.3715 84.2576 29.3715 84.3393C29.3715 84.5572 32.6943 87.8119 33.348 88.2477C33.634 88.4384 33.8655 88.629 33.8655 88.6835C33.8655 88.7516 33.9609 88.7925 34.0698 88.7925C34.1787 88.7925 34.2741 88.8469 34.2741 88.9286C34.2741 88.9967 34.3558 89.0648 34.4511 89.0648C34.5464 89.0648 34.7507 89.1738 34.9005 89.31C35.0367 89.4325 35.418 89.664 35.7312 89.8138C36.0581 89.9636 36.3168 90.1271 36.3168 90.1815C36.3168 90.2496 36.4394 90.2905 36.5892 90.2905C36.739 90.2905 36.8616 90.345 36.8616 90.4267C36.8616 90.4948 36.9705 90.5628 37.1067 90.5628C37.2429 90.5628 37.4063 90.6173 37.488 90.6718C37.5561 90.7399 38.0463 90.9578 38.5638 91.1621C39.095 91.3799 39.6261 91.5978 39.7486 91.6659C39.8848 91.734 40.1163 91.7885 40.2661 91.7885C40.4159 91.7885 40.5385 91.843 40.5385 91.9247C40.5385 91.9928 40.6883 92.0609 40.879 92.0609C41.0696 92.0609 41.3284 92.1153 41.4645 92.197C41.805 92.3877 43.3847 92.878 43.9839 92.9733C44.2563 93.0141 44.4878 93.0959 44.4878 93.1503C44.4878 93.2048 44.7193 93.2865 45.0053 93.3274C45.2777 93.3682 46.2446 93.5589 47.1434 93.7495C49.118 94.1989 50.3301 94.376 51.7736 94.4577C52.3728 94.4985 52.9856 94.5802 53.1491 94.662C53.5576 94.8662 57.1528 94.6483 59.7403 94.2534C60.6255 94.1308 62.3278 93.7768 63.3492 93.5316C63.6488 93.4635 64.1254 93.3682 64.4114 93.3274C64.6838 93.2865 64.9153 93.2048 64.9153 93.1367C64.9153 93.0686 65.0651 93.0141 65.2421 93.0141C65.5826 93.0141 68.4697 92.1426 68.8918 91.9111C69.028 91.843 69.2595 91.7885 69.4093 91.7885C69.5591 91.7885 69.6817 91.7204 69.6817 91.6523C69.6817 91.5706 69.8043 91.5161 69.9541 91.5161C70.1039 91.5161 70.5805 91.3527 71.0027 91.1484C72.705 90.3722 73.5629 89.95 73.631 89.8683C73.6719 89.8275 73.917 89.6777 74.1894 89.5551C74.4617 89.4325 74.8158 89.201 74.9656 89.0648C75.129 88.915 75.2924 88.7925 75.3333 88.7925C75.3878 88.7925 75.5103 88.7108 75.6057 88.629C75.9053 88.3567 76.1095 88.2069 76.627 87.8392C77.2399 87.4034 79.446 85.2108 79.9635 84.5027C80.195 84.2031 80.481 83.8354 80.6172 83.6992C80.7398 83.5494 80.8487 83.3724 80.8487 83.3179C80.8487 83.2498 80.9577 83.0864 81.0939 82.9366C81.2164 82.8004 81.4479 82.4463 81.5977 82.1603C81.7475 81.8744 81.8973 81.6156 81.9382 81.5748C82.0744 81.4522 82.8642 79.7363 82.9596 79.355C83.014 79.1507 83.1094 78.9464 83.1775 78.9056C83.2455 78.8647 83.3 78.6877 83.3 78.497C83.3 78.32 83.3681 78.1702 83.4362 78.1702C83.5179 78.1702 83.5724 77.9931 83.5724 77.7752C83.5724 77.5437 83.6269 77.3258 83.7086 77.285C83.7767 77.2441 83.8448 77.0671 83.8448 76.9173C83.8448 76.7539 83.8992 76.4406 83.9809 76.2091C84.1852 75.5146 84.5257 72.5867 84.5257 71.4291C84.5257 69.6179 84.0218 65.8047 83.695 65.2055C83.6269 65.0694 83.5724 64.7289 83.5724 64.4429C83.5724 64.1569 83.5179 63.8709 83.4498 63.7892C83.3953 63.7211 83.2319 63.2717 83.1094 62.7815C82.7825 61.5831 82.5783 60.9702 82.4557 60.8068C82.4012 60.7387 82.3467 60.5072 82.3467 60.3029C82.3467 60.0987 82.2923 59.9216 82.2106 59.9216C82.1425 59.9216 82.0744 59.7718 82.0744 59.5812C82.0744 59.3905 82.0335 59.2407 81.9654 59.2407C81.911 59.2407 81.7884 58.9956 81.7067 58.696C81.4207 57.8244 79.8954 54.5696 79.732 54.5015C79.6639 54.4743 79.6231 54.3654 79.6231 54.2564C79.6231 54.1475 79.5686 54.0658 79.4869 54.0658C79.4188 54.0658 79.3507 53.9432 79.3507 53.807C79.3507 53.6572 79.3099 53.521 79.2554 53.4938C79.1192 53.4393 78.3974 52.3362 78.3974 52.1864C78.3974 52.1319 78.2749 51.9958 78.1251 51.8868C77.9753 51.7779 77.8527 51.6417 77.8527 51.5736C77.8527 51.2195 74.2575 47.3383 73.2906 46.6438C73.0727 46.494 72.7731 46.2488 72.6233 46.099C72.4598 45.9492 71.956 45.5815 71.4929 45.2819C71.0163 44.9823 70.635 44.6963 70.635 44.6283C70.635 44.5738 70.5669 44.5329 70.4852 44.5329C70.4035 44.5329 70.172 44.424 69.9813 44.2742C69.6681 44.0563 69.0416 43.7158 67.5709 42.9396C67.4211 42.8579 66.9036 42.6264 66.4133 42.4221C65.923 42.2178 65.4192 41.9999 65.2966 41.9318C65.1604 41.8637 64.9561 41.8093 64.8472 41.8093C64.7383 41.8093 64.6429 41.7412 64.6429 41.6731C64.6429 41.5914 64.4659 41.5369 64.2616 41.5369C64.0573 41.5369 63.8258 41.4824 63.7441 41.4143C63.676 41.3599 63.1585 41.1964 62.6002 41.0603C62.0418 40.9377 61.4699 40.7743 61.3473 40.7062C61.2111 40.6381 60.8843 40.5836 60.6255 40.5836C60.3668 40.5836 60.1489 40.5155 60.1489 40.4474C60.1489 40.3657 59.822 40.3112 59.4407 40.3112C59.0458 40.3112 58.5011 40.2568 58.2423 40.1887C57.575 40.0116 54.6471 39.9436 52.8631 40.0525Z" fill="#333333"/>
<path d="M47.4869 87.6774C47.2605 87.7529 46.858 88.0044 46.5938 88.2183C45.751 88.9227 45.7385 89.0988 45.7762 95.2371C45.8014 98.3817 45.8643 100.948 45.9397 101.375C46.3548 103.564 48.8202 104.344 50.2038 102.721C50.4177 102.482 50.6189 102.105 50.6818 101.904C50.8202 101.35 50.8579 95.5641 50.7447 92.2057C50.6567 89.3881 50.6441 89.3 50.3296 88.7969C49.9649 88.2183 49.512 87.8661 48.8705 87.6522C48.3422 87.4636 48.0403 87.4761 47.4869 87.6774Z" fill="#333333"/>
<path d="M60.8703 87.6775C60.342 87.9039 59.7005 88.47 59.4741 88.9102C59.1722 89.5014 59.0464 91.7404 59.0464 96.9479V101.816L59.4615 102.42C60.6313 104.181 63.0464 103.891 63.8011 101.904C64.0652 101.187 64.103 100.457 64.1155 95.0234C64.1407 89.6272 64.1281 89.5769 63.8514 88.9857C63.2979 87.8159 61.9269 87.2121 60.8703 87.6775Z" fill="#333333"/>
<ellipse cx="58.5" cy="64.2249" rx="2.5" ry="3.5" fill="white"/>
<ellipse cx="71.5" cy="64.2249" rx="2.5" ry="3.5" fill="white"/>
<g filter="url(#filter0_d_888_21681)">
<mask id="mask0_888_21681" style="mask-type:luminance" maskUnits="userSpaceOnUse" x="32" y="28" width="46" height="19">
<path d="M32 28H77.9676V46.6193H32V28Z" fill="white"/>
</mask>
<g mask="url(#mask0_888_21681)">
<path d="M67.0686 35.1372C67.0705 35.1207 67.0725 35.1041 67.0754 35.0873C67.0725 35.1041 67.0702 35.1207 67.0686 35.1372ZM77.684 44.2881C77.9545 45.4838 74.0872 45.6738 73.252 45.8255C66.1698 46.5463 59.036 46.6061 51.923 46.5649C49.6759 46.4821 32.0133 46.4496 32.1596 44.4255C32.1602 44.4253 32.1606 44.4253 32.1612 44.4253C32.1029 43.4121 34.8122 43.2445 35.5687 43.0926C36.9147 42.9115 38.2674 42.7905 39.6212 42.6891C40.7251 42.6075 41.8301 42.5393 42.9354 42.485C42.8903 41.6583 42.8419 40.8316 42.7955 40.0051C42.7374 38.9652 42.6792 37.9253 42.6211 36.8852C42.5635 35.8557 42.5058 34.826 42.4483 33.7962C42.4278 33.4285 42.4077 33.0608 42.3866 32.693C42.3837 32.6434 42.3903 32.5951 42.4048 32.55C42.4023 32.4629 42.4027 32.376 42.4077 32.2887C42.4406 31.6004 42.8265 30.9905 43.2959 30.5088C44.2884 29.4921 45.6755 28.9896 47.0274 28.6556C47.5796 28.5304 48.1395 28.447 48.7016 28.3837C48.7589 28.3597 48.8187 28.3487 48.88 28.3388C48.9594 28.326 49.0389 28.314 49.1184 28.3032C49.2599 28.2842 49.4015 28.2664 49.5434 28.2498C49.8211 28.2175 50.0993 28.191 50.3786 28.1708C50.9452 28.1302 51.5127 28.0954 52.0805 28.0702C52.6608 28.0441 53.2414 28.0242 53.8225 28.0189C54.4144 28.0135 55.0067 28.0209 55.5985 28.0329C56.1676 28.0441 56.7363 28.0677 57.3049 28.0901C57.8608 28.112 58.4174 28.1281 58.9729 28.1608C59.5304 28.1935 60.087 28.2395 60.6437 28.2846C60.8947 28.3049 61.1464 28.3227 61.3974 28.3442C61.3976 28.3442 61.3976 28.3442 61.3976 28.3442C61.4638 28.3417 61.5327 28.3522 61.5987 28.3624C61.7268 28.3746 61.8547 28.388 61.9822 28.4038C62.0145 28.4079 62.0517 28.4096 62.0844 28.4178C62.0952 28.4205 62.1055 28.4234 62.1159 28.4263C62.3582 28.4555 62.6001 28.4859 62.8406 28.5284C64.2298 28.786 65.8671 29.3377 66.8118 30.4357C67.6905 31.3583 67.8624 32.6403 67.9001 33.862C67.9024 34.1354 67.9137 34.4092 67.915 34.6828C67.9307 34.7283 67.9392 34.7769 67.9392 34.8272C67.9392 34.8353 67.9392 34.8433 67.9392 34.8514C67.9392 34.8516 67.9392 34.8518 67.9392 34.852C67.9392 35.8414 67.9359 36.831 67.9342 37.8206C67.9326 38.8832 67.9305 39.9459 67.9291 41.0085C67.9282 41.5182 67.9274 42.0279 67.9264 42.5376C68.1821 42.5519 68.4377 42.5686 68.6933 42.5846C70.0804 42.7367 77.5187 42.9534 77.684 44.2881Z" fill="#FFEAB2"/>
</g>
<mask id="mask1_888_21681" style="mask-type:luminance" maskUnits="userSpaceOnUse" x="42" y="35" width="26" height="8">
<path d="M42.7422 35.8677H67.9975V42.6903H42.7422V35.8677Z" fill="white"/>
</mask>
<g mask="url(#mask1_888_21681)">
<path d="M67.976 37.5988C67.976 38.1355 67.9723 38.6716 67.9704 39.2083C67.9681 39.914 67.9656 40.6196 67.9632 41.3259C67.9623 41.5683 67.9615 41.8108 67.9607 42.0539V42.0546C67.9607 42.0608 67.9607 42.067 67.9607 42.0726C67.9607 42.0733 67.9607 42.0739 67.9607 42.0739C67.9607 42.0776 67.9607 42.0807 67.9607 42.0845C67.9607 42.0988 67.9607 42.1132 67.9605 42.1275C67.9845 42.3587 67.9439 42.6505 67.8289 42.6474C59.7559 41.3383 51.6587 41.3109 43.5819 42.3313C43.3596 42.3619 43.1373 42.3943 42.9151 42.4267C42.8429 42.4367 42.7787 42.279 42.7731 42.0577C42.7719 42.0066 42.7742 41.9561 42.7793 41.9087C42.7766 41.5658 42.776 41.2224 42.7744 40.8795C42.7704 40.139 42.7665 39.3984 42.763 38.6579C42.7607 38.239 42.7597 37.8201 42.7566 37.4006C42.7566 37.395 42.7564 37.39 42.7564 37.3844C42.7564 37.3782 42.7564 37.3725 42.7564 37.3663C42.7555 37.1488 42.8077 36.9593 42.882 36.948C42.8996 36.9449 42.9169 36.9536 42.9333 36.9717C43.3675 36.915 43.8016 36.8439 44.236 36.7934C51.726 35.9076 59.2292 35.9369 66.7161 37.0129C67.0863 37.0715 67.4564 37.1276 67.8264 37.1943C67.8305 37.1949 67.8344 37.1968 67.8382 37.1986C67.8402 37.198 67.8421 37.198 67.8442 37.198C67.9164 37.1992 67.976 37.3819 67.976 37.5988Z" fill="#DC9E00"/>
</g>
</g>
<defs>
<filter id="filter0_d_888_21681" x="0.158691" y="0.0170898" width="109.539" height="82.5576" filterUnits="userSpaceOnUse" color-interpolation-filters="sRGB">
<feFlood flood-opacity="0" result="BackgroundImageFix"/>
<feColorMatrix in="SourceAlpha" type="matrix" values="0 0 0 0 0 0 0 0 0 0 0 0 0 0 0 0 0 0 127 0" result="hardAlpha"/>
<feOffset dy="4"/>
<feGaussianBlur stdDeviation="16"/>
<feComposite in2="hardAlpha" operator="out"/>
<feColorMatrix type="matrix" values="0 0 0 0 0 0 0 0 0 0 0 0 0 0 0 0 0 0 0.15 0"/>
<feBlend mode="normal" in2="BackgroundImageFix" result="effect1_dropShadow_888_21681"/>
<feBlend mode="normal" in="SourceGraphic" in2="effect1_dropShadow_888_21681" result="shape"/>
</filter>
</defs>
</svg>
