<svg width="114" height="142" viewBox="0 0 114 142" fill="none" xmlns="http://www.w3.org/2000/svg">
<g opacity="0.2" filter="url(#filter0_f_513_13075)">
<ellipse cx="55.9681" cy="109.263" rx="26.4424" ry="11.435" fill="black"/>
</g>
<g filter="url(#filter1_d_513_13075)">
<path d="M45.6399 43.3771C44.6267 43.5746 43.4293 43.8313 42.9687 43.9696C41.495 44.3646 38.6396 45.4312 38.5843 45.5892C38.5475 45.6683 38.4369 45.7473 38.3264 45.7473C38.1053 45.7473 36.1526 47.3669 35.7842 47.8607C35.1394 48.7495 34.6789 49.5001 34.6789 49.6976C34.6789 49.7964 34.6052 49.8951 34.5315 49.8951C34.0157 49.8951 32.763 55.1293 32.5788 58.092C32.3761 61.1733 32.7998 87.1665 33.0762 89.3984C33.3709 91.6699 33.6657 93.1315 34.0157 94.0401C34.1446 94.3561 34.3657 94.9487 34.4946 95.3239C35.3973 97.8522 37.8106 99.7483 41.495 100.795C45.5478 101.941 46.3215 102 57.0615 102C66.1066 102 68.133 101.901 70.2331 101.388C70.8963 101.21 71.8542 100.973 72.3516 100.854C72.8674 100.736 73.5306 100.499 73.8622 100.341C74.1754 100.183 74.4886 100.064 74.5438 100.064C74.6175 100.064 75.1886 99.8076 75.8149 99.4915C76.9203 98.9187 77.9703 97.9312 78.9467 96.509C79.5362 95.64 80.4388 92.7167 80.7152 90.8008C80.8441 89.991 80.9915 89.2404 81.0468 89.1219C81.1757 88.9244 81.5257 68.1654 81.5257 61.3511C81.5257 59.7709 81.4336 57.6773 81.3047 56.7094C81.0652 54.7738 80.5678 52.2851 80.3652 51.969C80.2915 51.8505 80.1809 51.5147 80.1073 51.179C79.7941 49.8359 77.1966 46.3398 76.4966 46.3398C76.386 46.3398 76.3123 46.2608 76.3123 46.1818C76.3123 45.9843 74.8202 45.1547 74.4886 45.1547C74.378 45.1547 74.1386 45.0757 73.9543 44.9769C73.7885 44.8584 73.0148 44.5819 72.2595 44.3646C71.5042 44.1276 70.6384 43.8511 70.3252 43.7523C68.3357 43.1203 65.9777 42.982 56.7667 43.0018C48.6611 43.0215 47.2426 43.061 45.6399 43.3771Z" fill="#333333"/>
</g>
<g filter="url(#filter2_d_513_13075)">
<mask id="mask0_513_13075" style="mask-type:luminance" maskUnits="userSpaceOnUse" x="33" y="28" width="47" height="20">
<path d="M33.5257 28.8276H79.4933V47.4469H33.5257V28.8276Z" fill="white"/>
</mask>
<g mask="url(#mask0_513_13075)">
<path d="M68.5945 35.9648C68.5963 35.9483 68.5984 35.9317 68.6013 35.915C68.5984 35.9317 68.5961 35.9483 68.5945 35.9648ZM79.2099 45.1158C79.4804 46.3115 75.6131 46.5014 74.7778 46.6531C67.6957 47.3739 60.5619 47.4337 53.4489 47.3925C51.2017 47.3097 33.5392 47.2772 33.6855 45.2532C33.6861 45.2529 33.6865 45.2529 33.6871 45.2529C33.6288 44.2398 36.338 44.0721 37.0946 43.9203C38.4406 43.7392 39.7933 43.6181 41.1471 43.5167C42.2509 43.4352 43.356 43.3669 44.4613 43.3127C44.4162 42.486 44.3677 41.6592 44.3214 40.8327C44.2632 39.7928 44.2051 38.7529 44.1469 37.7129C44.0894 36.6833 44.0317 35.6536 43.9741 34.6239C43.9537 34.2561 43.9336 33.8884 43.9125 33.5207C43.9096 33.471 43.9162 33.4228 43.9307 33.3777C43.9282 33.2905 43.9286 33.2036 43.9336 33.1163C43.9665 32.428 44.3524 31.8182 44.8218 31.3364C45.8143 30.3197 47.2014 29.8173 48.5533 29.4833C49.1054 29.3581 49.6654 29.2747 50.2275 29.2113C50.2848 29.1873 50.3446 29.1764 50.4059 29.1664C50.4853 29.1536 50.5648 29.1416 50.6442 29.1308C50.7858 29.1118 50.9273 29.094 51.0693 29.0774C51.347 29.0452 51.6251 29.0187 51.9045 28.9984C52.4711 28.9578 53.0385 28.9231 53.6064 28.8978C54.1867 28.8718 54.7673 28.8519 55.3484 28.8465C55.9403 28.8411 56.5325 28.8486 57.1244 28.8606C57.6935 28.8718 58.2621 28.8953 58.8308 28.9177C59.3867 28.9396 59.9433 28.9558 60.4987 28.9885C61.0562 29.0212 61.6129 29.0671 62.1696 29.1122C62.4206 29.1325 62.6722 29.1503 62.9233 29.1718C62.9235 29.1718 62.9235 29.1718 62.9235 29.1718C62.9897 29.1693 63.0586 29.1799 63.1246 29.19C63.2527 29.2022 63.3806 29.2157 63.5081 29.2314C63.5404 29.2356 63.5776 29.2372 63.6103 29.2455C63.6211 29.2482 63.6314 29.2511 63.6418 29.254C63.8841 29.2831 64.126 29.3136 64.3665 29.356C65.7557 29.6136 67.393 30.1653 68.3377 31.2634C69.2163 32.1859 69.3883 33.4679 69.426 34.6897C69.4282 34.963 69.4396 35.2368 69.4409 35.5104C69.4566 35.5559 69.4651 35.6046 69.4651 35.6548C69.4651 35.6629 69.4651 35.671 69.4651 35.6791C69.4651 35.6793 69.4651 35.6795 69.4651 35.6797C69.4651 36.6691 69.4618 37.6587 69.4601 38.6482C69.4584 39.7109 69.4564 40.7735 69.4549 41.8362C69.4541 42.3458 69.4533 42.8555 69.4522 43.3652C69.708 43.3795 69.9636 43.3963 70.2192 43.4122C71.6063 43.5643 79.0445 43.781 79.2099 45.1158Z" fill="#FFEAB2"/>
</g>
<mask id="mask1_513_13075" style="mask-type:luminance" maskUnits="userSpaceOnUse" x="44" y="36" width="26" height="8">
<path d="M44.2678 36.6953H69.5231V43.5179H44.2678V36.6953Z" fill="white"/>
</mask>
<g mask="url(#mask1_513_13075)">
<path d="M69.5016 38.4265C69.5016 38.9632 69.4979 39.4993 69.496 40.0359C69.4938 40.7416 69.4913 41.4472 69.4888 42.1535C69.488 42.396 69.4871 42.6385 69.4863 42.8816V42.8822C69.4863 42.8884 69.4863 42.8947 69.4863 42.9003C69.4863 42.9009 69.4863 42.9015 69.4863 42.9015C69.4863 42.9053 69.4863 42.9084 69.4863 42.9121C69.4863 42.9264 69.4863 42.9408 69.4861 42.9551C69.5101 43.1864 69.4695 43.4781 69.3545 43.475C61.2815 42.166 53.1844 42.1385 45.1075 43.159C44.8852 43.1895 44.663 43.2219 44.4407 43.2543C44.3685 43.2643 44.3043 43.1066 44.2988 42.8853C44.2975 42.8342 44.2998 42.7837 44.305 42.7363C44.3023 42.3935 44.3017 42.05 44.3 41.7072C44.2961 40.9666 44.2921 40.2261 44.2886 39.4855C44.2863 39.0666 44.2853 38.6477 44.2822 38.2282C44.2822 38.2226 44.282 38.2176 44.282 38.212C44.282 38.2058 44.282 38.2002 44.282 38.1939C44.2812 37.9764 44.3333 37.7869 44.4076 37.7757C44.4252 37.7725 44.4426 37.7813 44.4589 37.7994C44.8931 37.7426 45.3273 37.6716 45.7616 37.6211C53.2516 36.7353 60.7549 36.7646 68.2418 37.8405C68.612 37.8991 68.982 37.9552 69.352 38.0219C69.3561 38.0225 69.3601 38.0244 69.3638 38.0263C69.3659 38.0256 69.3677 38.0256 69.3698 38.0256C69.442 38.0269 69.5016 38.2095 69.5016 38.4265Z" fill="#27A924"/>
</g>
</g>
<ellipse cx="60.0257" cy="66.22" rx="2.5" ry="3.5" fill="white"/>
<ellipse cx="73.0257" cy="66.22" rx="2.5" ry="3.5" fill="white"/>
<path d="M65.1572 94.3698C63.8401 94.8244 62.7608 95.2121 62.751 95.2326C62.7413 95.253 62.8274 95.5453 62.9406 95.8756C63.5918 97.7688 64.0398 99.8561 64.0634 101.088C64.0816 102.005 63.9474 102.559 63.6235 102.921C63.1665 103.436 61.9492 103.923 59.6938 104.491C58.0637 105.431 58.0899 106.944 58.3499 107.434C58.5265 108.146 60.1334 108.909 61.3883 108.887C62.6433 108.865 66.6301 107.407 67.7934 105.92C68.2117 105.391 68.7509 104.253 68.9171 103.56C69.4913 101.183 69.1701 98.4632 67.8118 94.2685C67.6898 93.8937 67.5809 93.5755 67.5705 93.5656C67.5602 93.5556 66.4744 93.9151 65.1572 94.3698Z" fill="#343434"/>
<path d="M54.6709 96.7158C54.0178 96.9444 53.3959 97.1672 53.2871 97.2014C52.8144 97.3593 51.1549 97.9475 51.1432 97.9589C51.1404 97.9686 51.2922 98.4333 51.4846 98.9918C52.278 101.327 52.7451 102.857 53.7639 106.492C53.9124 107.012 54.3396 108.674 54.8558 110.712C55.4569 113.078 55.3521 112.75 55.6042 113.527C56.0057 115.043 57.2127 115.387 58.3161 115.18C59.4195 114.973 60.4193 114.214 60.4453 112.618C60.3682 112.208 60.3936 111.705 59.9259 109.852C59.7774 109.257 59.617 108.624 59.5693 108.444C59.5217 108.264 59.4036 107.807 59.3103 107.432C59.2125 107.059 59.1047 106.632 59.0638 106.488C59.0273 106.342 58.9225 105.956 58.834 105.632C58.1574 103.109 57.3968 100.555 56.6376 98.2547C56.0475 96.4619 55.9726 96.2593 55.9067 96.2763C55.8808 96.2858 55.3231 96.4827 54.6709 96.7158Z" fill="#343434"/>
<defs>
<filter id="filter0_f_513_13075" x="8.5257" y="76.8276" width="94.8849" height="64.8699" filterUnits="userSpaceOnUse" color-interpolation-filters="sRGB">
<feFlood flood-opacity="0" result="BackgroundImageFix"/>
<feBlend mode="normal" in="SourceGraphic" in2="BackgroundImageFix" result="shape"/>
<feGaussianBlur stdDeviation="10.5" result="effect1_foregroundBlur_513_13075"/>
</filter>
<filter id="filter1_d_513_13075" x="0.525696" y="15" width="113" height="123" filterUnits="userSpaceOnUse" color-interpolation-filters="sRGB">
<feFlood flood-opacity="0" result="BackgroundImageFix"/>
<feColorMatrix in="SourceAlpha" type="matrix" values="0 0 0 0 0 0 0 0 0 0 0 0 0 0 0 0 0 0 127 0" result="hardAlpha"/>
<feOffset dy="4"/>
<feGaussianBlur stdDeviation="16"/>
<feComposite in2="hardAlpha" operator="out"/>
<feColorMatrix type="matrix" values="0 0 0 0 0 0 0 0 0 0 0 0 0 0 0 0 0 0 0.15 0"/>
<feBlend mode="normal" in2="BackgroundImageFix" result="effect1_dropShadow_513_13075"/>
<feBlend mode="normal" in="SourceGraphic" in2="effect1_dropShadow_513_13075" result="shape"/>
</filter>
<filter id="filter2_d_513_13075" x="1.68457" y="0.844727" width="109.539" height="82.5576" filterUnits="userSpaceOnUse" color-interpolation-filters="sRGB">
<feFlood flood-opacity="0" result="BackgroundImageFix"/>
<feColorMatrix in="SourceAlpha" type="matrix" values="0 0 0 0 0 0 0 0 0 0 0 0 0 0 0 0 0 0 127 0" result="hardAlpha"/>
<feOffset dy="4"/>
<feGaussianBlur stdDeviation="16"/>
<feComposite in2="hardAlpha" operator="out"/>
<feColorMatrix type="matrix" values="0 0 0 0 0 0 0 0 0 0 0 0 0 0 0 0 0 0 0.15 0"/>
<feBlend mode="normal" in2="BackgroundImageFix" result="effect1_dropShadow_513_13075"/>
<feBlend mode="normal" in="SourceGraphic" in2="effect1_dropShadow_513_13075" result="shape"/>
</filter>
</defs>
</svg>
