<svg width="123" height="135" viewBox="0 0 123 135" fill="none" xmlns="http://www.w3.org/2000/svg">
<g opacity="0.2" filter="url(#filter0_f_489_13288)">
<ellipse cx="61.9681" cy="101.849" rx="26.4424" ry="11.435" fill="black"/>
</g>
<g filter="url(#filter1_d_489_13288)">
<path d="M60.3888 40.4663C58.2371 40.6025 57.1612 40.7251 56.848 40.8612C56.6982 40.9293 56.3986 41.011 56.1671 41.0383C55.9492 41.0791 55.173 41.2698 54.4648 41.4605C53.7567 41.6647 53.0076 41.869 52.8034 41.9099C52.5855 41.9507 52.4221 42.0324 52.4221 42.1005C52.4221 42.1686 52.2995 42.2231 52.1497 42.2231C51.9999 42.2231 51.7684 42.2776 51.6322 42.3456C51.5096 42.4137 51.1556 42.5772 50.856 42.6997C49.8482 43.1219 47.2335 44.4565 47.002 44.6744C46.8794 44.7833 46.607 44.9604 46.4164 45.0557C46.2257 45.1646 45.8853 45.3961 45.681 45.5732C45.4767 45.7502 45.2588 45.9 45.2044 45.9C45.1635 45.9 45.0001 46.009 44.8503 46.1315C44.7141 46.2677 44.3464 46.5537 44.0468 46.7852C43.325 47.3299 40.4652 50.1898 39.9477 50.8707C39.7298 51.1703 39.4438 51.538 39.3212 51.6742C39.1851 51.824 39.0761 51.9874 39.0761 52.0283C39.0761 52.0827 38.9263 52.3006 38.7356 52.5185C38.545 52.7364 38.3952 52.9952 38.3952 53.0769C38.3952 53.1722 38.3407 53.2539 38.259 53.2539C38.1909 53.2539 38.1228 53.3356 38.1228 53.4446C38.1228 53.5535 38.082 53.6625 38.0139 53.6897C37.8505 53.7578 36.8972 55.4328 36.8972 55.6507C36.8972 55.7597 36.8427 55.8414 36.761 55.8414C36.6929 55.8414 36.6248 55.964 36.6248 56.1138C36.6248 56.2636 36.5703 56.3861 36.4886 56.3861C36.4205 56.3861 36.3524 56.4542 36.3524 56.5223C36.3524 56.604 36.2026 56.9717 36.012 57.3667C35.8213 57.748 35.6715 58.1565 35.6715 58.2518C35.6715 58.3472 35.6171 58.4289 35.5353 58.4289C35.4673 58.4289 35.3992 58.5651 35.3992 58.7421C35.3992 58.9191 35.3447 59.1098 35.2766 59.1779C35.2085 59.2596 34.9906 59.8043 34.7863 60.4035C34.5957 61.0027 34.3778 61.6019 34.3097 61.7245C34.228 61.8607 34.1735 62.0922 34.1735 62.2284C34.1735 62.3782 34.119 62.5416 34.0373 62.5825C33.9692 62.6233 33.9011 62.8821 33.9011 63.1408C33.9011 63.3996 33.8467 63.6038 33.7922 63.6038C33.7377 63.6038 33.6015 63.9852 33.5062 64.4482C33.4109 64.9248 33.2475 65.6194 33.1385 66.0143C33.0296 66.3956 32.9479 66.9539 32.9479 67.2399C32.9479 67.5259 32.8934 67.8255 32.8253 67.8936C32.6891 68.0434 32.5257 70.2223 32.5257 71.911C32.5257 74.7981 33.1658 78.0937 34.0509 79.8369C34.119 79.9731 34.1735 80.1773 34.1735 80.2863C34.1735 80.3952 34.2416 80.4906 34.3097 80.4906C34.3914 80.4906 34.4459 80.5995 34.4459 80.7221C34.4595 80.8583 34.6365 81.2668 34.868 81.6481C35.0859 82.0158 35.3038 82.438 35.3583 82.5605C35.3992 82.6967 35.4809 82.8057 35.549 82.8057C35.6171 82.8057 35.6715 82.8601 35.6715 82.9419C35.6715 83.0917 36.6384 84.4807 36.7882 84.5488C36.8563 84.5761 36.8972 84.6714 36.8972 84.7531C36.8972 84.971 40.22 88.2258 40.8737 88.6615C41.1597 88.8522 41.3912 89.0429 41.3912 89.0973C41.3912 89.1654 41.4865 89.2063 41.5955 89.2063C41.7044 89.2063 41.7998 89.2608 41.7998 89.3425C41.7998 89.4106 41.8815 89.4786 41.9768 89.4786C42.0721 89.4786 42.2764 89.5876 42.4262 89.7238C42.5624 89.8463 42.9437 90.0779 43.2569 90.2277C43.5838 90.3775 43.8425 90.5409 43.8425 90.5954C43.8425 90.6634 43.9651 90.7043 44.1149 90.7043C44.2647 90.7043 44.3873 90.7588 44.3873 90.8405C44.3873 90.9086 44.4962 90.9767 44.6324 90.9767C44.7686 90.9767 44.932 91.0311 45.0137 91.0856C45.0818 91.1537 45.572 91.3716 46.0895 91.5759C46.6207 91.7938 47.1518 92.0117 47.2743 92.0797C47.4105 92.1478 47.642 92.2023 47.7918 92.2023C47.9416 92.2023 48.0642 92.2568 48.0642 92.3385C48.0642 92.4066 48.214 92.4747 48.4047 92.4747C48.5953 92.4747 48.8541 92.5292 48.9902 92.6109C49.3307 92.8015 50.9104 93.2918 51.5096 93.3871C51.782 93.428 52.0135 93.5097 52.0135 93.5641C52.0135 93.6186 52.245 93.7003 52.531 93.7412C52.8034 93.782 53.7703 93.9727 54.6691 94.1634C56.6437 94.6128 57.8558 94.7898 59.2993 94.8715C59.8985 94.9124 60.5113 94.9941 60.6748 95.0758C61.0833 95.2801 64.6785 95.0622 67.266 94.6672C68.1512 94.5447 69.8535 94.1906 70.8749 93.9455C71.1745 93.8774 71.6511 93.782 71.9371 93.7412C72.2095 93.7003 72.441 93.6186 72.441 93.5505C72.441 93.4824 72.5908 93.428 72.7678 93.428C73.1083 93.428 75.9954 92.5564 76.4175 92.3249C76.5537 92.2568 76.7852 92.2023 76.935 92.2023C77.0848 92.2023 77.2074 92.1342 77.2074 92.0661C77.2074 91.9844 77.33 91.9299 77.4798 91.9299C77.6296 91.9299 78.1062 91.7665 78.5284 91.5623C80.2307 90.786 81.0886 90.3638 81.1567 90.2821C81.1976 90.2413 81.4427 90.0915 81.7151 89.9689C81.9874 89.8463 82.3415 89.6148 82.4913 89.4786C82.6547 89.3288 82.8181 89.2063 82.859 89.2063C82.9135 89.2063 83.036 89.1246 83.1314 89.0429C83.431 88.7705 83.6352 88.6207 84.1527 88.253C84.7656 87.8172 86.9717 85.6247 87.4892 84.9165C87.7207 84.6169 88.0067 84.2492 88.1429 84.113C88.2655 83.9632 88.3744 83.7862 88.3744 83.7317C88.3744 83.6636 88.4834 83.5002 88.6195 83.3504C88.7421 83.2142 88.9736 82.8601 89.1234 82.5742C89.2732 82.2882 89.423 82.0294 89.4639 81.9886C89.6001 81.866 90.3899 80.1501 90.4853 79.7688C90.5397 79.5645 90.6351 79.3602 90.7032 79.3194C90.7712 79.2785 90.8257 79.1015 90.8257 78.9108C90.8257 78.7338 90.8938 78.584 90.9619 78.584C91.0436 78.584 91.0981 78.407 91.0981 78.1891C91.0981 77.9575 91.1526 77.7397 91.2343 77.6988C91.3024 77.6579 91.3704 77.4809 91.3704 77.3311C91.3704 77.1677 91.4249 76.8545 91.5066 76.623C91.7109 75.9284 92.0514 73.0005 92.0514 71.8429C92.0514 70.0317 91.5475 66.2186 91.2206 65.6194C91.1526 65.4832 91.0981 65.1427 91.0981 64.8567C91.0981 64.5707 91.0436 64.2848 90.9755 64.203C90.921 64.135 90.7576 63.6855 90.6351 63.1953C90.3082 61.9969 90.104 61.3841 89.9814 61.2206C89.9269 61.1525 89.8724 60.921 89.8724 60.7168C89.8724 60.5125 89.818 60.3354 89.7363 60.3354C89.6682 60.3354 89.6001 60.1856 89.6001 59.995C89.6001 59.8043 89.5592 59.6545 89.4911 59.6545C89.4366 59.6545 89.3141 59.4094 89.2324 59.1098C88.9464 58.2382 87.4211 54.9834 87.2577 54.9154C87.1896 54.8881 87.1488 54.7792 87.1488 54.6702C87.1488 54.5613 87.0943 54.4796 87.0126 54.4796C86.9445 54.4796 86.8764 54.357 86.8764 54.2208C86.8764 54.071 86.8356 53.9348 86.7811 53.9076C86.6449 53.8531 85.9231 52.75 85.9231 52.6002C85.9231 52.5458 85.8006 52.4096 85.6508 52.3006C85.5009 52.1917 85.3784 52.0555 85.3784 51.9874C85.3784 51.6333 81.7832 47.7521 80.8163 47.0576C80.5984 46.9078 80.2988 46.6627 80.149 46.5128C79.9855 46.363 79.4817 45.9954 79.0186 45.6958C78.542 45.3961 78.1607 45.1102 78.1607 45.0421C78.1607 44.9876 78.0926 44.9467 78.0109 44.9467C77.9292 44.9467 77.6977 44.8378 77.507 44.688C77.1938 44.4701 76.5673 44.1296 75.0966 43.3534C74.9468 43.2717 74.4293 43.0402 73.939 42.8359C73.4487 42.6316 72.9449 42.4137 72.8223 42.3456C72.6861 42.2776 72.4818 42.2231 72.3729 42.2231C72.2639 42.2231 72.1686 42.155 72.1686 42.0869C72.1686 42.0052 71.9916 41.9507 71.7873 41.9507C71.583 41.9507 71.3515 41.8962 71.2698 41.8281C71.2017 41.7737 70.6842 41.6103 70.1259 41.4741C69.5675 41.3515 68.9956 41.1881 68.873 41.12C68.7368 41.0519 68.41 40.9974 68.1512 40.9974C67.8925 40.9974 67.6746 40.9293 67.6746 40.8612C67.6746 40.7795 67.3477 40.7251 66.9664 40.7251C66.5715 40.7251 66.0268 40.6706 65.768 40.6025C65.1007 40.4255 62.1728 40.3574 60.3888 40.4663Z" fill="#333333"/>
</g>
<g filter="url(#filter2_d_489_13288)">
<mask id="mask0_489_13288" style="mask-type:luminance" maskUnits="userSpaceOnUse" x="39" y="28" width="47" height="20">
<path d="M39.5257 28.4141H85.4933V47.0333H39.5257V28.4141Z" fill="white"/>
</mask>
<g mask="url(#mask0_489_13288)">
<path d="M74.5945 35.5513C74.5963 35.5347 74.5984 35.5182 74.6013 35.5014C74.5984 35.5182 74.5961 35.5347 74.5945 35.5513ZM85.2099 44.7022C85.4804 45.8979 81.6131 46.0879 80.7779 46.2395C73.6957 46.9603 66.5619 47.0201 59.4489 46.9789C57.2017 46.8962 39.5392 46.8637 39.6855 44.8396C39.6861 44.8394 39.6865 44.8394 39.6871 44.8394C39.6288 43.8262 42.338 43.6586 43.0946 43.5067C44.4406 43.3256 45.7933 43.2045 47.1471 43.1031C48.2509 43.0216 49.356 42.9533 50.4613 42.8991C50.4162 42.0724 50.3677 41.2456 50.3214 40.4191C50.2632 39.3793 50.2051 38.3394 50.1469 37.2993C50.0894 36.2698 50.0317 35.24 49.9741 34.2103C49.9537 33.8426 49.9336 33.4748 49.9125 33.1071C49.9096 33.0574 49.9162 33.0092 49.9307 32.9641C49.9282 32.877 49.9286 32.7901 49.9336 32.7027C49.9665 32.0144 50.3524 31.4046 50.8218 30.9228C51.8143 29.9061 53.2014 29.4037 54.5533 29.0697C55.1054 28.9445 55.6654 28.8611 56.2275 28.7978C56.2848 28.7738 56.3446 28.7628 56.4059 28.7529C56.4853 28.74 56.5648 28.728 56.6442 28.7173C56.7858 28.6982 56.9273 28.6804 57.0693 28.6639C57.347 28.6316 57.6251 28.6051 57.9045 28.5848C58.4711 28.5443 59.0385 28.5095 59.6064 28.4843C60.1867 28.4582 60.7673 28.4383 61.3484 28.4329C61.9403 28.4276 62.5325 28.435 63.1244 28.447C63.6935 28.4582 64.2621 28.4818 64.8308 28.5041C65.3867 28.5261 65.9433 28.5422 66.4988 28.5749C67.0562 28.6076 67.6129 28.6535 68.1696 28.6986C68.4206 28.7189 68.6722 28.7367 68.9233 28.7582C68.9235 28.7582 68.9235 28.7582 68.9235 28.7582C68.9897 28.7558 69.0586 28.7663 69.1246 28.7765C69.2527 28.7887 69.3806 28.8021 69.5081 28.8178C69.5404 28.822 69.5776 28.8236 69.6103 28.8319C69.6211 28.8346 69.6314 28.8375 69.6418 28.8404C69.8841 28.8696 70.126 28.9 70.3665 28.9424C71.7557 29.2001 73.393 29.7518 74.3377 30.8498C75.2163 31.7723 75.3883 33.0543 75.426 34.2761C75.4282 34.5495 75.4396 34.8232 75.4409 35.0968C75.4566 35.1424 75.4651 35.191 75.4651 35.2413C75.4651 35.2493 75.4651 35.2574 75.4651 35.2655C75.4651 35.2657 75.4651 35.2659 75.4651 35.2661C75.4651 36.2555 75.4618 37.2451 75.4601 38.2347C75.4585 39.2973 75.4564 40.3599 75.4549 41.4226C75.4541 41.9323 75.4533 42.442 75.4522 42.9517C75.708 42.9659 75.9636 42.9827 76.2192 42.9986C77.6063 43.1507 85.0446 43.3674 85.2099 44.7022Z" fill="#FFEAB2"/>
</g>
<mask id="mask1_489_13288" style="mask-type:luminance" maskUnits="userSpaceOnUse" x="50" y="36" width="26" height="8">
<path d="M50.2678 36.2817H75.5231V43.1044H50.2678V36.2817Z" fill="white"/>
</mask>
<g mask="url(#mask1_489_13288)">
<path d="M75.5016 38.0129C75.5016 38.5496 75.4979 39.0857 75.496 39.6224C75.4938 40.328 75.4913 41.0337 75.4888 41.7399C75.488 41.9824 75.4871 42.2249 75.4863 42.468V42.4686C75.4863 42.4748 75.4863 42.4811 75.4863 42.4867C75.4863 42.4873 75.4863 42.4879 75.4863 42.4879C75.4863 42.4917 75.4863 42.4948 75.4863 42.4985C75.4863 42.5129 75.4863 42.5272 75.4861 42.5415C75.5101 42.7728 75.4695 43.0645 75.3545 43.0614C67.2815 41.7524 59.1844 41.725 51.1075 42.7454C50.8852 42.7759 50.663 42.8083 50.4407 42.8408C50.3685 42.8507 50.3043 42.693 50.2988 42.4717C50.2975 42.4206 50.2998 42.3701 50.305 42.3227C50.3023 41.9799 50.3017 41.6364 50.3 41.2936C50.2961 40.5531 50.2921 39.8125 50.2886 39.072C50.2863 38.6531 50.2853 38.2342 50.2822 37.8147C50.2822 37.809 50.282 37.8041 50.282 37.7984C50.282 37.7922 50.282 37.7866 50.282 37.7804C50.2812 37.5628 50.3333 37.3733 50.4076 37.3621C50.4252 37.359 50.4426 37.3677 50.4589 37.3858C50.8931 37.3291 51.3273 37.258 51.7616 37.2075C59.2516 36.3217 66.7549 36.351 74.2418 37.4269C74.612 37.4855 74.982 37.5416 75.352 37.6083C75.3561 37.609 75.3601 37.6108 75.3638 37.6127C75.3659 37.6121 75.3677 37.6121 75.3698 37.6121C75.442 37.6133 75.5016 37.7959 75.5016 38.0129Z" fill="#DC9E00"/>
</g>
</g>
<ellipse cx="66.0257" cy="64.6338" rx="2.5" ry="3.5" fill="white"/>
<ellipse cx="79.0257" cy="64.6338" rx="2.5" ry="3.5" fill="white"/>
<path d="M57.2474 90.5729C57.021 90.6484 56.6185 90.8999 56.3543 91.1138C55.5115 91.8182 55.499 91.9943 55.5367 98.1326C55.5619 101.277 55.6248 103.843 55.7002 104.271C56.1153 106.46 58.5807 107.239 59.9643 105.617C60.1782 105.378 60.3794 105 60.4423 104.799C60.5807 104.246 60.6184 98.4596 60.5052 95.1012C60.4172 92.2836 60.4046 92.1955 60.0901 91.6924C59.7253 91.1138 59.2725 90.7616 58.631 90.5477C58.1027 90.3591 57.8008 90.3716 57.2474 90.5729Z" fill="#333333"/>
<path d="M68.3495 87.5708C67.8212 87.7972 67.1797 88.3633 66.9533 88.8035C66.6514 89.3947 66.5256 91.6337 66.5256 96.8412V101.709L66.9407 102.313C68.1105 104.074 70.5256 103.785 71.2803 101.797C71.5445 101.08 71.5822 100.351 71.5948 94.9167C71.6199 89.5205 71.6074 89.4702 71.3306 88.879C70.7772 87.7092 69.4061 87.1054 68.3495 87.5708Z" fill="#333333"/>
<defs>
<filter id="filter0_f_489_13288" x="14.5257" y="69.4138" width="94.8849" height="64.8699" filterUnits="userSpaceOnUse" color-interpolation-filters="sRGB">
<feFlood flood-opacity="0" result="BackgroundImageFix"/>
<feBlend mode="normal" in="SourceGraphic" in2="BackgroundImageFix" result="shape"/>
<feGaussianBlur stdDeviation="10.5" result="effect1_foregroundBlur_489_13288"/>
</filter>
<filter id="filter1_d_489_13288" x="0.525696" y="12.4138" width="123.526" height="118.74" filterUnits="userSpaceOnUse" color-interpolation-filters="sRGB">
<feFlood flood-opacity="0" result="BackgroundImageFix"/>
<feColorMatrix in="SourceAlpha" type="matrix" values="0 0 0 0 0 0 0 0 0 0 0 0 0 0 0 0 0 0 127 0" result="hardAlpha"/>
<feOffset dy="4"/>
<feGaussianBlur stdDeviation="16"/>
<feComposite in2="hardAlpha" operator="out"/>
<feColorMatrix type="matrix" values="0 0 0 0 0 0 0 0 0 0 0 0 0 0 0 0 0 0 0.15 0"/>
<feBlend mode="normal" in2="BackgroundImageFix" result="effect1_dropShadow_489_13288"/>
<feBlend mode="normal" in="SourceGraphic" in2="effect1_dropShadow_489_13288" result="shape"/>
</filter>
<filter id="filter2_d_489_13288" x="7.68457" y="0.431152" width="109.539" height="82.5576" filterUnits="userSpaceOnUse" color-interpolation-filters="sRGB">
<feFlood flood-opacity="0" result="BackgroundImageFix"/>
<feColorMatrix in="SourceAlpha" type="matrix" values="0 0 0 0 0 0 0 0 0 0 0 0 0 0 0 0 0 0 127 0" result="hardAlpha"/>
<feOffset dy="4"/>
<feGaussianBlur stdDeviation="16"/>
<feComposite in2="hardAlpha" operator="out"/>
<feColorMatrix type="matrix" values="0 0 0 0 0 0 0 0 0 0 0 0 0 0 0 0 0 0 0.15 0"/>
<feBlend mode="normal" in2="BackgroundImageFix" result="effect1_dropShadow_489_13288"/>
<feBlend mode="normal" in="SourceGraphic" in2="effect1_dropShadow_489_13288" result="shape"/>
</filter>
</defs>
</svg>
