<svg width="107" height="142" viewBox="0 0 107 142" fill="none" xmlns="http://www.w3.org/2000/svg">
<g opacity="0.2" filter="url(#filter0_f_513_13045)">
<ellipse cx="49.4424" cy="108.677" rx="26.4424" ry="11.435" fill="black"/>
</g>
<g filter="url(#filter1_d_513_13045)">
<path d="M39.1142 42.7911C38.101 42.9886 36.9036 43.2454 36.443 43.3837C34.9693 43.7787 32.1139 44.8453 32.0586 45.0033C32.0218 45.0823 31.9112 45.1613 31.8007 45.1613C31.5796 45.1613 29.6269 46.781 29.2585 47.2747C28.6137 48.1636 28.1532 48.9141 28.1532 49.1117C28.1532 49.2104 28.0795 49.3092 28.0058 49.3092C27.49 49.3092 26.2373 54.5434 26.0531 57.5061C25.8504 60.5874 26.2741 86.5806 26.5505 88.8125C26.8452 91.0839 27.14 92.5456 27.49 93.4541C27.6189 93.7702 27.84 94.3627 27.9689 94.738C28.8716 97.2662 31.2849 99.1624 34.9693 100.209C39.0221 101.355 39.7958 101.414 50.5358 101.414C59.5809 101.414 61.6073 101.315 63.7074 100.802C64.3706 100.624 65.3285 100.387 65.8259 100.268C66.3418 100.15 67.0049 99.9129 67.3365 99.7549C67.6497 99.5969 67.9629 99.4784 68.0181 99.4784C68.0918 99.4784 68.6629 99.2216 69.2893 98.9056C70.3946 98.3328 71.4446 97.3452 72.421 95.9231C73.0105 95.054 73.9132 92.1308 74.1895 90.2149C74.3184 89.4051 74.4658 88.6545 74.5211 88.536C74.65 88.3385 75 67.5795 75 60.7651C75 59.185 74.9079 57.0913 74.779 56.1235C74.5395 54.1878 74.0421 51.6991 73.8395 51.3831C73.7658 51.2646 73.6552 50.9288 73.5816 50.593C73.2684 49.2499 70.6709 45.7539 69.9709 45.7539C69.8603 45.7539 69.7866 45.6749 69.7866 45.5959C69.7866 45.3983 68.2945 44.5688 67.9629 44.5688C67.8523 44.5688 67.6129 44.4898 67.4286 44.391C67.2628 44.2725 66.4891 43.996 65.7338 43.7787C64.9785 43.5417 64.1127 43.2652 63.7995 43.1664C61.81 42.5344 59.452 42.3961 50.241 42.4158C42.1354 42.4356 40.7169 42.4751 39.1142 42.7911Z" fill="#333333"/>
<ellipse cx="43.5" cy="65.6389" rx="2.5" ry="3.5" fill="white"/>
<ellipse cx="56.5" cy="65.6389" rx="2.5" ry="3.5" fill="white"/>
</g>
<g filter="url(#filter2_d_513_13045)">
<mask id="mask0_513_13045" style="mask-type:luminance" maskUnits="userSpaceOnUse" x="27" y="28" width="46" height="19">
<path d="M27 28.2417H72.9676V46.861H27V28.2417Z" fill="white"/>
</mask>
<g mask="url(#mask0_513_13045)">
<path d="M62.0688 35.3789C62.0706 35.3624 62.0727 35.3458 62.0756 35.329C62.0727 35.3458 62.0704 35.3624 62.0688 35.3789ZM72.6842 44.5298C72.9547 45.7255 69.0874 45.9155 68.2522 46.0672C61.17 46.788 54.0362 46.8478 46.9232 46.8066C44.676 46.7238 27.0135 46.6913 27.1598 44.6672C27.1604 44.667 27.1608 44.667 27.1614 44.667C27.1031 43.6538 29.8123 43.4862 30.5689 43.3343C31.9149 43.1532 33.2676 43.0322 34.6214 42.9308C35.7253 42.8492 36.8303 42.781 37.9356 42.7267C37.8905 41.9 37.842 41.0733 37.7957 40.2468C37.7375 39.2069 37.6794 38.167 37.6212 37.1269C37.5637 36.0974 37.506 35.0677 37.4484 34.0379C37.428 33.6702 37.4079 33.3025 37.3868 32.9347C37.3839 32.8851 37.3905 32.8368 37.405 32.7917C37.4025 32.7046 37.4029 32.6177 37.4079 32.5304C37.4408 31.8421 37.8267 31.2322 38.2961 30.7505C39.2886 29.7338 40.6757 29.2313 42.0276 28.8973C42.5797 28.7721 43.1397 28.6887 43.7018 28.6254C43.7591 28.6014 43.8189 28.5904 43.8802 28.5805C43.9596 28.5677 44.0391 28.5557 44.1186 28.5449C44.2601 28.5259 44.4016 28.5081 44.5436 28.4915C44.8213 28.4592 45.0994 28.4327 45.3788 28.4125C45.9454 28.3719 46.5129 28.3371 47.0807 28.3119C47.661 28.2858 48.2416 28.2659 48.8227 28.2606C49.4146 28.2552 50.0068 28.2626 50.5987 28.2746C51.1678 28.2858 51.7364 28.3094 52.3051 28.3318C52.861 28.3537 53.4176 28.3698 53.9731 28.4025C54.5306 28.4352 55.0872 28.4812 55.6439 28.5263C55.8949 28.5466 56.1465 28.5644 56.3976 28.5859C56.3978 28.5859 56.3978 28.5859 56.3978 28.5859C56.464 28.5834 56.5329 28.5939 56.5989 28.6041C56.727 28.6163 56.8549 28.6297 56.9824 28.6455C57.0147 28.6496 57.0519 28.6513 57.0846 28.6595C57.0954 28.6622 57.1057 28.6651 57.1161 28.668C57.3584 28.6972 57.6003 28.7276 57.8408 28.7701C59.23 29.0277 60.8673 29.5794 61.812 30.6774C62.6906 31.6 62.8626 32.882 62.9003 34.1037C62.9025 34.3771 62.9139 34.6509 62.9152 34.9245C62.9309 34.97 62.9394 35.0186 62.9394 35.0689C62.9394 35.077 62.9394 35.085 62.9394 35.0931C62.9394 35.0933 62.9394 35.0935 62.9394 35.0937C62.9394 36.0831 62.9361 37.0727 62.9344 38.0623C62.9328 39.1249 62.9307 40.1876 62.9292 41.2502C62.9284 41.7599 62.9276 42.2696 62.9265 42.7793C63.1823 42.7936 63.4379 42.8103 63.6935 42.8263C65.0806 42.9784 72.5189 43.1951 72.6842 44.5298Z" fill="#FFEAB2"/>
</g>
<mask id="mask1_513_13045" style="mask-type:luminance" maskUnits="userSpaceOnUse" x="37" y="36" width="26" height="7">
<path d="M37.7421 36.1094H62.9974V42.932H37.7421V36.1094Z" fill="white"/>
</mask>
<g mask="url(#mask1_513_13045)">
<path d="M62.976 37.8405C62.976 38.3772 62.9722 38.9133 62.9704 39.45C62.9681 40.1557 62.9656 40.8613 62.9631 41.5676C62.9623 41.81 62.9615 42.0525 62.9606 42.2956V42.2963C62.9606 42.3025 62.9606 42.3087 62.9606 42.3143C62.9606 42.315 62.9606 42.3156 62.9606 42.3156C62.9606 42.3193 62.9606 42.3224 62.9606 42.3262C62.9606 42.3405 62.9606 42.3549 62.9604 42.3692C62.9844 42.6004 62.9439 42.8922 62.8288 42.8891C54.7559 41.58 46.6587 41.5526 38.5818 42.573C38.3596 42.6036 38.1373 42.636 37.9151 42.6684C37.8428 42.6784 37.7787 42.5207 37.7731 42.2994C37.7719 42.2483 37.7741 42.1978 37.7793 42.1504C37.7766 41.8075 37.776 41.4641 37.7743 41.1212C37.7704 40.3807 37.7665 39.6401 37.763 38.8996C37.7607 38.4807 37.7596 38.0618 37.7565 37.6423C37.7565 37.6367 37.7563 37.6317 37.7563 37.6261C37.7563 37.6199 37.7563 37.6142 37.7563 37.608C37.7555 37.3905 37.8077 37.201 37.8819 37.1897C37.8995 37.1866 37.9169 37.1953 37.9333 37.2134C38.3674 37.1567 38.8016 37.0856 39.236 37.0351C46.726 36.1493 54.2292 36.1786 61.7161 37.2546C62.0863 37.3132 62.4563 37.3693 62.8263 37.436C62.8305 37.4366 62.8344 37.4385 62.8381 37.4403C62.8402 37.4397 62.8421 37.4397 62.8441 37.4397C62.9164 37.4409 62.976 37.6236 62.976 37.8405Z" fill="#27A924"/>
</g>
</g>
<path d="M42.7217 92.5731C42.4953 92.6486 42.0928 92.9002 41.8287 93.114C40.9859 93.8184 40.9733 93.9945 41.0111 100.133C41.0362 103.277 41.0991 105.843 41.1746 106.271C41.5897 108.46 44.0551 109.24 45.4387 107.617C45.6525 107.378 45.8538 107.001 45.9167 106.799C46.0551 106.246 46.0928 100.46 45.9796 97.1014C45.8915 94.2838 45.879 94.1958 45.5645 93.6926C45.1997 93.114 44.7469 92.7618 44.1054 92.548C43.5771 92.3593 43.2752 92.3719 42.7217 92.5731Z" fill="#333333"/>
<path d="M55.7959 99.5318C55.2757 99.7009 54.644 100.124 54.4211 100.453C54.1239 100.894 54 102.524 54 106.414V109.914L54.4087 110.545C55.5606 111.86 57.9386 111.644 58.6817 110.159C58.9418 109.624 58.979 109.079 58.9914 105.019C59.0161 100.988 59.0038 100.951 58.7313 100.509C58.1863 99.6351 56.8363 99.1841 55.7959 99.5318Z" fill="#333333"/>
<defs>
<filter id="filter0_f_513_13045" x="2" y="76.2417" width="94.8849" height="64.8699" filterUnits="userSpaceOnUse" color-interpolation-filters="sRGB">
<feFlood flood-opacity="0" result="BackgroundImageFix"/>
<feBlend mode="normal" in="SourceGraphic" in2="BackgroundImageFix" result="shape"/>
<feGaussianBlur stdDeviation="10.5" result="effect1_foregroundBlur_513_13045"/>
</filter>
<filter id="filter1_d_513_13045" x="-6" y="14.4141" width="113" height="123" filterUnits="userSpaceOnUse" color-interpolation-filters="sRGB">
<feFlood flood-opacity="0" result="BackgroundImageFix"/>
<feColorMatrix in="SourceAlpha" type="matrix" values="0 0 0 0 0 0 0 0 0 0 0 0 0 0 0 0 0 0 127 0" result="hardAlpha"/>
<feOffset dy="4"/>
<feGaussianBlur stdDeviation="16"/>
<feComposite in2="hardAlpha" operator="out"/>
<feColorMatrix type="matrix" values="0 0 0 0 0 0 0 0 0 0 0 0 0 0 0 0 0 0 0.15 0"/>
<feBlend mode="normal" in2="BackgroundImageFix" result="effect1_dropShadow_513_13045"/>
<feBlend mode="normal" in="SourceGraphic" in2="effect1_dropShadow_513_13045" result="shape"/>
</filter>
<filter id="filter2_d_513_13045" x="-4.84113" y="0.258789" width="109.539" height="82.5576" filterUnits="userSpaceOnUse" color-interpolation-filters="sRGB">
<feFlood flood-opacity="0" result="BackgroundImageFix"/>
<feColorMatrix in="SourceAlpha" type="matrix" values="0 0 0 0 0 0 0 0 0 0 0 0 0 0 0 0 0 0 127 0" result="hardAlpha"/>
<feOffset dy="4"/>
<feGaussianBlur stdDeviation="16"/>
<feComposite in2="hardAlpha" operator="out"/>
<feColorMatrix type="matrix" values="0 0 0 0 0 0 0 0 0 0 0 0 0 0 0 0 0 0 0.15 0"/>
<feBlend mode="normal" in2="BackgroundImageFix" result="effect1_dropShadow_513_13045"/>
<feBlend mode="normal" in="SourceGraphic" in2="effect1_dropShadow_513_13045" result="shape"/>
</filter>
</defs>
</svg>
