<svg width="111" height="140" viewBox="0 0 111 140" fill="none" xmlns="http://www.w3.org/2000/svg">
<g opacity="0.2" filter="url(#filter0_f_513_12744)">
<ellipse cx="49.4424" cy="107.263" rx="26.4424" ry="11.435" fill="black"/>
</g>
<g filter="url(#filter1_d_513_12744)">
<path d="M34.1292 44.7453C28.4025 45.2672 26.1616 46.1505 24.3476 48.5193C22.3557 51.0487 22 52.2131 22 55.9469C22 60.6043 22.8181 62.8928 32.3507 84.2522C35.1607 90.5155 38.0418 95.9356 39.5713 97.7022C41.8477 100.312 43.3061 100.713 50.7756 100.713C56.7869 100.713 56.8224 100.713 58.9566 99.5089C60.7351 98.5052 61.3753 97.8226 62.9404 95.2932C64.7189 92.3623 75.0695 69.5174 77.2037 63.7359C79.2667 58.1953 79.4446 54.4213 77.9151 50.9283C75.9944 46.6323 73.7535 45.4278 66.2483 44.7453C61.5176 44.3037 38.7532 44.3037 34.1292 44.7453Z" fill="#333333"/>
<ellipse cx="43.5" cy="68.6389" rx="2.5" ry="3.5" fill="white"/>
<ellipse cx="56.5" cy="68.6389" rx="2.5" ry="3.5" fill="white"/>
</g>
<g filter="url(#filter2_d_513_12744)">
<mask id="mask0_513_12744" style="mask-type:luminance" maskUnits="userSpaceOnUse" x="27" y="28" width="46" height="20">
<path d="M27 28.8281H72.9676V47.4474H27V28.8281Z" fill="white"/>
</mask>
<g mask="url(#mask0_513_12744)">
<path d="M62.0688 35.9653C62.0706 35.9488 62.0727 35.9322 62.0756 35.9155C62.0727 35.9322 62.0704 35.9488 62.0688 35.9653ZM72.6842 45.1162C72.9547 46.3119 69.0874 46.5019 68.2522 46.6536C61.17 47.3744 54.0362 47.4342 46.9232 47.393C44.676 47.3102 27.0135 47.2777 27.1598 45.2536C27.1604 45.2534 27.1608 45.2534 27.1614 45.2534C27.1031 44.2403 29.8123 44.0726 30.5689 43.9207C31.9149 43.7397 33.2676 43.6186 34.6214 43.5172C35.7253 43.4357 36.8303 43.3674 37.9356 43.3132C37.8905 42.4864 37.842 41.6597 37.7957 40.8332C37.7375 39.7933 37.6794 38.7534 37.6212 37.7134C37.5637 36.6838 37.506 35.6541 37.4484 34.6244C37.428 34.2566 37.4079 33.8889 37.3868 33.5212C37.3839 33.4715 37.3905 33.4233 37.405 33.3782C37.4025 33.291 37.4029 33.2041 37.4079 33.1168C37.4408 32.4285 37.8267 31.8187 38.2961 31.3369C39.2886 30.3202 40.6757 29.8177 42.0276 29.4837C42.5797 29.3585 43.1397 29.2751 43.7018 29.2118C43.7591 29.1878 43.8189 29.1769 43.8802 29.1669C43.9596 29.1541 44.0391 29.1421 44.1186 29.1313C44.2601 29.1123 44.4016 29.0945 44.5436 29.0779C44.8213 29.0457 45.0994 29.0192 45.3788 28.9989C45.9454 28.9583 46.5129 28.9236 47.0807 28.8983C47.661 28.8722 48.2416 28.8524 48.8227 28.847C49.4146 28.8416 50.0068 28.8491 50.5987 28.8611C51.1678 28.8722 51.7364 28.8958 52.3051 28.9182C52.861 28.9401 53.4176 28.9563 53.9731 28.989C54.5306 29.0216 55.0872 29.0676 55.6439 29.1127C55.8949 29.133 56.1465 29.1508 56.3976 29.1723C56.3978 29.1723 56.3978 29.1723 56.3978 29.1723C56.464 29.1698 56.5329 29.1804 56.5989 29.1905C56.727 29.2027 56.8549 29.2162 56.9824 29.2319C57.0147 29.236 57.0519 29.2377 57.0846 29.246C57.0954 29.2487 57.1057 29.2516 57.1161 29.2545C57.3584 29.2836 57.6003 29.3141 57.8408 29.3565C59.23 29.6141 60.8673 30.1658 61.812 31.2638C62.6906 32.1864 62.8626 33.4684 62.9003 34.6902C62.9025 34.9635 62.9139 35.2373 62.9152 35.5109C62.9309 35.5564 62.9394 35.605 62.9394 35.6553C62.9394 35.6634 62.9394 35.6715 62.9394 35.6795C62.9394 35.6798 62.9394 35.68 62.9394 35.6802C62.9394 36.6695 62.9361 37.6591 62.9344 38.6487C62.9328 39.7114 62.9307 40.774 62.9292 41.8366C62.9284 42.3463 62.9276 42.856 62.9265 43.3657C63.1823 43.38 63.4379 43.3968 63.6935 43.4127C65.0806 43.5648 72.5189 43.7815 72.6842 45.1162Z" fill="#FFEAB2"/>
</g>
<mask id="mask1_513_12744" style="mask-type:luminance" maskUnits="userSpaceOnUse" x="37" y="36" width="26" height="8">
<path d="M37.7421 36.6958H62.9974V43.5184H37.7421V36.6958Z" fill="white"/>
</mask>
<g mask="url(#mask1_513_12744)">
<path d="M62.9759 38.4269C62.9759 38.9637 62.9722 39.4997 62.9703 40.0364C62.9681 40.7421 62.9656 41.4477 62.9631 42.154C62.9623 42.3965 62.9614 42.6389 62.9606 42.8821V42.8827C62.9606 42.8889 62.9606 42.8951 62.9606 42.9008C62.9606 42.9014 62.9606 42.902 62.9606 42.902C62.9606 42.9057 62.9606 42.9089 62.9606 42.9126C62.9606 42.9269 62.9606 42.9413 62.9604 42.9556C62.9844 43.1869 62.9438 43.4786 62.8288 43.4755C54.7558 42.1664 46.6587 42.139 38.5818 43.1595C38.3595 43.19 38.1373 43.2224 37.915 43.2548C37.8428 43.2648 37.7787 43.1071 37.7731 42.8858C37.7718 42.8347 37.7741 42.7842 37.7793 42.7368C37.7766 42.394 37.776 42.0505 37.7743 41.7077C37.7704 40.9671 37.7664 40.2266 37.7629 39.486C37.7607 39.0671 37.7596 38.6482 37.7565 38.2287C37.7565 38.2231 37.7563 38.2181 37.7563 38.2125C37.7563 38.2063 37.7563 38.2007 37.7563 38.1944C37.7555 37.9769 37.8076 37.7874 37.8819 37.7762C37.8995 37.773 37.9169 37.7818 37.9332 37.7998C38.3674 37.7431 38.8016 37.6721 39.2359 37.6216C46.7259 36.7358 54.2292 36.7651 61.7161 37.841C62.0863 37.8996 62.4563 37.9557 62.8263 38.0224C62.8304 38.023 62.8344 38.0249 62.8381 38.0267C62.8402 38.0261 62.842 38.0261 62.8441 38.0261C62.9163 38.0274 62.9759 38.21 62.9759 38.4269Z" fill="#814747"/>
</g>
</g>
<path d="M42.7217 90.5731C42.4953 90.6486 42.0928 90.9002 41.8287 91.114C40.9859 91.8184 40.9733 91.9945 41.0111 98.1328C41.0362 101.277 41.0991 103.843 41.1746 104.271C41.5897 106.46 44.0551 107.24 45.4387 105.617C45.6525 105.378 45.8538 105.001 45.9167 104.799C46.0551 104.246 46.0928 98.4599 45.9796 95.1014C45.8915 92.2838 45.879 92.1958 45.5645 91.6926C45.1997 91.114 44.7469 90.7618 44.1054 90.548C43.5771 90.3593 43.2752 90.3719 42.7217 90.5731Z" fill="#333333"/>
<path d="M55.7959 97.5318C55.2757 97.7009 54.644 98.1238 54.4211 98.4526C54.1239 98.8943 54 100.524 54 104.414V107.914L54.4087 108.545C55.5606 109.86 57.9386 109.644 58.6817 108.159C58.9418 107.624 58.979 107.079 58.9914 103.019C59.0161 98.9882 59.0038 98.9507 58.7313 98.509C58.1863 97.6351 56.8363 97.1841 55.7959 97.5318Z" fill="#333333"/>
<defs>
<filter id="filter0_f_513_12744" x="2" y="74.8279" width="94.8849" height="64.8699" filterUnits="userSpaceOnUse" color-interpolation-filters="sRGB">
<feFlood flood-opacity="0" result="BackgroundImageFix"/>
<feBlend mode="normal" in="SourceGraphic" in2="BackgroundImageFix" result="shape"/>
<feGaussianBlur stdDeviation="10.5" result="effect1_foregroundBlur_513_12744"/>
</filter>
<filter id="filter1_d_513_12744" x="-10" y="16.4141" width="120.927" height="120.299" filterUnits="userSpaceOnUse" color-interpolation-filters="sRGB">
<feFlood flood-opacity="0" result="BackgroundImageFix"/>
<feColorMatrix in="SourceAlpha" type="matrix" values="0 0 0 0 0 0 0 0 0 0 0 0 0 0 0 0 0 0 127 0" result="hardAlpha"/>
<feOffset dy="4"/>
<feGaussianBlur stdDeviation="16"/>
<feComposite in2="hardAlpha" operator="out"/>
<feColorMatrix type="matrix" values="0 0 0 0 0 0 0 0 0 0 0 0 0 0 0 0 0 0 0.15 0"/>
<feBlend mode="normal" in2="BackgroundImageFix" result="effect1_dropShadow_513_12744"/>
<feBlend mode="normal" in="SourceGraphic" in2="effect1_dropShadow_513_12744" result="shape"/>
</filter>
<filter id="filter2_d_513_12744" x="-4.84113" y="0.845215" width="109.539" height="82.5576" filterUnits="userSpaceOnUse" color-interpolation-filters="sRGB">
<feFlood flood-opacity="0" result="BackgroundImageFix"/>
<feColorMatrix in="SourceAlpha" type="matrix" values="0 0 0 0 0 0 0 0 0 0 0 0 0 0 0 0 0 0 127 0" result="hardAlpha"/>
<feOffset dy="4"/>
<feGaussianBlur stdDeviation="16"/>
<feComposite in2="hardAlpha" operator="out"/>
<feColorMatrix type="matrix" values="0 0 0 0 0 0 0 0 0 0 0 0 0 0 0 0 0 0 0.15 0"/>
<feBlend mode="normal" in2="BackgroundImageFix" result="effect1_dropShadow_513_12744"/>
<feBlend mode="normal" in="SourceGraphic" in2="effect1_dropShadow_513_12744" result="shape"/>
</filter>
</defs>
</svg>
