<svg width="121" height="140" viewBox="0 0 121 140" fill="none" xmlns="http://www.w3.org/2000/svg">
<g opacity="0.2" filter="url(#filter0_f_513_12749)">
<ellipse cx="59.9681" cy="107.263" rx="26.4424" ry="11.435" fill="black"/>
</g>
<g filter="url(#filter1_d_513_12749)">
<path d="M44.6548 44.745C38.9281 45.267 36.6873 46.1503 34.8732 48.5191C32.8813 51.0485 32.5256 52.2128 32.5256 55.9467C32.5256 60.604 33.3437 62.8925 42.8763 84.2519C45.6863 90.5152 48.5674 95.9354 50.0969 97.7019C52.3734 100.312 53.8317 100.713 61.3013 100.713C67.3125 100.713 67.3481 100.713 69.4822 99.5087C71.2607 98.5049 71.901 97.8224 73.466 95.293C75.2445 92.3621 85.5952 69.5171 87.7293 63.7357C89.7924 58.1951 89.9702 54.421 88.4407 50.928C86.52 46.6321 84.2791 45.4276 76.774 44.745C72.0432 44.3034 49.2788 44.3034 44.6548 44.745Z" fill="#333333"/>
</g>
<g filter="url(#filter2_d_513_12749)">
<mask id="mask0_513_12749" style="mask-type:luminance" maskUnits="userSpaceOnUse" x="37" y="28" width="47" height="20">
<path d="M37.5256 28.8276H83.4932V47.4469H37.5256V28.8276Z" fill="white"/>
</mask>
<g mask="url(#mask0_513_12749)">
<path d="M72.5943 35.9648C72.5962 35.9483 72.5983 35.9317 72.6012 35.915C72.5983 35.9317 72.596 35.9483 72.5943 35.9648ZM83.2098 45.1158C83.4802 46.3115 79.6129 46.5014 78.7777 46.6531C71.6956 47.3739 64.5617 47.4337 57.4488 47.3925C55.2016 47.3097 37.539 47.2772 37.6854 45.2532C37.686 45.2529 37.6864 45.2529 37.687 45.2529C37.6287 44.2398 40.3379 44.0722 41.0945 43.9203C42.4404 43.7392 43.7932 43.6181 45.147 43.5167C46.2508 43.4352 47.3559 43.3669 48.4612 43.3127C48.416 42.486 48.3676 41.6592 48.3213 40.8327C48.2631 39.7928 48.205 38.7529 48.1468 37.7129C48.0893 36.6833 48.0315 35.6536 47.974 34.6239C47.9535 34.2561 47.9335 33.8884 47.9124 33.5207C47.9095 33.471 47.9161 33.4228 47.9306 33.3777C47.9281 33.2905 47.9285 33.2036 47.9335 33.1163C47.9664 32.428 48.3523 31.8182 48.8216 31.3364C49.8141 30.3197 51.2013 29.8173 52.5532 29.4833C53.1053 29.3581 53.6653 29.2747 54.2273 29.2113C54.2847 29.1873 54.3445 29.1764 54.4057 29.1664C54.4852 29.1536 54.5647 29.1416 54.6441 29.1308C54.7857 29.1118 54.9272 29.094 55.0692 29.0774C55.3469 29.0452 55.625 29.0187 55.9044 28.9984C56.471 28.9578 57.0384 28.9231 57.6063 28.8978C58.1865 28.8718 58.7672 28.8519 59.3483 28.8465C59.9401 28.8411 60.5324 28.8486 61.1243 28.8606C61.6933 28.8718 62.262 28.8953 62.8307 28.9177C63.3865 28.9396 63.9432 28.9558 64.4986 28.9885C65.0561 29.0212 65.6128 29.0671 66.1695 29.1122C66.4205 29.1325 66.6721 29.1503 66.9231 29.1718C66.9234 29.1718 66.9234 29.1718 66.9234 29.1718C66.9896 29.1693 67.0585 29.1799 67.1245 29.19C67.2526 29.2022 67.3805 29.2157 67.508 29.2314C67.5402 29.2356 67.5775 29.2372 67.6102 29.2455C67.621 29.2482 67.6313 29.2511 67.6416 29.254C67.884 29.2831 68.1259 29.3136 68.3664 29.356C69.7555 29.6136 71.3929 30.1653 72.3375 31.2634C73.2162 32.1859 73.3882 33.4679 73.4258 34.6897C73.4281 34.963 73.4395 35.2368 73.4407 35.5104C73.4565 35.5559 73.465 35.6046 73.465 35.6548C73.465 35.6629 73.465 35.671 73.465 35.6791C73.465 35.6793 73.465 35.6795 73.465 35.6797C73.465 36.6691 73.4616 37.6587 73.46 38.6482C73.4583 39.7109 73.4563 40.7735 73.4548 41.8362C73.454 42.3458 73.4532 42.8555 73.4521 43.3652C73.7079 43.3795 73.9635 43.3963 74.219 43.4122C75.6062 43.5643 83.0444 43.781 83.2098 45.1158Z" fill="#FFEAB2"/>
</g>
<mask id="mask1_513_12749" style="mask-type:luminance" maskUnits="userSpaceOnUse" x="48" y="36" width="26" height="8">
<path d="M48.2677 36.6953H73.523V43.5179H48.2677V36.6953Z" fill="white"/>
</mask>
<g mask="url(#mask1_513_12749)">
<path d="M73.5015 38.4265C73.5015 38.9632 73.4978 39.4993 73.4959 40.0359C73.4936 40.7416 73.4912 41.4472 73.4887 42.1535C73.4878 42.396 73.487 42.6385 73.4862 42.8816V42.8822C73.4862 42.8884 73.4862 42.8947 73.4862 42.9003C73.4862 42.9009 73.4862 42.9015 73.4862 42.9015C73.4862 42.9053 73.4862 42.9084 73.4862 42.9121C73.4862 42.9264 73.4862 42.9408 73.486 42.9551C73.51 43.1864 73.4694 43.4781 73.3544 43.475C65.2814 42.166 57.1842 42.1385 49.1074 43.159C48.8851 43.1895 48.6629 43.2219 48.4406 43.2543C48.3684 43.2643 48.3042 43.1066 48.2986 42.8853C48.2974 42.8342 48.2997 42.7837 48.3048 42.7363C48.3022 42.3935 48.3015 42.05 48.2999 41.7072C48.2959 40.9666 48.292 40.2261 48.2885 39.4855C48.2862 39.0666 48.2852 38.6477 48.2821 38.2282C48.2821 38.2226 48.2819 38.2176 48.2819 38.212C48.2819 38.2058 48.2819 38.2002 48.2819 38.1939C48.281 37.9764 48.3332 37.7869 48.4075 37.7757C48.4251 37.7725 48.4425 37.7813 48.4588 37.7994C48.893 37.7426 49.3271 37.6716 49.7615 37.6211C57.2515 36.7353 64.7547 36.7646 72.2416 37.8405C72.6119 37.8991 72.9819 37.9552 73.3519 38.0219C73.356 38.0225 73.3599 38.0244 73.3637 38.0263C73.3657 38.0256 73.3676 38.0256 73.3697 38.0256C73.4419 38.0269 73.5015 38.2095 73.5015 38.4265Z" fill="#814747"/>
</g>
</g>
<ellipse cx="61.0256" cy="68.6338" rx="2.5" ry="3.5" fill="white"/>
<ellipse cx="74.0256" cy="68.6338" rx="2.5" ry="3.5" fill="white"/>
<path d="M67.7976 91.3374C66.8644 91.8392 66.3063 92.1347 65.0776 92.7772C64.4727 93.0961 63.9709 93.3587 63.9615 93.3634C63.9521 93.3728 64.271 94.0059 64.6696 94.775C65.0636 95.5488 65.4669 96.3366 65.556 96.5289C65.6498 96.7212 65.8843 97.2089 66.0765 97.6122C66.4892 98.4704 66.5549 98.6064 66.8972 99.3896C68.0227 101.969 68.6746 103.91 69.7251 107.817C69.9733 108.74 71.5167 109.612 73.0174 109.199C74.3586 108.838 74.8988 107.948 74.3101 105.967C73.5645 103.458 72.2575 98.794 71.0757 96.2241C70.5552 95.0892 68.5011 90.9951 68.4542 90.9998C68.4401 90.9998 68.1447 91.1499 67.7976 91.3374Z" fill="#333333"/>
<path d="M59.8872 92.5132C58.896 92.4881 57.7583 92.4559 57.356 92.4411L56.6307 92.4208L56.6166 92.6326C56.6098 92.7505 56.5884 93.2422 56.5688 93.7246C56.5491 94.207 56.5082 94.9144 56.4811 95.3049C56.4503 95.6901 56.4207 96.0945 56.4164 96.1986C56.3777 96.7872 56.1306 98.4866 55.9962 99.0772C55.4536 101.496 54.6865 102.773 53.1332 103.839C53.1332 103.839 50.8831 105.011 51.8138 107.147C52.5552 108.849 53.9535 109.114 55.5812 108.222C56.1682 107.9 56.7223 107.569 57.1141 107.229C59.7727 104.913 61.0566 101.76 61.5218 96.4219C61.6267 95.1972 61.7478 92.6319 61.7053 92.5767C61.6977 92.5658 60.8784 92.5382 59.8872 92.5132Z" fill="#333333"/>
<defs>
<filter id="filter0_f_513_12749" x="12.5256" y="74.8276" width="94.8849" height="64.8699" filterUnits="userSpaceOnUse" color-interpolation-filters="sRGB">
<feFlood flood-opacity="0" result="BackgroundImageFix"/>
<feBlend mode="normal" in="SourceGraphic" in2="BackgroundImageFix" result="shape"/>
<feGaussianBlur stdDeviation="10.5" result="effect1_foregroundBlur_513_12749"/>
</filter>
<filter id="filter1_d_513_12749" x="0.525635" y="16.4138" width="120.927" height="120.299" filterUnits="userSpaceOnUse" color-interpolation-filters="sRGB">
<feFlood flood-opacity="0" result="BackgroundImageFix"/>
<feColorMatrix in="SourceAlpha" type="matrix" values="0 0 0 0 0 0 0 0 0 0 0 0 0 0 0 0 0 0 127 0" result="hardAlpha"/>
<feOffset dy="4"/>
<feGaussianBlur stdDeviation="16"/>
<feComposite in2="hardAlpha" operator="out"/>
<feColorMatrix type="matrix" values="0 0 0 0 0 0 0 0 0 0 0 0 0 0 0 0 0 0 0.15 0"/>
<feBlend mode="normal" in2="BackgroundImageFix" result="effect1_dropShadow_513_12749"/>
<feBlend mode="normal" in="SourceGraphic" in2="effect1_dropShadow_513_12749" result="shape"/>
</filter>
<filter id="filter2_d_513_12749" x="5.68445" y="0.844727" width="109.539" height="82.5576" filterUnits="userSpaceOnUse" color-interpolation-filters="sRGB">
<feFlood flood-opacity="0" result="BackgroundImageFix"/>
<feColorMatrix in="SourceAlpha" type="matrix" values="0 0 0 0 0 0 0 0 0 0 0 0 0 0 0 0 0 0 127 0" result="hardAlpha"/>
<feOffset dy="4"/>
<feGaussianBlur stdDeviation="16"/>
<feComposite in2="hardAlpha" operator="out"/>
<feColorMatrix type="matrix" values="0 0 0 0 0 0 0 0 0 0 0 0 0 0 0 0 0 0 0.15 0"/>
<feBlend mode="normal" in2="BackgroundImageFix" result="effect1_dropShadow_513_12749"/>
<feBlend mode="normal" in="SourceGraphic" in2="effect1_dropShadow_513_12749" result="shape"/>
</filter>
</defs>
</svg>
