<svg width="100" height="140" viewBox="0 0 100 140" fill="none" xmlns="http://www.w3.org/2000/svg">
<g opacity="0.2" filter="url(#filter0_f_224_6448)">
<ellipse cx="49.4424" cy="101.607" rx="26.4424" ry="11.435" fill="black"/>
</g>
<g filter="url(#filter1_d_224_6448)">
<path d="M47.8631 40.2249C45.7114 40.361 44.6355 40.4836 44.3223 40.6198C44.1725 40.6879 43.8729 40.7696 43.6414 40.7968C43.4235 40.8377 42.6473 41.0283 41.9391 41.219C41.231 41.4233 40.482 41.6275 40.2777 41.6684C40.0598 41.7093 39.8964 41.791 39.8964 41.8591C39.8964 41.9272 39.7738 41.9816 39.624 41.9816C39.4742 41.9816 39.2427 42.0361 39.1065 42.1042C38.9839 42.1723 38.6299 42.3357 38.3303 42.4583C37.3225 42.8804 34.7078 44.215 34.4763 44.4329C34.3537 44.5419 34.0813 44.7189 33.8907 44.8142C33.7 44.9232 33.3596 45.1547 33.1553 45.3317C32.951 45.5088 32.7331 45.6586 32.6787 45.6586C32.6378 45.6586 32.4744 45.7675 32.3246 45.8901C32.1884 46.0263 31.8207 46.3123 31.5211 46.5438C30.7993 47.0885 27.9395 49.9483 27.422 50.6293C27.2041 50.9289 26.9181 51.2966 26.7955 51.4327C26.6594 51.5825 26.5504 51.746 26.5504 51.7868C26.5504 51.8413 26.4006 52.0592 26.21 52.2771C26.0193 52.495 25.8695 52.7537 25.8695 52.8354C25.8695 52.9308 25.815 53.0125 25.7333 53.0125C25.6652 53.0125 25.5971 53.0942 25.5971 53.2031C25.5971 53.3121 25.5563 53.421 25.4882 53.4482C25.3248 53.5163 24.3715 55.1914 24.3715 55.4093C24.3715 55.5182 24.317 55.5999 24.2353 55.5999C24.1672 55.5999 24.0991 55.7225 24.0991 55.8723C24.0991 56.0221 24.0446 56.1447 23.9629 56.1447C23.8948 56.1447 23.8267 56.2128 23.8267 56.2809C23.8267 56.3626 23.6769 56.7303 23.4863 57.1252C23.2956 57.5065 23.1458 57.9151 23.1458 58.0104C23.1458 58.1057 23.0914 58.1874 23.0096 58.1874C22.9416 58.1874 22.8735 58.3236 22.8735 58.5006C22.8735 58.6777 22.819 58.8683 22.7509 58.9364C22.6828 59.0181 22.4649 59.5629 22.2606 60.1621C22.07 60.7613 21.8521 61.3605 21.784 61.4831C21.7023 61.6192 21.6478 61.8507 21.6478 61.9869C21.6478 62.1367 21.5933 62.3002 21.5116 62.341C21.4435 62.3819 21.3755 62.6406 21.3755 62.8994C21.3755 63.1581 21.321 63.3624 21.2665 63.3624C21.212 63.3624 21.0758 63.7437 20.9805 64.2067C20.8852 64.6834 20.7218 65.3779 20.6128 65.7728C20.5039 66.1541 20.4222 66.7125 20.4222 66.9985C20.4222 67.2845 20.3677 67.5841 20.2996 67.6522C20.1634 67.802 20 69.9809 20 71.6696C20 74.5566 20.6401 77.8523 21.5253 79.5954C21.5933 79.7316 21.6478 79.9359 21.6478 80.0448C21.6478 80.1538 21.7159 80.2491 21.784 80.2491C21.8657 80.2491 21.9202 80.358 21.9202 80.4806C21.9338 80.6168 22.1108 81.0253 22.3424 81.4067C22.5602 81.7744 22.7781 82.1965 22.8326 82.3191C22.8735 82.4553 22.9552 82.5642 23.0233 82.5642C23.0914 82.5642 23.1458 82.6187 23.1458 82.7004C23.1458 82.8502 24.1127 84.2393 24.2625 84.3074C24.3306 84.3346 24.3715 84.4299 24.3715 84.5116C24.3715 84.7295 27.6943 87.9843 28.348 88.4201C28.634 88.6108 28.8655 88.8014 28.8655 88.8559C28.8655 88.924 28.9609 88.9648 29.0698 88.9648C29.1787 88.9648 29.2741 89.0193 29.2741 89.101C29.2741 89.1691 29.3558 89.2372 29.4511 89.2372C29.5464 89.2372 29.7507 89.3461 29.9005 89.4823C30.0367 89.6049 30.418 89.8364 30.7312 89.9862C31.0581 90.136 31.3168 90.2994 31.3168 90.3539C31.3168 90.422 31.4394 90.4628 31.5892 90.4628C31.739 90.4628 31.8616 90.5173 31.8616 90.599C31.8616 90.6671 31.9705 90.7352 32.1067 90.7352C32.2429 90.7352 32.4063 90.7897 32.488 90.8442C32.5561 90.9122 33.0463 91.1301 33.5638 91.3344C34.095 91.5523 34.6261 91.7702 34.7486 91.8383C34.8848 91.9064 35.1163 91.9609 35.2661 91.9609C35.4159 91.9609 35.5385 92.0153 35.5385 92.097C35.5385 92.1651 35.6883 92.2332 35.879 92.2332C36.0696 92.2332 36.3284 92.2877 36.4645 92.3694C36.805 92.5601 38.3847 93.0503 38.9839 93.1457C39.2563 93.1865 39.4878 93.2682 39.4878 93.3227C39.4878 93.3772 39.7193 93.4589 40.0053 93.4997C40.2777 93.5406 41.2446 93.7312 42.1434 93.9219C44.118 94.3713 45.3301 94.5483 46.7736 94.63C47.3728 94.6709 47.9856 94.7526 48.1491 94.8343C48.5576 95.0386 52.1528 94.8207 54.7403 94.4258C55.6255 94.3032 57.3278 93.9491 58.3492 93.704C58.6488 93.6359 59.1254 93.5406 59.4114 93.4997C59.6838 93.4589 59.9153 93.3772 59.9153 93.3091C59.9153 93.241 60.0651 93.1865 60.2421 93.1865C60.5826 93.1865 63.4697 92.3149 63.8918 92.0834C64.028 92.0153 64.2595 91.9609 64.4093 91.9609C64.5591 91.9609 64.6817 91.8928 64.6817 91.8247C64.6817 91.743 64.8043 91.6885 64.9541 91.6885C65.1039 91.6885 65.5805 91.5251 66.0027 91.3208C67.705 90.5446 68.5629 90.1224 68.631 90.0407C68.6719 89.9998 68.917 89.85 69.1894 89.7275C69.4617 89.6049 69.8158 89.3734 69.9656 89.2372C70.129 89.0874 70.2924 88.9648 70.3333 88.9648C70.3878 88.9648 70.5103 88.8831 70.6057 88.8014C70.9053 88.529 71.1096 88.3792 71.627 88.0115C72.2399 87.5758 74.446 85.3832 74.9635 84.6751C75.195 84.3755 75.481 84.0078 75.6172 83.8716C75.7398 83.7218 75.8487 83.5447 75.8487 83.4903C75.8487 83.4222 75.9577 83.2587 76.0939 83.1089C76.2164 82.9728 76.4479 82.6187 76.5977 82.3327C76.7475 82.0467 76.8973 81.788 76.9382 81.7471C77.0744 81.6246 77.8642 79.9086 77.9596 79.5273C78.014 79.3231 78.1094 79.1188 78.1775 79.0779C78.2455 79.0371 78.3 78.86 78.3 78.6694C78.3 78.4923 78.3681 78.3425 78.4362 78.3425C78.5179 78.3425 78.5724 78.1655 78.5724 77.9476C78.5724 77.7161 78.6269 77.4982 78.7086 77.4573C78.7767 77.4165 78.8448 77.2395 78.8448 77.0897C78.8448 76.9262 78.8992 76.613 78.9809 76.3815C79.1852 75.687 79.5257 72.759 79.5257 71.6015C79.5257 69.7902 79.0218 65.9771 78.695 65.3779C78.6269 65.2417 78.5724 64.9013 78.5724 64.6153C78.5724 64.3293 78.5179 64.0433 78.4498 63.9616C78.3953 63.8935 78.2319 63.4441 78.1094 62.9538C77.7825 61.7554 77.5783 61.1426 77.4557 60.9792C77.4012 60.9111 77.3467 60.6796 77.3467 60.4753C77.3467 60.271 77.2923 60.094 77.2106 60.094C77.1425 60.094 77.0744 59.9442 77.0744 59.7535C77.0744 59.5629 77.0335 59.4131 76.9654 59.4131C76.9109 59.4131 76.7884 59.1679 76.7067 58.8683C76.4207 57.9968 74.8954 54.742 74.732 54.6739C74.6639 54.6467 74.6231 54.5377 74.6231 54.4288C74.6231 54.3198 74.5686 54.2381 74.4869 54.2381C74.4188 54.2381 74.3507 54.1156 74.3507 53.9794C74.3507 53.8296 74.3099 53.6934 74.2554 53.6661C74.1192 53.6117 73.3974 52.5086 73.3974 52.3588C73.3974 52.3043 73.2749 52.1681 73.1251 52.0592C72.9753 51.9502 72.8527 51.8141 72.8527 51.746C72.8527 51.3919 69.2575 47.5107 68.2906 46.8161C68.0727 46.6663 67.7731 46.4212 67.6233 46.2714C67.4598 46.1216 66.956 45.7539 66.4929 45.4543C66.0163 45.1547 65.635 44.8687 65.635 44.8006C65.635 44.7461 65.5669 44.7053 65.4852 44.7053C65.4035 44.7053 65.172 44.5963 64.9813 44.4465C64.6681 44.2286 64.0416 43.8882 62.5709 43.1119C62.4211 43.0302 61.9036 42.7987 61.4133 42.5944C60.923 42.3902 60.4192 42.1723 60.2966 42.1042C60.1604 42.0361 59.9561 41.9816 59.8472 41.9816C59.7383 41.9816 59.6429 41.9135 59.6429 41.8454C59.6429 41.7637 59.4659 41.7093 59.2616 41.7093C59.0573 41.7093 58.8258 41.6548 58.7441 41.5867C58.676 41.5322 58.1585 41.3688 57.6002 41.2326C57.0418 41.1101 56.4699 40.9466 56.3473 40.8785C56.2111 40.8104 55.8843 40.756 55.6255 40.756C55.3668 40.756 55.1489 40.6879 55.1489 40.6198C55.1489 40.5381 54.822 40.4836 54.4407 40.4836C54.0458 40.4836 53.5011 40.4291 53.2423 40.361C52.575 40.184 49.6471 40.1159 47.8631 40.2249Z" fill="#333333"/>
<path d="M42.4869 87.8498C42.2605 87.9252 41.858 88.1768 41.5938 88.3906C40.751 89.095 40.7385 89.2711 40.7762 95.4094C40.8014 98.5541 40.8643 101.12 40.9397 101.548C41.3548 103.736 43.8202 104.516 45.2038 102.894C45.4177 102.655 45.6189 102.277 45.6818 102.076C45.8202 101.523 45.8579 95.7365 45.7447 92.378C45.6567 89.5604 45.6441 89.4724 45.3296 88.9692C44.9648 88.3906 44.512 88.0384 43.8705 87.8246C43.3422 87.6359 43.0403 87.6485 42.4869 87.8498Z" fill="#333333"/>
<path d="M55.8705 87.8499C55.3422 88.0763 54.7007 88.6423 54.4742 89.0826C54.1724 89.6738 54.0466 91.9128 54.0466 97.1203V101.988L54.4617 102.592C55.6315 104.353 58.0465 104.064 58.8012 102.076C59.0654 101.359 59.1031 100.63 59.1157 95.1957C59.1409 89.7996 59.1283 89.7492 58.8516 89.1581C58.2981 87.9883 56.9271 87.3845 55.8705 87.8499Z" fill="#333333"/>
</g>
<g filter="url(#filter2_d_224_6448)">
<mask id="mask0_224_6448" style="mask-type:luminance" maskUnits="userSpaceOnUse" x="27" y="28" width="46" height="19">
<path d="M27 28.1724H72.9676V46.7916H27V28.1724Z" fill="white"/>
</mask>
<g mask="url(#mask0_224_6448)">
<path d="M62.0688 35.3096C62.0706 35.293 62.0727 35.2765 62.0756 35.2597C62.0727 35.2765 62.0704 35.293 62.0688 35.3096ZM72.6842 44.4605C72.9547 45.6562 69.0874 45.8462 68.2522 45.9978C61.17 46.7186 54.0362 46.7784 46.9232 46.7372C44.676 46.6545 27.0135 46.622 27.1598 44.5979C27.1604 44.5977 27.1608 44.5977 27.1614 44.5977C27.1031 43.5845 29.8123 43.4169 30.5689 43.265C31.9149 43.0839 33.2676 42.9628 34.6214 42.8614C35.7253 42.7799 36.8303 42.7116 37.9356 42.6574C37.8905 41.8307 37.842 41.0039 37.7957 40.1774C37.7375 39.1376 37.6794 38.0977 37.6212 37.0576C37.5637 36.0281 37.506 34.9983 37.4484 33.9686C37.428 33.6009 37.4079 33.2331 37.3868 32.8654C37.3839 32.8157 37.3905 32.7675 37.405 32.7224C37.4025 32.6353 37.4029 32.5484 37.4079 32.461C37.4408 31.7727 37.8267 31.1629 38.2961 30.6811C39.2886 29.6644 40.6757 29.162 42.0276 28.828C42.5797 28.7028 43.1397 28.6194 43.7018 28.5561C43.7591 28.5321 43.8189 28.5211 43.8802 28.5112C43.9596 28.4983 44.0391 28.4863 44.1186 28.4756C44.2601 28.4565 44.4016 28.4387 44.5436 28.4222C44.8213 28.3899 45.0994 28.3634 45.3788 28.3431C45.9454 28.3026 46.5129 28.2678 47.0807 28.2426C47.661 28.2165 48.2416 28.1966 48.8227 28.1912C49.4146 28.1859 50.0068 28.1933 50.5987 28.2053C51.1678 28.2165 51.7364 28.2401 52.3051 28.2624C52.861 28.2844 53.4176 28.3005 53.9731 28.3332C54.5306 28.3659 55.0872 28.4118 55.6439 28.4569C55.8949 28.4772 56.1465 28.495 56.3976 28.5165C56.3978 28.5165 56.3978 28.5165 56.3978 28.5165C56.464 28.5141 56.5329 28.5246 56.5989 28.5348C56.727 28.547 56.8549 28.5604 56.9824 28.5761C57.0147 28.5803 57.0519 28.5819 57.0846 28.5902C57.0954 28.5929 57.1057 28.5958 57.1161 28.5987C57.3584 28.6279 57.6003 28.6583 57.8408 28.7007C59.23 28.9584 60.8673 29.5101 61.812 30.6081C62.6906 31.5306 62.8626 32.8126 62.9003 34.0344C62.9025 34.3078 62.9139 34.5816 62.9152 34.8551C62.9309 34.9007 62.9394 34.9493 62.9394 34.9996C62.9394 35.0076 62.9394 35.0157 62.9394 35.0238C62.9394 35.024 62.9394 35.0242 62.9394 35.0244C62.9394 36.0138 62.9361 37.0034 62.9344 37.993C62.9328 39.0556 62.9307 40.1182 62.9292 41.1809C62.9284 41.6906 62.9276 42.2003 62.9265 42.71C63.1823 42.7242 63.4379 42.741 63.6935 42.7569C65.0806 42.909 72.5189 43.1257 72.6842 44.4605Z" fill="#FFEAB2"/>
</g>
<mask id="mask1_224_6448" style="mask-type:luminance" maskUnits="userSpaceOnUse" x="37" y="36" width="26" height="7">
<path d="M37.7421 36.04H62.9974V42.8627H37.7421V36.04Z" fill="white"/>
</mask>
<g mask="url(#mask1_224_6448)">
<path d="M62.976 37.7712C62.976 38.3079 62.9722 38.844 62.9704 39.3807C62.9681 40.0863 62.9656 40.792 62.9631 41.4982C62.9623 41.7407 62.9615 41.9832 62.9606 42.2263V42.2269C62.9606 42.2331 62.9606 42.2394 62.9606 42.245C62.9606 42.2456 62.9606 42.2462 62.9606 42.2462C62.9606 42.25 62.9606 42.2531 62.9606 42.2568C62.9606 42.2712 62.9606 42.2855 62.9604 42.2998C62.9844 42.5311 62.9439 42.8229 62.8288 42.8197C54.7559 41.5107 46.6587 41.4833 38.5818 42.5037C38.3596 42.5342 38.1373 42.5666 37.9151 42.5991C37.8428 42.609 37.7787 42.4513 37.7731 42.23C37.7719 42.1789 37.7741 42.1284 37.7793 42.081C37.7766 41.7382 37.776 41.3947 37.7743 41.0519C37.7704 40.3114 37.7665 39.5708 37.763 38.8303C37.7607 38.4114 37.7596 37.9925 37.7565 37.573C37.7565 37.5673 37.7563 37.5624 37.7563 37.5567C37.7563 37.5505 37.7563 37.5449 37.7563 37.5387C37.7555 37.3211 37.8077 37.1316 37.8819 37.1204C37.8995 37.1173 37.9169 37.126 37.9333 37.1441C38.3674 37.0874 38.8016 37.0163 39.236 36.9658C46.726 36.08 54.2292 36.1093 61.7161 37.1852C62.0863 37.2438 62.4563 37.2999 62.8263 37.3666C62.8305 37.3673 62.8344 37.3691 62.8381 37.371C62.8402 37.3704 62.8421 37.3704 62.8441 37.3704C62.9164 37.3716 62.976 37.5542 62.976 37.7712Z" fill="#DC9E00"/>
</g>
</g>
<ellipse cx="33.5" cy="64.3923" rx="2.5" ry="3.5" fill="white"/>
<ellipse cx="46.5" cy="64.3923" rx="2.5" ry="3.5" fill="white"/>
<defs>
<filter id="filter0_f_224_6448" x="2" y="69.1724" width="94.8849" height="64.8699" filterUnits="userSpaceOnUse" color-interpolation-filters="sRGB">
<feFlood flood-opacity="0" result="BackgroundImageFix"/>
<feBlend mode="normal" in="SourceGraphic" in2="BackgroundImageFix" result="shape"/>
<feGaussianBlur stdDeviation="10.5" result="effect1_foregroundBlur_224_6448"/>
</filter>
<filter id="filter1_d_224_6448" x="-12" y="12.1724" width="123.526" height="127.586" filterUnits="userSpaceOnUse" color-interpolation-filters="sRGB">
<feFlood flood-opacity="0" result="BackgroundImageFix"/>
<feColorMatrix in="SourceAlpha" type="matrix" values="0 0 0 0 0 0 0 0 0 0 0 0 0 0 0 0 0 0 127 0" result="hardAlpha"/>
<feOffset dy="4"/>
<feGaussianBlur stdDeviation="16"/>
<feComposite in2="hardAlpha" operator="out"/>
<feColorMatrix type="matrix" values="0 0 0 0 0 0 0 0 0 0 0 0 0 0 0 0 0 0 0.15 0"/>
<feBlend mode="normal" in2="BackgroundImageFix" result="effect1_dropShadow_224_6448"/>
<feBlend mode="normal" in="SourceGraphic" in2="effect1_dropShadow_224_6448" result="shape"/>
</filter>
<filter id="filter2_d_224_6448" x="-4.84113" y="0.189453" width="109.539" height="82.5576" filterUnits="userSpaceOnUse" color-interpolation-filters="sRGB">
<feFlood flood-opacity="0" result="BackgroundImageFix"/>
<feColorMatrix in="SourceAlpha" type="matrix" values="0 0 0 0 0 0 0 0 0 0 0 0 0 0 0 0 0 0 127 0" result="hardAlpha"/>
<feOffset dy="4"/>
<feGaussianBlur stdDeviation="16"/>
<feComposite in2="hardAlpha" operator="out"/>
<feColorMatrix type="matrix" values="0 0 0 0 0 0 0 0 0 0 0 0 0 0 0 0 0 0 0.15 0"/>
<feBlend mode="normal" in2="BackgroundImageFix" result="effect1_dropShadow_224_6448"/>
<feBlend mode="normal" in="SourceGraphic" in2="effect1_dropShadow_224_6448" result="shape"/>
</filter>
</defs>
</svg>
