<svg width="113" height="142" viewBox="0 0 113 142" fill="none" xmlns="http://www.w3.org/2000/svg">
<g opacity="0.2" filter="url(#filter0_f_513_13060)">
<ellipse cx="55.4424" cy="108.676" rx="26.4424" ry="11.435" fill="black"/>
</g>
<g filter="url(#filter1_d_513_13060)">
<path d="M45.1142 42.7909C44.101 42.9884 42.9036 43.2452 42.443 43.3834C40.9693 43.7785 38.1139 44.8451 38.0586 45.0031C38.0218 45.0821 37.9112 45.1611 37.8007 45.1611C37.5796 45.1611 35.6269 46.7807 35.2585 47.2745C34.6137 48.1633 34.1532 48.9139 34.1532 49.1114C34.1532 49.2102 34.0795 49.3089 34.0058 49.3089C33.49 49.3089 32.2373 54.5431 32.0531 57.5059C31.8504 60.5871 32.2741 86.5803 32.5505 88.8123C32.8452 91.0837 33.14 92.5453 33.49 93.4539C33.6189 93.7699 33.84 94.3625 33.9689 94.7378C34.8716 97.266 37.2849 99.1621 40.9693 100.209C45.0221 101.355 45.7958 101.414 56.5358 101.414C65.5809 101.414 67.6073 101.315 69.7074 100.802C70.3706 100.624 71.3285 100.387 71.8259 100.268C72.3418 100.15 73.0049 99.9127 73.3365 99.7547C73.6497 99.5967 73.9629 99.4782 74.0181 99.4782C74.0918 99.4782 74.6629 99.2214 75.2893 98.9054C76.3946 98.3326 77.4446 97.345 78.421 95.9229C79.0105 95.0538 79.9132 92.1305 80.1895 90.2146C80.3184 89.4048 80.4658 88.6542 80.5211 88.5357C80.65 88.3382 81 67.5792 81 60.7649C81 59.1848 80.9079 57.0911 80.779 56.1233C80.5395 54.1876 80.0421 51.6989 79.8395 51.3829C79.7658 51.2643 79.6552 50.9286 79.5816 50.5928C79.2684 49.2497 76.6709 45.7536 75.9709 45.7536C75.8603 45.7536 75.7866 45.6746 75.7866 45.5956C75.7866 45.3981 74.2945 44.5685 73.9629 44.5685C73.8523 44.5685 73.6129 44.4895 73.4286 44.3908C73.2628 44.2723 72.4891 43.9957 71.7338 43.7785C70.9785 43.5414 70.1127 43.2649 69.7995 43.1662C67.81 42.5341 65.452 42.3958 56.241 42.4156C48.1354 42.4353 46.7169 42.4748 45.1142 42.7909Z" fill="#333333"/>
</g>
<g filter="url(#filter2_d_513_13060)">
<mask id="mask0_513_13060" style="mask-type:luminance" maskUnits="userSpaceOnUse" x="33" y="28" width="46" height="19">
<path d="M33 28.2415H78.9676V46.8607H33V28.2415Z" fill="white"/>
</mask>
<g mask="url(#mask0_513_13060)">
<path d="M68.0688 35.3787C68.0706 35.3621 68.0727 35.3456 68.0756 35.3288C68.0727 35.3456 68.0704 35.3621 68.0688 35.3787ZM78.6842 44.5296C78.9547 45.7253 75.0874 45.9152 74.2522 46.0669C67.17 46.7877 60.0362 46.8475 52.9232 46.8063C50.676 46.7236 33.0135 46.6911 33.1598 44.667C33.1604 44.6668 33.1608 44.6668 33.1614 44.6668C33.1031 43.6536 35.8123 43.486 36.5689 43.3341C37.9149 43.153 39.2676 43.0319 40.6214 42.9305C41.7253 42.849 42.8303 42.7807 43.9356 42.7265C43.8905 41.8998 43.842 41.073 43.7957 40.2465C43.7375 39.2066 43.6794 38.1668 43.6212 37.1267C43.5637 36.0972 43.506 35.0674 43.4484 34.0377C43.428 33.67 43.4079 33.3022 43.3868 32.9345C43.3839 32.8848 43.3905 32.8366 43.405 32.7915C43.4025 32.7044 43.4029 32.6175 43.4079 32.5301C43.4408 31.8418 43.8267 31.232 44.2961 30.7502C45.2886 29.7335 46.6757 29.2311 48.0276 28.8971C48.5797 28.7719 49.1397 28.6885 49.7018 28.6252C49.7591 28.6012 49.8189 28.5902 49.8802 28.5803C49.9596 28.5674 50.0391 28.5554 50.1186 28.5447C50.2601 28.5256 50.4016 28.5078 50.5436 28.4913C50.8213 28.459 51.0994 28.4325 51.3788 28.4122C51.9454 28.3717 52.5129 28.3369 53.0807 28.3116C53.661 28.2856 54.2416 28.2657 54.8227 28.2603C55.4146 28.2549 56.0068 28.2624 56.5987 28.2744C57.1678 28.2856 57.7364 28.3092 58.3051 28.3315C58.861 28.3534 59.4176 28.3696 59.9731 28.4023C60.5306 28.435 61.0872 28.4809 61.6439 28.526C61.8949 28.5463 62.1465 28.5641 62.3976 28.5856C62.3978 28.5856 62.3978 28.5856 62.3978 28.5856C62.464 28.5832 62.5329 28.5937 62.5989 28.6038C62.727 28.6161 62.8549 28.6295 62.9824 28.6452C63.0147 28.6494 63.0519 28.651 63.0846 28.6593C63.0954 28.662 63.1057 28.6649 63.1161 28.6678C63.3584 28.697 63.6003 28.7274 63.8408 28.7698C65.23 29.0275 66.8673 29.5792 67.812 30.6772C68.6906 31.5997 68.8626 32.8817 68.9003 34.1035C68.9025 34.3769 68.9139 34.6506 68.9152 34.9242C68.9309 34.9697 68.9394 35.0184 68.9394 35.0687C68.9394 35.0767 68.9394 35.0848 68.9394 35.0929C68.9394 35.0931 68.9394 35.0933 68.9394 35.0935C68.9394 36.0829 68.9361 37.0725 68.9344 38.0621C68.9328 39.1247 68.9307 40.1873 68.9292 41.25C68.9284 41.7597 68.9276 42.2694 68.9265 42.7791C69.1823 42.7933 69.4379 42.8101 69.6935 42.826C71.0806 42.9781 78.5189 43.1948 78.6842 44.5296Z" fill="#FFEAB2"/>
</g>
<mask id="mask1_513_13060" style="mask-type:luminance" maskUnits="userSpaceOnUse" x="43" y="36" width="26" height="7">
<path d="M43.7421 36.1091H68.9974V42.9318H43.7421V36.1091Z" fill="white"/>
</mask>
<g mask="url(#mask1_513_13060)">
<path d="M68.9759 37.8403C68.9759 38.377 68.9722 38.9131 68.9703 39.4498C68.9681 40.1554 68.9656 40.861 68.9631 41.5673C68.9623 41.8098 68.9614 42.0523 68.9606 42.2954V42.296C68.9606 42.3022 68.9606 42.3085 68.9606 42.3141C68.9606 42.3147 68.9606 42.3153 68.9606 42.3153C68.9606 42.3191 68.9606 42.3222 68.9606 42.3259C68.9606 42.3403 68.9606 42.3546 68.9604 42.3689C68.9844 42.6002 68.9438 42.8919 68.8288 42.8888C60.7558 41.5798 52.6587 41.5523 44.5818 42.5728C44.3595 42.6033 44.1373 42.6357 43.915 42.6681C43.8428 42.6781 43.7787 42.5204 43.7731 42.2991C43.7718 42.248 43.7741 42.1975 43.7793 42.1501C43.7766 41.8073 43.776 41.4638 43.7743 41.121C43.7704 40.3804 43.7664 39.6399 43.7629 38.8993C43.7607 38.4805 43.7596 38.0616 43.7565 37.642C43.7565 37.6364 43.7563 37.6314 43.7563 37.6258C43.7563 37.6196 43.7563 37.614 43.7563 37.6078C43.7555 37.3902 43.8076 37.2007 43.8819 37.1895C43.8995 37.1864 43.9169 37.1951 43.9332 37.2132C44.3674 37.1564 44.8016 37.0854 45.2359 37.0349C52.7259 36.1491 60.2292 36.1784 67.7161 37.2543C68.0863 37.3129 68.4563 37.369 68.8263 37.4357C68.8304 37.4363 68.8344 37.4382 68.8381 37.4401C68.8402 37.4395 68.842 37.4395 68.8441 37.4395C68.9163 37.4407 68.9759 37.6233 68.9759 37.8403Z" fill="#27A924"/>
</g>
</g>
<path d="M48.7217 95.1591C48.4953 95.2346 48.0928 95.4861 47.8287 95.7C46.9859 96.4044 46.9733 96.5805 47.0111 102.719C47.0362 105.863 47.0991 108.429 47.1746 108.857C47.5897 111.046 50.0551 111.826 51.4387 110.203C51.6525 109.964 51.8538 109.587 51.9167 109.385C52.0551 108.832 52.0928 103.046 51.9796 99.6873C51.8915 96.8698 51.879 96.7817 51.5645 96.2786C51.1997 95.7 50.7469 95.3478 50.1054 95.1339C49.5771 94.9452 49.2752 94.9578 48.7217 95.1591Z" fill="#333333"/>
<path d="M61.7959 96.1177C61.2757 96.2869 60.644 96.7097 60.4211 97.0386C60.1239 97.4802 60 99.1098 60 103V106.5L60.4087 107.13C61.5606 108.446 63.9386 108.23 64.6817 106.745C64.9418 106.21 64.979 105.665 64.9914 101.605C65.0161 97.5742 65.0038 97.5366 64.7313 97.095C64.1863 96.2211 62.8363 95.77 61.7959 96.1177Z" fill="#333333"/>
<defs>
<filter id="filter0_f_513_13060" x="8" y="76.2415" width="94.8849" height="64.8699" filterUnits="userSpaceOnUse" color-interpolation-filters="sRGB">
<feFlood flood-opacity="0" result="BackgroundImageFix"/>
<feBlend mode="normal" in="SourceGraphic" in2="BackgroundImageFix" result="shape"/>
<feGaussianBlur stdDeviation="10.5" result="effect1_foregroundBlur_513_13060"/>
</filter>
<filter id="filter1_d_513_13060" x="0" y="14.4138" width="113" height="123" filterUnits="userSpaceOnUse" color-interpolation-filters="sRGB">
<feFlood flood-opacity="0" result="BackgroundImageFix"/>
<feColorMatrix in="SourceAlpha" type="matrix" values="0 0 0 0 0 0 0 0 0 0 0 0 0 0 0 0 0 0 127 0" result="hardAlpha"/>
<feOffset dy="4"/>
<feGaussianBlur stdDeviation="16"/>
<feComposite in2="hardAlpha" operator="out"/>
<feColorMatrix type="matrix" values="0 0 0 0 0 0 0 0 0 0 0 0 0 0 0 0 0 0 0.15 0"/>
<feBlend mode="normal" in2="BackgroundImageFix" result="effect1_dropShadow_513_13060"/>
<feBlend mode="normal" in="SourceGraphic" in2="effect1_dropShadow_513_13060" result="shape"/>
</filter>
<filter id="filter2_d_513_13060" x="1.15887" y="0.258545" width="109.539" height="82.5576" filterUnits="userSpaceOnUse" color-interpolation-filters="sRGB">
<feFlood flood-opacity="0" result="BackgroundImageFix"/>
<feColorMatrix in="SourceAlpha" type="matrix" values="0 0 0 0 0 0 0 0 0 0 0 0 0 0 0 0 0 0 127 0" result="hardAlpha"/>
<feOffset dy="4"/>
<feGaussianBlur stdDeviation="16"/>
<feComposite in2="hardAlpha" operator="out"/>
<feColorMatrix type="matrix" values="0 0 0 0 0 0 0 0 0 0 0 0 0 0 0 0 0 0 0.15 0"/>
<feBlend mode="normal" in2="BackgroundImageFix" result="effect1_dropShadow_513_13060"/>
<feBlend mode="normal" in="SourceGraphic" in2="effect1_dropShadow_513_13060" result="shape"/>
</filter>
</defs>
</svg>
