<svg width="124" height="134" viewBox="0 0 124 134" fill="none" xmlns="http://www.w3.org/2000/svg">
<g opacity="0.2" filter="url(#filter0_f_489_13403)">
<ellipse cx="61.4424" cy="101.435" rx="26.4424" ry="11.435" fill="black"/>
</g>
<g filter="url(#filter1_d_489_13403)">
<path d="M59.8631 40.0525C57.7114 40.1887 56.6355 40.3112 56.3223 40.4474C56.1725 40.5155 55.8729 40.5972 55.6414 40.6245C55.4235 40.6653 54.6473 40.856 53.9391 41.0466C53.231 41.2509 52.482 41.4552 52.2777 41.496C52.0598 41.5369 51.8964 41.6186 51.8964 41.6867C51.8964 41.7548 51.7738 41.8093 51.624 41.8093C51.4742 41.8093 51.2427 41.8637 51.1065 41.9318C50.9839 41.9999 50.6299 42.1633 50.3303 42.2859C49.3225 42.7081 46.7078 44.0427 46.4763 44.2606C46.3537 44.3695 46.0813 44.5465 45.8907 44.6419C45.7 44.7508 45.3596 44.9823 45.1553 45.1594C44.951 45.3364 44.7331 45.4862 44.6787 45.4862C44.6378 45.4862 44.4744 45.5952 44.3246 45.7177C44.1884 45.8539 43.8207 46.1399 43.5211 46.3714C42.7993 46.9161 39.9395 49.776 39.422 50.4569C39.2041 50.7565 38.9181 51.1242 38.7955 51.2604C38.6594 51.4102 38.5504 51.5736 38.5504 51.6145C38.5504 51.6689 38.4006 51.8868 38.21 52.1047C38.0193 52.3226 37.8695 52.5814 37.8695 52.6631C37.8695 52.7584 37.815 52.8401 37.7333 52.8401C37.6652 52.8401 37.5971 52.9218 37.5971 53.0308C37.5971 53.1397 37.5563 53.2486 37.4882 53.2759C37.3248 53.344 36.3715 55.019 36.3715 55.2369C36.3715 55.3459 36.317 55.4276 36.2353 55.4276C36.1672 55.4276 36.0991 55.5501 36.0991 55.6999C36.0991 55.8498 36.0446 55.9723 35.9629 55.9723C35.8948 55.9723 35.8267 56.0404 35.8267 56.1085C35.8267 56.1902 35.6769 56.5579 35.4863 56.9528C35.2956 57.3341 35.1458 57.7427 35.1458 57.838C35.1458 57.9334 35.0914 58.0151 35.0096 58.0151C34.9416 58.0151 34.8735 58.1512 34.8735 58.3283C34.8735 58.5053 34.819 58.696 34.7509 58.7641C34.6828 58.8458 34.4649 59.3905 34.2606 59.9897C34.07 60.5889 33.8521 61.1881 33.784 61.3107C33.7023 61.4469 33.6478 61.6784 33.6478 61.8146C33.6478 61.9644 33.5933 62.1278 33.5116 62.1686C33.4435 62.2095 33.3755 62.4683 33.3755 62.727C33.3755 62.9857 33.321 63.19 33.2665 63.19C33.212 63.19 33.0758 63.5713 32.9805 64.0344C32.8852 64.511 32.7218 65.2055 32.6128 65.6005C32.5039 65.9818 32.4222 66.5401 32.4222 66.8261C32.4222 67.1121 32.3677 67.4117 32.2996 67.4798C32.1634 67.6296 32 69.8085 32 71.4972C32 74.3843 32.6401 77.6799 33.5253 79.4231C33.5933 79.5592 33.6478 79.7635 33.6478 79.8725C33.6478 79.9814 33.7159 80.0767 33.784 80.0767C33.8657 80.0767 33.9202 80.1857 33.9202 80.3082C33.9338 80.4444 34.1108 80.853 34.3424 81.2343C34.5602 81.602 34.7781 82.0242 34.8326 82.1467C34.8735 82.2829 34.9552 82.3919 35.0233 82.3919C35.0914 82.3919 35.1458 82.4463 35.1458 82.528C35.1458 82.6778 36.1127 84.0669 36.2625 84.135C36.3306 84.1622 36.3715 84.2576 36.3715 84.3393C36.3715 84.5572 39.6943 87.8119 40.348 88.2477C40.634 88.4384 40.8655 88.629 40.8655 88.6835C40.8655 88.7516 40.9609 88.7925 41.0698 88.7925C41.1787 88.7925 41.2741 88.8469 41.2741 88.9286C41.2741 88.9967 41.3558 89.0648 41.4511 89.0648C41.5464 89.0648 41.7507 89.1738 41.9005 89.31C42.0367 89.4325 42.418 89.664 42.7312 89.8138C43.0581 89.9636 43.3168 90.1271 43.3168 90.1815C43.3168 90.2496 43.4394 90.2905 43.5892 90.2905C43.739 90.2905 43.8616 90.345 43.8616 90.4267C43.8616 90.4948 43.9705 90.5628 44.1067 90.5628C44.2429 90.5628 44.4063 90.6173 44.488 90.6718C44.5561 90.7399 45.0463 90.9578 45.5638 91.1621C46.095 91.3799 46.6261 91.5978 46.7486 91.6659C46.8848 91.734 47.1163 91.7885 47.2661 91.7885C47.4159 91.7885 47.5385 91.843 47.5385 91.9247C47.5385 91.9928 47.6883 92.0609 47.879 92.0609C48.0696 92.0609 48.3284 92.1153 48.4645 92.197C48.805 92.3877 50.3847 92.878 50.9839 92.9733C51.2563 93.0141 51.4878 93.0959 51.4878 93.1503C51.4878 93.2048 51.7193 93.2865 52.0053 93.3274C52.2777 93.3682 53.2446 93.5589 54.1434 93.7495C56.118 94.1989 57.3301 94.376 58.7736 94.4577C59.3728 94.4985 59.9856 94.5802 60.1491 94.662C60.5576 94.8662 64.1528 94.6483 66.7403 94.2534C67.6255 94.1308 69.3278 93.7768 70.3492 93.5316C70.6488 93.4635 71.1254 93.3682 71.4114 93.3274C71.6838 93.2865 71.9153 93.2048 71.9153 93.1367C71.9153 93.0686 72.0651 93.0141 72.2421 93.0141C72.5826 93.0141 75.4697 92.1426 75.8918 91.9111C76.028 91.843 76.2595 91.7885 76.4093 91.7885C76.5591 91.7885 76.6817 91.7204 76.6817 91.6523C76.6817 91.5706 76.8043 91.5161 76.9541 91.5161C77.1039 91.5161 77.5805 91.3527 78.0027 91.1484C79.705 90.3722 80.5629 89.95 80.631 89.8683C80.6719 89.8275 80.917 89.6777 81.1894 89.5551C81.4617 89.4325 81.8158 89.201 81.9656 89.0648C82.129 88.915 82.2924 88.7925 82.3333 88.7925C82.3878 88.7925 82.5103 88.7108 82.6057 88.629C82.9053 88.3567 83.1096 88.2069 83.627 87.8392C84.2399 87.4034 86.446 85.2108 86.9635 84.5027C87.195 84.2031 87.481 83.8354 87.6172 83.6992C87.7398 83.5494 87.8487 83.3724 87.8487 83.3179C87.8487 83.2498 87.9577 83.0864 88.0939 82.9366C88.2164 82.8004 88.4479 82.4463 88.5977 82.1603C88.7475 81.8744 88.8973 81.6156 88.9382 81.5748C89.0744 81.4522 89.8642 79.7363 89.9596 79.355C90.014 79.1507 90.1094 78.9464 90.1775 78.9056C90.2455 78.8647 90.3 78.6877 90.3 78.497C90.3 78.32 90.3681 78.1702 90.4362 78.1702C90.5179 78.1702 90.5724 77.9931 90.5724 77.7752C90.5724 77.5437 90.6269 77.3258 90.7086 77.285C90.7767 77.2441 90.8448 77.0671 90.8448 76.9173C90.8448 76.7539 90.8992 76.4406 90.9809 76.2091C91.1852 75.5146 91.5257 72.5867 91.5257 71.4291C91.5257 69.6179 91.0218 65.8047 90.695 65.2055C90.6269 65.0694 90.5724 64.7289 90.5724 64.4429C90.5724 64.1569 90.5179 63.8709 90.4498 63.7892C90.3953 63.7211 90.2319 63.2717 90.1094 62.7815C89.7825 61.5831 89.5783 60.9702 89.4557 60.8068C89.4012 60.7387 89.3467 60.5072 89.3467 60.3029C89.3467 60.0987 89.2923 59.9216 89.2106 59.9216C89.1425 59.9216 89.0744 59.7718 89.0744 59.5812C89.0744 59.3905 89.0335 59.2407 88.9654 59.2407C88.9109 59.2407 88.7884 58.9956 88.7067 58.696C88.4207 57.8244 86.8954 54.5696 86.732 54.5015C86.6639 54.4743 86.6231 54.3654 86.6231 54.2564C86.6231 54.1475 86.5686 54.0658 86.4869 54.0658C86.4188 54.0658 86.3507 53.9432 86.3507 53.807C86.3507 53.6572 86.3099 53.521 86.2554 53.4938C86.1192 53.4393 85.3974 52.3362 85.3974 52.1864C85.3974 52.1319 85.2749 51.9958 85.1251 51.8868C84.9753 51.7779 84.8527 51.6417 84.8527 51.5736C84.8527 51.2195 81.2575 47.3383 80.2906 46.6438C80.0727 46.494 79.7731 46.2488 79.6233 46.099C79.4598 45.9492 78.956 45.5815 78.4929 45.2819C78.0163 44.9823 77.635 44.6963 77.635 44.6283C77.635 44.5738 77.5669 44.5329 77.4852 44.5329C77.4035 44.5329 77.172 44.424 76.9813 44.2742C76.6681 44.0563 76.0416 43.7158 74.5709 42.9396C74.4211 42.8579 73.9036 42.6264 73.4133 42.4221C72.923 42.2178 72.4192 41.9999 72.2966 41.9318C72.1604 41.8637 71.9561 41.8093 71.8472 41.8093C71.7383 41.8093 71.6429 41.7412 71.6429 41.6731C71.6429 41.5914 71.4659 41.5369 71.2616 41.5369C71.0573 41.5369 70.8258 41.4824 70.7441 41.4143C70.676 41.3599 70.1585 41.1964 69.6002 41.0603C69.0418 40.9377 68.4699 40.7743 68.3473 40.7062C68.2111 40.6381 67.8843 40.5836 67.6255 40.5836C67.3668 40.5836 67.1489 40.5155 67.1489 40.4474C67.1489 40.3657 66.822 40.3112 66.4407 40.3112C66.0458 40.3112 65.5011 40.2568 65.2423 40.1887C64.575 40.0116 61.6471 39.9436 59.8631 40.0525Z" fill="#333333"/>
</g>
<g filter="url(#filter2_d_489_13403)">
<mask id="mask0_489_13403" style="mask-type:luminance" maskUnits="userSpaceOnUse" x="39" y="28" width="46" height="19">
<path d="M39 28H84.9676V46.6193H39V28Z" fill="white"/>
</mask>
<g mask="url(#mask0_489_13403)">
<path d="M74.0688 35.1372C74.0706 35.1207 74.0727 35.1041 74.0756 35.0873C74.0727 35.1041 74.0704 35.1207 74.0688 35.1372ZM84.6842 44.2881C84.9547 45.4838 81.0874 45.6738 80.2522 45.8255C73.17 46.5463 66.0362 46.6061 58.9232 46.5649C56.676 46.4821 39.0135 46.4496 39.1598 44.4255C39.1604 44.4253 39.1608 44.4253 39.1614 44.4253C39.1031 43.4121 41.8123 43.2445 42.5689 43.0926C43.9149 42.9115 45.2676 42.7905 46.6214 42.6891C47.7253 42.6075 48.8303 42.5393 49.9356 42.485C49.8905 41.6583 49.842 40.8316 49.7957 40.0051C49.7375 38.9652 49.6794 37.9253 49.6212 36.8852C49.5637 35.8557 49.506 34.826 49.4484 33.7962C49.428 33.4285 49.4079 33.0608 49.3868 32.693C49.3839 32.6434 49.3905 32.5951 49.405 32.55C49.4025 32.4629 49.4029 32.376 49.4079 32.2887C49.4408 31.6004 49.8267 30.9905 50.2961 30.5088C51.2886 29.4921 52.6757 28.9896 54.0276 28.6556C54.5797 28.5304 55.1397 28.447 55.7018 28.3837C55.7591 28.3597 55.8189 28.3487 55.8802 28.3388C55.9596 28.326 56.0391 28.314 56.1186 28.3032C56.2601 28.2842 56.4016 28.2664 56.5436 28.2498C56.8213 28.2175 57.0994 28.191 57.3788 28.1708C57.9454 28.1302 58.5129 28.0954 59.0807 28.0702C59.661 28.0441 60.2416 28.0242 60.8227 28.0189C61.4146 28.0135 62.0068 28.0209 62.5987 28.0329C63.1678 28.0441 63.7364 28.0677 64.3051 28.0901C64.861 28.112 65.4176 28.1281 65.9731 28.1608C66.5306 28.1935 67.0872 28.2395 67.6439 28.2846C67.8949 28.3049 68.1465 28.3227 68.3976 28.3442C68.3978 28.3442 68.3978 28.3442 68.3978 28.3442C68.464 28.3417 68.5329 28.3522 68.5989 28.3624C68.727 28.3746 68.8549 28.388 68.9824 28.4038C69.0147 28.4079 69.0519 28.4096 69.0846 28.4178C69.0954 28.4205 69.1057 28.4234 69.1161 28.4263C69.3584 28.4555 69.6003 28.4859 69.8408 28.5284C71.23 28.786 72.8673 29.3377 73.812 30.4357C74.6906 31.3583 74.8626 32.6403 74.9003 33.862C74.9025 34.1354 74.9139 34.4092 74.9152 34.6828C74.9309 34.7283 74.9394 34.7769 74.9394 34.8272C74.9394 34.8353 74.9394 34.8433 74.9394 34.8514C74.9394 34.8516 74.9394 34.8518 74.9394 34.852C74.9394 35.8414 74.9361 36.831 74.9344 37.8206C74.9328 38.8832 74.9307 39.9459 74.9292 41.0085C74.9284 41.5182 74.9276 42.0279 74.9265 42.5376C75.1823 42.5519 75.4379 42.5686 75.6935 42.5846C77.0806 42.7367 84.5189 42.9534 84.6842 44.2881Z" fill="#FFEAB2"/>
</g>
<mask id="mask1_489_13403" style="mask-type:luminance" maskUnits="userSpaceOnUse" x="49" y="35" width="26" height="8">
<path d="M49.7421 35.8677H74.9974V42.6903H49.7421V35.8677Z" fill="white"/>
</mask>
<g mask="url(#mask1_489_13403)">
<path d="M74.9759 37.5988C74.9759 38.1355 74.9722 38.6716 74.9703 39.2083C74.9681 39.914 74.9656 40.6196 74.9631 41.3259C74.9623 41.5683 74.9614 41.8108 74.9606 42.0539V42.0546C74.9606 42.0608 74.9606 42.067 74.9606 42.0726C74.9606 42.0733 74.9606 42.0739 74.9606 42.0739C74.9606 42.0776 74.9606 42.0807 74.9606 42.0845C74.9606 42.0988 74.9606 42.1132 74.9604 42.1275C74.9844 42.3587 74.9438 42.6505 74.8288 42.6474C66.7558 41.3383 58.6587 41.3109 50.5818 42.3313C50.3595 42.3619 50.1373 42.3943 49.915 42.4267C49.8428 42.4367 49.7787 42.279 49.7731 42.0577C49.7718 42.0066 49.7741 41.9561 49.7793 41.9087C49.7766 41.5658 49.776 41.2224 49.7743 40.8795C49.7704 40.139 49.7664 39.3984 49.7629 38.6579C49.7607 38.239 49.7596 37.8201 49.7565 37.4006C49.7565 37.395 49.7563 37.39 49.7563 37.3844C49.7563 37.3782 49.7563 37.3725 49.7563 37.3663C49.7555 37.1488 49.8076 36.9593 49.8819 36.948C49.8995 36.9449 49.9169 36.9536 49.9332 36.9717C50.3674 36.915 50.8016 36.8439 51.2359 36.7934C58.7259 35.9076 66.2292 35.9369 73.7161 37.0129C74.0863 37.0715 74.4563 37.1276 74.8263 37.1943C74.8304 37.1949 74.8344 37.1968 74.8381 37.1986C74.8402 37.198 74.842 37.198 74.8441 37.198C74.9163 37.1992 74.9759 37.3819 74.9759 37.5988Z" fill="#DC9E00"/>
</g>
</g>
<ellipse cx="45.5" cy="64.22" rx="2.5" ry="3.5" fill="white"/>
<ellipse cx="58.5" cy="64.22" rx="2.5" ry="3.5" fill="white"/>
<path d="M55.9792 91.566C55.7467 91.5669 55.3088 91.6603 55.0112 91.7597C54.0571 92.094 54.0082 92.2284 52.7589 97.0352C52.1245 99.4991 51.6474 101.521 51.63 101.874C51.569 103.691 53.7653 104.933 55.4293 104.02C55.684 103.888 55.9557 103.644 56.058 103.503C56.3063 103.106 57.554 98.594 58.149 95.9403C58.6547 93.7158 58.6611 93.6437 58.4655 93.1699C58.2375 92.6242 57.8779 92.2328 57.3087 91.9012C56.8426 91.6182 56.551 91.5507 55.9792 91.566Z" fill="#333333"/>
<path d="M67.7016 92.4037C67.3033 92.7922 66.9208 93.4965 66.8694 93.9372C66.8023 94.5283 67.4669 96.3671 69.2769 100.529L70.9688 104.42L71.5535 104.739C73.2219 105.687 75.3021 104.508 75.2928 102.623C75.2821 101.946 75.0626 101.348 73.1852 97.0004C71.3324 92.6777 71.3035 92.6425 70.8482 92.2786C69.9418 91.561 68.494 91.6169 67.7016 92.4037Z" fill="#333333"/>
<defs>
<filter id="filter0_f_489_13403" x="14" y="69" width="94.8849" height="64.8699" filterUnits="userSpaceOnUse" color-interpolation-filters="sRGB">
<feFlood flood-opacity="0" result="BackgroundImageFix"/>
<feBlend mode="normal" in="SourceGraphic" in2="BackgroundImageFix" result="shape"/>
<feGaussianBlur stdDeviation="10.5" result="effect1_foregroundBlur_489_13403"/>
</filter>
<filter id="filter1_d_489_13403" x="0" y="12" width="123.526" height="118.74" filterUnits="userSpaceOnUse" color-interpolation-filters="sRGB">
<feFlood flood-opacity="0" result="BackgroundImageFix"/>
<feColorMatrix in="SourceAlpha" type="matrix" values="0 0 0 0 0 0 0 0 0 0 0 0 0 0 0 0 0 0 127 0" result="hardAlpha"/>
<feOffset dy="4"/>
<feGaussianBlur stdDeviation="16"/>
<feComposite in2="hardAlpha" operator="out"/>
<feColorMatrix type="matrix" values="0 0 0 0 0 0 0 0 0 0 0 0 0 0 0 0 0 0 0.15 0"/>
<feBlend mode="normal" in2="BackgroundImageFix" result="effect1_dropShadow_489_13403"/>
<feBlend mode="normal" in="SourceGraphic" in2="effect1_dropShadow_489_13403" result="shape"/>
</filter>
<filter id="filter2_d_489_13403" x="7.15887" y="0.0170898" width="109.539" height="82.5576" filterUnits="userSpaceOnUse" color-interpolation-filters="sRGB">
<feFlood flood-opacity="0" result="BackgroundImageFix"/>
<feColorMatrix in="SourceAlpha" type="matrix" values="0 0 0 0 0 0 0 0 0 0 0 0 0 0 0 0 0 0 127 0" result="hardAlpha"/>
<feOffset dy="4"/>
<feGaussianBlur stdDeviation="16"/>
<feComposite in2="hardAlpha" operator="out"/>
<feColorMatrix type="matrix" values="0 0 0 0 0 0 0 0 0 0 0 0 0 0 0 0 0 0 0.15 0"/>
<feBlend mode="normal" in2="BackgroundImageFix" result="effect1_dropShadow_489_13403"/>
<feBlend mode="normal" in="SourceGraphic" in2="effect1_dropShadow_489_13403" result="shape"/>
</filter>
</defs>
</svg>
