<svg width="100" height="145" viewBox="0 0 100 145" fill="none" xmlns="http://www.w3.org/2000/svg">
<g opacity="0.2" filter="url(#filter0_f_224_6614)">
<ellipse cx="49.4424" cy="107.021" rx="26.4424" ry="11.435" fill="black"/>
</g>
<g filter="url(#filter1_d_224_6614)">
<path d="M34.1292 44.5036C28.4025 45.0255 26.1616 45.9088 24.3476 48.2776C22.3557 50.807 22 51.9714 22 55.7052C22 60.3626 22.8181 62.6511 32.3507 84.0105C35.1607 90.2738 38.0418 95.6939 39.5713 97.4605C41.8477 100.07 43.3061 100.472 50.7756 100.472C56.7869 100.472 56.8224 100.472 58.9566 99.2672C60.7351 98.2635 61.3753 97.5809 62.9404 95.0515C64.7189 92.1206 75.0695 69.2757 77.2037 63.4942C79.2667 57.9536 79.4446 54.1796 77.9151 50.6866C75.9944 46.3906 73.7535 45.1861 66.2483 44.5036C61.5176 44.062 38.7532 44.062 34.1292 44.5036Z" fill="#333333"/>
<path d="M42.4869 92.8498C42.2605 92.9252 41.858 93.1768 41.5938 93.3906C40.751 94.095 40.7385 94.2711 40.7762 100.409C40.8014 103.554 40.8643 106.12 40.9397 106.548C41.3548 108.736 43.8202 109.516 45.2038 107.894C45.4177 107.655 45.6189 107.277 45.6818 107.076C45.8202 106.523 45.8579 100.736 45.7447 97.378C45.6567 94.5604 45.6441 94.4724 45.3296 93.9692C44.9648 93.3906 44.512 93.0384 43.8705 92.8246C43.3422 92.6359 43.0403 92.6485 42.4869 92.8498Z" fill="#333333"/>
<path d="M55.8705 92.8499C55.3422 93.0763 54.7007 93.6423 54.4742 94.0826C54.1724 94.6738 54.0466 96.9128 54.0466 102.12V106.988L54.4617 107.592C55.6315 109.353 58.0465 109.064 58.8012 107.076C59.0654 106.359 59.1031 105.63 59.1157 100.196C59.1409 94.7996 59.1283 94.7492 58.8516 94.1581C58.2981 92.9883 56.9271 92.3845 55.8705 92.8499Z" fill="#333333"/>
</g>
<g filter="url(#filter2_d_224_6614)">
<mask id="mask0_224_6614" style="mask-type:luminance" maskUnits="userSpaceOnUse" x="27" y="28" width="46" height="20">
<path d="M27 28.5864H72.9676V47.2057H27V28.5864Z" fill="white"/>
</mask>
<g mask="url(#mask0_224_6614)">
<path d="M62.0688 35.7236C62.0706 35.7071 62.0727 35.6905 62.0756 35.6738C62.0727 35.6905 62.0704 35.7071 62.0688 35.7236ZM72.6842 44.8745C72.9547 46.0702 69.0874 46.2602 68.2522 46.4119C61.17 47.1327 54.0362 47.1925 46.9232 47.1513C44.676 47.0685 27.0135 47.036 27.1598 45.0119C27.1604 45.0117 27.1608 45.0117 27.1614 45.0117C27.1031 43.9986 29.8123 43.8309 30.5689 43.679C31.9149 43.498 33.2676 43.3769 34.6214 43.2755C35.7253 43.194 36.8303 43.1257 37.9356 43.0715C37.8905 42.2447 37.842 41.418 37.7957 40.5915C37.7375 39.5516 37.6794 38.5117 37.6212 37.4717C37.5637 36.4421 37.506 35.4124 37.4484 34.3827C37.428 34.0149 37.4079 33.6472 37.3868 33.2795C37.3839 33.2298 37.3905 33.1816 37.405 33.1365C37.4025 33.0493 37.4029 32.9624 37.4079 32.8751C37.4408 32.1868 37.8267 31.577 38.2961 31.0952C39.2886 30.0785 40.6757 29.576 42.0276 29.242C42.5797 29.1169 43.1397 29.0334 43.7018 28.9701C43.7591 28.9461 43.8189 28.9352 43.8802 28.9252C43.9596 28.9124 44.0391 28.9004 44.1186 28.8896C44.2601 28.8706 44.4016 28.8528 44.5436 28.8362C44.8213 28.804 45.0994 28.7775 45.3788 28.7572C45.9454 28.7166 46.5129 28.6819 47.0807 28.6566C47.661 28.6305 48.2416 28.6107 48.8227 28.6053C49.4146 28.5999 50.0068 28.6074 50.5987 28.6194C51.1678 28.6305 51.7364 28.6541 52.3051 28.6765C52.861 28.6984 53.4176 28.7146 53.9731 28.7473C54.5306 28.78 55.0872 28.8259 55.6439 28.871C55.8949 28.8913 56.1465 28.9091 56.3976 28.9306C56.3978 28.9306 56.3978 28.9306 56.3978 28.9306C56.464 28.9281 56.5329 28.9387 56.5989 28.9488C56.727 28.961 56.8549 28.9745 56.9824 28.9902C57.0147 28.9943 57.0519 28.996 57.0846 29.0043C57.0954 29.007 57.1057 29.0099 57.1161 29.0128C57.3584 29.0419 57.6003 29.0724 57.8408 29.1148C59.23 29.3724 60.8673 29.9241 61.812 31.0221C62.6906 31.9447 62.8626 33.2267 62.9003 34.4485C62.9025 34.7218 62.9139 34.9956 62.9152 35.2692C62.9309 35.3147 62.9394 35.3633 62.9394 35.4136C62.9394 35.4217 62.9394 35.4298 62.9394 35.4378C62.9394 35.4381 62.9394 35.4383 62.9394 35.4385C62.9394 36.4278 62.9361 37.4174 62.9344 38.407C62.9328 39.4697 62.9307 40.5323 62.9292 41.5949C62.9284 42.1046 62.9276 42.6143 62.9265 43.124C63.1823 43.1383 63.4379 43.1551 63.6935 43.171C65.0806 43.3231 72.5189 43.5398 72.6842 44.8745Z" fill="#FFEAB2"/>
</g>
<mask id="mask1_224_6614" style="mask-type:luminance" maskUnits="userSpaceOnUse" x="37" y="36" width="26" height="8">
<path d="M37.7421 36.4541H62.9974V43.2767H37.7421V36.4541Z" fill="white"/>
</mask>
<g mask="url(#mask1_224_6614)">
<path d="M62.9759 38.1852C62.9759 38.722 62.9722 39.258 62.9703 39.7947C62.9681 40.5004 62.9656 41.206 62.9631 41.9123C62.9623 42.1548 62.9614 42.3972 62.9606 42.6404V42.641C62.9606 42.6472 62.9606 42.6534 62.9606 42.6591C62.9606 42.6597 62.9606 42.6603 62.9606 42.6603C62.9606 42.664 62.9606 42.6672 62.9606 42.6709C62.9606 42.6852 62.9606 42.6996 62.9604 42.7139C62.9844 42.9452 62.9438 43.2369 62.8288 43.2338C54.7558 41.9247 46.6587 41.8973 38.5818 42.9178C38.3595 42.9483 38.1373 42.9807 37.915 43.0131C37.8428 43.0231 37.7787 42.8654 37.7731 42.6441C37.7718 42.593 37.7741 42.5425 37.7793 42.4951C37.7766 42.1523 37.776 41.8088 37.7743 41.466C37.7704 40.7254 37.7664 39.9849 37.7629 39.2443C37.7607 38.8254 37.7596 38.4065 37.7565 37.987C37.7565 37.9814 37.7563 37.9764 37.7563 37.9708C37.7563 37.9646 37.7563 37.959 37.7563 37.9527C37.7555 37.7352 37.8076 37.5457 37.8819 37.5345C37.8995 37.5313 37.9169 37.5401 37.9332 37.5581C38.3674 37.5014 38.8016 37.4304 39.2359 37.3799C46.7259 36.4941 54.2292 36.5234 61.7161 37.5993C62.0863 37.6579 62.4563 37.714 62.8263 37.7807C62.8304 37.7813 62.8344 37.7832 62.8381 37.7851C62.8402 37.7844 62.842 37.7844 62.8441 37.7844C62.9163 37.7857 62.9759 37.9683 62.9759 38.1852Z" fill="#814747"/>
</g>
</g>
<ellipse cx="34.5" cy="68.3923" rx="2.5" ry="3.5" fill="white"/>
<ellipse cx="47.5" cy="68.3923" rx="2.5" ry="3.5" fill="white"/>
<defs>
<filter id="filter0_f_224_6614" x="2" y="74.5862" width="94.8849" height="64.8699" filterUnits="userSpaceOnUse" color-interpolation-filters="sRGB">
<feFlood flood-opacity="0" result="BackgroundImageFix"/>
<feBlend mode="normal" in="SourceGraphic" in2="BackgroundImageFix" result="shape"/>
<feGaussianBlur stdDeviation="10.5" result="effect1_foregroundBlur_224_6614"/>
</filter>
<filter id="filter1_d_224_6614" x="-10" y="16.1724" width="120.927" height="128.586" filterUnits="userSpaceOnUse" color-interpolation-filters="sRGB">
<feFlood flood-opacity="0" result="BackgroundImageFix"/>
<feColorMatrix in="SourceAlpha" type="matrix" values="0 0 0 0 0 0 0 0 0 0 0 0 0 0 0 0 0 0 127 0" result="hardAlpha"/>
<feOffset dy="4"/>
<feGaussianBlur stdDeviation="16"/>
<feComposite in2="hardAlpha" operator="out"/>
<feColorMatrix type="matrix" values="0 0 0 0 0 0 0 0 0 0 0 0 0 0 0 0 0 0 0.15 0"/>
<feBlend mode="normal" in2="BackgroundImageFix" result="effect1_dropShadow_224_6614"/>
<feBlend mode="normal" in="SourceGraphic" in2="effect1_dropShadow_224_6614" result="shape"/>
</filter>
<filter id="filter2_d_224_6614" x="-4.84113" y="0.603516" width="109.539" height="82.5576" filterUnits="userSpaceOnUse" color-interpolation-filters="sRGB">
<feFlood flood-opacity="0" result="BackgroundImageFix"/>
<feColorMatrix in="SourceAlpha" type="matrix" values="0 0 0 0 0 0 0 0 0 0 0 0 0 0 0 0 0 0 127 0" result="hardAlpha"/>
<feOffset dy="4"/>
<feGaussianBlur stdDeviation="16"/>
<feComposite in2="hardAlpha" operator="out"/>
<feColorMatrix type="matrix" values="0 0 0 0 0 0 0 0 0 0 0 0 0 0 0 0 0 0 0.15 0"/>
<feBlend mode="normal" in2="BackgroundImageFix" result="effect1_dropShadow_224_6614"/>
<feBlend mode="normal" in="SourceGraphic" in2="effect1_dropShadow_224_6614" result="shape"/>
</filter>
</defs>
</svg>
