<svg width="100" height="125" viewBox="0 0 100 125" fill="none" xmlns="http://www.w3.org/2000/svg">
<g opacity="0.2" filter="url(#filter0_f_224_6483)">
<ellipse cx="49.4424" cy="102.194" rx="26.4424" ry="11.435" fill="black"/>
</g>
<g filter="url(#filter1_d_224_6483)">
<path d="M47.8631 40.811C45.7114 40.9472 44.6355 41.0698 44.3223 41.206C44.1725 41.2741 43.8729 41.3558 43.6414 41.383C43.4235 41.4239 42.6473 41.6145 41.9391 41.8052C41.231 42.0095 40.482 42.2137 40.2777 42.2546C40.0598 42.2954 39.8964 42.3772 39.8964 42.4452C39.8964 42.5133 39.7738 42.5678 39.624 42.5678C39.4742 42.5678 39.2427 42.6223 39.1065 42.6904C38.9839 42.7585 38.6299 42.9219 38.3303 43.0444C37.3225 43.4666 34.7078 44.8012 34.4763 45.0191C34.3537 45.1281 34.0813 45.3051 33.8907 45.4004C33.7 45.5094 33.3596 45.7409 33.1553 45.9179C32.951 46.0949 32.7331 46.2448 32.6787 46.2448C32.6378 46.2448 32.4744 46.3537 32.3246 46.4763C32.1884 46.6124 31.8207 46.8984 31.5211 47.1299C30.7993 47.6747 27.9395 50.5345 27.422 51.2154C27.2041 51.515 26.9181 51.8827 26.7955 52.0189C26.6594 52.1687 26.5504 52.3321 26.5504 52.373C26.5504 52.4275 26.4006 52.6454 26.21 52.8633C26.0193 53.0811 25.8695 53.3399 25.8695 53.4216C25.8695 53.5169 25.815 53.5986 25.7333 53.5986C25.6652 53.5986 25.5971 53.6804 25.5971 53.7893C25.5971 53.8983 25.5563 54.0072 25.4882 54.0344C25.3248 54.1025 24.3715 55.7776 24.3715 55.9955C24.3715 56.1044 24.317 56.1861 24.2353 56.1861C24.1672 56.1861 24.0991 56.3087 24.0991 56.4585C24.0991 56.6083 24.0446 56.7309 23.9629 56.7309C23.8948 56.7309 23.8267 56.799 23.8267 56.867C23.8267 56.9488 23.6769 57.3164 23.4863 57.7114C23.2956 58.0927 23.1458 58.5012 23.1458 58.5966C23.1458 58.6919 23.0914 58.7736 23.0096 58.7736C22.9416 58.7736 22.8735 58.9098 22.8735 59.0868C22.8735 59.2639 22.819 59.4545 22.7509 59.5226C22.6828 59.6043 22.4649 60.1491 22.2606 60.7483C22.07 61.3475 21.8521 61.9467 21.784 62.0692C21.7023 62.2054 21.6478 62.4369 21.6478 62.5731C21.6478 62.7229 21.5933 62.8863 21.5116 62.9272C21.4435 62.968 21.3755 63.2268 21.3755 63.4855C21.3755 63.7443 21.321 63.9486 21.2665 63.9486C21.212 63.9486 21.0758 64.3299 20.9805 64.7929C20.8852 65.2695 20.7218 65.9641 20.6128 66.359C20.5039 66.7403 20.4222 67.2987 20.4222 67.5847C20.4222 67.8706 20.3677 68.1702 20.2996 68.2383C20.1634 68.3881 20 70.5671 20 72.2557C20 75.1428 20.6401 78.4385 21.5253 80.1816C21.5933 80.3178 21.6478 80.5221 21.6478 80.631C21.6478 80.74 21.7159 80.8353 21.784 80.8353C21.8657 80.8353 21.9202 80.9442 21.9202 81.0668C21.9338 81.203 22.1108 81.6115 22.3424 81.9928C22.5602 82.3605 22.7781 82.7827 22.8326 82.9053C22.8735 83.0415 22.9552 83.1504 23.0233 83.1504C23.0914 83.1504 23.1458 83.2049 23.1458 83.2866C23.1458 83.4364 24.1127 84.8255 24.2625 84.8935C24.3306 84.9208 24.3715 85.0161 24.3715 85.0978C24.3715 85.3157 27.6943 88.5705 28.348 89.0063C28.634 89.1969 28.8655 89.3876 28.8655 89.4421C28.8655 89.5102 28.9609 89.551 29.0698 89.551C29.1787 89.551 29.2741 89.6055 29.2741 89.6872C29.2741 89.7553 29.3558 89.8234 29.4511 89.8234C29.5464 89.8234 29.7507 89.9323 29.9005 90.0685C30.0367 90.1911 30.418 90.4226 30.7312 90.5724C31.0581 90.7222 31.3168 90.8856 31.3168 90.9401C31.3168 91.0082 31.4394 91.049 31.5892 91.049C31.739 91.049 31.8616 91.1035 31.8616 91.1852C31.8616 91.2533 31.9705 91.3214 32.1067 91.3214C32.2429 91.3214 32.4063 91.3759 32.488 91.4303C32.5561 91.4984 33.0463 91.7163 33.5638 91.9206C34.095 92.1385 34.6261 92.3564 34.7486 92.4245C34.8848 92.4926 35.1163 92.547 35.2661 92.547C35.4159 92.547 35.5385 92.6015 35.5385 92.6832C35.5385 92.7513 35.6883 92.8194 35.879 92.8194C36.0696 92.8194 36.3284 92.8739 36.4645 92.9556C36.805 93.1462 38.3847 93.6365 38.9839 93.7318C39.2563 93.7727 39.4878 93.8544 39.4878 93.9089C39.4878 93.9633 39.7193 94.0451 40.0053 94.0859C40.2777 94.1268 41.2446 94.3174 42.1434 94.5081C44.118 94.9575 45.3301 95.1345 46.7736 95.2162C47.3728 95.2571 47.9856 95.3388 48.1491 95.4205C48.5576 95.6248 52.1528 95.4069 54.7403 95.012C55.6255 94.8894 57.3278 94.5353 58.3492 94.2902C58.6488 94.2221 59.1254 94.1268 59.4114 94.0859C59.6838 94.0451 59.9153 93.9633 59.9153 93.8953C59.9153 93.8272 60.0651 93.7727 60.2421 93.7727C60.5826 93.7727 63.4697 92.9011 63.8918 92.6696C64.028 92.6015 64.2595 92.547 64.4093 92.547C64.5591 92.547 64.6817 92.4789 64.6817 92.4109C64.6817 92.3291 64.8043 92.2747 64.9541 92.2747C65.1039 92.2747 65.5805 92.1113 66.0027 91.907C67.705 91.1307 68.5629 90.7086 68.631 90.6269C68.6719 90.586 68.917 90.4362 69.1894 90.3136C69.4617 90.1911 69.8158 89.9596 69.9656 89.8234C70.129 89.6736 70.2924 89.551 70.3333 89.551C70.3878 89.551 70.5103 89.4693 70.6057 89.3876C70.9053 89.1152 71.1096 88.9654 71.627 88.5977C72.2399 88.1619 74.446 85.9694 74.9635 85.2612C75.195 84.9616 75.481 84.5939 75.6172 84.4578C75.7398 84.308 75.8487 84.1309 75.8487 84.0764C75.8487 84.0084 75.9577 83.8449 76.0939 83.6951C76.2164 83.5589 76.4479 83.2049 76.5977 82.9189C76.7475 82.6329 76.8973 82.3742 76.9382 82.3333C77.0744 82.2107 77.8642 80.4948 77.9596 80.1135C78.014 79.9092 78.1094 79.705 78.1775 79.6641C78.2455 79.6233 78.3 79.4462 78.3 79.2556C78.3 79.0785 78.3681 78.9287 78.4362 78.9287C78.5179 78.9287 78.5724 78.7517 78.5724 78.5338C78.5724 78.3023 78.6269 78.0844 78.7086 78.0435C78.7767 78.0027 78.8448 77.8256 78.8448 77.6758C78.8448 77.5124 78.8992 77.1992 78.9809 76.9677C79.1852 76.2731 79.5257 73.3452 79.5257 72.1876C79.5257 70.3764 79.0218 66.5633 78.695 65.9641C78.6269 65.8279 78.5724 65.4874 78.5724 65.2015C78.5724 64.9155 78.5179 64.6295 78.4498 64.5478C78.3953 64.4797 78.2319 64.0303 78.1094 63.54C77.7825 62.3416 77.5783 61.7288 77.4557 61.5654C77.4012 61.4973 77.3467 61.2658 77.3467 61.0615C77.3467 60.8572 77.2923 60.6802 77.2106 60.6802C77.1425 60.6802 77.0744 60.5304 77.0744 60.3397C77.0744 60.1491 77.0335 59.9993 76.9654 59.9993C76.9109 59.9993 76.7884 59.7541 76.7067 59.4545C76.4207 58.5829 74.8954 55.3282 74.732 55.2601C74.6639 55.2328 74.6231 55.1239 74.6231 55.0149C74.6231 54.906 74.5686 54.8243 74.4869 54.8243C74.4188 54.8243 74.3507 54.7017 74.3507 54.5655C74.3507 54.4157 74.3099 54.2796 74.2554 54.2523C74.1192 54.1979 73.3974 53.0948 73.3974 52.945C73.3974 52.8905 73.2749 52.7543 73.1251 52.6454C72.9753 52.5364 72.8527 52.4002 72.8527 52.3321C72.8527 51.9781 69.2575 48.0968 68.2906 47.4023C68.0727 47.2525 67.7731 47.0074 67.6233 46.8576C67.4598 46.7078 66.956 46.3401 66.4929 46.0405C66.0163 45.7409 65.635 45.4549 65.635 45.3868C65.635 45.3323 65.5669 45.2915 65.4852 45.2915C65.4035 45.2915 65.172 45.1825 64.9813 45.0327C64.6681 44.8148 64.0416 44.4744 62.5709 43.6981C62.4211 43.6164 61.9036 43.3849 61.4133 43.1806C60.923 42.9764 60.4192 42.7585 60.2966 42.6904C60.1604 42.6223 59.9561 42.5678 59.8472 42.5678C59.7383 42.5678 59.6429 42.4997 59.6429 42.4316C59.6429 42.3499 59.4659 42.2954 59.2616 42.2954C59.0573 42.2954 58.8258 42.241 58.7441 42.1729C58.676 42.1184 58.1585 41.955 57.6002 41.8188C57.0418 41.6962 56.4699 41.5328 56.3473 41.4647C56.2111 41.3966 55.8843 41.3422 55.6255 41.3422C55.3668 41.3422 55.1489 41.2741 55.1489 41.206C55.1489 41.1243 54.822 41.0698 54.4407 41.0698C54.0458 41.0698 53.5011 41.0153 53.2423 40.9472C52.575 40.7702 49.6471 40.7021 47.8631 40.811Z" fill="#333333"/>
<path d="M42.4869 88.4359C42.2605 88.5114 41.858 88.763 41.5938 88.9768C40.751 89.6812 40.7385 89.8573 40.7762 95.9956C40.8014 99.1403 40.8643 101.706 40.9397 102.134C41.3548 104.323 43.8202 105.102 45.2038 103.48C45.4177 103.241 45.6189 102.863 45.6818 102.662C45.8202 102.109 45.8579 96.3227 45.7447 92.9642C45.6567 90.1466 45.6441 90.0586 45.3296 89.5554C44.9648 88.9768 44.512 88.6246 43.8705 88.4108C43.3422 88.2221 43.0403 88.2347 42.4869 88.4359Z" fill="#333333"/>
<path d="M55.8705 88.4361C55.3422 88.6625 54.7007 89.2285 54.4742 89.6688C54.1724 90.26 54.0466 92.4989 54.0466 97.7064V102.574L54.4617 103.178C55.6315 104.939 58.0465 104.65 58.8012 102.662C59.0654 101.945 59.1031 101.216 59.1157 95.7819C59.1409 90.3857 59.1283 90.3354 58.8516 89.7442C58.2981 88.5744 56.9271 87.9707 55.8705 88.4361Z" fill="#333333"/>
</g>
<g filter="url(#filter2_d_224_6483)">
<mask id="mask0_224_6483" style="mask-type:luminance" maskUnits="userSpaceOnUse" x="27" y="28" width="46" height="20">
<path d="M27 28.7588H72.9676V47.3781H27V28.7588Z" fill="white"/>
</mask>
<g mask="url(#mask0_224_6483)">
<path d="M62.0688 35.896C62.0706 35.8794 62.0727 35.8629 62.0756 35.8461C62.0727 35.8629 62.0704 35.8794 62.0688 35.896ZM72.6842 45.0469C72.9547 46.2426 69.0874 46.4326 68.2522 46.5843C61.17 47.305 54.0362 47.3648 46.9232 47.3237C44.676 47.2409 27.0135 47.2084 27.1598 45.1843C27.1604 45.1841 27.1608 45.1841 27.1614 45.1841C27.1031 44.1709 29.8123 44.0033 30.5689 43.8514C31.9149 43.6703 33.2676 43.5493 34.6214 43.4479C35.7253 43.3663 36.8303 43.298 37.9356 43.2438C37.8905 42.4171 37.842 41.5904 37.7957 40.7639C37.7375 39.724 37.6794 38.6841 37.6212 37.644C37.5637 36.6145 37.506 35.5848 37.4484 34.555C37.428 34.1873 37.4079 33.8196 37.3868 33.4518C37.3839 33.4022 37.3905 33.3539 37.405 33.3088C37.4025 33.2217 37.4029 33.1348 37.4079 33.0475C37.4408 32.3592 37.8267 31.7493 38.2961 31.2676C39.2886 30.2509 40.6757 29.7484 42.0276 29.4144C42.5797 29.2892 43.1397 29.2058 43.7018 29.1425C43.7591 29.1185 43.8189 29.1075 43.8802 29.0976C43.9596 29.0848 44.0391 29.0728 44.1186 29.062C44.2601 29.043 44.4016 29.0252 44.5436 29.0086C44.8213 28.9763 45.0994 28.9498 45.3788 28.9295C45.9454 28.889 46.5129 28.8542 47.0807 28.829C47.661 28.8029 48.2416 28.783 48.8227 28.7777C49.4146 28.7723 50.0068 28.7797 50.5987 28.7917C51.1678 28.8029 51.7364 28.8265 52.3051 28.8488C52.861 28.8708 53.4176 28.8869 53.9731 28.9196C54.5306 28.9523 55.0872 28.9983 55.6439 29.0434C55.8949 29.0636 56.1465 29.0814 56.3976 29.103C56.3978 29.103 56.3978 29.103 56.3978 29.103C56.464 29.1005 56.5329 29.111 56.5989 29.1212C56.727 29.1334 56.8549 29.1468 56.9824 29.1626C57.0147 29.1667 57.0519 29.1684 57.0846 29.1766C57.0954 29.1793 57.1057 29.1822 57.1161 29.1851C57.3584 29.2143 57.6003 29.2447 57.8408 29.2871C59.23 29.5448 60.8673 30.0965 61.812 31.1945C62.6906 32.1171 62.8626 33.3991 62.9003 34.6208C62.9025 34.8942 62.9139 35.168 62.9152 35.4416C62.9309 35.4871 62.9394 35.5357 62.9394 35.586C62.9394 35.5941 62.9394 35.6021 62.9394 35.6102C62.9394 35.6104 62.9394 35.6106 62.9394 35.6108C62.9394 36.6002 62.9361 37.5898 62.9344 38.5794C62.9328 39.642 62.9307 40.7047 62.9292 41.7673C62.9284 42.277 62.9276 42.7867 62.9265 43.2964C63.1823 43.3107 63.4379 43.3274 63.6935 43.3434C65.0806 43.4955 72.5189 43.7121 72.6842 45.0469Z" fill="#FFEAB2"/>
</g>
<mask id="mask1_224_6483" style="mask-type:luminance" maskUnits="userSpaceOnUse" x="37" y="36" width="26" height="8">
<path d="M37.7421 36.6265H62.9974V43.4491H37.7421V36.6265Z" fill="white"/>
</mask>
<g mask="url(#mask1_224_6483)">
<path d="M62.976 38.3576C62.976 38.8943 62.9722 39.4304 62.9704 39.9671C62.9681 40.6727 62.9656 41.3784 62.9631 42.0846C62.9623 42.3271 62.9615 42.5696 62.9606 42.8127V42.8133C62.9606 42.8196 62.9606 42.8258 62.9606 42.8314C62.9606 42.832 62.9606 42.8327 62.9606 42.8327C62.9606 42.8364 62.9606 42.8395 62.9606 42.8433C62.9606 42.8576 62.9606 42.8719 62.9604 42.8863C62.9844 43.1175 62.9439 43.4093 62.8288 43.4061C54.7559 42.0971 46.6587 42.0697 38.5818 43.0901C38.3596 43.1207 38.1373 43.1531 37.9151 43.1855C37.8428 43.1955 37.7787 43.0377 37.7731 42.8165C37.7719 42.7653 37.7741 42.7149 37.7793 42.6675C37.7766 42.3246 37.776 41.9812 37.7743 41.6383C37.7704 40.8978 37.7665 40.1572 37.763 39.4167C37.7607 38.9978 37.7596 38.5789 37.7565 38.1594C37.7565 38.1538 37.7563 38.1488 37.7563 38.1432C37.7563 38.1369 37.7563 38.1313 37.7563 38.1251C37.7555 37.9075 37.8077 37.718 37.8819 37.7068C37.8995 37.7037 37.9169 37.7124 37.9333 37.7305C38.3674 37.6738 38.8016 37.6027 39.236 37.5522C46.726 36.6664 54.2292 36.6957 61.7161 37.7716C62.0863 37.8302 62.4563 37.8864 62.8263 37.953C62.8305 37.9537 62.8344 37.9555 62.8381 37.9574C62.8402 37.9568 62.8421 37.9568 62.8441 37.9568C62.9164 37.958 62.976 38.1407 62.976 38.3576Z" fill="#DC9E00"/>
</g>
</g>
<defs>
<filter id="filter0_f_224_6483" x="2" y="69.7585" width="94.8849" height="64.8699" filterUnits="userSpaceOnUse" color-interpolation-filters="sRGB">
<feFlood flood-opacity="0" result="BackgroundImageFix"/>
<feBlend mode="normal" in="SourceGraphic" in2="BackgroundImageFix" result="shape"/>
<feGaussianBlur stdDeviation="10.5" result="effect1_foregroundBlur_224_6483"/>
</filter>
<filter id="filter1_d_224_6483" x="-12" y="12.7585" width="123.526" height="127.586" filterUnits="userSpaceOnUse" color-interpolation-filters="sRGB">
<feFlood flood-opacity="0" result="BackgroundImageFix"/>
<feColorMatrix in="SourceAlpha" type="matrix" values="0 0 0 0 0 0 0 0 0 0 0 0 0 0 0 0 0 0 127 0" result="hardAlpha"/>
<feOffset dy="4"/>
<feGaussianBlur stdDeviation="16"/>
<feComposite in2="hardAlpha" operator="out"/>
<feColorMatrix type="matrix" values="0 0 0 0 0 0 0 0 0 0 0 0 0 0 0 0 0 0 0.15 0"/>
<feBlend mode="normal" in2="BackgroundImageFix" result="effect1_dropShadow_224_6483"/>
<feBlend mode="normal" in="SourceGraphic" in2="effect1_dropShadow_224_6483" result="shape"/>
</filter>
<filter id="filter2_d_224_6483" x="-4.84113" y="0.775879" width="109.539" height="82.5576" filterUnits="userSpaceOnUse" color-interpolation-filters="sRGB">
<feFlood flood-opacity="0" result="BackgroundImageFix"/>
<feColorMatrix in="SourceAlpha" type="matrix" values="0 0 0 0 0 0 0 0 0 0 0 0 0 0 0 0 0 0 127 0" result="hardAlpha"/>
<feOffset dy="4"/>
<feGaussianBlur stdDeviation="16"/>
<feComposite in2="hardAlpha" operator="out"/>
<feColorMatrix type="matrix" values="0 0 0 0 0 0 0 0 0 0 0 0 0 0 0 0 0 0 0.15 0"/>
<feBlend mode="normal" in2="BackgroundImageFix" result="effect1_dropShadow_224_6483"/>
<feBlend mode="normal" in="SourceGraphic" in2="effect1_dropShadow_224_6483" result="shape"/>
</filter>
</defs>
</svg>
