<svg width="110" height="147" viewBox="0 0 110 147" fill="none" xmlns="http://www.w3.org/2000/svg">
<g opacity="0.2" filter="url(#filter0_f_513_13662)">
<ellipse cx="54.4424" cy="114.09" rx="26.4424" ry="11.435" fill="black"/>
</g>
<g filter="url(#filter1_d_513_13662)">
<path d="M52.039 21.6207C45.945 22.9133 40.6205 26.9452 38.1276 32.1466C35.9731 36.6401 35.296 41.6568 34.8959 56.3992C34.8036 59.5385 34.6805 62.4316 34.5882 62.8625C34.4343 63.7243 33.8187 71.1724 33.6341 74.404C33.5725 75.5736 33.3878 77.8819 33.2339 79.4823C32.6492 85.6994 33.1416 90.1929 34.9267 94.6248C37.8506 101.827 41.0822 104.628 49.2998 107.151C52.2544 108.075 57.7328 108.075 60.749 107.151C66.1351 105.489 68.351 104.32 70.844 101.734C72.4752 100.072 73.1523 98.9952 74.8143 95.3019C76.7533 91.0239 77.0303 89.2388 76.7841 81.7906C76.5686 74.7734 76.4763 73.1729 76.1685 71.3263C75.8915 69.4489 75.3991 61.6929 75.2144 56.3992C74.8759 46.5196 74.722 43.842 74.2603 40.8566C73.1523 33.7162 71.8597 30.7616 68.4741 27.3761C65.9504 24.8215 63.8575 23.4981 60.5643 22.3593C58.1021 21.4976 54.2242 21.159 52.039 21.6207Z" fill="#333333"/>
</g>
<g filter="url(#filter2_d_513_13662)">
<mask id="mask0_513_13662" style="mask-type:luminance" maskUnits="userSpaceOnUse" x="32" y="11" width="46" height="20">
<path d="M32 11.4141H77.9676V30.0333H32V11.4141Z" fill="white"/>
</mask>
<g mask="url(#mask0_513_13662)">
<path d="M67.0687 18.5513C67.0706 18.5347 67.0726 18.5182 67.0755 18.5014C67.0726 18.5182 67.0704 18.5347 67.0687 18.5513ZM77.6841 27.7022C77.9546 28.8979 74.0873 29.0879 73.2521 29.2395C66.17 29.9603 59.0361 30.0201 51.9232 29.9789C49.676 29.8962 32.0134 29.8637 32.1597 27.8396C32.1603 27.8394 32.1607 27.8394 32.1614 27.8394C32.103 26.8262 34.8123 26.6586 35.5689 26.5067C36.9148 26.3256 38.2676 26.2045 39.6214 26.1031C40.7252 26.0216 41.8303 25.9533 42.9355 25.8991C42.8904 25.0724 42.842 24.2456 42.7956 23.4191C42.7375 22.3793 42.6793 21.3394 42.6212 20.2993C42.5637 19.2698 42.5059 18.24 42.4484 17.2103C42.4279 16.8426 42.4078 16.4748 42.3867 16.1071C42.3838 16.0574 42.3904 16.0092 42.4049 15.9641C42.4024 15.877 42.4029 15.7901 42.4078 15.7027C42.4407 15.0144 42.8267 14.4046 43.296 13.9228C44.2885 12.9061 45.6756 12.4037 47.0276 12.0697C47.5797 11.9445 48.1397 11.8611 48.7017 11.7978C48.759 11.7738 48.8188 11.7628 48.8801 11.7529C48.9596 11.74 49.039 11.728 49.1185 11.7173C49.26 11.6982 49.4016 11.6804 49.5435 11.6639C49.8213 11.6316 50.0994 11.6051 50.3788 11.5848C50.9454 11.5443 51.5128 11.5095 52.0806 11.4843C52.6609 11.4582 53.2416 11.4383 53.8227 11.4329C54.4145 11.4276 55.0068 11.435 55.5986 11.447C56.1677 11.4582 56.7364 11.4818 57.3051 11.5041C57.8609 11.5261 58.4176 11.5422 58.973 11.5749C59.5305 11.6076 60.0872 11.6535 60.6438 11.6986C60.8948 11.7189 61.1465 11.7367 61.3975 11.7582C61.3977 11.7582 61.3977 11.7582 61.3977 11.7582C61.4639 11.7558 61.5329 11.7663 61.5989 11.7765C61.727 11.7887 61.8549 11.8021 61.9823 11.8178C62.0146 11.822 62.0519 11.8236 62.0846 11.8319C62.0953 11.8346 62.1057 11.8375 62.116 11.8404C62.3583 11.8696 62.6003 11.9 62.8407 11.9424C64.2299 12.2001 65.8672 12.7518 66.8119 13.8498C67.6906 14.7723 67.8625 16.0543 67.9002 17.2761C67.9025 17.5495 67.9139 17.8232 67.9151 18.0968C67.9308 18.1424 67.9393 18.191 67.9393 18.2413C67.9393 18.2493 67.9393 18.2574 67.9393 18.2655C67.9393 18.2657 67.9393 18.2659 67.9393 18.2661C67.9393 19.2555 67.936 20.2451 67.9343 21.2347C67.9327 22.2973 67.9306 23.3599 67.9292 24.4226C67.9283 24.9323 67.9275 25.442 67.9265 25.9517C68.1823 25.9659 68.4378 25.9827 68.6934 25.9986C70.0805 26.1507 77.5188 26.3674 77.6841 27.7022Z" fill="#FFEAB2"/>
</g>
<mask id="mask1_513_13662" style="mask-type:luminance" maskUnits="userSpaceOnUse" x="42" y="19" width="26" height="8">
<path d="M42.7421 19.2817H67.9974V26.1044H42.7421V19.2817Z" fill="white"/>
</mask>
<g mask="url(#mask1_513_13662)">
<path d="M67.9759 21.0129C67.9759 21.5496 67.9721 22.0857 67.9703 22.6224C67.968 23.328 67.9655 24.0337 67.963 24.7399C67.9622 24.9824 67.9614 25.2249 67.9606 25.468V25.4686C67.9606 25.4748 67.9606 25.4811 67.9606 25.4867C67.9606 25.4873 67.9606 25.4879 67.9606 25.4879C67.9606 25.4917 67.9606 25.4948 67.9606 25.4985C67.9606 25.5129 67.9606 25.5272 67.9603 25.5415C67.9844 25.7728 67.9438 26.0645 67.8287 26.0614C59.7558 24.7524 51.6586 24.725 43.5817 25.7454C43.3595 25.7759 43.1372 25.8083 42.915 25.8408C42.8427 25.8507 42.7786 25.693 42.773 25.4717C42.7718 25.4206 42.774 25.3701 42.7792 25.3227C42.7765 24.9799 42.7759 24.6364 42.7742 24.2936C42.7703 23.5531 42.7664 22.8125 42.7629 22.072C42.7606 21.6531 42.7596 21.2342 42.7564 20.8147C42.7564 20.809 42.7562 20.8041 42.7562 20.7984C42.7562 20.7922 42.7562 20.7866 42.7562 20.7804C42.7554 20.5628 42.8076 20.3733 42.8818 20.3621C42.8994 20.359 42.9168 20.3677 42.9332 20.3858C43.3673 20.3291 43.8015 20.258 44.2359 20.2075C51.7259 19.3217 59.2291 19.351 66.716 20.4269C67.0862 20.4855 67.4562 20.5416 67.8262 20.6083C67.8304 20.609 67.8343 20.6108 67.838 20.6127C67.8401 20.6121 67.842 20.6121 67.844 20.6121C67.9163 20.6133 67.9759 20.7959 67.9759 21.0129Z" fill="#5179C8"/>
</g>
</g>
<path d="M47.7217 100.159C47.4953 100.235 47.0928 100.486 46.8287 100.7C45.9859 101.404 45.9733 101.58 46.0111 107.719C46.0362 110.863 46.0991 113.429 46.1746 113.857C46.5897 116.046 49.0551 116.826 50.4387 115.203C50.6525 114.964 50.8538 114.587 50.9167 114.385C51.0551 113.832 51.0928 108.046 50.9796 104.687C50.8915 101.87 50.879 101.782 50.5645 101.279C50.1997 100.7 49.7469 100.348 49.1054 100.134C48.5771 99.9452 48.2752 99.9578 47.7217 100.159Z" fill="#333333"/>
<path d="M60.7959 101.118C60.2757 101.287 59.644 101.71 59.4211 102.039C59.1239 102.48 59 104.11 59 108V111.5L59.4087 112.13C60.5606 113.446 62.9386 113.23 63.6817 111.745C63.9418 111.21 63.979 110.665 63.9914 106.605C64.0161 102.574 64.0038 102.537 63.7313 102.095C63.1863 101.221 61.8363 100.77 60.7959 101.118Z" fill="#333333"/>
<defs>
<filter id="filter0_f_513_13662" x="7" y="81.6553" width="94.8849" height="64.8699" filterUnits="userSpaceOnUse" color-interpolation-filters="sRGB">
<feFlood flood-opacity="0" result="BackgroundImageFix"/>
<feBlend mode="normal" in="SourceGraphic" in2="BackgroundImageFix" result="shape"/>
<feGaussianBlur stdDeviation="10.5" result="effect1_foregroundBlur_513_13662"/>
</filter>
<filter id="filter1_d_513_13662" x="1" y="-6.58618" width="107.86" height="150.43" filterUnits="userSpaceOnUse" color-interpolation-filters="sRGB">
<feFlood flood-opacity="0" result="BackgroundImageFix"/>
<feColorMatrix in="SourceAlpha" type="matrix" values="0 0 0 0 0 0 0 0 0 0 0 0 0 0 0 0 0 0 127 0" result="hardAlpha"/>
<feOffset dy="4"/>
<feGaussianBlur stdDeviation="16"/>
<feComposite in2="hardAlpha" operator="out"/>
<feColorMatrix type="matrix" values="0 0 0 0 0 0 0 0 0 0 0 0 0 0 0 0 0 0 0.15 0"/>
<feBlend mode="normal" in2="BackgroundImageFix" result="effect1_dropShadow_513_13662"/>
<feBlend mode="normal" in="SourceGraphic" in2="effect1_dropShadow_513_13662" result="shape"/>
</filter>
<filter id="filter2_d_513_13662" x="0.158813" y="-16.5688" width="109.539" height="82.5576" filterUnits="userSpaceOnUse" color-interpolation-filters="sRGB">
<feFlood flood-opacity="0" result="BackgroundImageFix"/>
<feColorMatrix in="SourceAlpha" type="matrix" values="0 0 0 0 0 0 0 0 0 0 0 0 0 0 0 0 0 0 127 0" result="hardAlpha"/>
<feOffset dy="4"/>
<feGaussianBlur stdDeviation="16"/>
<feComposite in2="hardAlpha" operator="out"/>
<feColorMatrix type="matrix" values="0 0 0 0 0 0 0 0 0 0 0 0 0 0 0 0 0 0 0.15 0"/>
<feBlend mode="normal" in2="BackgroundImageFix" result="effect1_dropShadow_513_13662"/>
<feBlend mode="normal" in="SourceGraphic" in2="effect1_dropShadow_513_13662" result="shape"/>
</filter>
</defs>
</svg>
