<svg width="111" height="164" viewBox="0 0 111 164" fill="none" xmlns="http://www.w3.org/2000/svg">
<g opacity="0.2" filter="url(#filter0_f_513_13677)">
<ellipse cx="54.9681" cy="130.676" rx="26.4424" ry="11.435" fill="black"/>
</g>
<g filter="url(#filter1_d_513_13677)">
<path d="M52.5646 38.2069C46.4707 39.4995 41.1462 43.5314 38.6532 48.7328C36.4988 53.2263 35.8217 58.243 35.4216 72.9854C35.3292 76.1247 35.2061 79.0178 35.1138 79.4487C34.9599 80.3104 34.3444 87.7586 34.1597 90.9902C34.0981 92.1598 33.9135 94.4681 33.7596 96.0685C33.1748 102.286 33.6672 106.779 35.4523 111.211C38.3762 118.413 41.6078 121.214 49.8254 123.737C52.7801 124.661 58.2584 124.661 61.2746 123.737C66.6607 122.075 68.8767 120.906 71.3696 118.321C73.0008 116.659 73.6779 115.581 75.3399 111.888C77.2789 107.61 77.5559 105.825 77.3097 98.3768C77.0942 91.3595 77.0019 89.7591 76.6941 87.9125C76.4171 86.035 75.9247 78.2791 75.74 72.9854C75.4015 63.1058 75.2476 60.4282 74.7859 57.4428C73.6779 50.3024 72.3853 47.3478 68.9998 43.9622C66.476 41.4077 64.3832 40.0843 61.09 38.9455C58.6278 38.0837 54.7498 37.7452 52.5646 38.2069Z" fill="#333333"/>
</g>
<g filter="url(#filter2_d_513_13677)">
<mask id="mask0_513_13677" style="mask-type:luminance" maskUnits="userSpaceOnUse" x="32" y="28" width="47" height="19">
<path d="M32.5256 28H78.4932V46.6193H32.5256V28Z" fill="white"/>
</mask>
<g mask="url(#mask0_513_13677)">
<path d="M67.5943 35.1372C67.5962 35.1207 67.5983 35.1041 67.6012 35.0873C67.5983 35.1041 67.596 35.1207 67.5943 35.1372ZM78.2098 44.2881C78.4802 45.4838 74.6129 45.6738 73.7777 45.8255C66.6956 46.5463 59.5617 46.6061 52.4488 46.5649C50.2016 46.4821 32.539 46.4496 32.6854 44.4255C32.686 44.4253 32.6864 44.4253 32.687 44.4253C32.6287 43.4121 35.3379 43.2445 36.0945 43.0926C37.4404 42.9115 38.7932 42.7905 40.147 42.6891C41.2508 42.6075 42.3559 42.5393 43.4612 42.485C43.416 41.6583 43.3676 40.8316 43.3213 40.0051C43.2631 38.9652 43.205 37.9253 43.1468 36.8852C43.0893 35.8557 43.0315 34.826 42.974 33.7962C42.9535 33.4285 42.9335 33.0608 42.9124 32.693C42.9095 32.6434 42.9161 32.5951 42.9306 32.55C42.9281 32.4629 42.9285 32.376 42.9335 32.2887C42.9664 31.6004 43.3523 30.9905 43.8216 30.5088C44.8141 29.4921 46.2013 28.9896 47.5532 28.6556C48.1053 28.5304 48.6653 28.447 49.2273 28.3837C49.2847 28.3597 49.3445 28.3487 49.4057 28.3388C49.4852 28.326 49.5647 28.314 49.6441 28.3032C49.7857 28.2842 49.9272 28.2664 50.0692 28.2498C50.3469 28.2175 50.625 28.191 50.9044 28.1708C51.471 28.1302 52.0384 28.0954 52.6063 28.0702C53.1865 28.0441 53.7672 28.0242 54.3483 28.0189C54.9401 28.0135 55.5324 28.0209 56.1243 28.0329C56.6933 28.0441 57.262 28.0677 57.8307 28.0901C58.3865 28.112 58.9432 28.1281 59.4986 28.1608C60.0561 28.1935 60.6128 28.2395 61.1695 28.2846C61.4205 28.3049 61.6721 28.3227 61.9231 28.3442C61.9234 28.3442 61.9234 28.3442 61.9234 28.3442C61.9896 28.3417 62.0585 28.3522 62.1245 28.3624C62.2526 28.3746 62.3805 28.388 62.508 28.4038C62.5402 28.4079 62.5775 28.4096 62.6102 28.4178C62.621 28.4205 62.6313 28.4234 62.6416 28.4263C62.884 28.4555 63.1259 28.4859 63.3664 28.5284C64.7555 28.786 66.3929 29.3377 67.3375 30.4357C68.2162 31.3583 68.3882 32.6403 68.4258 33.862C68.4281 34.1354 68.4395 34.4092 68.4407 34.6828C68.4565 34.7283 68.465 34.7769 68.465 34.8272C68.465 34.8353 68.465 34.8433 68.465 34.8514C68.465 34.8516 68.465 34.8518 68.465 34.852C68.465 35.8414 68.4616 36.831 68.46 37.8206C68.4583 38.8832 68.4563 39.9459 68.4548 41.0085C68.454 41.5182 68.4532 42.0279 68.4521 42.5376C68.7079 42.5519 68.9635 42.5686 69.219 42.5846C70.6062 42.7367 78.0444 42.9534 78.2098 44.2881Z" fill="#FFEAB2"/>
</g>
<mask id="mask1_513_13677" style="mask-type:luminance" maskUnits="userSpaceOnUse" x="43" y="35" width="26" height="8">
<path d="M43.2677 35.8677H68.523V42.6903H43.2677V35.8677Z" fill="white"/>
</mask>
<g mask="url(#mask1_513_13677)">
<path d="M68.5015 37.5988C68.5015 38.1355 68.4978 38.6716 68.4959 39.2083C68.4936 39.914 68.4912 40.6196 68.4887 41.3259C68.4878 41.5683 68.487 41.8108 68.4862 42.0539V42.0546C68.4862 42.0608 68.4862 42.067 68.4862 42.0726C68.4862 42.0733 68.4862 42.0739 68.4862 42.0739C68.4862 42.0776 68.4862 42.0807 68.4862 42.0845C68.4862 42.0988 68.4862 42.1132 68.486 42.1275C68.51 42.3587 68.4694 42.6505 68.3544 42.6474C60.2814 41.3383 52.1842 41.3109 44.1074 42.3313C43.8851 42.3619 43.6629 42.3943 43.4406 42.4267C43.3684 42.4367 43.3042 42.279 43.2986 42.0577C43.2974 42.0066 43.2997 41.9561 43.3048 41.9087C43.3022 41.5658 43.3015 41.2224 43.2999 40.8795C43.2959 40.139 43.292 39.3984 43.2885 38.6579C43.2862 38.239 43.2852 37.8201 43.2821 37.4006C43.2821 37.395 43.2819 37.39 43.2819 37.3844C43.2819 37.3782 43.2819 37.3725 43.2819 37.3663C43.281 37.1488 43.3332 36.9593 43.4075 36.948C43.4251 36.9449 43.4425 36.9536 43.4588 36.9717C43.893 36.915 44.3271 36.8439 44.7615 36.7934C52.2515 35.9076 59.7547 35.9369 67.2416 37.0129C67.6119 37.0715 67.9819 37.1276 68.3519 37.1943C68.356 37.1949 68.3599 37.1968 68.3637 37.1986C68.3657 37.198 68.3676 37.198 68.3697 37.198C68.4419 37.1992 68.5015 37.3819 68.5015 37.5988Z" fill="#5179C8"/>
</g>
</g>
<ellipse cx="56.0256" cy="65.22" rx="2.5" ry="3.5" fill="white"/>
<ellipse cx="69.0256" cy="65.22" rx="2.5" ry="3.5" fill="white"/>
<path d="M63.1572 115.37C61.84 115.824 60.7607 116.212 60.751 116.233C60.7412 116.253 60.8274 116.545 60.9406 116.876C61.5918 118.769 62.0397 120.856 62.0634 122.088C62.0815 123.005 61.9473 123.559 61.6234 123.921C61.1664 124.436 59.9491 124.923 57.6938 125.491C56.0637 126.431 56.0898 127.944 56.3498 128.434C56.5264 129.146 58.1333 129.909 59.3883 129.887C60.6432 129.865 64.63 128.407 65.7933 126.92C66.2116 126.391 66.7509 125.253 66.917 124.56C67.4913 122.183 67.17 119.463 65.8118 115.268C65.6897 114.894 65.5808 114.576 65.5705 114.566C65.5602 114.556 64.4744 114.915 63.1572 115.37Z" fill="#343434"/>
<path d="M52.6709 117.716C52.0178 117.944 51.3959 118.167 51.2871 118.201C50.8144 118.359 49.1549 118.947 49.1432 118.959C49.1404 118.969 49.2922 119.433 49.4846 119.992C50.278 122.327 50.7451 123.857 51.7639 127.492C51.9124 128.012 52.3396 129.674 52.8558 131.712C53.4569 134.078 53.3521 133.75 53.6042 134.527C54.0057 136.043 55.2127 136.387 56.3161 136.18C57.4195 135.973 58.4193 135.214 58.4453 133.618C58.3682 133.208 58.3936 132.705 57.9259 130.852C57.7774 130.257 57.617 129.624 57.5693 129.444C57.5217 129.264 57.4036 128.807 57.3103 128.432C57.2125 128.059 57.1047 127.632 57.0638 127.488C57.0273 127.342 56.9225 126.956 56.834 126.632C56.1574 124.109 55.3968 121.555 54.6376 119.255C54.0475 117.462 53.9726 117.259 53.9067 117.276C53.8808 117.286 53.3231 117.483 52.6709 117.716Z" fill="#343434"/>
<defs>
<filter id="filter0_f_513_13677" x="7.52563" y="98.2415" width="94.8849" height="64.8699" filterUnits="userSpaceOnUse" color-interpolation-filters="sRGB">
<feFlood flood-opacity="0" result="BackgroundImageFix"/>
<feBlend mode="normal" in="SourceGraphic" in2="BackgroundImageFix" result="shape"/>
<feGaussianBlur stdDeviation="10.5" result="effect1_foregroundBlur_513_13677"/>
</filter>
<filter id="filter1_d_513_13677" x="1.52563" y="10" width="107.86" height="150.43" filterUnits="userSpaceOnUse" color-interpolation-filters="sRGB">
<feFlood flood-opacity="0" result="BackgroundImageFix"/>
<feColorMatrix in="SourceAlpha" type="matrix" values="0 0 0 0 0 0 0 0 0 0 0 0 0 0 0 0 0 0 127 0" result="hardAlpha"/>
<feOffset dy="4"/>
<feGaussianBlur stdDeviation="16"/>
<feComposite in2="hardAlpha" operator="out"/>
<feColorMatrix type="matrix" values="0 0 0 0 0 0 0 0 0 0 0 0 0 0 0 0 0 0 0.15 0"/>
<feBlend mode="normal" in2="BackgroundImageFix" result="effect1_dropShadow_513_13677"/>
<feBlend mode="normal" in="SourceGraphic" in2="effect1_dropShadow_513_13677" result="shape"/>
</filter>
<filter id="filter2_d_513_13677" x="0.684448" y="0.0170898" width="109.539" height="82.5576" filterUnits="userSpaceOnUse" color-interpolation-filters="sRGB">
<feFlood flood-opacity="0" result="BackgroundImageFix"/>
<feColorMatrix in="SourceAlpha" type="matrix" values="0 0 0 0 0 0 0 0 0 0 0 0 0 0 0 0 0 0 127 0" result="hardAlpha"/>
<feOffset dy="4"/>
<feGaussianBlur stdDeviation="16"/>
<feComposite in2="hardAlpha" operator="out"/>
<feColorMatrix type="matrix" values="0 0 0 0 0 0 0 0 0 0 0 0 0 0 0 0 0 0 0.15 0"/>
<feBlend mode="normal" in2="BackgroundImageFix" result="effect1_dropShadow_513_13677"/>
<feBlend mode="normal" in="SourceGraphic" in2="effect1_dropShadow_513_13677" result="shape"/>
</filter>
</defs>
</svg>
