<svg width="54" height="54" viewBox="0 0 54 54" fill="none" xmlns="http://www.w3.org/2000/svg">
<g clip-path="url(#clip0_195_10757)">
<rect width="54" height="54" rx="2" fill="white" fill-opacity="0.1"/>
<path d="M17.9984 16.3853C16.5214 17.1131 16.5 17.2202 16.5 26.7031C16.5 34.3237 16.5428 35.2228 16.8853 35.9078C17.5275 37.2136 18.2339 37.4062 22.4938 37.4062C26.8606 37.4062 27.2031 37.2992 27.2031 35.9078C27.2031 34.4736 26.9891 34.4094 23.0075 34.4094H19.4969V26.7031V18.9969H23.0075C26.9891 18.9969 27.2031 18.9327 27.2031 17.4984C27.2031 16.107 26.8606 16 22.4938 16C19.347 16 18.6192 16.0642 17.9984 16.3853Z" fill="white"/>
<path d="M30.671 20.8378C30.3285 21.0732 30.2 21.3729 30.2 21.9509C30.2 22.6145 30.3927 22.9142 31.4202 23.9631L32.6403 25.2046H28.0166H23.3714L22.9433 25.7612C22.3867 26.489 22.3867 26.9171 22.9433 27.645L23.3714 28.2015H28.0166H32.6403L31.4202 29.4431C30.3927 30.492 30.2 30.7917 30.2 31.4553C30.2 32.3757 30.778 32.9109 31.7627 32.9109C32.255 32.9109 32.8758 32.4185 34.9094 30.4278C37.6922 27.7092 38.0989 27.067 37.6922 26.0823C37.5638 25.7398 36.3008 24.327 34.9094 22.9784C32.2122 20.3454 31.7199 20.0885 30.671 20.8378Z" fill="white"/>
</g>
<rect x="0.75" y="0.75" width="52.5" height="52.5" rx="1.25" stroke="white" stroke-width="1.5"/>
<defs>
<clipPath id="clip0_195_10757">
<rect width="54" height="54" rx="2" fill="white"/>
</clipPath>
</defs>
</svg>
