<svg width="121" height="140" viewBox="0 0 121 140" fill="none" xmlns="http://www.w3.org/2000/svg">
<g opacity="0.2" filter="url(#filter0_f_513_12759)">
<ellipse cx="59.4424" cy="107.263" rx="26.4424" ry="11.435" fill="black"/>
</g>
<g filter="url(#filter1_d_513_12759)">
<path d="M44.1292 44.745C38.4025 45.267 36.1616 46.1503 34.3476 48.5191C32.3557 51.0485 32 52.2128 32 55.9467C32 60.604 32.8181 62.8925 42.3507 84.2519C45.1607 90.5152 48.0418 95.9354 49.5713 97.7019C51.8477 100.312 53.3061 100.713 60.7756 100.713C66.7869 100.713 66.8224 100.713 68.9566 99.5087C70.7351 98.5049 71.3753 97.8224 72.9404 95.293C74.7189 92.3621 85.0695 69.5171 87.2037 63.7357C89.2667 58.1951 89.4446 54.421 87.9151 50.928C85.9944 46.6321 83.7535 45.4276 76.2483 44.745C71.5176 44.3034 48.7532 44.3034 44.1292 44.745Z" fill="#333333"/>
</g>
<g filter="url(#filter2_d_513_12759)">
<mask id="mask0_513_12759" style="mask-type:luminance" maskUnits="userSpaceOnUse" x="37" y="28" width="46" height="20">
<path d="M37 28.8276H82.9676V47.4469H37V28.8276Z" fill="white"/>
</mask>
<g mask="url(#mask0_513_12759)">
<path d="M72.0687 35.9648C72.0706 35.9483 72.0726 35.9317 72.0755 35.915C72.0726 35.9317 72.0704 35.9483 72.0687 35.9648ZM82.6841 45.1158C82.9546 46.3115 79.0873 46.5014 78.2521 46.6531C71.17 47.3739 64.0361 47.4337 56.9232 47.3925C54.676 47.3097 37.0134 47.2772 37.1597 45.2532C37.1603 45.2529 37.1607 45.2529 37.1614 45.2529C37.103 44.2398 39.8123 44.0722 40.5689 43.9203C41.9148 43.7392 43.2676 43.6181 44.6214 43.5167C45.7252 43.4352 46.8303 43.3669 47.9355 43.3127C47.8904 42.486 47.842 41.6592 47.7956 40.8327C47.7375 39.7928 47.6793 38.7529 47.6212 37.7129C47.5637 36.6833 47.5059 35.6536 47.4484 34.6239C47.4279 34.2561 47.4078 33.8884 47.3867 33.5207C47.3838 33.471 47.3904 33.4228 47.4049 33.3777C47.4024 33.2905 47.4029 33.2036 47.4078 33.1163C47.4407 32.428 47.8267 31.8182 48.296 31.3364C49.2885 30.3197 50.6756 29.8173 52.0276 29.4833C52.5797 29.3581 53.1397 29.2747 53.7017 29.2113C53.759 29.1873 53.8188 29.1764 53.8801 29.1664C53.9596 29.1536 54.039 29.1416 54.1185 29.1308C54.26 29.1118 54.4016 29.094 54.5435 29.0774C54.8213 29.0452 55.0994 29.0187 55.3788 28.9984C55.9454 28.9578 56.5128 28.9231 57.0806 28.8978C57.6609 28.8718 58.2416 28.8519 58.8227 28.8465C59.4145 28.8411 60.0068 28.8486 60.5986 28.8606C61.1677 28.8718 61.7364 28.8953 62.3051 28.9177C62.8609 28.9396 63.4176 28.9558 63.973 28.9885C64.5305 29.0212 65.0872 29.0671 65.6438 29.1122C65.8948 29.1325 66.1465 29.1503 66.3975 29.1718C66.3977 29.1718 66.3977 29.1718 66.3977 29.1718C66.4639 29.1693 66.5329 29.1799 66.5989 29.19C66.727 29.2022 66.8549 29.2157 66.9823 29.2314C67.0146 29.2356 67.0519 29.2372 67.0846 29.2455C67.0953 29.2482 67.1057 29.2511 67.116 29.254C67.3583 29.2831 67.6003 29.3136 67.8407 29.356C69.2299 29.6136 70.8672 30.1653 71.8119 31.2634C72.6906 32.1859 72.8625 33.4679 72.9002 34.6897C72.9025 34.963 72.9139 35.2368 72.9151 35.5104C72.9308 35.5559 72.9393 35.6046 72.9393 35.6548C72.9393 35.6629 72.9393 35.671 72.9393 35.6791C72.9393 35.6793 72.9393 35.6795 72.9393 35.6797C72.9393 36.6691 72.936 37.6587 72.9343 38.6482C72.9327 39.7109 72.9306 40.7735 72.9292 41.8362C72.9283 42.3458 72.9275 42.8555 72.9265 43.3652C73.1823 43.3795 73.4378 43.3963 73.6934 43.4122C75.0805 43.5643 82.5188 43.781 82.6841 45.1158Z" fill="#FFEAB2"/>
</g>
<mask id="mask1_513_12759" style="mask-type:luminance" maskUnits="userSpaceOnUse" x="47" y="36" width="26" height="8">
<path d="M47.7421 36.6953H72.9974V43.5179H47.7421V36.6953Z" fill="white"/>
</mask>
<g mask="url(#mask1_513_12759)">
<path d="M72.9759 38.4265C72.9759 38.9632 72.9721 39.4993 72.9703 40.0359C72.968 40.7416 72.9655 41.4472 72.963 42.1535C72.9622 42.396 72.9614 42.6385 72.9606 42.8816V42.8822C72.9606 42.8884 72.9606 42.8947 72.9606 42.9003C72.9606 42.9009 72.9606 42.9015 72.9606 42.9015C72.9606 42.9053 72.9606 42.9084 72.9606 42.9121C72.9606 42.9264 72.9606 42.9408 72.9603 42.9551C72.9844 43.1864 72.9438 43.4781 72.8287 43.475C64.7558 42.166 56.6586 42.1385 48.5817 43.159C48.3595 43.1895 48.1372 43.2219 47.915 43.2543C47.8427 43.2643 47.7786 43.1066 47.773 42.8853C47.7718 42.8342 47.774 42.7837 47.7792 42.7363C47.7765 42.3935 47.7759 42.05 47.7742 41.7072C47.7703 40.9666 47.7664 40.2261 47.7629 39.4855C47.7606 39.0666 47.7596 38.6477 47.7564 38.2282C47.7564 38.2226 47.7562 38.2176 47.7562 38.212C47.7562 38.2058 47.7562 38.2002 47.7562 38.1939C47.7554 37.9764 47.8076 37.7869 47.8818 37.7757C47.8994 37.7725 47.9168 37.7813 47.9332 37.7994C48.3673 37.7426 48.8015 37.6716 49.2359 37.6211C56.7259 36.7353 64.2291 36.7646 71.716 37.8405C72.0862 37.8991 72.4562 37.9552 72.8262 38.0219C72.8304 38.0225 72.8343 38.0244 72.838 38.0263C72.8401 38.0256 72.842 38.0256 72.844 38.0256C72.9163 38.0269 72.9759 38.2095 72.9759 38.4265Z" fill="#814747"/>
</g>
</g>
<path d="M52.7217 93.1591C52.4953 93.2346 52.0928 93.4861 51.8287 93.7C50.9859 94.4044 50.9733 94.5805 51.0111 100.719C51.0362 103.863 51.0991 106.429 51.1746 106.857C51.5897 109.046 54.0551 109.826 55.4387 108.203C55.6525 107.964 55.8538 107.587 55.9167 107.385C56.0551 106.832 56.0928 101.046 55.9796 97.6873C55.8915 94.8698 55.879 94.7817 55.5645 94.2786C55.1997 93.7 54.7469 93.3478 54.1054 93.1339C53.5771 92.9452 53.2752 92.9578 52.7217 93.1591Z" fill="#333333"/>
<path d="M65.7959 94.1177C65.2757 94.2869 64.644 94.7097 64.4211 95.0386C64.1239 95.4802 64 97.1098 64 101V104.5L64.4087 105.13C65.5606 106.446 67.9386 106.23 68.6817 104.745C68.9418 104.21 68.979 103.665 68.9914 99.6053C69.0161 95.5742 69.0038 95.5366 68.7313 95.095C68.1863 94.2211 66.8363 93.77 65.7959 94.1177Z" fill="#333333"/>
<defs>
<filter id="filter0_f_513_12759" x="12" y="74.8276" width="94.8849" height="64.8699" filterUnits="userSpaceOnUse" color-interpolation-filters="sRGB">
<feFlood flood-opacity="0" result="BackgroundImageFix"/>
<feBlend mode="normal" in="SourceGraphic" in2="BackgroundImageFix" result="shape"/>
<feGaussianBlur stdDeviation="10.5" result="effect1_foregroundBlur_513_12759"/>
</filter>
<filter id="filter1_d_513_12759" x="0" y="16.4138" width="120.927" height="120.299" filterUnits="userSpaceOnUse" color-interpolation-filters="sRGB">
<feFlood flood-opacity="0" result="BackgroundImageFix"/>
<feColorMatrix in="SourceAlpha" type="matrix" values="0 0 0 0 0 0 0 0 0 0 0 0 0 0 0 0 0 0 127 0" result="hardAlpha"/>
<feOffset dy="4"/>
<feGaussianBlur stdDeviation="16"/>
<feComposite in2="hardAlpha" operator="out"/>
<feColorMatrix type="matrix" values="0 0 0 0 0 0 0 0 0 0 0 0 0 0 0 0 0 0 0.15 0"/>
<feBlend mode="normal" in2="BackgroundImageFix" result="effect1_dropShadow_513_12759"/>
<feBlend mode="normal" in="SourceGraphic" in2="effect1_dropShadow_513_12759" result="shape"/>
</filter>
<filter id="filter2_d_513_12759" x="5.15881" y="0.844727" width="109.539" height="82.5576" filterUnits="userSpaceOnUse" color-interpolation-filters="sRGB">
<feFlood flood-opacity="0" result="BackgroundImageFix"/>
<feColorMatrix in="SourceAlpha" type="matrix" values="0 0 0 0 0 0 0 0 0 0 0 0 0 0 0 0 0 0 127 0" result="hardAlpha"/>
<feOffset dy="4"/>
<feGaussianBlur stdDeviation="16"/>
<feComposite in2="hardAlpha" operator="out"/>
<feColorMatrix type="matrix" values="0 0 0 0 0 0 0 0 0 0 0 0 0 0 0 0 0 0 0.15 0"/>
<feBlend mode="normal" in2="BackgroundImageFix" result="effect1_dropShadow_513_12759"/>
<feBlend mode="normal" in="SourceGraphic" in2="effect1_dropShadow_513_12759" result="shape"/>
</filter>
</defs>
</svg>
