<svg width="111" height="140" viewBox="0 0 111 140" fill="none" xmlns="http://www.w3.org/2000/svg">
<g opacity="0.2" filter="url(#filter0_f_513_12739)">
<ellipse cx="49.4424" cy="106.849" rx="26.4424" ry="11.435" fill="black"/>
</g>
<g filter="url(#filter1_d_513_12739)">
<path d="M34.1292 44.3312C28.4025 44.8532 26.1616 45.7365 24.3476 48.1053C22.3557 50.6347 22 51.799 22 55.5329C22 60.1902 22.8181 62.4787 32.3507 83.8381C35.1607 90.1014 38.0418 95.5216 39.5713 97.2881C41.8477 99.8978 43.3061 100.299 50.7756 100.299C56.7869 100.299 56.8224 100.299 58.9566 99.0948C60.7351 98.0911 61.3753 97.4086 62.9404 94.8792C64.7189 91.9483 75.0695 69.1033 77.2037 63.3218C79.2667 57.7812 79.4446 54.0072 77.9151 50.5142C75.9944 46.2182 73.7535 45.0138 66.2483 44.3312C61.5176 43.8896 38.7532 43.8896 34.1292 44.3312Z" fill="#333333"/>
<ellipse cx="43.5" cy="68.2249" rx="2.5" ry="3.5" fill="white"/>
<ellipse cx="56.5" cy="68.2249" rx="2.5" ry="3.5" fill="white"/>
</g>
<g filter="url(#filter2_d_513_12739)">
<mask id="mask0_513_12739" style="mask-type:luminance" maskUnits="userSpaceOnUse" x="27" y="28" width="46" height="20">
<path d="M27 28.4141H72.9676V47.0333H27V28.4141Z" fill="white"/>
</mask>
<g mask="url(#mask0_513_12739)">
<path d="M62.0688 35.5513C62.0706 35.5347 62.0727 35.5182 62.0756 35.5014C62.0727 35.5182 62.0704 35.5347 62.0688 35.5513ZM72.6842 44.7022C72.9547 45.8979 69.0874 46.0879 68.2522 46.2395C61.17 46.9603 54.0362 47.0201 46.9232 46.9789C44.676 46.8962 27.0135 46.8637 27.1598 44.8396C27.1604 44.8394 27.1608 44.8394 27.1614 44.8394C27.1031 43.8262 29.8123 43.6586 30.5689 43.5067C31.9149 43.3256 33.2676 43.2045 34.6214 43.1031C35.7253 43.0216 36.8303 42.9533 37.9356 42.8991C37.8905 42.0724 37.842 41.2456 37.7957 40.4191C37.7375 39.3793 37.6794 38.3394 37.6212 37.2993C37.5637 36.2698 37.506 35.24 37.4484 34.2103C37.428 33.8426 37.4079 33.4748 37.3868 33.1071C37.3839 33.0574 37.3905 33.0092 37.405 32.9641C37.4025 32.877 37.4029 32.7901 37.4079 32.7027C37.4408 32.0144 37.8267 31.4046 38.2961 30.9228C39.2886 29.9061 40.6757 29.4037 42.0276 29.0697C42.5797 28.9445 43.1397 28.8611 43.7018 28.7978C43.7591 28.7738 43.8189 28.7628 43.8802 28.7529C43.9596 28.74 44.0391 28.728 44.1186 28.7173C44.2601 28.6982 44.4016 28.6804 44.5436 28.6639C44.8213 28.6316 45.0994 28.6051 45.3788 28.5848C45.9454 28.5443 46.5129 28.5095 47.0807 28.4843C47.661 28.4582 48.2416 28.4383 48.8227 28.4329C49.4146 28.4276 50.0068 28.435 50.5987 28.447C51.1678 28.4582 51.7364 28.4818 52.3051 28.5041C52.861 28.5261 53.4176 28.5422 53.9731 28.5749C54.5306 28.6076 55.0872 28.6535 55.6439 28.6986C55.8949 28.7189 56.1465 28.7367 56.3976 28.7582C56.3978 28.7582 56.3978 28.7582 56.3978 28.7582C56.464 28.7558 56.5329 28.7663 56.5989 28.7765C56.727 28.7887 56.8549 28.8021 56.9824 28.8178C57.0147 28.822 57.0519 28.8236 57.0846 28.8319C57.0954 28.8346 57.1057 28.8375 57.1161 28.8404C57.3584 28.8696 57.6003 28.9 57.8408 28.9424C59.23 29.2001 60.8673 29.7518 61.812 30.8498C62.6906 31.7723 62.8626 33.0543 62.9003 34.2761C62.9025 34.5495 62.9139 34.8232 62.9152 35.0968C62.9309 35.1424 62.9394 35.191 62.9394 35.2413C62.9394 35.2493 62.9394 35.2574 62.9394 35.2655C62.9394 35.2657 62.9394 35.2659 62.9394 35.2661C62.9394 36.2555 62.9361 37.2451 62.9344 38.2347C62.9328 39.2973 62.9307 40.3599 62.9292 41.4226C62.9284 41.9323 62.9276 42.442 62.9265 42.9517C63.1823 42.9659 63.4379 42.9827 63.6935 42.9986C65.0806 43.1507 72.5189 43.3674 72.6842 44.7022Z" fill="#FFEAB2"/>
</g>
<mask id="mask1_513_12739" style="mask-type:luminance" maskUnits="userSpaceOnUse" x="37" y="36" width="26" height="8">
<path d="M37.7421 36.2817H62.9974V43.1044H37.7421V36.2817Z" fill="white"/>
</mask>
<g mask="url(#mask1_513_12739)">
<path d="M62.9759 38.0129C62.9759 38.5496 62.9722 39.0857 62.9703 39.6224C62.9681 40.328 62.9656 41.0337 62.9631 41.7399C62.9623 41.9824 62.9614 42.2249 62.9606 42.468V42.4686C62.9606 42.4748 62.9606 42.4811 62.9606 42.4867C62.9606 42.4873 62.9606 42.4879 62.9606 42.4879C62.9606 42.4917 62.9606 42.4948 62.9606 42.4985C62.9606 42.5129 62.9606 42.5272 62.9604 42.5415C62.9844 42.7728 62.9438 43.0645 62.8288 43.0614C54.7558 41.7524 46.6587 41.725 38.5818 42.7454C38.3595 42.7759 38.1373 42.8083 37.915 42.8408C37.8428 42.8507 37.7787 42.693 37.7731 42.4717C37.7718 42.4206 37.7741 42.3701 37.7793 42.3227C37.7766 41.9799 37.776 41.6364 37.7743 41.2936C37.7704 40.5531 37.7664 39.8125 37.7629 39.072C37.7607 38.6531 37.7596 38.2342 37.7565 37.8147C37.7565 37.809 37.7563 37.8041 37.7563 37.7984C37.7563 37.7922 37.7563 37.7866 37.7563 37.7804C37.7555 37.5628 37.8076 37.3733 37.8819 37.3621C37.8995 37.359 37.9169 37.3677 37.9332 37.3858C38.3674 37.3291 38.8016 37.258 39.2359 37.2075C46.7259 36.3217 54.2292 36.351 61.7161 37.4269C62.0863 37.4855 62.4563 37.5416 62.8263 37.6083C62.8304 37.609 62.8344 37.6108 62.8381 37.6127C62.8402 37.6121 62.842 37.6121 62.8441 37.6121C62.9163 37.6133 62.9759 37.7959 62.9759 38.0129Z" fill="#814747"/>
</g>
</g>
<path d="M42.7217 93.1591C42.4953 93.2346 42.0928 93.4861 41.8287 93.7C40.9859 94.4044 40.9733 94.5805 41.0111 100.719C41.0362 103.863 41.0991 106.429 41.1746 106.857C41.5897 109.046 44.0551 109.826 45.4387 108.203C45.6525 107.964 45.8538 107.587 45.9167 107.385C46.0551 106.832 46.0928 101.046 45.9796 97.6873C45.8915 94.8698 45.879 94.7817 45.5645 94.2786C45.1997 93.7 44.7469 93.3478 44.1054 93.1339C43.5771 92.9452 43.2752 92.9578 42.7217 93.1591Z" fill="#333333"/>
<path d="M55.7959 94.1177C55.2757 94.2869 54.644 94.7097 54.4211 95.0386C54.1239 95.4802 54 97.1098 54 101V104.5L54.4087 105.13C55.5606 106.446 57.9386 106.23 58.6817 104.745C58.9418 104.21 58.979 103.665 58.9914 99.6053C59.0161 95.5742 59.0038 95.5366 58.7313 95.095C58.1863 94.2211 56.8363 93.77 55.7959 94.1177Z" fill="#333333"/>
<defs>
<filter id="filter0_f_513_12739" x="2" y="74.4138" width="94.8849" height="64.8699" filterUnits="userSpaceOnUse" color-interpolation-filters="sRGB">
<feFlood flood-opacity="0" result="BackgroundImageFix"/>
<feBlend mode="normal" in="SourceGraphic" in2="BackgroundImageFix" result="shape"/>
<feGaussianBlur stdDeviation="10.5" result="effect1_foregroundBlur_513_12739"/>
</filter>
<filter id="filter1_d_513_12739" x="-10" y="16" width="120.927" height="120.299" filterUnits="userSpaceOnUse" color-interpolation-filters="sRGB">
<feFlood flood-opacity="0" result="BackgroundImageFix"/>
<feColorMatrix in="SourceAlpha" type="matrix" values="0 0 0 0 0 0 0 0 0 0 0 0 0 0 0 0 0 0 127 0" result="hardAlpha"/>
<feOffset dy="4"/>
<feGaussianBlur stdDeviation="16"/>
<feComposite in2="hardAlpha" operator="out"/>
<feColorMatrix type="matrix" values="0 0 0 0 0 0 0 0 0 0 0 0 0 0 0 0 0 0 0.15 0"/>
<feBlend mode="normal" in2="BackgroundImageFix" result="effect1_dropShadow_513_12739"/>
<feBlend mode="normal" in="SourceGraphic" in2="effect1_dropShadow_513_12739" result="shape"/>
</filter>
<filter id="filter2_d_513_12739" x="-4.84113" y="0.431152" width="109.539" height="82.5576" filterUnits="userSpaceOnUse" color-interpolation-filters="sRGB">
<feFlood flood-opacity="0" result="BackgroundImageFix"/>
<feColorMatrix in="SourceAlpha" type="matrix" values="0 0 0 0 0 0 0 0 0 0 0 0 0 0 0 0 0 0 127 0" result="hardAlpha"/>
<feOffset dy="4"/>
<feGaussianBlur stdDeviation="16"/>
<feComposite in2="hardAlpha" operator="out"/>
<feColorMatrix type="matrix" values="0 0 0 0 0 0 0 0 0 0 0 0 0 0 0 0 0 0 0.15 0"/>
<feBlend mode="normal" in2="BackgroundImageFix" result="effect1_dropShadow_513_12739"/>
<feBlend mode="normal" in="SourceGraphic" in2="effect1_dropShadow_513_12739" result="shape"/>
</filter>
</defs>
</svg>
