<svg width="111" height="147" viewBox="0 0 111 147" fill="none" xmlns="http://www.w3.org/2000/svg">
<g opacity="0.2" filter="url(#filter0_f_513_13652)">
<ellipse cx="54.9681" cy="114.09" rx="26.4424" ry="11.435" fill="black"/>
</g>
<g filter="url(#filter1_d_513_13652)">
<path d="M52.5646 21.6207C46.4707 22.9133 41.1462 26.9452 38.6532 32.1466C36.4988 36.6401 35.8217 41.6568 35.4216 56.3992C35.3292 59.5385 35.2061 62.4316 35.1138 62.8625C34.9599 63.7243 34.3444 71.1724 34.1597 74.404C34.0981 75.5736 33.9135 77.8819 33.7596 79.4823C33.1748 85.6994 33.6672 90.1929 35.4523 94.6248C38.3762 101.827 41.6078 104.628 49.8254 107.151C52.7801 108.075 58.2584 108.075 61.2746 107.151C66.6607 105.489 68.8767 104.32 71.3696 101.734C73.0008 100.072 73.6779 98.9952 75.3399 95.3019C77.2789 91.0239 77.5559 89.2388 77.3097 81.7906C77.0942 74.7734 77.0019 73.1729 76.6941 71.3263C76.4171 69.4489 75.9247 61.6929 75.74 56.3992C75.4015 46.5196 75.2476 43.842 74.7859 40.8566C73.6779 33.7162 72.3853 30.7616 68.9998 27.3761C66.476 24.8215 64.3832 23.4981 61.09 22.3593C58.6278 21.4976 54.7498 21.159 52.5646 21.6207Z" fill="#333333"/>
</g>
<g filter="url(#filter2_d_513_13652)">
<mask id="mask0_513_13652" style="mask-type:luminance" maskUnits="userSpaceOnUse" x="32" y="11" width="47" height="20">
<path d="M32.5256 11.4141H78.4932V30.0333H32.5256V11.4141Z" fill="white"/>
</mask>
<g mask="url(#mask0_513_13652)">
<path d="M67.5943 18.5513C67.5962 18.5347 67.5983 18.5182 67.6012 18.5014C67.5983 18.5182 67.596 18.5347 67.5943 18.5513ZM78.2098 27.7022C78.4802 28.8979 74.6129 29.0879 73.7777 29.2395C66.6956 29.9603 59.5617 30.0201 52.4488 29.9789C50.2016 29.8962 32.539 29.8637 32.6854 27.8396C32.686 27.8394 32.6864 27.8394 32.687 27.8394C32.6287 26.8262 35.3379 26.6586 36.0945 26.5067C37.4404 26.3256 38.7932 26.2045 40.147 26.1031C41.2508 26.0216 42.3559 25.9533 43.4612 25.8991C43.416 25.0724 43.3676 24.2456 43.3213 23.4191C43.2631 22.3793 43.205 21.3394 43.1468 20.2993C43.0893 19.2698 43.0315 18.24 42.974 17.2103C42.9535 16.8426 42.9335 16.4748 42.9124 16.1071C42.9095 16.0574 42.9161 16.0092 42.9306 15.9641C42.9281 15.877 42.9285 15.7901 42.9335 15.7027C42.9664 15.0144 43.3523 14.4046 43.8216 13.9228C44.8141 12.9061 46.2013 12.4037 47.5532 12.0697C48.1053 11.9445 48.6653 11.8611 49.2273 11.7978C49.2847 11.7738 49.3445 11.7628 49.4057 11.7529C49.4852 11.74 49.5647 11.728 49.6441 11.7173C49.7857 11.6982 49.9272 11.6804 50.0692 11.6639C50.3469 11.6316 50.625 11.6051 50.9044 11.5848C51.471 11.5443 52.0384 11.5095 52.6063 11.4843C53.1865 11.4582 53.7672 11.4383 54.3483 11.4329C54.9401 11.4276 55.5324 11.435 56.1243 11.447C56.6933 11.4582 57.262 11.4818 57.8307 11.5041C58.3865 11.5261 58.9432 11.5422 59.4986 11.5749C60.0561 11.6076 60.6128 11.6535 61.1695 11.6986C61.4205 11.7189 61.6721 11.7367 61.9231 11.7582C61.9234 11.7582 61.9234 11.7582 61.9234 11.7582C61.9896 11.7558 62.0585 11.7663 62.1245 11.7765C62.2526 11.7887 62.3805 11.8021 62.508 11.8178C62.5402 11.822 62.5775 11.8236 62.6102 11.8319C62.621 11.8346 62.6313 11.8375 62.6416 11.8404C62.884 11.8696 63.1259 11.9 63.3664 11.9424C64.7555 12.2001 66.3929 12.7518 67.3375 13.8498C68.2162 14.7723 68.3882 16.0543 68.4258 17.2761C68.4281 17.5495 68.4395 17.8232 68.4407 18.0968C68.4565 18.1424 68.465 18.191 68.465 18.2413C68.465 18.2493 68.465 18.2574 68.465 18.2655C68.465 18.2657 68.465 18.2659 68.465 18.2661C68.465 19.2555 68.4616 20.2451 68.46 21.2347C68.4583 22.2973 68.4563 23.3599 68.4548 24.4226C68.454 24.9323 68.4532 25.442 68.4521 25.9517C68.7079 25.9659 68.9635 25.9827 69.219 25.9986C70.6062 26.1507 78.0444 26.3674 78.2098 27.7022Z" fill="#FFEAB2"/>
</g>
<mask id="mask1_513_13652" style="mask-type:luminance" maskUnits="userSpaceOnUse" x="43" y="19" width="26" height="8">
<path d="M43.2677 19.2817H68.523V26.1044H43.2677V19.2817Z" fill="white"/>
</mask>
<g mask="url(#mask1_513_13652)">
<path d="M68.5015 21.0129C68.5015 21.5496 68.4978 22.0857 68.4959 22.6224C68.4936 23.328 68.4912 24.0337 68.4887 24.7399C68.4878 24.9824 68.487 25.2249 68.4862 25.468V25.4686C68.4862 25.4748 68.4862 25.4811 68.4862 25.4867C68.4862 25.4873 68.4862 25.4879 68.4862 25.4879C68.4862 25.4917 68.4862 25.4948 68.4862 25.4985C68.4862 25.5129 68.4862 25.5272 68.486 25.5415C68.51 25.7728 68.4694 26.0645 68.3544 26.0614C60.2814 24.7524 52.1842 24.725 44.1074 25.7454C43.8851 25.7759 43.6629 25.8083 43.4406 25.8408C43.3684 25.8507 43.3042 25.693 43.2986 25.4717C43.2974 25.4206 43.2997 25.3701 43.3048 25.3227C43.3022 24.9799 43.3015 24.6364 43.2999 24.2936C43.2959 23.5531 43.292 22.8125 43.2885 22.072C43.2862 21.6531 43.2852 21.2342 43.2821 20.8147C43.2821 20.809 43.2819 20.8041 43.2819 20.7984C43.2819 20.7922 43.2819 20.7866 43.2819 20.7804C43.281 20.5628 43.3332 20.3733 43.4075 20.3621C43.4251 20.359 43.4425 20.3677 43.4588 20.3858C43.893 20.3291 44.3271 20.258 44.7615 20.2075C52.2515 19.3217 59.7547 19.351 67.2416 20.4269C67.6119 20.4855 67.9819 20.5416 68.3519 20.6083C68.356 20.609 68.3599 20.6108 68.3637 20.6127C68.3657 20.6121 68.3676 20.6121 68.3697 20.6121C68.4419 20.6133 68.5015 20.7959 68.5015 21.0129Z" fill="#5179C8"/>
</g>
</g>
<ellipse cx="56.0256" cy="48.6338" rx="2.5" ry="3.5" fill="white"/>
<ellipse cx="69.0256" cy="48.6338" rx="2.5" ry="3.5" fill="white"/>
<path d="M62.7976 98.3374C61.8644 98.8392 61.3063 99.1347 60.0776 99.7772C59.4727 100.096 58.9709 100.359 58.9615 100.363C58.9521 100.373 59.271 101.006 59.6696 101.775C60.0636 102.549 60.4669 103.337 60.556 103.529C60.6498 103.721 60.8843 104.209 61.0765 104.612C61.4892 105.47 61.5549 105.606 61.8972 106.39C63.0227 108.969 63.6746 110.91 64.7251 114.817C64.9733 115.74 66.5167 116.612 68.0174 116.199C69.3586 115.838 69.8988 114.948 69.3101 112.967C68.5645 110.458 67.2575 105.794 66.0757 103.224C65.5552 102.089 63.5011 97.9951 63.4542 97.9998C63.4401 97.9998 63.1447 98.1499 62.7976 98.3374Z" fill="#333333"/>
<path d="M54.8872 99.5132C53.896 99.4881 52.7583 99.4559 52.356 99.4411L51.6307 99.4208L51.6166 99.6326C51.6098 99.7505 51.5884 100.242 51.5688 100.725C51.5491 101.207 51.5082 101.914 51.4811 102.305C51.4503 102.69 51.4207 103.095 51.4164 103.199C51.3777 103.787 51.1306 105.487 50.9962 106.077C50.4536 108.496 49.6865 109.773 48.1332 110.839C48.1332 110.839 45.8831 112.011 46.8138 114.147C47.5552 115.849 48.9535 116.114 50.5812 115.222C51.1682 114.9 51.7223 114.569 52.1141 114.229C54.7727 111.913 56.0566 108.76 56.5218 103.422C56.6267 102.197 56.7478 99.6319 56.7053 99.5767C56.6977 99.5658 55.8784 99.5382 54.8872 99.5132Z" fill="#333333"/>
<defs>
<filter id="filter0_f_513_13652" x="7.52563" y="81.6553" width="94.8849" height="64.8699" filterUnits="userSpaceOnUse" color-interpolation-filters="sRGB">
<feFlood flood-opacity="0" result="BackgroundImageFix"/>
<feBlend mode="normal" in="SourceGraphic" in2="BackgroundImageFix" result="shape"/>
<feGaussianBlur stdDeviation="10.5" result="effect1_foregroundBlur_513_13652"/>
</filter>
<filter id="filter1_d_513_13652" x="1.52563" y="-6.58618" width="107.86" height="150.43" filterUnits="userSpaceOnUse" color-interpolation-filters="sRGB">
<feFlood flood-opacity="0" result="BackgroundImageFix"/>
<feColorMatrix in="SourceAlpha" type="matrix" values="0 0 0 0 0 0 0 0 0 0 0 0 0 0 0 0 0 0 127 0" result="hardAlpha"/>
<feOffset dy="4"/>
<feGaussianBlur stdDeviation="16"/>
<feComposite in2="hardAlpha" operator="out"/>
<feColorMatrix type="matrix" values="0 0 0 0 0 0 0 0 0 0 0 0 0 0 0 0 0 0 0.15 0"/>
<feBlend mode="normal" in2="BackgroundImageFix" result="effect1_dropShadow_513_13652"/>
<feBlend mode="normal" in="SourceGraphic" in2="effect1_dropShadow_513_13652" result="shape"/>
</filter>
<filter id="filter2_d_513_13652" x="0.684448" y="-16.5688" width="109.539" height="82.5576" filterUnits="userSpaceOnUse" color-interpolation-filters="sRGB">
<feFlood flood-opacity="0" result="BackgroundImageFix"/>
<feColorMatrix in="SourceAlpha" type="matrix" values="0 0 0 0 0 0 0 0 0 0 0 0 0 0 0 0 0 0 127 0" result="hardAlpha"/>
<feOffset dy="4"/>
<feGaussianBlur stdDeviation="16"/>
<feComposite in2="hardAlpha" operator="out"/>
<feColorMatrix type="matrix" values="0 0 0 0 0 0 0 0 0 0 0 0 0 0 0 0 0 0 0.15 0"/>
<feBlend mode="normal" in2="BackgroundImageFix" result="effect1_dropShadow_513_13652"/>
<feBlend mode="normal" in="SourceGraphic" in2="effect1_dropShadow_513_13652" result="shape"/>
</filter>
</defs>
</svg>
