<svg width="100" height="154" viewBox="0 0 100 154" fill="none" xmlns="http://www.w3.org/2000/svg">
<g opacity="0.2" filter="url(#filter0_f_224_7156)">
<ellipse cx="49.4424" cy="131.435" rx="26.4424" ry="11.435" fill="black"/>
</g>
<g filter="url(#filter1_d_224_7156)">
<path d="M47.039 38.9654C40.945 40.2581 35.6205 44.2899 33.1276 49.4913C30.9731 53.9848 30.296 59.0015 29.8959 73.7439C29.8036 76.8832 29.6805 79.7763 29.5882 80.2072C29.4343 81.069 28.8187 88.5171 28.6341 91.7488C28.5725 92.9183 28.3878 95.2266 28.2339 96.827C27.6492 103.044 28.1416 107.538 29.9267 111.97C32.8506 119.171 36.0822 121.972 44.2998 124.496C47.2544 125.419 52.7328 125.419 55.749 124.496C61.1351 122.834 63.351 121.664 65.844 119.079C67.4752 117.417 68.1523 116.34 69.8143 112.647C71.7533 108.369 72.0303 106.583 71.7841 99.1354C71.5686 92.1181 71.4763 90.5177 71.1685 88.671C70.8915 86.7936 70.3991 79.0377 70.2144 73.7439C69.8759 63.8644 69.722 61.1867 69.2603 58.2013C68.1523 51.061 66.8597 48.1063 63.4741 44.7208C60.9504 42.1663 58.8575 40.8428 55.5643 39.7041C53.1021 38.8423 49.2242 38.5037 47.039 38.9654Z" fill="#333333"/>
<path d="M42.4869 117.436C42.2605 117.511 41.858 117.763 41.5938 117.977C40.751 118.681 40.7385 118.857 40.7762 124.996C40.8014 128.14 40.8643 130.706 40.9397 131.134C41.3548 133.323 43.8202 134.102 45.2038 132.48C45.4177 132.241 45.6189 131.863 45.6818 131.662C45.8202 131.109 45.8579 125.323 45.7447 121.964C45.6567 119.147 45.6441 119.059 45.3296 118.555C44.9648 117.977 44.512 117.625 43.8705 117.411C43.3422 117.222 43.0403 117.235 42.4869 117.436Z" fill="#333333"/>
<path d="M55.8705 117.436C55.3422 117.662 54.7007 118.229 54.4742 118.669C54.1724 119.26 54.0466 121.499 54.0466 126.706V131.574L54.4617 132.178C55.6315 133.939 58.0465 133.65 58.8012 131.662C59.0654 130.945 59.1031 130.216 59.1157 124.782C59.1409 119.386 59.1283 119.335 58.8516 118.744C58.2981 117.574 56.9271 116.971 55.8705 117.436Z" fill="#333333"/>
</g>
<g filter="url(#filter2_d_224_7156)">
<mask id="mask0_224_7156" style="mask-type:luminance" maskUnits="userSpaceOnUse" x="27" y="28" width="46" height="20">
<path d="M27 28.7588H72.9676V47.3781H27V28.7588Z" fill="white"/>
</mask>
<g mask="url(#mask0_224_7156)">
<path d="M62.0688 35.896C62.0706 35.8794 62.0727 35.8629 62.0756 35.8461C62.0727 35.8629 62.0704 35.8794 62.0688 35.896ZM72.6842 45.0469C72.9547 46.2426 69.0874 46.4326 68.2522 46.5843C61.17 47.305 54.0362 47.3648 46.9232 47.3237C44.676 47.2409 27.0135 47.2084 27.1598 45.1843C27.1604 45.1841 27.1608 45.1841 27.1614 45.1841C27.1031 44.1709 29.8123 44.0033 30.5689 43.8514C31.9149 43.6703 33.2676 43.5493 34.6214 43.4479C35.7253 43.3663 36.8303 43.298 37.9356 43.2438C37.8905 42.4171 37.842 41.5904 37.7957 40.7639C37.7375 39.724 37.6794 38.6841 37.6212 37.644C37.5637 36.6145 37.506 35.5848 37.4484 34.555C37.428 34.1873 37.4079 33.8196 37.3868 33.4518C37.3839 33.4022 37.3905 33.3539 37.405 33.3088C37.4025 33.2217 37.4029 33.1348 37.4079 33.0475C37.4408 32.3592 37.8267 31.7493 38.2961 31.2676C39.2886 30.2509 40.6757 29.7484 42.0276 29.4144C42.5797 29.2892 43.1397 29.2058 43.7018 29.1425C43.7591 29.1185 43.8189 29.1075 43.8802 29.0976C43.9596 29.0848 44.0391 29.0728 44.1186 29.062C44.2601 29.043 44.4016 29.0252 44.5436 29.0086C44.8213 28.9763 45.0994 28.9498 45.3788 28.9295C45.9454 28.889 46.5129 28.8542 47.0807 28.829C47.661 28.8029 48.2416 28.783 48.8227 28.7777C49.4146 28.7723 50.0068 28.7797 50.5987 28.7917C51.1678 28.8029 51.7364 28.8265 52.3051 28.8488C52.861 28.8708 53.4176 28.8869 53.9731 28.9196C54.5306 28.9523 55.0872 28.9983 55.6439 29.0434C55.8949 29.0636 56.1465 29.0814 56.3976 29.103C56.3978 29.103 56.3978 29.103 56.3978 29.103C56.464 29.1005 56.5329 29.111 56.5989 29.1212C56.727 29.1334 56.8549 29.1468 56.9824 29.1626C57.0147 29.1667 57.0519 29.1684 57.0846 29.1766C57.0954 29.1793 57.1057 29.1822 57.1161 29.1851C57.3584 29.2143 57.6003 29.2447 57.8408 29.2871C59.23 29.5448 60.8673 30.0965 61.812 31.1945C62.6906 32.1171 62.8626 33.3991 62.9003 34.6208C62.9025 34.8942 62.9139 35.168 62.9152 35.4416C62.9309 35.4871 62.9394 35.5357 62.9394 35.586C62.9394 35.5941 62.9394 35.6021 62.9394 35.6102C62.9394 35.6104 62.9394 35.6106 62.9394 35.6108C62.9394 36.6002 62.9361 37.5898 62.9344 38.5794C62.9328 39.642 62.9307 40.7047 62.9292 41.7673C62.9284 42.277 62.9276 42.7867 62.9265 43.2964C63.1823 43.3107 63.4379 43.3274 63.6935 43.3434C65.0806 43.4955 72.5189 43.7121 72.6842 45.0469Z" fill="#FFEAB2"/>
</g>
<mask id="mask1_224_7156" style="mask-type:luminance" maskUnits="userSpaceOnUse" x="37" y="36" width="26" height="8">
<path d="M37.7421 36.6265H62.9974V43.4491H37.7421V36.6265Z" fill="white"/>
</mask>
<g mask="url(#mask1_224_7156)">
<path d="M62.9759 38.3576C62.9759 38.8943 62.9722 39.4304 62.9703 39.9671C62.9681 40.6727 62.9656 41.3784 62.9631 42.0846C62.9623 42.3271 62.9614 42.5696 62.9606 42.8127V42.8133C62.9606 42.8196 62.9606 42.8258 62.9606 42.8314C62.9606 42.832 62.9606 42.8327 62.9606 42.8327C62.9606 42.8364 62.9606 42.8395 62.9606 42.8433C62.9606 42.8576 62.9606 42.8719 62.9604 42.8863C62.9844 43.1175 62.9438 43.4093 62.8288 43.4061C54.7558 42.0971 46.6587 42.0697 38.5818 43.0901C38.3595 43.1207 38.1373 43.1531 37.915 43.1855C37.8428 43.1955 37.7787 43.0377 37.7731 42.8165C37.7718 42.7653 37.7741 42.7149 37.7793 42.6675C37.7766 42.3246 37.776 41.9812 37.7743 41.6383C37.7704 40.8978 37.7664 40.1572 37.7629 39.4167C37.7607 38.9978 37.7596 38.5789 37.7565 38.1594C37.7565 38.1538 37.7563 38.1488 37.7563 38.1432C37.7563 38.1369 37.7563 38.1313 37.7563 38.1251C37.7555 37.9075 37.8076 37.718 37.8819 37.7068C37.8995 37.7037 37.9169 37.7124 37.9332 37.7305C38.3674 37.6738 38.8016 37.6027 39.2359 37.5522C46.7259 36.6664 54.2292 36.6957 61.7161 37.7716C62.0863 37.8302 62.4563 37.8864 62.8263 37.953C62.8304 37.9537 62.8344 37.9555 62.8381 37.9574C62.8402 37.9568 62.842 37.9568 62.8441 37.9568C62.9163 37.958 62.9759 38.1407 62.9759 38.3576Z" fill="#5179C8"/>
</g>
</g>
<defs>
<filter id="filter0_f_224_7156" x="2" y="99" width="94.8849" height="64.8699" filterUnits="userSpaceOnUse" color-interpolation-filters="sRGB">
<feFlood flood-opacity="0" result="BackgroundImageFix"/>
<feBlend mode="normal" in="SourceGraphic" in2="BackgroundImageFix" result="shape"/>
<feGaussianBlur stdDeviation="10.5" result="effect1_foregroundBlur_224_7156"/>
</filter>
<filter id="filter1_d_224_7156" x="-4" y="10.7585" width="107.86" height="158.586" filterUnits="userSpaceOnUse" color-interpolation-filters="sRGB">
<feFlood flood-opacity="0" result="BackgroundImageFix"/>
<feColorMatrix in="SourceAlpha" type="matrix" values="0 0 0 0 0 0 0 0 0 0 0 0 0 0 0 0 0 0 127 0" result="hardAlpha"/>
<feOffset dy="4"/>
<feGaussianBlur stdDeviation="16"/>
<feComposite in2="hardAlpha" operator="out"/>
<feColorMatrix type="matrix" values="0 0 0 0 0 0 0 0 0 0 0 0 0 0 0 0 0 0 0.15 0"/>
<feBlend mode="normal" in2="BackgroundImageFix" result="effect1_dropShadow_224_7156"/>
<feBlend mode="normal" in="SourceGraphic" in2="effect1_dropShadow_224_7156" result="shape"/>
</filter>
<filter id="filter2_d_224_7156" x="-4.84113" y="0.775879" width="109.539" height="82.5576" filterUnits="userSpaceOnUse" color-interpolation-filters="sRGB">
<feFlood flood-opacity="0" result="BackgroundImageFix"/>
<feColorMatrix in="SourceAlpha" type="matrix" values="0 0 0 0 0 0 0 0 0 0 0 0 0 0 0 0 0 0 127 0" result="hardAlpha"/>
<feOffset dy="4"/>
<feGaussianBlur stdDeviation="16"/>
<feComposite in2="hardAlpha" operator="out"/>
<feColorMatrix type="matrix" values="0 0 0 0 0 0 0 0 0 0 0 0 0 0 0 0 0 0 0.15 0"/>
<feBlend mode="normal" in2="BackgroundImageFix" result="effect1_dropShadow_224_7156"/>
<feBlend mode="normal" in="SourceGraphic" in2="effect1_dropShadow_224_7156" result="shape"/>
</filter>
</defs>
</svg>
