<svg width="124" height="135" viewBox="0 0 124 135" fill="none" xmlns="http://www.w3.org/2000/svg">
<g opacity="0.2" filter="url(#filter0_f_513_12520)">
<ellipse cx="61.4424" cy="101.849" rx="26.4424" ry="11.435" fill="black"/>
</g>
<g filter="url(#filter1_d_513_12520)">
<path d="M59.8631 40.4663C57.7114 40.6025 56.6355 40.7251 56.3223 40.8612C56.1725 40.9293 55.8729 41.011 55.6414 41.0383C55.4235 41.0791 54.6473 41.2698 53.9391 41.4605C53.231 41.6647 52.482 41.869 52.2777 41.9099C52.0598 41.9507 51.8964 42.0324 51.8964 42.1005C51.8964 42.1686 51.7738 42.2231 51.624 42.2231C51.4742 42.2231 51.2427 42.2776 51.1065 42.3456C50.9839 42.4137 50.6299 42.5772 50.3303 42.6997C49.3225 43.1219 46.7078 44.4565 46.4763 44.6744C46.3537 44.7833 46.0813 44.9604 45.8907 45.0557C45.7 45.1646 45.3596 45.3961 45.1553 45.5732C44.951 45.7502 44.7331 45.9 44.6787 45.9C44.6378 45.9 44.4744 46.009 44.3246 46.1315C44.1884 46.2677 43.8207 46.5537 43.5211 46.7852C42.7993 47.33 39.9395 50.1898 39.422 50.8707C39.2041 51.1703 38.9181 51.538 38.7955 51.6742C38.6594 51.824 38.5504 51.9874 38.5504 52.0283C38.5504 52.0827 38.4006 52.3006 38.21 52.5185C38.0193 52.7364 37.8695 52.9952 37.8695 53.0769C37.8695 53.1722 37.815 53.2539 37.7333 53.2539C37.6652 53.2539 37.5971 53.3356 37.5971 53.4446C37.5971 53.5535 37.5563 53.6625 37.4882 53.6897C37.3248 53.7578 36.3715 55.4328 36.3715 55.6507C36.3715 55.7597 36.317 55.8414 36.2353 55.8414C36.1672 55.8414 36.0991 55.964 36.0991 56.1138C36.0991 56.2636 36.0446 56.3861 35.9629 56.3861C35.8948 56.3861 35.8267 56.4542 35.8267 56.5223C35.8267 56.604 35.6769 56.9717 35.4863 57.3667C35.2956 57.748 35.1458 58.1565 35.1458 58.2518C35.1458 58.3472 35.0914 58.4289 35.0096 58.4289C34.9416 58.4289 34.8735 58.5651 34.8735 58.7421C34.8735 58.9191 34.819 59.1098 34.7509 59.1779C34.6828 59.2596 34.4649 59.8043 34.2606 60.4035C34.07 61.0027 33.8521 61.6019 33.784 61.7245C33.7023 61.8607 33.6478 62.0922 33.6478 62.2284C33.6478 62.3782 33.5933 62.5416 33.5116 62.5825C33.4435 62.6233 33.3755 62.8821 33.3755 63.1408C33.3755 63.3996 33.321 63.6038 33.2665 63.6038C33.212 63.6038 33.0758 63.9852 32.9805 64.4482C32.8852 64.9248 32.7218 65.6194 32.6128 66.0143C32.5039 66.3956 32.4222 66.9539 32.4222 67.2399C32.4222 67.5259 32.3677 67.8255 32.2996 67.8936C32.1634 68.0434 32 70.2223 32 71.911C32 74.7981 32.6401 78.0937 33.5253 79.8369C33.5933 79.9731 33.6478 80.1773 33.6478 80.2863C33.6478 80.3952 33.7159 80.4906 33.784 80.4906C33.8657 80.4906 33.9202 80.5995 33.9202 80.7221C33.9338 80.8583 34.1108 81.2668 34.3424 81.6481C34.5602 82.0158 34.7781 82.438 34.8326 82.5605C34.8735 82.6967 34.9552 82.8057 35.0233 82.8057C35.0914 82.8057 35.1458 82.8601 35.1458 82.9419C35.1458 83.0917 36.1127 84.4807 36.2625 84.5488C36.3306 84.5761 36.3715 84.6714 36.3715 84.7531C36.3715 84.971 39.6943 88.2258 40.348 88.6615C40.634 88.8522 40.8655 89.0429 40.8655 89.0973C40.8655 89.1654 40.9609 89.2063 41.0698 89.2063C41.1787 89.2063 41.2741 89.2608 41.2741 89.3425C41.2741 89.4106 41.3558 89.4786 41.4511 89.4786C41.5464 89.4786 41.7507 89.5876 41.9005 89.7238C42.0367 89.8463 42.418 90.0779 42.7312 90.2277C43.0581 90.3775 43.3168 90.5409 43.3168 90.5954C43.3168 90.6634 43.4394 90.7043 43.5892 90.7043C43.739 90.7043 43.8616 90.7588 43.8616 90.8405C43.8616 90.9086 43.9705 90.9767 44.1067 90.9767C44.2429 90.9767 44.4063 91.0311 44.488 91.0856C44.5561 91.1537 45.0463 91.3716 45.5638 91.5759C46.095 91.7938 46.6261 92.0117 46.7486 92.0797C46.8848 92.1478 47.1163 92.2023 47.2661 92.2023C47.4159 92.2023 47.5385 92.2568 47.5385 92.3385C47.5385 92.4066 47.6883 92.4747 47.879 92.4747C48.0696 92.4747 48.3284 92.5292 48.4645 92.6109C48.805 92.8015 50.3847 93.2918 50.9839 93.3871C51.2563 93.428 51.4878 93.5097 51.4878 93.5641C51.4878 93.6186 51.7193 93.7003 52.0053 93.7412C52.2777 93.782 53.2446 93.9727 54.1434 94.1634C56.118 94.6128 57.3301 94.7898 58.7736 94.8715C59.3728 94.9124 59.9856 94.9941 60.1491 95.0758C60.5576 95.2801 64.1528 95.0622 66.7403 94.6672C67.6255 94.5447 69.3278 94.1906 70.3492 93.9455C70.6488 93.8774 71.1254 93.782 71.4114 93.7412C71.6838 93.7003 71.9153 93.6186 71.9153 93.5505C71.9153 93.4824 72.0651 93.428 72.2421 93.428C72.5826 93.428 75.4697 92.5564 75.8918 92.3249C76.028 92.2568 76.2595 92.2023 76.4093 92.2023C76.5591 92.2023 76.6817 92.1342 76.6817 92.0661C76.6817 91.9844 76.8043 91.9299 76.9541 91.9299C77.1039 91.9299 77.5805 91.7665 78.0027 91.5623C79.705 90.786 80.5629 90.3638 80.631 90.2821C80.6719 90.2413 80.917 90.0915 81.1894 89.9689C81.4617 89.8463 81.8158 89.6148 81.9656 89.4786C82.129 89.3288 82.2924 89.2063 82.3333 89.2063C82.3878 89.2063 82.5103 89.1246 82.6057 89.0429C82.9053 88.7705 83.1095 88.6207 83.627 88.253C84.2399 87.8172 86.446 85.6247 86.9635 84.9165C87.195 84.6169 87.481 84.2492 87.6172 84.113C87.7398 83.9632 87.8487 83.7862 87.8487 83.7317C87.8487 83.6636 87.9577 83.5002 88.0939 83.3504C88.2164 83.2142 88.4479 82.8601 88.5977 82.5742C88.7475 82.2882 88.8973 82.0294 88.9382 81.9886C89.0744 81.866 89.8642 80.1501 89.9596 79.7688C90.014 79.5645 90.1094 79.3602 90.1775 79.3194C90.2455 79.2785 90.3 79.1015 90.3 78.9108C90.3 78.7338 90.3681 78.584 90.4362 78.584C90.5179 78.584 90.5724 78.407 90.5724 78.1891C90.5724 77.9575 90.6269 77.7397 90.7086 77.6988C90.7767 77.6579 90.8448 77.4809 90.8448 77.3311C90.8448 77.1677 90.8992 76.8545 90.9809 76.623C91.1852 75.9284 91.5257 73.0005 91.5257 71.8429C91.5257 70.0317 91.0218 66.2186 90.695 65.6194C90.6269 65.4832 90.5724 65.1427 90.5724 64.8567C90.5724 64.5707 90.5179 64.2848 90.4498 64.203C90.3953 64.135 90.2319 63.6855 90.1094 63.1953C89.7825 61.9969 89.5783 61.3841 89.4557 61.2206C89.4012 61.1525 89.3467 60.921 89.3467 60.7168C89.3467 60.5125 89.2923 60.3354 89.2106 60.3354C89.1425 60.3354 89.0744 60.1856 89.0744 59.995C89.0744 59.8043 89.0335 59.6545 88.9654 59.6545C88.911 59.6545 88.7884 59.4094 88.7067 59.1098C88.4207 58.2382 86.8954 54.9834 86.732 54.9154C86.6639 54.8881 86.6231 54.7792 86.6231 54.6702C86.6231 54.5613 86.5686 54.4796 86.4869 54.4796C86.4188 54.4796 86.3507 54.357 86.3507 54.2208C86.3507 54.071 86.3099 53.9348 86.2554 53.9076C86.1192 53.8531 85.3974 52.75 85.3974 52.6002C85.3974 52.5458 85.2749 52.4096 85.1251 52.3006C84.9753 52.1917 84.8527 52.0555 84.8527 51.9874C84.8527 51.6333 81.2575 47.7521 80.2906 47.0576C80.0727 46.9078 79.7731 46.6626 79.6233 46.5128C79.4598 46.363 78.956 45.9954 78.4929 45.6958C78.0163 45.3961 77.635 45.1102 77.635 45.0421C77.635 44.9876 77.5669 44.9467 77.4852 44.9467C77.4035 44.9467 77.172 44.8378 76.9813 44.688C76.6681 44.4701 76.0416 44.1296 74.5709 43.3534C74.4211 43.2717 73.9036 43.0402 73.4133 42.8359C72.923 42.6316 72.4192 42.4137 72.2966 42.3456C72.1604 42.2776 71.9561 42.2231 71.8472 42.2231C71.7383 42.2231 71.6429 42.155 71.6429 42.0869C71.6429 42.0052 71.4659 41.9507 71.2616 41.9507C71.0573 41.9507 70.8258 41.8962 70.7441 41.8281C70.676 41.7737 70.1585 41.6103 69.6002 41.4741C69.0418 41.3515 68.4699 41.1881 68.3473 41.12C68.2111 41.0519 67.8843 40.9974 67.6255 40.9974C67.3668 40.9974 67.1489 40.9293 67.1489 40.8612C67.1489 40.7795 66.822 40.7251 66.4407 40.7251C66.0458 40.7251 65.5011 40.6706 65.2423 40.6025C64.575 40.4255 61.6471 40.3574 59.8631 40.4663Z" fill="#333333"/>
</g>
<g filter="url(#filter2_d_513_12520)">
<mask id="mask0_513_12520" style="mask-type:luminance" maskUnits="userSpaceOnUse" x="39" y="28" width="46" height="20">
<path d="M39 28.4141H84.9676V47.0333H39V28.4141Z" fill="white"/>
</mask>
<g mask="url(#mask0_513_12520)">
<path d="M74.0688 35.5513C74.0706 35.5347 74.0727 35.5182 74.0756 35.5014C74.0727 35.5182 74.0704 35.5347 74.0688 35.5513ZM84.6842 44.7022C84.9547 45.8979 81.0874 46.0879 80.2522 46.2395C73.17 46.9603 66.0362 47.0201 58.9232 46.9789C56.676 46.8962 39.0135 46.8637 39.1598 44.8396C39.1604 44.8394 39.1608 44.8394 39.1614 44.8394C39.1031 43.8262 41.8123 43.6586 42.5689 43.5067C43.9149 43.3256 45.2676 43.2045 46.6214 43.1031C47.7253 43.0216 48.8303 42.9533 49.9356 42.8991C49.8905 42.0724 49.842 41.2456 49.7957 40.4191C49.7375 39.3793 49.6794 38.3394 49.6212 37.2993C49.5637 36.2698 49.506 35.24 49.4484 34.2103C49.428 33.8426 49.4079 33.4748 49.3868 33.1071C49.3839 33.0574 49.3905 33.0092 49.405 32.9641C49.4025 32.877 49.4029 32.7901 49.4079 32.7027C49.4408 32.0144 49.8267 31.4046 50.2961 30.9228C51.2886 29.9061 52.6757 29.4037 54.0276 29.0697C54.5797 28.9445 55.1397 28.8611 55.7018 28.7978C55.7591 28.7738 55.8189 28.7628 55.8802 28.7529C55.9596 28.74 56.0391 28.728 56.1186 28.7173C56.2601 28.6982 56.4016 28.6804 56.5436 28.6639C56.8213 28.6316 57.0994 28.6051 57.3788 28.5848C57.9454 28.5443 58.5129 28.5095 59.0807 28.4843C59.661 28.4582 60.2416 28.4383 60.8227 28.4329C61.4146 28.4276 62.0068 28.435 62.5987 28.447C63.1678 28.4582 63.7364 28.4818 64.3051 28.5041C64.861 28.5261 65.4176 28.5422 65.9731 28.5749C66.5306 28.6076 67.0872 28.6535 67.6439 28.6986C67.8949 28.7189 68.1465 28.7367 68.3976 28.7582C68.3978 28.7582 68.3978 28.7582 68.3978 28.7582C68.464 28.7558 68.5329 28.7663 68.5989 28.7765C68.727 28.7887 68.8549 28.8021 68.9824 28.8178C69.0147 28.822 69.0519 28.8236 69.0846 28.8319C69.0954 28.8346 69.1057 28.8375 69.1161 28.8404C69.3584 28.8696 69.6003 28.9 69.8408 28.9424C71.23 29.2001 72.8673 29.7518 73.812 30.8498C74.6906 31.7723 74.8626 33.0543 74.9003 34.2761C74.9025 34.5495 74.9139 34.8232 74.9152 35.0968C74.9309 35.1424 74.9394 35.191 74.9394 35.2413C74.9394 35.2493 74.9394 35.2574 74.9394 35.2655C74.9394 35.2657 74.9394 35.2659 74.9394 35.2661C74.9394 36.2555 74.9361 37.2451 74.9344 38.2347C74.9328 39.2973 74.9307 40.3599 74.9292 41.4226C74.9284 41.9323 74.9276 42.442 74.9265 42.9517C75.1823 42.9659 75.4379 42.9827 75.6935 42.9986C77.0806 43.1507 84.5189 43.3674 84.6842 44.7022Z" fill="#FFEAB2"/>
</g>
<mask id="mask1_513_12520" style="mask-type:luminance" maskUnits="userSpaceOnUse" x="49" y="36" width="26" height="8">
<path d="M49.7421 36.2817H74.9974V43.1044H49.7421V36.2817Z" fill="white"/>
</mask>
<g mask="url(#mask1_513_12520)">
<path d="M74.9759 38.0129C74.9759 38.5496 74.9722 39.0857 74.9703 39.6224C74.9681 40.328 74.9656 41.0337 74.9631 41.7399C74.9623 41.9824 74.9614 42.2249 74.9606 42.468V42.4686C74.9606 42.4748 74.9606 42.4811 74.9606 42.4867C74.9606 42.4873 74.9606 42.4879 74.9606 42.4879C74.9606 42.4917 74.9606 42.4948 74.9606 42.4985C74.9606 42.5129 74.9606 42.5272 74.9604 42.5415C74.9844 42.7728 74.9438 43.0645 74.8288 43.0614C66.7558 41.7524 58.6587 41.725 50.5818 42.7454C50.3595 42.7759 50.1373 42.8083 49.915 42.8408C49.8428 42.8507 49.7787 42.693 49.7731 42.4717C49.7718 42.4206 49.7741 42.3701 49.7793 42.3227C49.7766 41.9799 49.776 41.6364 49.7743 41.2936C49.7704 40.5531 49.7664 39.8125 49.7629 39.072C49.7607 38.6531 49.7596 38.2342 49.7565 37.8147C49.7565 37.809 49.7563 37.8041 49.7563 37.7984C49.7563 37.7922 49.7563 37.7866 49.7563 37.7804C49.7555 37.5628 49.8076 37.3733 49.8819 37.3621C49.8995 37.359 49.9169 37.3677 49.9332 37.3858C50.3674 37.3291 50.8016 37.258 51.2359 37.2075C58.7259 36.3217 66.2292 36.351 73.7161 37.4269C74.0863 37.4855 74.4563 37.5416 74.8263 37.6083C74.8304 37.609 74.8344 37.6108 74.8381 37.6127C74.8402 37.6121 74.842 37.6121 74.8441 37.6121C74.9163 37.6133 74.9759 37.7959 74.9759 38.0129Z" fill="#DC9E00"/>
</g>
</g>
<path d="M54.7217 88.1591C54.4953 88.2346 54.0928 88.4861 53.8287 88.7C52.9859 89.4044 52.9733 89.5805 53.0111 95.7188C53.0362 98.8634 53.0991 101.429 53.1746 101.857C53.5897 104.046 56.0551 104.826 57.4387 103.203C57.6525 102.964 57.8538 102.587 57.9167 102.385C58.0551 101.832 58.0928 96.0458 57.9796 92.6873C57.8915 89.8698 57.879 89.7817 57.5645 89.2786C57.1997 88.7 56.7469 88.3478 56.1054 88.1339C55.5771 87.9452 55.2752 87.9578 54.7217 88.1591Z" fill="#333333"/>
<path d="M67.7959 89.1177C67.2757 89.2869 66.644 89.7097 66.4211 90.0386C66.1239 90.4802 66 92.1098 66 96V99.5L66.4087 100.13C67.5606 101.446 69.9386 101.23 70.6817 99.7452C70.9418 99.2096 70.979 98.6646 70.9914 94.6053C71.0161 90.5742 71.0038 90.5366 70.7313 90.095C70.1863 89.2211 68.8363 88.77 67.7959 89.1177Z" fill="#333333"/>
<defs>
<filter id="filter0_f_513_12520" x="14" y="69.4138" width="94.8849" height="64.8699" filterUnits="userSpaceOnUse" color-interpolation-filters="sRGB">
<feFlood flood-opacity="0" result="BackgroundImageFix"/>
<feBlend mode="normal" in="SourceGraphic" in2="BackgroundImageFix" result="shape"/>
<feGaussianBlur stdDeviation="10.5" result="effect1_foregroundBlur_513_12520"/>
</filter>
<filter id="filter1_d_513_12520" x="0" y="12.4138" width="123.526" height="118.74" filterUnits="userSpaceOnUse" color-interpolation-filters="sRGB">
<feFlood flood-opacity="0" result="BackgroundImageFix"/>
<feColorMatrix in="SourceAlpha" type="matrix" values="0 0 0 0 0 0 0 0 0 0 0 0 0 0 0 0 0 0 127 0" result="hardAlpha"/>
<feOffset dy="4"/>
<feGaussianBlur stdDeviation="16"/>
<feComposite in2="hardAlpha" operator="out"/>
<feColorMatrix type="matrix" values="0 0 0 0 0 0 0 0 0 0 0 0 0 0 0 0 0 0 0.15 0"/>
<feBlend mode="normal" in2="BackgroundImageFix" result="effect1_dropShadow_513_12520"/>
<feBlend mode="normal" in="SourceGraphic" in2="effect1_dropShadow_513_12520" result="shape"/>
</filter>
<filter id="filter2_d_513_12520" x="7.15887" y="0.431152" width="109.539" height="82.5576" filterUnits="userSpaceOnUse" color-interpolation-filters="sRGB">
<feFlood flood-opacity="0" result="BackgroundImageFix"/>
<feColorMatrix in="SourceAlpha" type="matrix" values="0 0 0 0 0 0 0 0 0 0 0 0 0 0 0 0 0 0 127 0" result="hardAlpha"/>
<feOffset dy="4"/>
<feGaussianBlur stdDeviation="16"/>
<feComposite in2="hardAlpha" operator="out"/>
<feColorMatrix type="matrix" values="0 0 0 0 0 0 0 0 0 0 0 0 0 0 0 0 0 0 0.15 0"/>
<feBlend mode="normal" in2="BackgroundImageFix" result="effect1_dropShadow_513_12520"/>
<feBlend mode="normal" in="SourceGraphic" in2="effect1_dropShadow_513_12520" result="shape"/>
</filter>
</defs>
</svg>
