<svg width="110" height="164" viewBox="0 0 110 164" fill="none" xmlns="http://www.w3.org/2000/svg">
<g opacity="0.2" filter="url(#filter0_f_513_13672)">
<ellipse cx="54.4424" cy="130.676" rx="26.4424" ry="11.435" fill="black"/>
</g>
<g filter="url(#filter1_d_513_13672)">
<path d="M52.039 38.2069C45.945 39.4995 40.6205 43.5314 38.1276 48.7328C35.9731 53.2263 35.296 58.243 34.8959 72.9854C34.8036 76.1247 34.6805 79.0178 34.5882 79.4487C34.4343 80.3104 33.8187 87.7586 33.6341 90.9902C33.5725 92.1598 33.3878 94.4681 33.2339 96.0685C32.6492 102.286 33.1416 106.779 34.9267 111.211C37.8506 118.413 41.0822 121.214 49.2998 123.737C52.2544 124.661 57.7328 124.661 60.749 123.737C66.1351 122.075 68.351 120.906 70.844 118.321C72.4752 116.659 73.1523 115.581 74.8143 111.888C76.7533 107.61 77.0303 105.825 76.7841 98.3768C76.5686 91.3595 76.4763 89.7591 76.1685 87.9125C75.8915 86.035 75.3991 78.2791 75.2144 72.9854C74.8759 63.1058 74.722 60.4282 74.2603 57.4428C73.1523 50.3024 71.8597 47.3478 68.4741 43.9622C65.9504 41.4077 63.8575 40.0843 60.5643 38.9455C58.1021 38.0837 54.2242 37.7452 52.039 38.2069Z" fill="#333333"/>
</g>
<g filter="url(#filter2_d_513_13672)">
<mask id="mask0_513_13672" style="mask-type:luminance" maskUnits="userSpaceOnUse" x="32" y="28" width="46" height="19">
<path d="M32 28H77.9676V46.6193H32V28Z" fill="white"/>
</mask>
<g mask="url(#mask0_513_13672)">
<path d="M67.0687 35.1372C67.0706 35.1207 67.0726 35.1041 67.0755 35.0873C67.0726 35.1041 67.0704 35.1207 67.0687 35.1372ZM77.6841 44.2881C77.9546 45.4838 74.0873 45.6738 73.2521 45.8255C66.17 46.5463 59.0361 46.6061 51.9232 46.5649C49.676 46.4821 32.0134 46.4496 32.1597 44.4255C32.1603 44.4253 32.1607 44.4253 32.1614 44.4253C32.103 43.4121 34.8123 43.2445 35.5689 43.0926C36.9148 42.9115 38.2676 42.7905 39.6214 42.6891C40.7252 42.6075 41.8303 42.5393 42.9355 42.485C42.8904 41.6583 42.842 40.8316 42.7956 40.0051C42.7375 38.9652 42.6793 37.9253 42.6212 36.8852C42.5637 35.8557 42.5059 34.826 42.4484 33.7962C42.4279 33.4285 42.4078 33.0608 42.3867 32.693C42.3838 32.6434 42.3904 32.5951 42.4049 32.55C42.4024 32.4629 42.4029 32.376 42.4078 32.2887C42.4407 31.6004 42.8267 30.9905 43.296 30.5088C44.2885 29.4921 45.6756 28.9896 47.0276 28.6556C47.5797 28.5304 48.1397 28.447 48.7017 28.3837C48.759 28.3597 48.8188 28.3487 48.8801 28.3388C48.9596 28.326 49.039 28.314 49.1185 28.3032C49.26 28.2842 49.4016 28.2664 49.5435 28.2498C49.8213 28.2175 50.0994 28.191 50.3788 28.1708C50.9454 28.1302 51.5128 28.0954 52.0806 28.0702C52.6609 28.0441 53.2416 28.0242 53.8227 28.0189C54.4145 28.0135 55.0068 28.0209 55.5986 28.0329C56.1677 28.0441 56.7364 28.0677 57.3051 28.0901C57.8609 28.112 58.4176 28.1281 58.973 28.1608C59.5305 28.1935 60.0872 28.2395 60.6438 28.2846C60.8948 28.3049 61.1465 28.3227 61.3975 28.3442C61.3977 28.3442 61.3977 28.3442 61.3977 28.3442C61.4639 28.3417 61.5329 28.3522 61.5989 28.3624C61.727 28.3746 61.8549 28.388 61.9823 28.4038C62.0146 28.4079 62.0519 28.4096 62.0846 28.4178C62.0953 28.4205 62.1057 28.4234 62.116 28.4263C62.3583 28.4555 62.6003 28.4859 62.8407 28.5284C64.2299 28.786 65.8672 29.3377 66.8119 30.4357C67.6906 31.3583 67.8625 32.6403 67.9002 33.862C67.9025 34.1354 67.9139 34.4092 67.9151 34.6828C67.9308 34.7283 67.9393 34.7769 67.9393 34.8272C67.9393 34.8353 67.9393 34.8433 67.9393 34.8514C67.9393 34.8516 67.9393 34.8518 67.9393 34.852C67.9393 35.8414 67.936 36.831 67.9343 37.8206C67.9327 38.8832 67.9306 39.9459 67.9292 41.0085C67.9283 41.5182 67.9275 42.0279 67.9265 42.5376C68.1823 42.5519 68.4378 42.5686 68.6934 42.5846C70.0805 42.7367 77.5188 42.9534 77.6841 44.2881Z" fill="#FFEAB2"/>
</g>
<mask id="mask1_513_13672" style="mask-type:luminance" maskUnits="userSpaceOnUse" x="42" y="35" width="26" height="8">
<path d="M42.7421 35.8677H67.9974V42.6903H42.7421V35.8677Z" fill="white"/>
</mask>
<g mask="url(#mask1_513_13672)">
<path d="M67.9759 37.5988C67.9759 38.1355 67.9721 38.6716 67.9703 39.2083C67.968 39.914 67.9655 40.6196 67.963 41.3259C67.9622 41.5683 67.9614 41.8108 67.9606 42.0539V42.0546C67.9606 42.0608 67.9606 42.067 67.9606 42.0726C67.9606 42.0733 67.9606 42.0739 67.9606 42.0739C67.9606 42.0776 67.9606 42.0807 67.9606 42.0845C67.9606 42.0988 67.9606 42.1132 67.9603 42.1275C67.9844 42.3587 67.9438 42.6505 67.8287 42.6474C59.7558 41.3383 51.6586 41.3109 43.5817 42.3313C43.3595 42.3619 43.1372 42.3943 42.915 42.4267C42.8427 42.4367 42.7786 42.279 42.773 42.0577C42.7718 42.0066 42.774 41.9561 42.7792 41.9087C42.7765 41.5658 42.7759 41.2224 42.7742 40.8795C42.7703 40.139 42.7664 39.3984 42.7629 38.6579C42.7606 38.239 42.7596 37.8201 42.7564 37.4006C42.7564 37.395 42.7562 37.39 42.7562 37.3844C42.7562 37.3782 42.7562 37.3725 42.7562 37.3663C42.7554 37.1488 42.8076 36.9593 42.8818 36.948C42.8994 36.9449 42.9168 36.9536 42.9332 36.9717C43.3673 36.915 43.8015 36.8439 44.2359 36.7934C51.7259 35.9076 59.2291 35.9369 66.716 37.0129C67.0862 37.0715 67.4562 37.1276 67.8262 37.1943C67.8304 37.1949 67.8343 37.1968 67.838 37.1986C67.8401 37.198 67.842 37.198 67.844 37.198C67.9163 37.1992 67.9759 37.3819 67.9759 37.5988Z" fill="#5179C8"/>
</g>
</g>
<path d="M47.7217 114.573C47.4953 114.649 47.0928 114.9 46.8287 115.114C45.9859 115.818 45.9733 115.995 46.0111 122.133C46.0362 125.277 46.0991 127.843 46.1746 128.271C46.5897 130.46 49.0551 131.24 50.4387 129.617C50.6525 129.378 50.8538 129.001 50.9167 128.799C51.0551 128.246 51.0928 122.46 50.9796 119.101C50.8915 116.284 50.879 116.196 50.5645 115.693C50.1997 115.114 49.7469 114.762 49.1054 114.548C48.5771 114.359 48.2752 114.372 47.7217 114.573Z" fill="#333333"/>
<path d="M60.7959 121.532C60.2757 121.701 59.644 122.124 59.4211 122.453C59.1239 122.894 59 124.524 59 128.414V131.914L59.4087 132.545C60.5606 133.86 62.9386 133.644 63.6817 132.159C63.9418 131.624 63.979 131.079 63.9914 127.019C64.0161 122.988 64.0038 122.951 63.7313 122.509C63.1863 121.635 61.8363 121.184 60.7959 121.532Z" fill="#333333"/>
<defs>
<filter id="filter0_f_513_13672" x="7" y="98.2415" width="94.8849" height="64.8699" filterUnits="userSpaceOnUse" color-interpolation-filters="sRGB">
<feFlood flood-opacity="0" result="BackgroundImageFix"/>
<feBlend mode="normal" in="SourceGraphic" in2="BackgroundImageFix" result="shape"/>
<feGaussianBlur stdDeviation="10.5" result="effect1_foregroundBlur_513_13672"/>
</filter>
<filter id="filter1_d_513_13672" x="1" y="10" width="107.86" height="150.43" filterUnits="userSpaceOnUse" color-interpolation-filters="sRGB">
<feFlood flood-opacity="0" result="BackgroundImageFix"/>
<feColorMatrix in="SourceAlpha" type="matrix" values="0 0 0 0 0 0 0 0 0 0 0 0 0 0 0 0 0 0 127 0" result="hardAlpha"/>
<feOffset dy="4"/>
<feGaussianBlur stdDeviation="16"/>
<feComposite in2="hardAlpha" operator="out"/>
<feColorMatrix type="matrix" values="0 0 0 0 0 0 0 0 0 0 0 0 0 0 0 0 0 0 0.15 0"/>
<feBlend mode="normal" in2="BackgroundImageFix" result="effect1_dropShadow_513_13672"/>
<feBlend mode="normal" in="SourceGraphic" in2="effect1_dropShadow_513_13672" result="shape"/>
</filter>
<filter id="filter2_d_513_13672" x="0.158813" y="0.0170898" width="109.539" height="82.5576" filterUnits="userSpaceOnUse" color-interpolation-filters="sRGB">
<feFlood flood-opacity="0" result="BackgroundImageFix"/>
<feColorMatrix in="SourceAlpha" type="matrix" values="0 0 0 0 0 0 0 0 0 0 0 0 0 0 0 0 0 0 127 0" result="hardAlpha"/>
<feOffset dy="4"/>
<feGaussianBlur stdDeviation="16"/>
<feComposite in2="hardAlpha" operator="out"/>
<feColorMatrix type="matrix" values="0 0 0 0 0 0 0 0 0 0 0 0 0 0 0 0 0 0 0.15 0"/>
<feBlend mode="normal" in2="BackgroundImageFix" result="effect1_dropShadow_513_13672"/>
<feBlend mode="normal" in="SourceGraphic" in2="effect1_dropShadow_513_13672" result="shape"/>
</filter>
</defs>
</svg>
