<svg width="265" height="285" viewBox="0 0 265 285" fill="none" xmlns="http://www.w3.org/2000/svg">
<g clip-path="url(#clip0_1135_29755)">
<mask id="mask0_1135_29755" style="mask-type:luminance" maskUnits="userSpaceOnUse" x="0" y="2" width="265" height="266">
<path d="M265 2.3291H0V267.329H265V2.3291Z" fill="white"/>
</mask>
<g mask="url(#mask0_1135_29755)">
<path d="M143.949 127.418C143.896 125.285 144.139 123.123 143.79 121.018C143.551 119.573 141.163 120.17 141.122 120.846C140.725 127.36 141.109 128.713 141.157 133.493C141.166 134.312 140.764 135.475 139.962 135.639C136.86 136.274 133.629 135.668 130.463 135.683C130.897 130.855 130.897 130.855 131.331 126.026C124.25 128.038 116.779 128.994 110.087 132.063C106.736 133.599 104.417 136.806 101.918 139.515C89.3836 153.105 91.52 175.322 103.421 188.476C107.525 193.012 113.457 196.552 119.533 197.26C123.511 197.724 127.657 197.536 131.523 196.49C134.968 195.557 138.214 193.719 140.974 191.456C143.803 189.136 145.639 185.818 147.971 182.999C150.442 186.349 148.787 191.34 146.807 194.645C141.846 202.923 132.646 208.788 123.296 210.626C100.543 215.099 79.4912 197.615 74.8632 175.883C73.5043 169.502 72.6656 162.786 73.6987 156.344C74.9833 148.333 77.711 139.081 82.2517 132.214C88.7563 122.379 100.458 116.374 111.91 114.846C121.321 113.591 131.032 114.312 140.254 112.06C143.46 111.278 145.706 108.291 148.093 106.012C152.771 101.545 148.414 96.0526 148.748 91.2588C148.877 89.3944 150.393 87.9028 151.216 86.2248C140.357 86.2665 129.499 86.3956 118.64 86.3498C118.27 86.3482 117.727 86.4147 117.563 86.083C117.078 85.0965 116.629 83.9094 116.916 82.8481C117.733 79.8371 118.943 76.8509 120.756 74.3125C127.079 65.4645 136.769 59.3821 147.583 58.2484C148.516 58.1506 149.491 58.4073 150.343 58.8012C153.182 60.1148 154.957 62.2205 158.322 66.5263C160.764 69.6512 157.984 72.1531 158.711 74.8256C159.245 76.7909 161.128 78.1371 161.981 79.9864C162.913 82.006 163.731 84.134 164.021 86.3389C166.337 103.96 166.147 117.185 146.677 126.659C145.849 127.062 144.859 127.269 143.949 127.418Z" fill="#7AC416"/>
<path d="M151.636 194.71C151.518 192.918 152.644 191.249 152.888 189.469C153.177 187.36 153.442 185.182 153.077 183.084C152.763 181.283 151.804 179.639 150.9 178.05C149.625 175.808 146.356 174.222 144.417 176.766C142.112 179.789 140.381 183.228 138.017 186.204C132.283 193.42 121.872 194.066 115.304 187.838C103.702 176.837 98.5285 152.596 110.62 140.073C113.928 136.647 118.911 135.158 123.504 133.899C124.888 136.351 123.321 138.667 124.732 141.295C125.543 142.805 126.599 144.236 127.916 145.333C131.214 148.079 136.472 146.059 140.725 146.64C141.85 146.793 142.537 148.39 143.672 148.348C144.984 148.3 146.098 147.255 147.097 146.405C151.621 142.558 151.413 140.415 151.853 134.735C158.933 133.525 166.76 130.847 173.375 133.646C178.248 135.708 181.808 138.942 184.46 143.534C191.263 155.313 181.019 170.588 172.806 178.793C169.055 182.54 165.056 186.051 160.879 189.316C158.202 191.407 155.236 193.106 152.303 194.818C152.108 194.931 151.858 194.746 151.636 194.71Z" fill="#F66A5A"/>
<path d="M167.769 105.104C170.027 103.381 172.173 101.498 174.545 99.9341C180.002 96.3359 185.251 96.5003 191.568 96.4897C187.219 102.08 183.109 107.864 178.522 113.261C171.799 121.171 161.848 130.588 150.559 128.136C152.099 131.589 152.392 137.47 151.496 141.055C150.352 145.636 143.634 151.578 140.725 146.898C144.011 145.383 147.28 144.221 148.192 140.231C148.514 138.822 148.01 137.302 148.359 135.9C148.529 135.219 149.754 134.955 149.675 134.257C149.354 131.425 147.218 128.419 148.359 125.807C149.733 122.665 153.752 121.555 156.252 119.208C157.555 117.985 158.838 116.677 159.731 115.129C164.588 106.711 165.742 95.4584 163.746 86.0051C163.318 83.9772 162.824 81.9297 161.937 80.0566C161.04 78.163 159.007 76.8458 158.452 74.8256C157.913 72.8638 159.015 70.7583 158.823 68.7327C158.618 66.5633 157.117 65.1216 155.864 63.5683C157.729 62.5427 159.979 62.3184 162.105 62.2288C167.495 62.0019 167.923 66.4952 167.898 71.0732C167.895 71.5649 167.209 72.1076 167.51 72.4965C169.231 74.7198 171.635 76.3243 173.553 78.3796C174.061 78.9236 174.956 79.5436 174.756 80.2602C174.021 82.8931 171.066 84.8149 170.995 87.5477C170.917 90.5264 176.178 94.5242 174.708 96.9601C172.865 100.014 170.082 102.389 167.769 105.104Z" fill="#28902D"/>
<path d="M151.853 86.0829C150.861 87.765 149.108 89.1902 148.877 91.1293C148.638 93.1354 150.363 94.9413 150.559 96.9521C151.113 102.622 148.609 107.213 144.059 110.364C142.461 111.471 138.799 112.812 136.872 113.003C129.756 113.711 122.575 113.692 115.472 114.517C102.091 116.071 92.1791 121.836 83.2739 131.5C82.9504 131.048 82.9504 131.048 82.6269 130.595C82.3681 130.918 82.3681 130.918 82.1093 131.242C81.5576 130.981 80.841 131.26 80.2978 130.983C79.5895 130.621 79.0901 129.948 78.4863 129.43C81.3959 126.766 84.7645 124.648 87.8081 122.139C89.1145 121.062 86.1674 118.803 87.8027 117.914C88.7941 117.375 89.9338 117.149 91.0381 116.916C93.6066 116.374 96.8264 117.322 98.8015 115.592C100.774 113.865 100.354 110.584 101.13 108.08C106.565 109.956 106.565 109.956 111.999 111.832C114.453 108.513 114.453 108.513 116.906 105.193C119.883 107.031 122.43 109.913 125.838 110.707C127.237 111.033 128.203 109.058 129.243 108.068C130.716 106.664 131.981 105.057 133.35 103.551C135.873 105.246 138.212 108.256 141.249 108.108C143.159 108.015 146.284 104.552 146.991 103.585C148.718 101.222 148.428 97.6606 147.483 95.1084C147.172 94.2695 147.018 92.8769 146.127 92.792C138.83 92.0964 131.462 93.1856 124.139 92.8829C121.417 92.7703 117.309 88.6113 118.22 85.9615C135.037 86.0224 135.037 86.0224 151.853 86.0829Z" fill="#28902D"/>
<path d="M186.919 152.721C189.332 157.722 187.514 165.657 185.945 170.851C182.313 182.869 174.296 192.791 163.534 199.224C162.205 200.018 159.388 200.511 157.915 200.607C154.978 200.799 152.035 200.893 149.092 200.925C148.451 200.931 147.044 200.626 147.369 200.074C148.571 198.03 150.256 196.297 151.465 194.257C152.6 194.578 152.43 194.727 153.744 193.833C157.045 191.587 160.341 189.324 163.499 186.881C171.411 180.76 178.936 172.367 183.476 163.368C185.333 159.686 184.999 155.637 186.919 152.721Z" fill="#CC433C"/>
<path d="M144.607 63.8271C154.226 64.1747 153.089 76.9747 144.057 79.0737C139.141 80.2162 134.856 79.599 132.4 74.6647C131.645 73.1482 132.372 70.9218 133.22 69.6499C136.225 65.142 139.308 63.6356 144.607 63.8271Z" fill="#FBFDFD"/>
<path d="M143.96 127.23C145.002 127.64 145.543 126.581 146.677 126.713C145.763 127.538 144.429 127.682 143.949 128.925C142.828 131.828 146.299 135.588 144.428 138.64C142.52 141.754 139.524 140.686 135.855 140.668C134.409 140.661 133.41 140.65 133.41 140.65C133.41 140.65 131.267 140.707 130.115 140.687C126.414 140.625 126.321 134.446 127.786 132.277C129.02 130.449 131.823 128.936 131.256 132.398C131.098 133.359 130.84 134.301 130.632 135.253C133.816 135.483 137.025 135.502 140.207 135.253C140.251 130.81 140.151 126.364 140.337 121.925C140.43 119.699 142.937 119.649 144.089 120.89C145.356 122.254 144.385 125.76 143.96 127.23Z" fill="#28902D"/>
<path d="M142.795 66.415C150.722 68.2638 148.039 76.896 140.337 76.896C136.76 76.896 135.722 71.8716 136.714 69.3911C137.759 66.7794 140.525 65.8856 142.795 66.415Z" fill="#2B2F5F"/>
<path d="M169.062 138.229C171.919 138.777 171.276 143.146 168.027 143.146C165.791 143.146 164.951 137.441 169.062 138.229Z" fill="#FBFDFD"/>
<path d="M80.1684 130.853C81.3092 129.911 84.815 130.773 82.3684 132.705C81.2685 131.779 81.2685 131.779 80.1684 130.853Z" fill="#4D943E"/>
<path d="M186.531 150.004C188.013 150.492 186.504 154.362 186.272 152.851C186.2 152.382 186.298 151.901 186.272 151.427C186.221 150.511 185.783 149.758 186.531 150.004Z" fill="#E3534F"/>
<path d="M151.206 127.36C151.012 128.007 151.012 128.007 150.818 128.654C150.559 128.46 150.559 128.46 150.3 128.266C150.753 127.813 150.753 127.813 151.206 127.36Z" fill="#456228"/>
</g>
</g>
<path d="M66.3516 245.539L65.2578 253.781C64.8802 253.677 64.5026 253.605 64.125 253.566C63.7474 253.527 63.3698 253.508 62.9922 253.508C62.0286 253.508 61.1107 253.638 60.2383 253.898C59.3659 254.146 58.5911 254.53 57.9141 255.051C57.25 255.572 56.7161 256.223 56.3125 257.004C55.9219 257.785 55.7266 258.703 55.7266 259.758C55.7266 260.435 55.8307 261.021 56.0391 261.516C56.2604 262.01 56.5664 262.421 56.957 262.746C57.3477 263.072 57.8099 263.312 58.3438 263.469C58.8776 263.625 59.4635 263.703 60.1016 263.703C60.5833 263.703 61.0846 263.651 61.6055 263.547C62.1263 263.443 62.6406 263.306 63.1484 263.137C63.6562 262.967 64.151 262.772 64.6328 262.551C65.1146 262.329 65.5573 262.102 65.9609 261.867L65.1797 271.047C64.6719 271.307 64.1185 271.542 63.5195 271.75C62.9336 271.945 62.3281 272.121 61.7031 272.277C61.0781 272.421 60.4531 272.531 59.8281 272.609C59.2031 272.688 58.6042 272.727 58.0312 272.727C56.3776 272.727 54.8346 272.421 53.4023 271.809C51.9701 271.197 50.7266 270.357 49.6719 269.289C48.6172 268.221 47.7839 266.965 47.1719 265.52C46.5729 264.061 46.2734 262.492 46.2734 260.812C46.2734 258.586 46.5924 256.49 47.2305 254.523C47.8685 252.544 48.806 250.812 50.043 249.328C51.2799 247.844 52.8099 246.672 54.6328 245.812C56.4688 244.953 58.5781 244.523 60.9609 244.523C61.8594 244.523 62.7773 244.595 63.7148 244.738C64.6654 244.882 65.5443 245.148 66.3516 245.539ZM90.5375 245.539L89.4438 253.781C89.0661 253.677 88.6885 253.605 88.3109 253.566C87.9333 253.527 87.5557 253.508 87.1781 253.508C86.2146 253.508 85.2966 253.638 84.4242 253.898C83.5518 254.146 82.7771 254.53 82.1 255.051C81.4359 255.572 80.9021 256.223 80.4984 257.004C80.1078 257.785 79.9125 258.703 79.9125 259.758C79.9125 260.435 80.0167 261.021 80.225 261.516C80.4464 262.01 80.7523 262.421 81.143 262.746C81.5336 263.072 81.9958 263.312 82.5297 263.469C83.0635 263.625 83.6495 263.703 84.2875 263.703C84.7693 263.703 85.2706 263.651 85.7914 263.547C86.3122 263.443 86.8266 263.306 87.3344 263.137C87.8422 262.967 88.337 262.772 88.8188 262.551C89.3005 262.329 89.7432 262.102 90.1469 261.867L89.3656 271.047C88.8578 271.307 88.3044 271.542 87.7055 271.75C87.1195 271.945 86.5141 272.121 85.8891 272.277C85.2641 272.421 84.6391 272.531 84.0141 272.609C83.3891 272.688 82.7901 272.727 82.2172 272.727C80.5635 272.727 79.0206 272.421 77.5883 271.809C76.156 271.197 74.9125 270.357 73.8578 269.289C72.8031 268.221 71.9698 266.965 71.3578 265.52C70.7589 264.061 70.4594 262.492 70.4594 260.812C70.4594 258.586 70.7784 256.49 71.4164 254.523C72.0544 252.544 72.9919 250.812 74.2289 249.328C75.4659 247.844 76.9958 246.672 78.8188 245.812C80.6547 244.953 82.7641 244.523 85.1469 244.523C86.0453 244.523 86.9633 244.595 87.9008 244.738C88.8513 244.882 89.7302 245.148 90.5375 245.539ZM119.997 271.32L110.309 272.57L109.138 268.156H104.684L103.708 272.57L93.7469 271.594L101.52 245.578L112.38 245.031L119.997 271.32ZM108.434 262.18L106.95 255.383L105.505 262.18H108.434ZM146.136 257.492C146.136 259.315 145.902 260.962 145.433 262.434C144.964 263.892 144.307 265.194 143.46 266.34C142.627 267.473 141.631 268.449 140.472 269.27C139.313 270.09 138.043 270.767 136.663 271.301C135.283 271.822 133.812 272.212 132.249 272.473C130.7 272.72 129.105 272.844 127.464 272.844C126.852 272.844 126.253 272.831 125.667 272.805C125.081 272.766 124.482 272.714 123.87 272.648L124.417 246.438C125.849 245.982 127.321 245.663 128.831 245.48C130.355 245.285 131.865 245.188 133.363 245.188C135.224 245.188 136.937 245.467 138.499 246.027C140.062 246.587 141.409 247.395 142.542 248.449C143.675 249.504 144.554 250.793 145.179 252.316C145.817 253.84 146.136 255.565 146.136 257.492ZM138.128 258.742C138.141 258.039 138.063 257.362 137.894 256.711C137.738 256.06 137.471 255.487 137.093 254.992C136.728 254.484 136.26 254.081 135.687 253.781C135.114 253.469 134.43 253.299 133.636 253.273L132.855 265.383C133.636 265.266 134.346 265.012 134.984 264.621C135.622 264.217 136.168 263.729 136.624 263.156C137.093 262.57 137.451 261.926 137.698 261.223C137.959 260.507 138.102 259.771 138.128 259.016V258.742ZM174.58 271.32L164.892 272.57L163.72 268.156H159.267L158.291 272.57L148.33 271.594L156.103 245.578L166.963 245.031L174.58 271.32ZM163.017 262.18L161.533 255.383L160.088 262.18H163.017ZM195.758 261.867L194.938 270.539L178.492 271.828C178.57 267.284 178.655 262.766 178.746 258.273C178.85 253.781 178.974 249.263 179.117 244.719H189.273C188.974 247.57 188.688 250.422 188.414 253.273C188.141 256.112 187.945 258.977 187.828 261.867C188.44 261.893 189.046 261.906 189.645 261.906C190.243 261.906 190.849 261.906 191.461 261.906C192.19 261.906 192.906 261.9 193.609 261.887C194.312 261.874 195.029 261.867 195.758 261.867ZM218.147 251.555L209.202 263.625H217.834L217.717 271.906L200.295 272.609L199.514 264.953L209.709 251.672L200.373 252.375L200.295 244.523H217.795L218.147 251.555Z" fill="#C46A16"/>
<defs>
<clipPath id="clip0_1135_29755">
<rect width="265" height="265" fill="white"/>
</clipPath>
</defs>
</svg>
