<svg width="72" height="36" viewBox="0 0 72 36" fill="none" xmlns="http://www.w3.org/2000/svg">
<path fill-rule="evenodd" clip-rule="evenodd" d="M22 4C20.8954 4 20 4.89543 20 6V30C20 31.1046 20.8954 32 22 32H66C67.1046 32 68 31.1046 68 30V6C68 4.89543 67.1046 4 66 4H22ZM43.271 20.576C43.5537 19.8507 43.695 19.064 43.695 18.216C43.695 17.6507 43.631 17.112 43.503 16.6C43.3803 16.088 43.199 15.6133 42.959 15.176C42.719 14.7387 42.4257 14.344 42.079 13.992C41.7377 13.6347 41.351 13.3333 40.919 13.088C40.487 12.8373 40.0123 12.6453 39.495 12.512C38.9777 12.3733 38.4257 12.304 37.839 12.304C36.9643 12.304 36.167 12.4533 35.447 12.752C34.727 13.0453 34.1083 13.456 33.591 13.984C33.079 14.512 32.6817 15.1387 32.399 15.864C32.1163 16.584 31.975 17.368 31.975 18.216C31.975 19.064 32.1163 19.8507 32.399 20.576C32.6817 21.296 33.079 21.92 33.591 22.448C34.1083 22.976 34.727 23.3893 35.447 23.688C36.167 23.9813 36.9643 24.128 37.839 24.128C38.719 24.128 39.519 23.9813 40.239 23.688C40.959 23.3893 41.575 22.976 42.087 22.448C42.599 21.92 42.9937 21.296 43.271 20.576ZM41.239 16.512C41.4097 17.0133 41.495 17.5813 41.495 18.216C41.495 18.8507 41.4097 19.4213 41.239 19.928C41.0683 20.4293 40.8257 20.856 40.511 21.208C40.1963 21.5547 39.8123 21.8213 39.359 22.008C38.911 22.1947 38.4043 22.288 37.839 22.288C37.2737 22.288 36.7643 22.1947 36.311 22.008C35.863 21.8213 35.479 21.5547 35.159 21.208C34.8443 20.856 34.6017 20.4293 34.431 19.928C34.2603 19.4213 34.175 18.8507 34.175 18.216C34.175 17.5813 34.2603 17.0133 34.431 16.512C34.6017 16.0053 34.8443 15.576 35.159 15.224C35.479 14.872 35.863 14.6027 36.311 14.416C36.7643 14.2293 37.2737 14.136 37.839 14.136C38.4043 14.136 38.911 14.2293 39.359 14.416C39.8123 14.6027 40.1963 14.872 40.511 15.224C40.8257 15.576 41.0683 16.0053 41.239 16.512ZM54.2329 24H55.3369V12.432H53.4409V19.464C53.4409 19.6187 53.4462 19.7867 53.4569 19.968C53.4675 20.1493 53.4809 20.3333 53.4969 20.52L47.4329 12.776C47.3742 12.7013 47.3209 12.6427 47.2729 12.6C47.2249 12.552 47.1742 12.5173 47.1209 12.496C47.0729 12.4693 47.0142 12.4533 46.9449 12.448C46.8809 12.4373 46.8035 12.432 46.7129 12.432H45.5849V24H47.4809V16.896C47.4809 16.5973 47.4649 16.272 47.4329 15.92L53.4729 23.632C53.5795 23.7653 53.6889 23.8613 53.8009 23.92C53.9182 23.9733 54.0622 24 54.2329 24Z" fill="white"/>
<rect x="0.75" y="0.75" width="70.5" height="34.5" rx="1.25" stroke="white" stroke-width="1.5"/>
</svg>
