<svg width="217" height="124" viewBox="0 0 217 124" fill="none" xmlns="http://www.w3.org/2000/svg">
<path d="M57.3336 45.295V51H28.8786V0.844997H35.6336V45.295H57.3336ZM108.851 25.94C108.851 29.6967 108.256 33.15 107.066 36.3C105.876 39.4267 104.196 42.1217 102.026 44.385C99.8564 46.6483 97.2431 48.41 94.1864 49.67C91.1531 50.9067 87.7931 51.525 84.1064 51.525C80.4198 51.525 77.0598 50.9067 74.0264 49.67C70.9931 48.41 68.3914 46.6483 66.2214 44.385C64.0514 42.1217 62.3714 39.4267 61.1814 36.3C59.9914 33.15 59.3964 29.6967 59.3964 25.94C59.3964 22.1833 59.9914 18.7417 61.1814 15.615C62.3714 12.465 64.0514 9.75833 66.2214 7.495C68.3914 5.20833 70.9931 3.435 74.0264 2.175C77.0598 0.914996 80.4198 0.284996 84.1064 0.284996C87.7931 0.284996 91.1531 0.914996 94.1864 2.175C97.2431 3.435 99.8564 5.20833 102.026 7.495C104.196 9.75833 105.876 12.465 107.066 15.615C108.256 18.7417 108.851 22.1833 108.851 25.94ZM101.886 25.94C101.886 22.86 101.466 20.095 100.626 17.645C99.7864 15.195 98.5964 13.13 97.0564 11.45C95.5164 9.74667 93.6498 8.44 91.4564 7.53C89.2631 6.62 86.8131 6.165 84.1064 6.165C81.4231 6.165 78.9848 6.62 76.7914 7.53C74.5981 8.44 72.7198 9.74667 71.1564 11.45C69.6164 13.13 68.4264 15.195 67.5864 17.645C66.7464 20.095 66.3264 22.86 66.3264 25.94C66.3264 29.02 66.7464 31.785 67.5864 34.235C68.4264 36.6617 69.6164 38.7267 71.1564 40.43C72.7198 42.11 74.5981 43.405 76.7914 44.315C78.9848 45.2017 81.4231 45.645 84.1064 45.645C86.8131 45.645 89.2631 45.2017 91.4564 44.315C93.6498 43.405 95.5164 42.11 97.0564 40.43C98.5964 38.7267 99.7864 36.6617 100.626 34.235C101.466 31.785 101.886 29.02 101.886 25.94ZM144.221 8.685C144.011 9.035 143.778 9.30333 143.521 9.49C143.288 9.65333 142.996 9.735 142.646 9.735C142.249 9.735 141.783 9.53667 141.246 9.14C140.709 8.74333 140.033 8.31166 139.216 7.845C138.423 7.355 137.454 6.91166 136.311 6.515C135.191 6.11833 133.826 5.92 132.216 5.92C130.699 5.92 129.358 6.13 128.191 6.55C127.048 6.94667 126.079 7.495 125.286 8.195C124.516 8.895 123.933 9.72333 123.536 10.68C123.139 11.6133 122.941 12.6283 122.941 13.725C122.941 15.125 123.279 16.2917 123.956 17.225C124.656 18.135 125.566 18.9167 126.686 19.57C127.829 20.2233 129.113 20.795 130.536 21.285C131.983 21.7517 133.453 22.2417 134.946 22.755C136.463 23.2683 137.933 23.8517 139.356 24.505C140.803 25.135 142.086 25.94 143.206 26.92C144.349 27.9 145.259 29.1017 145.936 30.525C146.636 31.9483 146.986 33.6983 146.986 35.775C146.986 37.9683 146.613 40.0333 145.866 41.97C145.119 43.8833 144.023 45.5517 142.576 46.975C141.153 48.3983 139.391 49.5183 137.291 50.335C135.214 51.1517 132.846 51.56 130.186 51.56C126.919 51.56 123.956 50.9767 121.296 49.81C118.636 48.62 116.361 47.0217 114.471 45.015L116.431 41.795C116.618 41.5383 116.839 41.3283 117.096 41.165C117.376 40.9783 117.679 40.885 118.006 40.885C118.309 40.885 118.648 41.0133 119.021 41.27C119.418 41.5033 119.861 41.8067 120.351 42.18C120.841 42.5533 121.401 42.9617 122.031 43.405C122.661 43.8483 123.373 44.2567 124.166 44.63C124.983 45.0033 125.904 45.3183 126.931 45.575C127.958 45.8083 129.113 45.925 130.396 45.925C132.006 45.925 133.441 45.7033 134.701 45.26C135.961 44.8167 137.023 44.1983 137.886 43.405C138.773 42.5883 139.449 41.62 139.916 40.5C140.383 39.38 140.616 38.1317 140.616 36.755C140.616 35.2383 140.266 34.0017 139.566 33.045C138.889 32.065 137.991 31.2483 136.871 30.595C135.751 29.9417 134.468 29.3933 133.021 28.95C131.574 28.4833 130.104 28.0167 128.611 27.55C127.118 27.06 125.648 26.5 124.201 25.87C122.754 25.24 121.471 24.4233 120.351 23.42C119.231 22.4167 118.321 21.1683 117.621 19.675C116.944 18.1583 116.606 16.2917 116.606 14.075C116.606 12.3017 116.944 10.5867 117.621 8.93C118.321 7.27333 119.324 5.80333 120.631 4.52C121.961 3.23667 123.583 2.21 125.496 1.44C127.433 0.669997 129.649 0.284996 132.146 0.284996C134.946 0.284996 137.489 0.72833 139.776 1.615C142.086 2.50167 144.116 3.785 145.866 5.465L144.221 8.685ZM190.489 6.55H174.249V51H167.494V6.55H151.219V0.844997H190.489V6.55ZM38.7273 112.64C39.1006 112.64 39.4273 112.792 39.7073 113.095L42.4023 116C40.349 118.38 37.8523 120.235 34.9123 121.565C31.9956 122.895 28.4606 123.56 24.3073 123.56C20.714 123.56 17.4473 122.942 14.5073 121.705C11.5673 120.445 9.05897 118.695 6.9823 116.455C4.90564 114.192 3.29564 111.485 2.1523 108.335C1.00897 105.185 0.437305 101.72 0.437305 97.94C0.437305 94.16 1.0323 90.695 2.22231 87.545C3.41231 84.395 5.08064 81.6883 7.2273 79.425C9.39731 77.1617 11.9873 75.4117 14.9973 74.175C18.0073 72.915 21.3323 72.285 24.9723 72.285C28.5423 72.285 31.6923 72.8567 34.4223 74C37.1523 75.1433 39.5556 76.695 41.6323 78.655L39.3923 81.77C39.2523 82.0033 39.0656 82.2017 38.8323 82.365C38.6223 82.505 38.3306 82.575 37.9573 82.575C37.5373 82.575 37.024 82.3533 36.4173 81.91C35.8106 81.4433 35.0173 80.93 34.0373 80.37C33.0573 79.81 31.8323 79.3083 30.3623 78.865C28.8923 78.3983 27.084 78.165 24.9373 78.165C22.3473 78.165 19.979 78.62 17.8323 79.53C15.6856 80.4167 13.8306 81.7117 12.2673 83.415C10.7273 85.1183 9.52564 87.195 8.66231 89.645C7.79897 92.095 7.36731 94.86 7.36731 97.94C7.36731 101.067 7.81064 103.855 8.69731 106.305C9.60731 108.755 10.8323 110.832 12.3723 112.535C13.9356 114.215 15.7673 115.498 17.8673 116.385C19.9906 117.272 22.2773 117.715 24.7273 117.715C26.2206 117.715 27.5623 117.633 28.7523 117.47C29.9656 117.283 31.074 117.003 32.0773 116.63C33.104 116.257 34.049 115.79 34.9123 115.23C35.799 114.647 36.674 113.958 37.5373 113.165C37.934 112.815 38.3306 112.64 38.7273 112.64ZM90.9101 72.845V123H84.1201V100.18H57.0651V123H50.2751V72.845H57.0651V95.21H84.1201V72.845H90.9101ZM150.072 97.94C150.072 101.697 149.477 105.15 148.287 108.3C147.097 111.427 145.417 114.122 143.247 116.385C141.077 118.648 138.464 120.41 135.407 121.67C132.374 122.907 129.014 123.525 125.327 123.525C121.64 123.525 118.28 122.907 115.247 121.67C112.214 120.41 109.612 118.648 107.442 116.385C105.272 114.122 103.592 111.427 102.402 108.3C101.212 105.15 100.617 101.697 100.617 97.94C100.617 94.1833 101.212 90.7417 102.402 87.615C103.592 84.465 105.272 81.7583 107.442 79.495C109.612 77.2083 112.214 75.435 115.247 74.175C118.28 72.915 121.64 72.285 125.327 72.285C129.014 72.285 132.374 72.915 135.407 74.175C138.464 75.435 141.077 77.2083 143.247 79.495C145.417 81.7583 147.097 84.465 148.287 87.615C149.477 90.7417 150.072 94.1833 150.072 97.94ZM143.107 97.94C143.107 94.86 142.687 92.095 141.847 89.645C141.007 87.195 139.817 85.13 138.277 83.45C136.737 81.7467 134.87 80.44 132.677 79.53C130.484 78.62 128.034 78.165 125.327 78.165C122.644 78.165 120.205 78.62 118.012 79.53C115.819 80.44 113.94 81.7467 112.377 83.45C110.837 85.13 109.647 87.195 108.807 89.645C107.967 92.095 107.547 94.86 107.547 97.94C107.547 101.02 107.967 103.785 108.807 106.235C109.647 108.662 110.837 110.727 112.377 112.43C113.94 114.11 115.819 115.405 118.012 116.315C120.205 117.202 122.644 117.645 125.327 117.645C128.034 117.645 130.484 117.202 132.677 116.315C134.87 115.405 136.737 114.11 138.277 112.43C139.817 110.727 141.007 108.662 141.847 106.235C142.687 103.785 143.107 101.02 143.107 97.94ZM166.577 123H159.787V72.845H166.577V123ZM193.301 97.135C195.261 97.135 196.988 96.9017 198.481 96.435C199.998 95.945 201.258 95.2683 202.261 94.405C203.288 93.5183 204.058 92.4683 204.571 91.255C205.084 90.0417 205.341 88.7 205.341 87.23C205.341 84.2433 204.361 81.9917 202.401 80.475C200.441 78.9583 197.501 78.2 193.581 78.2H186.161V97.135H193.301ZM216.471 123H210.451C209.214 123 208.304 122.522 207.721 121.565L194.701 103.645C194.304 103.085 193.873 102.688 193.406 102.455C192.963 102.198 192.263 102.07 191.306 102.07H186.161V123H179.406V72.845H193.581C196.754 72.845 199.496 73.1717 201.806 73.825C204.116 74.455 206.018 75.3767 207.511 76.59C209.028 77.8033 210.148 79.2733 210.871 81C211.594 82.7033 211.956 84.6167 211.956 86.74C211.956 88.5133 211.676 90.17 211.116 91.71C210.556 93.25 209.739 94.6383 208.666 95.875C207.616 97.0883 206.321 98.1267 204.781 98.99C203.264 99.8533 201.538 100.507 199.601 100.95C200.464 101.44 201.211 102.152 201.841 103.085L216.471 123Z" fill="white"/>
</svg>
