<svg width="390" height="407" viewBox="0 0 390 407" fill="none" xmlns="http://www.w3.org/2000/svg">
<rect opacity="0.5" width="6" height="5" transform="matrix(-0.707107 -0.707107 -0.707107 0.707107 340.778 159.243)" fill="white"/>
<rect opacity="0.5" width="6" height="5" transform="matrix(-0.707107 -0.707107 -0.707107 0.707107 23.7781 317.243)" fill="white"/>
<rect opacity="0.5" width="5" height="5" transform="matrix(-0.707107 -0.707107 -0.707107 0.707107 149.071 125.536)" fill="white"/>
<rect opacity="0.5" width="3" height="3" transform="matrix(-0.707107 -0.707107 -0.707107 0.707107 219.029 210.286)" fill="white"/>
<rect opacity="0.5" width="3" height="3" transform="matrix(-0.707107 -0.707107 -0.707107 0.707107 282.243 145.121)" fill="white"/>
<rect opacity="0.5" width="3" height="3" transform="matrix(-0.707107 -0.707107 -0.707107 0.707107 363.243 236.121)" fill="white"/>
<rect opacity="0.5" width="2" height="2" transform="matrix(-0.707107 -0.707107 -0.707107 0.707107 214.828 24.4142)" fill="white"/>
<rect opacity="0.5" width="2" height="2" transform="matrix(-0.707107 -0.707107 -0.707107 0.707107 40.8379 70.2789)" fill="white"/>
<rect opacity="0.5" width="2" height="2.66667" transform="matrix(-0.707107 -0.707107 -0.707107 0.707107 159.95 205.121)" fill="white"/>
<rect opacity="0.5" width="3" height="3" transform="matrix(-0.707107 -0.707107 -0.707107 0.707107 286.243 360.121)" fill="white"/>
<rect opacity="0.5" width="2" height="2" transform="matrix(-0.707107 -0.707107 -0.707107 0.707107 67.0007 237.863)" fill="white"/>
<rect opacity="0.5" width="2" height="2" transform="matrix(-0.707107 -0.707107 -0.707107 0.707107 26.8284 78.4142)" fill="white"/>
<rect opacity="0.5" width="3" height="3" transform="matrix(-0.707107 -0.707107 -0.707107 0.707107 135.243 71.1213)" fill="white"/>
<rect opacity="0.5" width="3" height="3" transform="matrix(-0.707107 -0.707107 -0.707107 0.707107 88.2139 17.2458)" fill="white"/>
<rect opacity="0.5" width="2" height="2" transform="matrix(-0.707107 -0.707107 -0.707107 0.707107 315.828 15.4142)" fill="white"/>
<rect opacity="0.5" width="3" height="3" transform="matrix(-0.707107 -0.707107 -0.707107 0.707107 205.243 21.1213)" fill="white"/>
<rect opacity="0.5" width="2" height="2" transform="matrix(-0.707107 -0.707107 -0.707107 0.707107 132.055 15.8317)" fill="white"/>
<rect opacity="0.5" width="4" height="3" transform="matrix(-0.707107 -0.707107 -0.707107 0.707107 345.95 94.8284)" fill="white"/>
<rect opacity="0.5" width="3" height="3" transform="matrix(-0.707107 -0.707107 -0.707107 0.707107 163.874 331.908)" fill="white"/>
<rect opacity="0.5" width="2" height="2" transform="matrix(-0.707107 -0.707107 -0.707107 0.707107 257.212 218.771)" fill="white"/>
<rect opacity="0.5" width="4" height="4" transform="matrix(-0.707107 -0.707107 -0.707107 0.707107 315.657 69.8284)" fill="white"/>
<rect opacity="0.5" width="4" height="4" transform="matrix(-0.707107 -0.707107 -0.707107 0.707107 240.657 118.828)" fill="white"/>
<rect opacity="0.5" width="4" height="4" transform="matrix(-0.707107 -0.707107 -0.707107 0.707107 27.6567 201.828)" fill="white"/>
<rect opacity="0.5" width="4" height="4" transform="matrix(-0.707107 -0.707107 -0.707107 0.707107 224.657 170.828)" fill="white"/>
<rect opacity="0.5" width="4" height="4" transform="matrix(-0.707107 -0.707107 -0.707107 0.707107 65.5864 160.081)" fill="white"/>
<rect opacity="0.5" width="3" height="3" transform="matrix(-0.707107 -0.707107 -0.707107 0.707107 310.243 289.121)" fill="white"/>
<rect opacity="0.5" width="3" height="3" transform="matrix(-0.707107 -0.707107 -0.707107 0.707107 384.243 252.121)" fill="white"/>
</svg>
