<svg width="100" height="148" viewBox="0 0 100 148" fill="none" xmlns="http://www.w3.org/2000/svg">
<g opacity="0.2" filter="url(#filter0_f_224_6943)">
<ellipse cx="49.4424" cy="109.263" rx="26.4424" ry="11.435" fill="black"/>
</g>
<g filter="url(#filter1_d_224_6943)">
<path d="M39.1142 43.3771C38.101 43.5746 36.9036 43.8313 36.443 43.9696C34.9693 44.3646 32.1139 45.4312 32.0586 45.5892C32.0218 45.6683 31.9112 45.7473 31.8007 45.7473C31.5796 45.7473 29.6269 47.3669 29.2585 47.8607C28.6137 48.7495 28.1532 49.5001 28.1532 49.6976C28.1532 49.7964 28.0795 49.8951 28.0058 49.8951C27.49 49.8951 26.2373 55.1293 26.0531 58.092C25.8504 61.1733 26.2741 87.1665 26.5505 89.3984C26.8452 91.6699 27.14 93.1315 27.49 94.0401C27.6189 94.3561 27.84 94.9487 27.9689 95.3239C28.8716 97.8522 31.2849 99.7483 34.9693 100.795C39.0221 101.941 39.7958 102 50.5358 102C59.5809 102 61.6073 101.901 63.7074 101.388C64.3706 101.21 65.3285 100.973 65.8259 100.854C66.3418 100.736 67.0049 100.499 67.3365 100.341C67.6497 100.183 67.9629 100.064 68.0181 100.064C68.0918 100.064 68.6629 99.8076 69.2893 99.4915C70.3946 98.9187 71.4446 97.9312 72.421 96.509C73.0105 95.64 73.9132 92.7167 74.1895 90.8008C74.3184 89.991 74.4658 89.2404 74.5211 89.1219C74.65 88.9244 75 68.1654 75 61.3511C75 59.7709 74.9079 57.6773 74.779 56.7094C74.5395 54.7738 74.0421 52.2851 73.8395 51.969C73.7658 51.8505 73.6552 51.5147 73.5816 51.179C73.2684 49.8359 70.6709 46.3398 69.9709 46.3398C69.8603 46.3398 69.7866 46.2608 69.7866 46.1818C69.7866 45.9843 68.2945 45.1547 67.9629 45.1547C67.8523 45.1547 67.6129 45.0757 67.4286 44.9769C67.2628 44.8584 66.4891 44.5819 65.7338 44.3646C64.9785 44.1276 64.1127 43.8511 63.7995 43.7523C61.81 43.1203 59.452 42.982 50.241 43.0018C42.1354 43.0215 40.7169 43.061 39.1142 43.3771Z" fill="#333333"/>
<path d="M42.4869 95.6774C42.2605 95.7529 41.858 96.0044 41.5938 96.2183C40.751 96.9227 40.7385 97.0988 40.7762 103.237C40.8014 106.382 40.8643 108.948 40.9397 109.375C41.3548 111.564 43.8202 112.344 45.2038 110.721C45.4177 110.482 45.6189 110.105 45.6818 109.904C45.8202 109.35 45.8579 103.564 45.7447 100.206C45.6567 97.3881 45.6441 97.3 45.3296 96.7969C44.9648 96.2183 44.512 95.8661 43.8705 95.6522C43.3422 95.4636 43.0403 95.4761 42.4869 95.6774Z" fill="#333333"/>
<path d="M55.8705 95.6775C55.3422 95.9039 54.7007 96.47 54.4742 96.9102C54.1724 97.5014 54.0466 99.7404 54.0466 104.948V109.816L54.4617 110.42C55.6315 112.181 58.0465 111.891 58.8012 109.904C59.0654 109.187 59.1031 108.457 59.1157 103.023C59.1409 97.6272 59.1283 97.5769 58.8516 96.9857C58.2981 95.8159 56.9271 95.2121 55.8705 95.6775Z" fill="#333333"/>
<ellipse cx="43.5" cy="66.2249" rx="2.5" ry="3.5" fill="white"/>
<ellipse cx="56.5" cy="66.2249" rx="2.5" ry="3.5" fill="white"/>
</g>
<g filter="url(#filter2_d_224_6943)">
<mask id="mask0_224_6943" style="mask-type:luminance" maskUnits="userSpaceOnUse" x="27" y="28" width="46" height="20">
<path d="M27 28.8276H72.9676V47.4469H27V28.8276Z" fill="white"/>
</mask>
<g mask="url(#mask0_224_6943)">
<path d="M62.0688 35.9648C62.0706 35.9483 62.0727 35.9317 62.0756 35.915C62.0727 35.9317 62.0704 35.9483 62.0688 35.9648ZM72.6842 45.1158C72.9547 46.3115 69.0874 46.5014 68.2522 46.6531C61.17 47.3739 54.0362 47.4337 46.9232 47.3925C44.676 47.3097 27.0135 47.2772 27.1598 45.2532C27.1604 45.2529 27.1608 45.2529 27.1614 45.2529C27.1031 44.2398 29.8123 44.0721 30.5689 43.9203C31.9149 43.7392 33.2676 43.6181 34.6214 43.5167C35.7253 43.4352 36.8303 43.3669 37.9356 43.3127C37.8905 42.486 37.842 41.6592 37.7957 40.8327C37.7375 39.7928 37.6794 38.7529 37.6212 37.7129C37.5637 36.6833 37.506 35.6536 37.4484 34.6239C37.428 34.2561 37.4079 33.8884 37.3868 33.5207C37.3839 33.471 37.3905 33.4228 37.405 33.3777C37.4025 33.2905 37.4029 33.2036 37.4079 33.1163C37.4408 32.428 37.8267 31.8182 38.2961 31.3364C39.2886 30.3197 40.6757 29.8173 42.0276 29.4833C42.5797 29.3581 43.1397 29.2747 43.7018 29.2113C43.7591 29.1873 43.8189 29.1764 43.8802 29.1664C43.9596 29.1536 44.0391 29.1416 44.1186 29.1308C44.2601 29.1118 44.4016 29.094 44.5436 29.0774C44.8213 29.0452 45.0994 29.0187 45.3788 28.9984C45.9454 28.9578 46.5129 28.9231 47.0807 28.8978C47.661 28.8718 48.2416 28.8519 48.8227 28.8465C49.4146 28.8411 50.0068 28.8486 50.5987 28.8606C51.1678 28.8718 51.7364 28.8953 52.3051 28.9177C52.861 28.9396 53.4176 28.9558 53.9731 28.9885C54.5306 29.0212 55.0872 29.0671 55.6439 29.1122C55.8949 29.1325 56.1465 29.1503 56.3976 29.1718C56.3978 29.1718 56.3978 29.1718 56.3978 29.1718C56.464 29.1693 56.5329 29.1799 56.5989 29.19C56.727 29.2022 56.8549 29.2157 56.9824 29.2314C57.0147 29.2356 57.0519 29.2372 57.0846 29.2455C57.0954 29.2482 57.1057 29.2511 57.1161 29.254C57.3584 29.2831 57.6003 29.3136 57.8408 29.356C59.23 29.6136 60.8673 30.1653 61.812 31.2634C62.6906 32.1859 62.8626 33.4679 62.9003 34.6897C62.9025 34.963 62.9139 35.2368 62.9152 35.5104C62.9309 35.5559 62.9394 35.6046 62.9394 35.6548C62.9394 35.6629 62.9394 35.671 62.9394 35.6791C62.9394 35.6793 62.9394 35.6795 62.9394 35.6797C62.9394 36.6691 62.9361 37.6587 62.9344 38.6482C62.9328 39.7109 62.9307 40.7735 62.9292 41.8362C62.9284 42.3458 62.9276 42.8555 62.9265 43.3652C63.1823 43.3795 63.4379 43.3963 63.6935 43.4122C65.0806 43.5643 72.5189 43.781 72.6842 45.1158Z" fill="#FFEAB2"/>
</g>
<mask id="mask1_224_6943" style="mask-type:luminance" maskUnits="userSpaceOnUse" x="37" y="36" width="26" height="8">
<path d="M37.7421 36.6953H62.9974V43.5179H37.7421V36.6953Z" fill="white"/>
</mask>
<g mask="url(#mask1_224_6943)">
<path d="M62.9759 38.4265C62.9759 38.9632 62.9722 39.4993 62.9703 40.0359C62.9681 40.7416 62.9656 41.4472 62.9631 42.1535C62.9623 42.396 62.9614 42.6385 62.9606 42.8816V42.8822C62.9606 42.8884 62.9606 42.8947 62.9606 42.9003C62.9606 42.9009 62.9606 42.9015 62.9606 42.9015C62.9606 42.9053 62.9606 42.9084 62.9606 42.9121C62.9606 42.9264 62.9606 42.9408 62.9604 42.9551C62.9844 43.1864 62.9438 43.4781 62.8288 43.475C54.7558 42.166 46.6587 42.1385 38.5818 43.159C38.3595 43.1895 38.1373 43.2219 37.915 43.2543C37.8428 43.2643 37.7787 43.1066 37.7731 42.8853C37.7718 42.8342 37.7741 42.7837 37.7793 42.7363C37.7766 42.3935 37.776 42.05 37.7743 41.7072C37.7704 40.9666 37.7664 40.2261 37.7629 39.4855C37.7607 39.0666 37.7596 38.6477 37.7565 38.2282C37.7565 38.2226 37.7563 38.2176 37.7563 38.212C37.7563 38.2058 37.7563 38.2002 37.7563 38.1939C37.7555 37.9764 37.8076 37.7869 37.8819 37.7757C37.8995 37.7725 37.9169 37.7813 37.9332 37.7994C38.3674 37.7426 38.8016 37.6716 39.2359 37.6211C46.7259 36.7353 54.2292 36.7646 61.7161 37.8405C62.0863 37.8991 62.4563 37.9552 62.8263 38.0219C62.8304 38.0225 62.8344 38.0244 62.8381 38.0263C62.8402 38.0256 62.842 38.0256 62.8441 38.0256C62.9163 38.0269 62.9759 38.2095 62.9759 38.4265Z" fill="#27A924"/>
</g>
</g>
<defs>
<filter id="filter0_f_224_6943" x="2" y="76.8276" width="94.8849" height="64.8699" filterUnits="userSpaceOnUse" color-interpolation-filters="sRGB">
<feFlood flood-opacity="0" result="BackgroundImageFix"/>
<feBlend mode="normal" in="SourceGraphic" in2="BackgroundImageFix" result="shape"/>
<feGaussianBlur stdDeviation="10.5" result="effect1_foregroundBlur_224_6943"/>
</filter>
<filter id="filter1_d_224_6943" x="-6" y="15" width="113" height="132.586" filterUnits="userSpaceOnUse" color-interpolation-filters="sRGB">
<feFlood flood-opacity="0" result="BackgroundImageFix"/>
<feColorMatrix in="SourceAlpha" type="matrix" values="0 0 0 0 0 0 0 0 0 0 0 0 0 0 0 0 0 0 127 0" result="hardAlpha"/>
<feOffset dy="4"/>
<feGaussianBlur stdDeviation="16"/>
<feComposite in2="hardAlpha" operator="out"/>
<feColorMatrix type="matrix" values="0 0 0 0 0 0 0 0 0 0 0 0 0 0 0 0 0 0 0.15 0"/>
<feBlend mode="normal" in2="BackgroundImageFix" result="effect1_dropShadow_224_6943"/>
<feBlend mode="normal" in="SourceGraphic" in2="effect1_dropShadow_224_6943" result="shape"/>
</filter>
<filter id="filter2_d_224_6943" x="-4.84113" y="0.844727" width="109.539" height="82.5576" filterUnits="userSpaceOnUse" color-interpolation-filters="sRGB">
<feFlood flood-opacity="0" result="BackgroundImageFix"/>
<feColorMatrix in="SourceAlpha" type="matrix" values="0 0 0 0 0 0 0 0 0 0 0 0 0 0 0 0 0 0 127 0" result="hardAlpha"/>
<feOffset dy="4"/>
<feGaussianBlur stdDeviation="16"/>
<feComposite in2="hardAlpha" operator="out"/>
<feColorMatrix type="matrix" values="0 0 0 0 0 0 0 0 0 0 0 0 0 0 0 0 0 0 0.15 0"/>
<feBlend mode="normal" in2="BackgroundImageFix" result="effect1_dropShadow_224_6943"/>
<feBlend mode="normal" in="SourceGraphic" in2="effect1_dropShadow_224_6943" result="shape"/>
</filter>
</defs>
</svg>
