<svg width="100" height="170" viewBox="0 0 100 170" fill="none" xmlns="http://www.w3.org/2000/svg">
<g opacity="0.2" filter="url(#filter0_f_224_7086)">
<ellipse cx="49.4424" cy="131.263" rx="26.4424" ry="11.435" fill="black"/>
</g>
<g filter="url(#filter1_d_224_7086)">
<path d="M47.039 38.793C40.945 40.0857 35.6205 44.1175 33.1276 49.3189C30.9731 53.8124 30.296 58.8292 29.8959 73.5716C29.8036 76.7109 29.6805 79.604 29.5882 80.0348C29.4343 80.8966 28.8187 88.3448 28.6341 91.5764C28.5725 92.7459 28.3878 95.0543 28.2339 96.6547C27.6492 102.872 28.1416 107.365 29.9267 111.797C32.8506 118.999 36.0822 121.8 44.2998 124.324C47.2544 125.247 52.7328 125.247 55.749 124.324C61.1351 122.662 63.351 121.492 65.844 118.907C67.4752 117.245 68.1523 116.168 69.8143 112.474C71.7533 108.196 72.0303 106.411 71.7841 98.963C71.5686 91.9457 71.4763 90.3453 71.1685 88.4986C70.8915 86.6212 70.3991 78.8653 70.2144 73.5716C69.8759 63.692 69.722 61.0144 69.2603 58.029C68.1523 50.8886 66.8597 47.934 63.4741 44.5484C60.9504 41.9939 58.8575 40.6705 55.5643 39.5317C53.1021 38.6699 49.2242 38.3314 47.039 38.793Z" fill="#333333"/>
<path d="M42.4869 117.264C42.2605 117.339 41.858 117.591 41.5938 117.804C40.751 118.509 40.7385 118.685 40.7762 124.823C40.8014 127.968 40.8643 130.534 40.9397 130.962C41.3548 133.15 43.8202 133.93 45.2038 132.307C45.4177 132.068 45.6189 131.691 45.6818 131.49C45.8202 130.936 45.8579 125.15 45.7447 121.792C45.6567 118.974 45.6441 118.886 45.3296 118.383C44.9648 117.804 44.512 117.452 43.8705 117.238C43.3422 117.05 43.0403 117.062 42.4869 117.264Z" fill="#333333"/>
<path d="M55.8705 117.264C55.3422 117.49 54.7007 118.056 54.4742 118.496C54.1724 119.088 54.0466 121.327 54.0466 126.534V131.402L54.4617 132.006C55.6315 133.767 58.0465 133.477 58.8012 131.49C59.0654 130.773 59.1031 130.043 59.1157 124.61C59.1409 119.213 59.1283 119.163 58.8516 118.572C58.2981 117.402 56.9271 116.798 55.8705 117.264Z" fill="#333333"/>
</g>
<g filter="url(#filter2_d_224_7086)">
<mask id="mask0_224_7086" style="mask-type:luminance" maskUnits="userSpaceOnUse" x="27" y="28" width="46" height="20">
<path d="M27 28.5864H72.9676V47.2057H27V28.5864Z" fill="white"/>
</mask>
<g mask="url(#mask0_224_7086)">
<path d="M62.0688 35.7236C62.0706 35.7071 62.0727 35.6905 62.0756 35.6738C62.0727 35.6905 62.0704 35.7071 62.0688 35.7236ZM72.6842 44.8745C72.9547 46.0702 69.0874 46.2602 68.2522 46.4119C61.17 47.1327 54.0362 47.1925 46.9232 47.1513C44.676 47.0685 27.0135 47.036 27.1598 45.0119C27.1604 45.0117 27.1608 45.0117 27.1614 45.0117C27.1031 43.9986 29.8123 43.8309 30.5689 43.679C31.9149 43.498 33.2676 43.3769 34.6214 43.2755C35.7253 43.194 36.8303 43.1257 37.9356 43.0715C37.8905 42.2447 37.842 41.418 37.7957 40.5915C37.7375 39.5516 37.6794 38.5117 37.6212 37.4717C37.5637 36.4421 37.506 35.4124 37.4484 34.3827C37.428 34.0149 37.4079 33.6472 37.3868 33.2795C37.3839 33.2298 37.3905 33.1816 37.405 33.1365C37.4025 33.0493 37.4029 32.9624 37.4079 32.8751C37.4408 32.1868 37.8267 31.577 38.2961 31.0952C39.2886 30.0785 40.6757 29.576 42.0276 29.242C42.5797 29.1169 43.1397 29.0334 43.7018 28.9701C43.7591 28.9461 43.8189 28.9352 43.8802 28.9252C43.9596 28.9124 44.0391 28.9004 44.1186 28.8896C44.2601 28.8706 44.4016 28.8528 44.5436 28.8362C44.8213 28.804 45.0994 28.7775 45.3788 28.7572C45.9454 28.7166 46.5129 28.6819 47.0807 28.6566C47.661 28.6305 48.2416 28.6107 48.8227 28.6053C49.4146 28.5999 50.0068 28.6074 50.5987 28.6194C51.1678 28.6305 51.7364 28.6541 52.3051 28.6765C52.861 28.6984 53.4176 28.7146 53.9731 28.7473C54.5306 28.78 55.0872 28.8259 55.6439 28.871C55.8949 28.8913 56.1465 28.9091 56.3976 28.9306C56.3978 28.9306 56.3978 28.9306 56.3978 28.9306C56.464 28.9281 56.5329 28.9387 56.5989 28.9488C56.727 28.961 56.8549 28.9745 56.9824 28.9902C57.0147 28.9943 57.0519 28.996 57.0846 29.0043C57.0954 29.007 57.1057 29.0099 57.1161 29.0128C57.3584 29.0419 57.6003 29.0724 57.8408 29.1148C59.23 29.3724 60.8673 29.9241 61.812 31.0221C62.6906 31.9447 62.8626 33.2267 62.9003 34.4485C62.9025 34.7218 62.9139 34.9956 62.9152 35.2692C62.9309 35.3147 62.9394 35.3633 62.9394 35.4136C62.9394 35.4217 62.9394 35.4298 62.9394 35.4378C62.9394 35.4381 62.9394 35.4383 62.9394 35.4385C62.9394 36.4278 62.9361 37.4174 62.9344 38.407C62.9328 39.4697 62.9307 40.5323 62.9292 41.5949C62.9284 42.1046 62.9276 42.6143 62.9265 43.124C63.1823 43.1383 63.4379 43.1551 63.6935 43.171C65.0806 43.3231 72.5189 43.5398 72.6842 44.8745Z" fill="#FFEAB2"/>
</g>
<mask id="mask1_224_7086" style="mask-type:luminance" maskUnits="userSpaceOnUse" x="37" y="36" width="26" height="8">
<path d="M37.7421 36.4541H62.9974V43.2767H37.7421V36.4541Z" fill="white"/>
</mask>
<g mask="url(#mask1_224_7086)">
<path d="M62.9759 38.1852C62.9759 38.722 62.9722 39.258 62.9703 39.7947C62.9681 40.5004 62.9656 41.206 62.9631 41.9123C62.9623 42.1548 62.9614 42.3972 62.9606 42.6404V42.641C62.9606 42.6472 62.9606 42.6534 62.9606 42.6591C62.9606 42.6597 62.9606 42.6603 62.9606 42.6603C62.9606 42.664 62.9606 42.6672 62.9606 42.6709C62.9606 42.6852 62.9606 42.6996 62.9604 42.7139C62.9844 42.9452 62.9438 43.2369 62.8288 43.2338C54.7558 41.9247 46.6587 41.8973 38.5818 42.9178C38.3595 42.9483 38.1373 42.9807 37.915 43.0131C37.8428 43.0231 37.7787 42.8654 37.7731 42.6441C37.7718 42.593 37.7741 42.5425 37.7793 42.4951C37.7766 42.1523 37.776 41.8088 37.7743 41.466C37.7704 40.7254 37.7664 39.9849 37.7629 39.2443C37.7607 38.8254 37.7596 38.4065 37.7565 37.987C37.7565 37.9814 37.7563 37.9764 37.7563 37.9708C37.7563 37.9646 37.7563 37.959 37.7563 37.9527C37.7555 37.7352 37.8076 37.5457 37.8819 37.5345C37.8995 37.5313 37.9169 37.5401 37.9332 37.5581C38.3674 37.5014 38.8016 37.4304 39.2359 37.3799C46.7259 36.4941 54.2292 36.5234 61.7161 37.5993C62.0863 37.6579 62.4563 37.714 62.8263 37.7807C62.8304 37.7813 62.8344 37.7832 62.8381 37.7851C62.8402 37.7844 62.842 37.7844 62.8441 37.7844C62.9163 37.7857 62.9759 37.9683 62.9759 38.1852Z" fill="#5179C8"/>
</g>
</g>
<ellipse cx="50.5" cy="65.8062" rx="2.5" ry="3.5" fill="white"/>
<ellipse cx="63.5" cy="65.8062" rx="2.5" ry="3.5" fill="white"/>
<defs>
<filter id="filter0_f_224_7086" x="2" y="98.8276" width="94.8849" height="64.8699" filterUnits="userSpaceOnUse" color-interpolation-filters="sRGB">
<feFlood flood-opacity="0" result="BackgroundImageFix"/>
<feBlend mode="normal" in="SourceGraphic" in2="BackgroundImageFix" result="shape"/>
<feGaussianBlur stdDeviation="10.5" result="effect1_foregroundBlur_224_7086"/>
</filter>
<filter id="filter1_d_224_7086" x="-4" y="10.5862" width="107.86" height="158.586" filterUnits="userSpaceOnUse" color-interpolation-filters="sRGB">
<feFlood flood-opacity="0" result="BackgroundImageFix"/>
<feColorMatrix in="SourceAlpha" type="matrix" values="0 0 0 0 0 0 0 0 0 0 0 0 0 0 0 0 0 0 127 0" result="hardAlpha"/>
<feOffset dy="4"/>
<feGaussianBlur stdDeviation="16"/>
<feComposite in2="hardAlpha" operator="out"/>
<feColorMatrix type="matrix" values="0 0 0 0 0 0 0 0 0 0 0 0 0 0 0 0 0 0 0.15 0"/>
<feBlend mode="normal" in2="BackgroundImageFix" result="effect1_dropShadow_224_7086"/>
<feBlend mode="normal" in="SourceGraphic" in2="effect1_dropShadow_224_7086" result="shape"/>
</filter>
<filter id="filter2_d_224_7086" x="-4.84113" y="0.603516" width="109.539" height="82.5576" filterUnits="userSpaceOnUse" color-interpolation-filters="sRGB">
<feFlood flood-opacity="0" result="BackgroundImageFix"/>
<feColorMatrix in="SourceAlpha" type="matrix" values="0 0 0 0 0 0 0 0 0 0 0 0 0 0 0 0 0 0 127 0" result="hardAlpha"/>
<feOffset dy="4"/>
<feGaussianBlur stdDeviation="16"/>
<feComposite in2="hardAlpha" operator="out"/>
<feColorMatrix type="matrix" values="0 0 0 0 0 0 0 0 0 0 0 0 0 0 0 0 0 0 0.15 0"/>
<feBlend mode="normal" in2="BackgroundImageFix" result="effect1_dropShadow_224_7086"/>
<feBlend mode="normal" in="SourceGraphic" in2="effect1_dropShadow_224_7086" result="shape"/>
</filter>
</defs>
</svg>
