<svg width="100" height="132" viewBox="0 0 100 132" fill="none" xmlns="http://www.w3.org/2000/svg">
<g opacity="0.2" filter="url(#filter0_f_224_7018)">
<ellipse cx="49.4424" cy="109.021" rx="26.4424" ry="11.435" fill="black"/>
</g>
<g filter="url(#filter1_d_224_7018)">
<path d="M39.1142 43.1356C38.101 43.3331 36.9036 43.5899 36.443 43.7282C34.9693 44.1232 32.1139 45.1898 32.0586 45.3478C32.0218 45.4268 31.9112 45.5058 31.8007 45.5058C31.5796 45.5058 29.6269 47.1254 29.2585 47.6192C28.6137 48.5081 28.1532 49.2586 28.1532 49.4561C28.1532 49.5549 28.0795 49.6537 28.0058 49.6537C27.49 49.6537 26.2373 54.8878 26.0531 57.8506C25.8504 60.9319 26.2741 86.925 26.5505 89.157C26.8452 91.4284 27.14 92.89 27.49 93.7986C27.6189 94.1147 27.84 94.7072 27.9689 95.0825C28.8716 97.6107 31.2849 99.5069 34.9693 100.554C39.0221 101.699 39.7958 101.759 50.5358 101.759C59.5809 101.759 61.6073 101.66 63.7074 101.146C64.3706 100.968 65.3285 100.731 65.8259 100.613C66.3418 100.494 67.0049 100.257 67.3365 100.099C67.6497 99.9414 67.9629 99.8229 68.0181 99.8229C68.0918 99.8229 68.6629 99.5661 69.2893 99.2501C70.3946 98.6773 71.4446 97.6897 72.421 96.2676C73.0105 95.3985 73.9132 92.4753 74.1895 90.5594C74.3184 89.7495 74.4658 88.999 74.5211 88.8805C74.65 88.6829 75 67.9239 75 61.1096C75 59.5295 74.9079 57.4358 74.779 56.468C74.5395 54.5323 74.0421 52.0436 73.8395 51.7276C73.7658 51.6091 73.6552 51.2733 73.5816 50.9375C73.2684 49.5944 70.6709 46.0984 69.9709 46.0984C69.8603 46.0984 69.7866 46.0193 69.7866 45.9403C69.7866 45.7428 68.2945 44.9133 67.9629 44.9133C67.8523 44.9133 67.6129 44.8342 67.4286 44.7355C67.2628 44.617 66.4891 44.3405 65.7338 44.1232C64.9785 43.8862 64.1127 43.6096 63.7995 43.5109C61.81 42.8788 59.452 42.7406 50.241 42.7603C42.1354 42.7801 40.7169 42.8196 39.1142 43.1356Z" fill="#333333"/>
<path d="M42.4869 95.4359C42.2605 95.5114 41.858 95.763 41.5938 95.9768C40.751 96.6812 40.7385 96.8573 40.7762 102.996C40.8014 106.14 40.8643 108.706 40.9397 109.134C41.3548 111.323 43.8202 112.102 45.2038 110.48C45.4177 110.241 45.6189 109.863 45.6818 109.662C45.8202 109.109 45.8579 103.323 45.7447 99.9642C45.6567 97.1466 45.6441 97.0586 45.3296 96.5554C44.9648 95.9768 44.512 95.6246 43.8705 95.4108C43.3422 95.2221 43.0403 95.2347 42.4869 95.4359Z" fill="#333333"/>
<path d="M55.8705 95.4361C55.3422 95.6625 54.7007 96.2285 54.4742 96.6688C54.1724 97.26 54.0466 99.4989 54.0466 104.706V109.574L54.4617 110.178C55.6315 111.939 58.0465 111.65 58.8012 109.662C59.0654 108.945 59.1031 108.216 59.1157 102.782C59.1409 97.3857 59.1283 97.3354 58.8516 96.7442C58.2981 95.5744 56.9271 94.9707 55.8705 95.4361Z" fill="#333333"/>
</g>
<g filter="url(#filter2_d_224_7018)">
<mask id="mask0_224_7018" style="mask-type:luminance" maskUnits="userSpaceOnUse" x="27" y="28" width="46" height="20">
<path d="M27 28.5862H72.9676V47.2054H27V28.5862Z" fill="white"/>
</mask>
<g mask="url(#mask0_224_7018)">
<path d="M62.0688 35.7234C62.0706 35.7068 62.0727 35.6903 62.0756 35.6735C62.0727 35.6903 62.0704 35.7068 62.0688 35.7234ZM72.6842 44.8743C72.9547 46.07 69.0874 46.26 68.2522 46.4117C61.17 47.1324 54.0362 47.1922 46.9232 47.1511C44.676 47.0683 27.0135 47.0358 27.1598 45.0117C27.1604 45.0115 27.1608 45.0115 27.1614 45.0115C27.1031 43.9983 29.8123 43.8307 30.5689 43.6788C31.9149 43.4977 33.2676 43.3767 34.6214 43.2753C35.7253 43.1937 36.8303 43.1254 37.9356 43.0712C37.8905 42.2445 37.842 41.4178 37.7957 40.5912C37.7375 39.5514 37.6794 38.5115 37.6212 37.4714C37.5637 36.4419 37.506 35.4121 37.4484 34.3824C37.428 34.0147 37.4079 33.6469 37.3868 33.2792C37.3839 33.2295 37.3905 33.1813 37.405 33.1362C37.4025 33.0491 37.4029 32.9622 37.4079 32.8749C37.4408 32.1866 37.8267 31.5767 38.2961 31.095C39.2886 30.0783 40.6757 29.5758 42.0276 29.2418C42.5797 29.1166 43.1397 29.0332 43.7018 28.9699C43.7591 28.9459 43.8189 28.9349 43.8802 28.925C43.9596 28.9121 44.0391 28.9001 44.1186 28.8894C44.2601 28.8703 44.4016 28.8525 44.5436 28.836C44.8213 28.8037 45.0994 28.7772 45.3788 28.7569C45.9454 28.7164 46.5129 28.6816 47.0807 28.6564C47.661 28.6303 48.2416 28.6104 48.8227 28.605C49.4146 28.5997 50.0068 28.6071 50.5987 28.6191C51.1678 28.6303 51.7364 28.6539 52.3051 28.6762C52.861 28.6982 53.4176 28.7143 53.9731 28.747C54.5306 28.7797 55.0872 28.8256 55.6439 28.8708C55.8949 28.891 56.1465 28.9088 56.3976 28.9304C56.3978 28.9304 56.3978 28.9304 56.3978 28.9304C56.464 28.9279 56.5329 28.9384 56.5989 28.9486C56.727 28.9608 56.8549 28.9742 56.9824 28.99C57.0147 28.9941 57.0519 28.9958 57.0846 29.004C57.0954 29.0067 57.1057 29.0096 57.1161 29.0125C57.3584 29.0417 57.6003 29.0721 57.8408 29.1145C59.23 29.3722 60.8673 29.9239 61.812 31.0219C62.6906 31.9444 62.8626 33.2264 62.9003 34.4482C62.9025 34.7216 62.9139 34.9954 62.9152 35.2689C62.9309 35.3145 62.9394 35.3631 62.9394 35.4134C62.9394 35.4215 62.9394 35.4295 62.9394 35.4376C62.9394 35.4378 62.9394 35.438 62.9394 35.4382C62.9394 36.4276 62.9361 37.4172 62.9344 38.4068C62.9328 39.4694 62.9307 40.5321 62.9292 41.5947C62.9284 42.1044 62.9276 42.6141 62.9265 43.1238C63.1823 43.1381 63.4379 43.1548 63.6935 43.1708C65.0806 43.3229 72.5189 43.5395 72.6842 44.8743Z" fill="#FFEAB2"/>
</g>
<mask id="mask1_224_7018" style="mask-type:luminance" maskUnits="userSpaceOnUse" x="37" y="36" width="26" height="8">
<path d="M37.7421 36.4539H62.9974V43.2765H37.7421V36.4539Z" fill="white"/>
</mask>
<g mask="url(#mask1_224_7018)">
<path d="M62.9759 38.185C62.9759 38.7217 62.9722 39.2578 62.9703 39.7945C62.9681 40.5001 62.9656 41.2058 62.9631 41.912C62.9623 42.1545 62.9614 42.397 62.9606 42.6401V42.6407C62.9606 42.647 62.9606 42.6532 62.9606 42.6588C62.9606 42.6594 62.9606 42.6601 62.9606 42.6601C62.9606 42.6638 62.9606 42.6669 62.9606 42.6707C62.9606 42.685 62.9606 42.6993 62.9604 42.7137C62.9844 42.9449 62.9438 43.2367 62.8288 43.2335C54.7558 41.9245 46.6587 41.8971 38.5818 42.9175C38.3595 42.9481 38.1373 42.9805 37.915 43.0129C37.8428 43.0228 37.7787 42.8651 37.7731 42.6438C37.7718 42.5927 37.7741 42.5422 37.7793 42.4949C37.7766 42.152 37.776 41.8086 37.7743 41.4657C37.7704 40.7252 37.7664 39.9846 37.7629 39.2441C37.7607 38.8252 37.7596 38.4063 37.7565 37.9868C37.7565 37.9812 37.7563 37.9762 37.7563 37.9706C37.7563 37.9643 37.7563 37.9587 37.7563 37.9525C37.7555 37.7349 37.8076 37.5454 37.8819 37.5342C37.8995 37.5311 37.9169 37.5398 37.9332 37.5579C38.3674 37.5012 38.8016 37.4301 39.2359 37.3796C46.7259 36.4938 54.2292 36.5231 61.7161 37.599C62.0863 37.6576 62.4563 37.7137 62.8263 37.7804C62.8304 37.7811 62.8344 37.7829 62.8381 37.7848C62.8402 37.7842 62.842 37.7842 62.8441 37.7842C62.9163 37.7854 62.9759 37.9681 62.9759 38.185Z" fill="#27A924"/>
</g>
</g>
<defs>
<filter id="filter0_f_224_7018" x="2" y="76.5862" width="94.8849" height="64.8699" filterUnits="userSpaceOnUse" color-interpolation-filters="sRGB">
<feFlood flood-opacity="0" result="BackgroundImageFix"/>
<feBlend mode="normal" in="SourceGraphic" in2="BackgroundImageFix" result="shape"/>
<feGaussianBlur stdDeviation="10.5" result="effect1_foregroundBlur_224_7018"/>
</filter>
<filter id="filter1_d_224_7018" x="-6" y="14.7585" width="113" height="132.586" filterUnits="userSpaceOnUse" color-interpolation-filters="sRGB">
<feFlood flood-opacity="0" result="BackgroundImageFix"/>
<feColorMatrix in="SourceAlpha" type="matrix" values="0 0 0 0 0 0 0 0 0 0 0 0 0 0 0 0 0 0 127 0" result="hardAlpha"/>
<feOffset dy="4"/>
<feGaussianBlur stdDeviation="16"/>
<feComposite in2="hardAlpha" operator="out"/>
<feColorMatrix type="matrix" values="0 0 0 0 0 0 0 0 0 0 0 0 0 0 0 0 0 0 0.15 0"/>
<feBlend mode="normal" in2="BackgroundImageFix" result="effect1_dropShadow_224_7018"/>
<feBlend mode="normal" in="SourceGraphic" in2="effect1_dropShadow_224_7018" result="shape"/>
</filter>
<filter id="filter2_d_224_7018" x="-4.84113" y="0.603271" width="109.539" height="82.5576" filterUnits="userSpaceOnUse" color-interpolation-filters="sRGB">
<feFlood flood-opacity="0" result="BackgroundImageFix"/>
<feColorMatrix in="SourceAlpha" type="matrix" values="0 0 0 0 0 0 0 0 0 0 0 0 0 0 0 0 0 0 127 0" result="hardAlpha"/>
<feOffset dy="4"/>
<feGaussianBlur stdDeviation="16"/>
<feComposite in2="hardAlpha" operator="out"/>
<feColorMatrix type="matrix" values="0 0 0 0 0 0 0 0 0 0 0 0 0 0 0 0 0 0 0.15 0"/>
<feBlend mode="normal" in2="BackgroundImageFix" result="effect1_dropShadow_224_7018"/>
<feBlend mode="normal" in="SourceGraphic" in2="effect1_dropShadow_224_7018" result="shape"/>
</filter>
</defs>
</svg>
