<svg width="100" height="148" viewBox="0 0 100 148" fill="none" xmlns="http://www.w3.org/2000/svg">
<g opacity="0.2" filter="url(#filter0_f_224_6945)">
<ellipse cx="49.4424" cy="108.849" rx="26.4424" ry="11.435" fill="black"/>
</g>
<g filter="url(#filter1_d_224_6945)">
<path d="M39.1142 42.9632C38.101 43.1608 36.9036 43.4175 36.443 43.5558C34.9693 43.9508 32.1139 45.0174 32.0586 45.1754C32.0218 45.2544 31.9112 45.3334 31.8007 45.3334C31.5796 45.3334 29.6269 46.9531 29.2585 47.4469C28.6137 48.3357 28.1532 49.0863 28.1532 49.2838C28.1532 49.3825 28.0795 49.4813 28.0058 49.4813C27.49 49.4813 26.2373 54.7155 26.0531 57.6782C25.8504 60.7595 26.2741 86.7527 26.5505 88.9846C26.8452 91.2561 27.14 92.7177 27.49 93.6263C27.6189 93.9423 27.84 94.5348 27.9689 94.9101C28.8716 97.4383 31.2849 99.3345 34.9693 100.381C39.0221 101.527 39.7958 101.586 50.5358 101.586C59.5809 101.586 61.6073 101.487 63.7074 100.974C64.3706 100.796 65.3285 100.559 65.8259 100.441C66.3418 100.322 67.0049 100.085 67.3365 99.927C67.6497 99.769 67.9629 99.6505 68.0181 99.6505C68.0918 99.6505 68.6629 99.3937 69.2893 99.0777C70.3946 98.5049 71.4446 97.5173 72.421 96.0952C73.0105 95.2261 73.9132 92.3029 74.1895 90.387C74.3184 89.5772 74.4658 88.8266 74.5211 88.7081C74.65 88.5106 75 67.7516 75 60.9373C75 59.3571 74.9079 57.2634 74.779 56.2956C74.5395 54.36 74.0421 51.8712 73.8395 51.5552C73.7658 51.4367 73.6552 51.1009 73.5816 50.7651C73.2684 49.422 70.6709 45.926 69.9709 45.926C69.8603 45.926 69.7866 45.847 69.7866 45.768C69.7866 45.5705 68.2945 44.7409 67.9629 44.7409C67.8523 44.7409 67.6129 44.6619 67.4286 44.5631C67.2628 44.4446 66.4891 44.1681 65.7338 43.9508C64.9785 43.7138 64.1127 43.4373 63.7995 43.3385C61.81 42.7065 59.452 42.5682 50.241 42.588C42.1354 42.6077 40.7169 42.6472 39.1142 42.9632Z" fill="#333333"/>
<path d="M42.4869 95.2636C42.2605 95.339 41.858 95.5906 41.5938 95.8044C40.751 96.5088 40.7385 96.6849 40.7762 102.823C40.8014 105.968 40.8643 108.534 40.9397 108.962C41.3548 111.15 43.8202 111.93 45.2038 110.307C45.4177 110.068 45.6189 109.691 45.6818 109.49C45.8202 108.936 45.8579 103.15 45.7447 99.7918C45.6567 96.9742 45.6441 96.8862 45.3296 96.3831C44.9648 95.8044 44.512 95.4522 43.8705 95.2384C43.3422 95.0497 43.0403 95.0623 42.4869 95.2636Z" fill="#333333"/>
<path d="M55.8705 95.2637C55.3422 95.4901 54.7007 96.0562 54.4742 96.4964C54.1724 97.0876 54.0466 99.3266 54.0466 104.534V109.402L54.4617 110.006C55.6315 111.767 58.0465 111.477 58.8012 109.49C59.0654 108.773 59.1031 108.043 59.1157 102.61C59.1409 97.2134 59.1283 97.1631 58.8516 96.5719C58.2981 95.4021 56.9271 94.7983 55.8705 95.2637Z" fill="#333333"/>
</g>
<g filter="url(#filter2_d_224_6945)">
<mask id="mask0_224_6945" style="mask-type:luminance" maskUnits="userSpaceOnUse" x="27" y="28" width="46" height="20">
<path d="M27 28.4138H72.9676V47.0331H27V28.4138Z" fill="white"/>
</mask>
<g mask="url(#mask0_224_6945)">
<path d="M62.0688 35.551C62.0706 35.5345 62.0727 35.5179 62.0756 35.5012C62.0727 35.5179 62.0704 35.5345 62.0688 35.551ZM72.6842 44.7019C72.9547 45.8976 69.0874 46.0876 68.2522 46.2393C61.17 46.9601 54.0362 47.0199 46.9232 46.9787C44.676 46.8959 27.0135 46.8634 27.1598 44.8393C27.1604 44.8391 27.1608 44.8391 27.1614 44.8391C27.1031 43.8259 29.8123 43.6583 30.5689 43.5064C31.9149 43.3254 33.2676 43.2043 34.6214 43.1029C35.7253 43.0214 36.8303 42.9531 37.9356 42.8989C37.8905 42.0721 37.842 41.2454 37.7957 40.4189C37.7375 39.379 37.6794 38.3391 37.6212 37.299C37.5637 36.2695 37.506 35.2398 37.4484 34.21C37.428 33.8423 37.4079 33.4746 37.3868 33.1068C37.3839 33.0572 37.3905 33.009 37.405 32.9639C37.4025 32.8767 37.4029 32.7898 37.4079 32.7025C37.4408 32.0142 37.8267 31.4044 38.2961 30.9226C39.2886 29.9059 40.6757 29.4034 42.0276 29.0694C42.5797 28.9442 43.1397 28.8608 43.7018 28.7975C43.7591 28.7735 43.8189 28.7625 43.8802 28.7526C43.9596 28.7398 44.0391 28.7278 44.1186 28.717C44.2601 28.698 44.4016 28.6802 44.5436 28.6636C44.8213 28.6313 45.0994 28.6049 45.3788 28.5846C45.9454 28.544 46.5129 28.5093 47.0807 28.484C47.661 28.4579 48.2416 28.4381 48.8227 28.4327C49.4146 28.4273 50.0068 28.4348 50.5987 28.4468C51.1678 28.4579 51.7364 28.4815 52.3051 28.5039C52.861 28.5258 53.4176 28.5419 53.9731 28.5746C54.5306 28.6073 55.0872 28.6533 55.6439 28.6984C55.8949 28.7187 56.1465 28.7365 56.3976 28.758C56.3978 28.758 56.3978 28.758 56.3978 28.758C56.464 28.7555 56.5329 28.7661 56.5989 28.7762C56.727 28.7884 56.8549 28.8019 56.9824 28.8176C57.0147 28.8217 57.0519 28.8234 57.0846 28.8317C57.0954 28.8344 57.1057 28.8373 57.1161 28.8401C57.3584 28.8693 57.6003 28.8997 57.8408 28.9422C59.23 29.1998 60.8673 29.7515 61.812 30.8495C62.6906 31.7721 62.8626 33.0541 62.9003 34.2759C62.9025 34.5492 62.9139 34.823 62.9152 35.0966C62.9309 35.1421 62.9394 35.1907 62.9394 35.241C62.9394 35.2491 62.9394 35.2572 62.9394 35.2652C62.9394 35.2654 62.9394 35.2657 62.9394 35.2659C62.9394 36.2552 62.9361 37.2448 62.9344 38.2344C62.9328 39.2971 62.9307 40.3597 62.9292 41.4223C62.9284 41.932 62.9276 42.4417 62.9265 42.9514C63.1823 42.9657 63.4379 42.9825 63.6935 42.9984C65.0806 43.1505 72.5189 43.3672 72.6842 44.7019Z" fill="#FFEAB2"/>
</g>
<mask id="mask1_224_6945" style="mask-type:luminance" maskUnits="userSpaceOnUse" x="37" y="36" width="26" height="8">
<path d="M37.7421 36.2815H62.9974V43.1041H37.7421V36.2815Z" fill="white"/>
</mask>
<g mask="url(#mask1_224_6945)">
<path d="M62.9759 38.0126C62.9759 38.5493 62.9722 39.0854 62.9703 39.6221C62.9681 40.3278 62.9656 41.0334 62.9631 41.7397C62.9623 41.9822 62.9614 42.2246 62.9606 42.4678V42.4684C62.9606 42.4746 62.9606 42.4808 62.9606 42.4865C62.9606 42.4871 62.9606 42.4877 62.9606 42.4877C62.9606 42.4914 62.9606 42.4945 62.9606 42.4983C62.9606 42.5126 62.9606 42.527 62.9604 42.5413C62.9844 42.7726 62.9438 43.0643 62.8288 43.0612C54.7558 41.7521 46.6587 41.7247 38.5818 42.7451C38.3595 42.7757 38.1373 42.8081 37.915 42.8405C37.8428 42.8505 37.7787 42.6928 37.7731 42.4715C37.7718 42.4204 37.7741 42.3699 37.7793 42.3225C37.7766 41.9797 37.776 41.6362 37.7743 41.2933C37.7704 40.5528 37.7664 39.8123 37.7629 39.0717C37.7607 38.6528 37.7596 38.2339 37.7565 37.8144C37.7565 37.8088 37.7563 37.8038 37.7563 37.7982C37.7563 37.792 37.7563 37.7864 37.7563 37.7801C37.7555 37.5626 37.8076 37.3731 37.8819 37.3619C37.8995 37.3587 37.9169 37.3675 37.9332 37.3855C38.3674 37.3288 38.8016 37.2577 39.2359 37.2073C46.7259 36.3215 54.2292 36.3508 61.7161 37.4267C62.0863 37.4853 62.4563 37.5414 62.8263 37.6081C62.8304 37.6087 62.8344 37.6106 62.8381 37.6124C62.8402 37.6118 62.842 37.6118 62.8441 37.6118C62.9163 37.6131 62.9759 37.7957 62.9759 38.0126Z" fill="#27A924"/>
</g>
</g>
<ellipse cx="53.5" cy="65.8062" rx="2.5" ry="3.5" fill="white"/>
<ellipse cx="66.5" cy="65.8062" rx="2.5" ry="3.5" fill="white"/>
<defs>
<filter id="filter0_f_224_6945" x="2" y="76.4138" width="94.8849" height="64.8699" filterUnits="userSpaceOnUse" color-interpolation-filters="sRGB">
<feFlood flood-opacity="0" result="BackgroundImageFix"/>
<feBlend mode="normal" in="SourceGraphic" in2="BackgroundImageFix" result="shape"/>
<feGaussianBlur stdDeviation="10.5" result="effect1_foregroundBlur_224_6945"/>
</filter>
<filter id="filter1_d_224_6945" x="-6" y="14.5862" width="113" height="132.586" filterUnits="userSpaceOnUse" color-interpolation-filters="sRGB">
<feFlood flood-opacity="0" result="BackgroundImageFix"/>
<feColorMatrix in="SourceAlpha" type="matrix" values="0 0 0 0 0 0 0 0 0 0 0 0 0 0 0 0 0 0 127 0" result="hardAlpha"/>
<feOffset dy="4"/>
<feGaussianBlur stdDeviation="16"/>
<feComposite in2="hardAlpha" operator="out"/>
<feColorMatrix type="matrix" values="0 0 0 0 0 0 0 0 0 0 0 0 0 0 0 0 0 0 0.15 0"/>
<feBlend mode="normal" in2="BackgroundImageFix" result="effect1_dropShadow_224_6945"/>
<feBlend mode="normal" in="SourceGraphic" in2="effect1_dropShadow_224_6945" result="shape"/>
</filter>
<filter id="filter2_d_224_6945" x="-4.84113" y="0.430908" width="109.539" height="82.5576" filterUnits="userSpaceOnUse" color-interpolation-filters="sRGB">
<feFlood flood-opacity="0" result="BackgroundImageFix"/>
<feColorMatrix in="SourceAlpha" type="matrix" values="0 0 0 0 0 0 0 0 0 0 0 0 0 0 0 0 0 0 127 0" result="hardAlpha"/>
<feOffset dy="4"/>
<feGaussianBlur stdDeviation="16"/>
<feComposite in2="hardAlpha" operator="out"/>
<feColorMatrix type="matrix" values="0 0 0 0 0 0 0 0 0 0 0 0 0 0 0 0 0 0 0.15 0"/>
<feBlend mode="normal" in2="BackgroundImageFix" result="effect1_dropShadow_224_6945"/>
<feBlend mode="normal" in="SourceGraphic" in2="effect1_dropShadow_224_6945" result="shape"/>
</filter>
</defs>
</svg>
