<svg width="121" height="140" viewBox="0 0 121 140" fill="none" xmlns="http://www.w3.org/2000/svg">
<g opacity="0.2" filter="url(#filter0_f_513_12774)">
<ellipse cx="59.9681" cy="106.849" rx="26.4424" ry="11.435" fill="black"/>
</g>
<g filter="url(#filter1_d_513_12774)">
<path d="M44.6548 44.3312C38.9281 44.8532 36.6873 45.7365 34.8732 48.1053C32.8813 50.6347 32.5256 51.799 32.5256 55.5329C32.5256 60.1902 33.3437 62.4787 42.8763 83.8381C45.6863 90.1014 48.5674 95.5216 50.0969 97.2881C52.3734 99.8978 53.8317 100.299 61.3013 100.299C67.3125 100.299 67.3481 100.299 69.4822 99.0948C71.2607 98.0911 71.901 97.4086 73.466 94.8792C75.2445 91.9483 85.5952 69.1033 87.7293 63.3218C89.7924 57.7812 89.9702 54.0072 88.4407 50.5142C86.52 46.2182 84.2791 45.0138 76.774 44.3312C72.0432 43.8896 49.2788 43.8896 44.6548 44.3312Z" fill="#333333"/>
</g>
<g filter="url(#filter2_d_513_12774)">
<mask id="mask0_513_12774" style="mask-type:luminance" maskUnits="userSpaceOnUse" x="37" y="28" width="47" height="20">
<path d="M37.5256 28.4141H83.4932V47.0333H37.5256V28.4141Z" fill="white"/>
</mask>
<g mask="url(#mask0_513_12774)">
<path d="M72.5943 35.5513C72.5962 35.5347 72.5983 35.5182 72.6012 35.5014C72.5983 35.5182 72.596 35.5347 72.5943 35.5513ZM83.2098 44.7022C83.4802 45.8979 79.6129 46.0879 78.7777 46.2395C71.6956 46.9603 64.5617 47.0201 57.4488 46.9789C55.2016 46.8962 37.539 46.8637 37.6854 44.8396C37.686 44.8394 37.6864 44.8394 37.687 44.8394C37.6287 43.8262 40.3379 43.6586 41.0945 43.5067C42.4404 43.3256 43.7932 43.2045 45.147 43.1031C46.2508 43.0216 47.3559 42.9533 48.4612 42.8991C48.416 42.0724 48.3676 41.2456 48.3213 40.4191C48.2631 39.3793 48.205 38.3394 48.1468 37.2993C48.0893 36.2698 48.0315 35.24 47.974 34.2103C47.9535 33.8426 47.9335 33.4748 47.9124 33.1071C47.9095 33.0574 47.9161 33.0092 47.9306 32.9641C47.9281 32.877 47.9285 32.7901 47.9335 32.7027C47.9664 32.0144 48.3523 31.4046 48.8216 30.9228C49.8141 29.9061 51.2013 29.4037 52.5532 29.0697C53.1053 28.9445 53.6653 28.8611 54.2273 28.7978C54.2847 28.7738 54.3445 28.7628 54.4057 28.7529C54.4852 28.74 54.5647 28.728 54.6441 28.7173C54.7857 28.6982 54.9272 28.6804 55.0692 28.6639C55.3469 28.6316 55.625 28.6051 55.9044 28.5848C56.471 28.5443 57.0384 28.5095 57.6063 28.4843C58.1865 28.4582 58.7672 28.4383 59.3483 28.4329C59.9401 28.4276 60.5324 28.435 61.1243 28.447C61.6933 28.4582 62.262 28.4818 62.8307 28.5041C63.3865 28.5261 63.9432 28.5422 64.4986 28.5749C65.0561 28.6076 65.6128 28.6535 66.1695 28.6986C66.4205 28.7189 66.6721 28.7367 66.9231 28.7582C66.9234 28.7582 66.9234 28.7582 66.9234 28.7582C66.9896 28.7558 67.0585 28.7663 67.1245 28.7765C67.2526 28.7887 67.3805 28.8021 67.508 28.8178C67.5402 28.822 67.5775 28.8236 67.6102 28.8319C67.621 28.8346 67.6313 28.8375 67.6416 28.8404C67.884 28.8696 68.1259 28.9 68.3664 28.9424C69.7555 29.2001 71.3929 29.7518 72.3375 30.8498C73.2162 31.7723 73.3882 33.0543 73.4258 34.2761C73.4281 34.5495 73.4395 34.8232 73.4407 35.0968C73.4565 35.1424 73.465 35.191 73.465 35.2413C73.465 35.2493 73.465 35.2574 73.465 35.2655C73.465 35.2657 73.465 35.2659 73.465 35.2661C73.465 36.2555 73.4616 37.2451 73.46 38.2347C73.4583 39.2973 73.4563 40.3599 73.4548 41.4226C73.454 41.9323 73.4532 42.442 73.4521 42.9517C73.7079 42.9659 73.9635 42.9827 74.219 42.9986C75.6062 43.1507 83.0444 43.3674 83.2098 44.7022Z" fill="#FFEAB2"/>
</g>
<mask id="mask1_513_12774" style="mask-type:luminance" maskUnits="userSpaceOnUse" x="48" y="36" width="26" height="8">
<path d="M48.2677 36.2817H73.523V43.1044H48.2677V36.2817Z" fill="white"/>
</mask>
<g mask="url(#mask1_513_12774)">
<path d="M73.5015 38.0129C73.5015 38.5496 73.4978 39.0857 73.4959 39.6224C73.4936 40.328 73.4912 41.0337 73.4887 41.7399C73.4878 41.9824 73.487 42.2249 73.4862 42.468V42.4686C73.4862 42.4748 73.4862 42.4811 73.4862 42.4867C73.4862 42.4873 73.4862 42.4879 73.4862 42.4879C73.4862 42.4917 73.4862 42.4948 73.4862 42.4985C73.4862 42.5129 73.4862 42.5272 73.486 42.5415C73.51 42.7728 73.4694 43.0645 73.3544 43.0614C65.2814 41.7524 57.1842 41.725 49.1074 42.7454C48.8851 42.7759 48.6629 42.8083 48.4406 42.8408C48.3684 42.8507 48.3042 42.693 48.2986 42.4717C48.2974 42.4206 48.2997 42.3701 48.3048 42.3227C48.3022 41.9799 48.3015 41.6364 48.2999 41.2936C48.2959 40.5531 48.292 39.8125 48.2885 39.072C48.2862 38.6531 48.2852 38.2342 48.2821 37.8147C48.2821 37.809 48.2819 37.8041 48.2819 37.7984C48.2819 37.7922 48.2819 37.7866 48.2819 37.7804C48.281 37.5628 48.3332 37.3733 48.4075 37.3621C48.4251 37.359 48.4425 37.3677 48.4588 37.3858C48.893 37.3291 49.3271 37.258 49.7615 37.2075C57.2515 36.3217 64.7547 36.351 72.2416 37.4269C72.6119 37.4855 72.9819 37.5416 73.3519 37.6083C73.356 37.609 73.3599 37.6108 73.3637 37.6127C73.3657 37.6121 73.3676 37.6121 73.3697 37.6121C73.4419 37.6133 73.5015 37.7959 73.5015 38.0129Z" fill="#814747"/>
</g>
</g>
<ellipse cx="61.0256" cy="68.22" rx="2.5" ry="3.5" fill="white"/>
<ellipse cx="74.0256" cy="68.22" rx="2.5" ry="3.5" fill="white"/>
<path d="M68.1572 91.3698C66.84 91.8244 65.7607 92.2121 65.751 92.2326C65.7412 92.253 65.8274 92.5453 65.9406 92.8756C66.5918 94.7688 67.0397 96.8561 67.0634 98.0876C67.0815 99.0052 66.9473 99.5587 66.6234 99.921C66.1664 100.436 64.9491 100.923 62.6938 101.491C61.0637 102.431 61.0898 103.944 61.3498 104.434C61.5264 105.146 63.1333 105.909 64.3883 105.887C65.6432 105.865 69.63 104.407 70.7933 102.92C71.2116 102.391 71.7509 101.253 71.917 100.56C72.4913 98.1829 72.17 95.4632 70.8118 91.2685C70.6897 90.8937 70.5808 90.5755 70.5705 90.5656C70.5602 90.5556 69.4744 90.9151 68.1572 91.3698Z" fill="#343434"/>
<path d="M57.6709 93.7158C57.0178 93.9444 56.3959 94.1672 56.2871 94.2014C55.8144 94.3593 54.1549 94.9475 54.1432 94.9589C54.1404 94.9686 54.2922 95.4333 54.4846 95.9918C55.278 98.3272 55.7451 99.8573 56.7639 103.492C56.9124 104.012 57.3396 105.674 57.8558 107.712C58.4569 110.078 58.3521 109.75 58.6042 110.527C59.0057 112.043 60.2127 112.387 61.3161 112.18C62.4195 111.973 63.4193 111.214 63.4453 109.618C63.3682 109.208 63.3936 108.705 62.9259 106.852C62.7774 106.257 62.617 105.624 62.5693 105.444C62.5217 105.264 62.4036 104.807 62.3103 104.432C62.2125 104.059 62.1047 103.632 62.0638 103.488C62.0273 103.342 61.9225 102.956 61.834 102.632C61.1574 100.109 60.3968 97.5551 59.6376 95.2547C59.0475 93.4619 58.9726 93.2593 58.9067 93.2763C58.8808 93.2858 58.3231 93.4827 57.6709 93.7158Z" fill="#343434"/>
<defs>
<filter id="filter0_f_513_12774" x="12.5256" y="74.4138" width="94.8849" height="64.8699" filterUnits="userSpaceOnUse" color-interpolation-filters="sRGB">
<feFlood flood-opacity="0" result="BackgroundImageFix"/>
<feBlend mode="normal" in="SourceGraphic" in2="BackgroundImageFix" result="shape"/>
<feGaussianBlur stdDeviation="10.5" result="effect1_foregroundBlur_513_12774"/>
</filter>
<filter id="filter1_d_513_12774" x="0.525635" y="16" width="120.927" height="120.299" filterUnits="userSpaceOnUse" color-interpolation-filters="sRGB">
<feFlood flood-opacity="0" result="BackgroundImageFix"/>
<feColorMatrix in="SourceAlpha" type="matrix" values="0 0 0 0 0 0 0 0 0 0 0 0 0 0 0 0 0 0 127 0" result="hardAlpha"/>
<feOffset dy="4"/>
<feGaussianBlur stdDeviation="16"/>
<feComposite in2="hardAlpha" operator="out"/>
<feColorMatrix type="matrix" values="0 0 0 0 0 0 0 0 0 0 0 0 0 0 0 0 0 0 0.15 0"/>
<feBlend mode="normal" in2="BackgroundImageFix" result="effect1_dropShadow_513_12774"/>
<feBlend mode="normal" in="SourceGraphic" in2="effect1_dropShadow_513_12774" result="shape"/>
</filter>
<filter id="filter2_d_513_12774" x="5.68445" y="0.431152" width="109.539" height="82.5576" filterUnits="userSpaceOnUse" color-interpolation-filters="sRGB">
<feFlood flood-opacity="0" result="BackgroundImageFix"/>
<feColorMatrix in="SourceAlpha" type="matrix" values="0 0 0 0 0 0 0 0 0 0 0 0 0 0 0 0 0 0 127 0" result="hardAlpha"/>
<feOffset dy="4"/>
<feGaussianBlur stdDeviation="16"/>
<feComposite in2="hardAlpha" operator="out"/>
<feColorMatrix type="matrix" values="0 0 0 0 0 0 0 0 0 0 0 0 0 0 0 0 0 0 0.15 0"/>
<feBlend mode="normal" in2="BackgroundImageFix" result="effect1_dropShadow_513_12774"/>
<feBlend mode="normal" in="SourceGraphic" in2="effect1_dropShadow_513_12774" result="shape"/>
</filter>
</defs>
</svg>
