<svg width="274" height="173" viewBox="0 0 274 173" fill="none" xmlns="http://www.w3.org/2000/svg">
<g filter="url(#filter0_d_203_6201)">
<path d="M79.5534 70.52V74H48.6334V17.4H52.7534V70.52H79.5534ZM135.945 45.68C135.945 50.0533 135.291 54.0267 133.985 57.6C132.678 61.1467 130.838 64.1867 128.465 66.72C126.091 69.2267 123.238 71.1733 119.905 72.56C116.598 73.92 112.945 74.6 108.945 74.6C104.945 74.6 101.291 73.92 97.9847 72.56C94.678 71.1733 91.838 69.2267 89.4647 66.72C87.0914 64.1867 85.2514 61.1467 83.9447 57.6C82.638 54.0267 81.9847 50.0533 81.9847 45.68C81.9847 41.3333 82.638 37.3867 83.9447 33.84C85.2514 30.2667 87.0914 27.2267 89.4647 24.72C91.838 22.1867 94.678 20.2267 97.9847 18.84C101.291 17.4533 104.945 16.76 108.945 16.76C112.945 16.76 116.598 17.4533 119.905 18.84C123.238 20.2 126.091 22.1467 128.465 24.68C130.838 27.2133 132.678 30.2667 133.985 33.84C135.291 37.3867 135.945 41.3333 135.945 45.68ZM131.705 45.68C131.705 41.7333 131.158 38.1867 130.065 35.04C128.971 31.8933 127.425 29.2267 125.425 27.04C123.425 24.8533 121.025 23.1867 118.225 22.04C115.425 20.8667 112.331 20.28 108.945 20.28C105.585 20.28 102.505 20.8667 99.7047 22.04C96.9047 23.1867 94.4914 24.8533 92.4647 27.04C90.4647 29.2267 88.9047 31.8933 87.7847 35.04C86.6914 38.1867 86.1447 41.7333 86.1447 45.68C86.1447 49.6533 86.6914 53.2133 87.7847 56.36C88.9047 59.48 90.4647 62.1333 92.4647 64.32C94.4914 66.5067 96.9047 68.1733 99.7047 69.32C102.505 70.4667 105.585 71.04 108.945 71.04C112.331 71.04 115.425 70.4667 118.225 69.32C121.025 68.1733 123.425 66.5067 125.425 64.32C127.425 62.1333 128.971 59.48 130.065 56.36C131.158 53.2133 131.705 49.6533 131.705 45.68ZM176.426 24.28C176.186 24.7333 175.839 24.96 175.386 24.96C175.039 24.96 174.586 24.72 174.026 24.24C173.493 23.7333 172.759 23.1867 171.826 22.6C170.893 21.9867 169.719 21.4267 168.306 20.92C166.919 20.4133 165.199 20.16 163.146 20.16C161.093 20.16 159.279 20.4533 157.706 21.04C156.159 21.6267 154.853 22.4267 153.786 23.44C152.746 24.4533 151.946 25.6267 151.386 26.96C150.853 28.2933 150.586 29.6933 150.586 31.16C150.586 33.08 150.986 34.6667 151.786 35.92C152.613 37.1733 153.693 38.24 155.026 39.12C156.359 40 157.866 40.7467 159.546 41.36C161.253 41.9467 162.999 42.5333 164.786 43.12C166.573 43.7067 168.306 44.36 169.986 45.08C171.693 45.7733 173.213 46.6533 174.546 47.72C175.879 48.7867 176.946 50.1067 177.746 51.68C178.573 53.2267 178.986 55.16 178.986 57.48C178.986 59.8533 178.573 62.0933 177.746 64.2C176.946 66.28 175.773 68.0933 174.226 69.64C172.679 71.1867 170.786 72.4133 168.546 73.32C166.306 74.2 163.746 74.64 160.866 74.64C157.133 74.64 153.919 73.9867 151.226 72.68C148.533 71.3467 146.173 69.5333 144.146 67.24L145.266 65.48C145.586 65.08 145.959 64.88 146.386 64.88C146.626 64.88 146.933 65.04 147.306 65.36C147.679 65.68 148.133 66.08 148.666 66.56C149.199 67.0133 149.839 67.52 150.586 68.08C151.333 68.6133 152.199 69.12 153.186 69.6C154.173 70.0533 155.306 70.44 156.586 70.76C157.866 71.08 159.319 71.24 160.946 71.24C163.186 71.24 165.186 70.9067 166.946 70.24C168.706 69.5467 170.186 68.6133 171.386 67.44C172.613 66.2667 173.546 64.88 174.186 63.28C174.826 61.6533 175.146 59.92 175.146 58.08C175.146 56.08 174.733 54.44 173.906 53.16C173.106 51.8533 172.039 50.7733 170.706 49.92C169.373 49.04 167.853 48.3067 166.146 47.72C164.466 47.1333 162.733 46.56 160.946 46C159.159 45.44 157.413 44.8133 155.706 44.12C154.026 43.4267 152.519 42.5467 151.186 41.48C149.853 40.3867 148.773 39.04 147.946 37.44C147.146 35.8133 146.746 33.7867 146.746 31.36C146.746 29.4667 147.106 27.64 147.826 25.88C148.546 24.12 149.599 22.5733 150.986 21.24C152.373 19.88 154.079 18.8 156.106 18C158.159 17.1733 160.493 16.76 163.106 16.76C166.039 16.76 168.666 17.2267 170.986 18.16C173.333 19.0933 175.466 20.52 177.386 22.44L176.426 24.28ZM228.558 20.88H208.678V74H204.558V20.88H184.558V17.4H228.558V20.88ZM60.6063 146.48C60.8729 146.48 61.0996 146.573 61.2863 146.76L62.8863 148.48C61.7129 149.733 60.4329 150.867 59.0463 151.88C57.6863 152.867 56.1796 153.72 54.5263 154.44C52.8996 155.133 51.0996 155.667 49.1263 156.04C47.1796 156.44 45.0329 156.64 42.6863 156.64C38.7663 156.64 35.1663 155.96 31.8863 154.6C28.6329 153.213 25.8329 151.267 23.4863 148.76C21.1396 146.227 19.3129 143.173 18.0063 139.6C16.7263 136.027 16.0863 132.053 16.0863 127.68C16.0863 123.387 16.7529 119.467 18.0863 115.92C19.4196 112.373 21.2863 109.333 23.6863 106.8C26.0863 104.24 28.9663 102.267 32.3263 100.88C35.6863 99.4667 39.3929 98.76 43.4463 98.76C47.3129 98.76 50.7396 99.36 53.7263 100.56C56.7129 101.76 59.4329 103.453 61.8863 105.64L60.6463 107.44C60.4329 107.76 60.0996 107.92 59.6463 107.92C59.3263 107.92 58.8063 107.627 58.0863 107.04C57.3663 106.453 56.3663 105.813 55.0863 105.12C53.8063 104.4 52.2063 103.747 50.2863 103.16C48.3929 102.573 46.1129 102.28 43.4463 102.28C40.0329 102.28 36.8996 102.867 34.0463 104.04C31.2196 105.213 28.7796 106.893 26.7263 109.08C24.6996 111.267 23.1129 113.933 21.9662 117.08C20.8196 120.227 20.2463 123.76 20.2463 127.68C20.2463 131.68 20.8196 135.253 21.9662 138.4C23.1396 141.547 24.7396 144.213 26.7663 146.4C28.7929 148.56 31.1796 150.227 33.9263 151.4C36.6996 152.547 39.6863 153.12 42.8863 153.12C44.9129 153.12 46.7129 152.987 48.2863 152.72C49.8863 152.453 51.3529 152.053 52.6863 151.52C54.0196 150.987 55.2596 150.333 56.4062 149.56C57.5529 148.787 58.6863 147.88 59.8063 146.84C59.9396 146.733 60.0729 146.653 60.2063 146.6C60.3396 146.52 60.4729 146.48 60.6063 146.48ZM117.509 99.4V156H113.389V128.88H77.9488V156H73.8288V99.4H77.9488V125.8H113.389V99.4H117.509ZM184.499 127.68C184.499 132.053 183.846 136.027 182.539 139.6C181.233 143.147 179.393 146.187 177.019 148.72C174.646 151.227 171.793 153.173 168.459 154.56C165.153 155.92 161.499 156.6 157.499 156.6C153.499 156.6 149.846 155.92 146.539 154.56C143.233 153.173 140.393 151.227 138.019 148.72C135.646 146.187 133.806 143.147 132.499 139.6C131.193 136.027 130.539 132.053 130.539 127.68C130.539 123.333 131.193 119.387 132.499 115.84C133.806 112.267 135.646 109.227 138.019 106.72C140.393 104.187 143.233 102.227 146.539 100.84C149.846 99.4533 153.499 98.76 157.499 98.76C161.499 98.76 165.153 99.4533 168.459 100.84C171.793 102.2 174.646 104.147 177.019 106.68C179.393 109.213 181.233 112.267 182.539 115.84C183.846 119.387 184.499 123.333 184.499 127.68ZM180.259 127.68C180.259 123.733 179.713 120.187 178.619 117.04C177.526 113.893 175.979 111.227 173.979 109.04C171.979 106.853 169.579 105.187 166.779 104.04C163.979 102.867 160.886 102.28 157.499 102.28C154.139 102.28 151.059 102.867 148.259 104.04C145.459 105.187 143.046 106.853 141.019 109.04C139.019 111.227 137.459 113.893 136.339 117.04C135.246 120.187 134.699 123.733 134.699 127.68C134.699 131.653 135.246 135.213 136.339 138.36C137.459 141.48 139.019 144.133 141.019 146.32C143.046 148.507 145.459 150.173 148.259 151.32C151.059 152.467 154.139 153.04 157.499 153.04C160.886 153.04 163.979 152.467 166.779 151.32C169.579 150.173 171.979 148.507 173.979 146.32C175.979 144.133 177.526 141.48 178.619 138.36C179.713 135.213 180.259 131.653 180.259 127.68ZM201.621 156H197.501V99.4H201.621V156ZM232.28 127.36C234.787 127.36 237.027 127.067 239 126.48C241 125.867 242.68 125 244.04 123.88C245.427 122.76 246.48 121.413 247.2 119.84C247.92 118.267 248.28 116.493 248.28 114.52C248.28 110.493 246.96 107.507 244.32 105.56C241.707 103.613 237.88 102.64 232.84 102.64H222.48V127.36H232.28ZM257.4 156H253.88C253.427 156 253.04 155.933 252.72 155.8C252.427 155.64 252.147 155.36 251.88 154.96L233.72 132C233.507 131.707 233.28 131.453 233.04 131.24C232.827 131.027 232.573 130.867 232.28 130.76C232.013 130.627 231.68 130.533 231.28 130.48C230.907 130.427 230.44 130.4 229.88 130.4H222.48V156H218.36V99.4H232.84C239.347 99.4 244.213 100.667 247.44 103.2C250.693 105.707 252.32 109.4 252.32 114.28C252.32 116.44 251.947 118.413 251.2 120.2C250.453 121.987 249.373 123.56 247.96 124.92C246.573 126.253 244.88 127.347 242.88 128.2C240.907 129.053 238.68 129.627 236.2 129.92C236.84 130.32 237.413 130.853 237.92 131.52L257.4 156Z" fill="white"/>
</g>
<defs>
<filter id="filter0_d_203_6201" x="0.0864258" y="0.76001" width="273.313" height="171.88" filterUnits="userSpaceOnUse" color-interpolation-filters="sRGB">
<feFlood flood-opacity="0" result="BackgroundImageFix"/>
<feColorMatrix in="SourceAlpha" type="matrix" values="0 0 0 0 0 0 0 0 0 0 0 0 0 0 0 0 0 0 127 0" result="hardAlpha"/>
<feOffset/>
<feGaussianBlur stdDeviation="8"/>
<feComposite in2="hardAlpha" operator="out"/>
<feColorMatrix type="matrix" values="0 0 0 0 1 0 0 0 0 1 0 0 0 0 1 0 0 0 0.25 0"/>
<feBlend mode="normal" in2="BackgroundImageFix" result="effect1_dropShadow_203_6201"/>
<feBlend mode="normal" in="SourceGraphic" in2="effect1_dropShadow_203_6201" result="shape"/>
</filter>
</defs>
</svg>
