<svg width="390" height="407" viewBox="0 0 390 407" fill="none" xmlns="http://www.w3.org/2000/svg">
<rect opacity="0.5" width="6" height="5" transform="matrix(-0.707107 -0.707107 -0.707107 0.707107 175.778 30.2426)" fill="white"/>
<rect opacity="0.5" width="6" height="5" transform="matrix(-0.707107 -0.707107 -0.707107 0.707107 35 297.243)" fill="white"/>
<rect opacity="0.5" width="5" height="5" transform="matrix(-0.707107 -0.707107 -0.707107 0.707107 69.071 26.5355)" fill="white"/>
<rect opacity="0.5" width="3" height="3" transform="matrix(-0.707107 -0.707107 -0.707107 0.707107 336.243 287.121)" fill="white"/>
<rect opacity="0.5" width="3" height="3" transform="matrix(-0.707107 -0.707107 -0.707107 0.707107 282.243 145.121)" fill="white"/>
<rect opacity="0.5" width="3" height="3" transform="matrix(-0.707107 -0.707107 -0.707107 0.707107 318.243 186.121)" fill="white"/>
<rect opacity="0.5" width="2" height="2" transform="matrix(-0.707107 -0.707107 -0.707107 0.707107 363.828 18.4142)" fill="white"/>
<rect opacity="0.5" width="2" height="2" transform="matrix(-0.707107 -0.707107 -0.707107 0.707107 110 98.4142)" fill="white"/>
<rect opacity="0.5" width="2" height="2.66667" transform="matrix(-0.707107 -0.707107 -0.707107 0.707107 159.95 205.121)" fill="white"/>
<rect opacity="0.5" width="3" height="3" transform="matrix(-0.707107 -0.707107 -0.707107 0.707107 26.2427 230.121)" fill="white"/>
<rect opacity="0.5" width="2" height="2" transform="matrix(-0.707107 -0.707107 -0.707107 0.707107 112.828 213.414)" fill="white"/>
<rect opacity="0.5" width="2" height="2" transform="matrix(-0.707107 -0.707107 -0.707107 0.707107 26.8284 78.4142)" fill="white"/>
<rect opacity="0.5" width="3" height="3" transform="matrix(-0.707107 -0.707107 -0.707107 0.707107 199.243 110.121)" fill="white"/>
<rect opacity="0.5" width="3" height="3" transform="matrix(-0.707107 -0.707107 -0.707107 0.707107 168 114.121)" fill="white"/>
<rect opacity="0.5" width="2" height="2" transform="matrix(-0.707107 -0.707107 -0.707107 0.707107 315.828 15.4142)" fill="white"/>
<rect opacity="0.5" width="3" height="3" transform="matrix(-0.707107 -0.707107 -0.707107 0.707107 258 51.1213)" fill="white"/>
<rect opacity="0.5" width="2" height="2" transform="matrix(-0.707107 -0.707107 -0.707107 0.707107 253.828 15.4142)" fill="white"/>
<rect opacity="0.5" width="4" height="3" transform="matrix(-0.707107 -0.707107 -0.707107 0.707107 380 100.828)" fill="white"/>
<rect opacity="0.5" width="3" height="3" transform="matrix(-0.707107 -0.707107 -0.707107 0.707107 163.874 331.908)" fill="white"/>
<rect opacity="0.5" width="2" height="2" transform="matrix(-0.707107 -0.707107 -0.707107 0.707107 257.212 218.771)" fill="white"/>
<rect opacity="0.5" width="4" height="4" transform="matrix(-0.707107 -0.707107 -0.707107 0.707107 149.657 62.8284)" fill="white"/>
<rect opacity="0.5" width="4" height="4" transform="matrix(-0.707107 -0.707107 -0.707107 0.707107 342.657 128.828)" fill="white"/>
<rect opacity="0.5" width="4" height="4" transform="matrix(-0.707107 -0.707107 -0.707107 0.707107 40.6567 174.828)" fill="white"/>
<rect opacity="0.5" width="4" height="4" transform="matrix(-0.707107 -0.707107 -0.707107 0.707107 235 158.828)" fill="white"/>
<rect opacity="0.5" width="4" height="4" transform="matrix(-0.707107 -0.707107 -0.707107 0.707107 19 157.828)" fill="white"/>
<rect opacity="0.5" width="3" height="3" transform="matrix(-0.707107 -0.707107 -0.707107 0.707107 343.243 248.121)" fill="white"/>
<rect opacity="0.5" width="3" height="3" transform="matrix(-0.707107 -0.707107 -0.707107 0.707107 384.243 252.121)" fill="white"/>
</svg>
