<svg width="123" height="134" viewBox="0 0 123 134" fill="none" xmlns="http://www.w3.org/2000/svg">
<g opacity="0.2" filter="url(#filter0_f_489_13361)">
<ellipse cx="61.9681" cy="101.435" rx="26.4424" ry="11.435" fill="black"/>
</g>
<g filter="url(#filter1_d_489_13361)">
<path d="M60.3888 40.0525C58.2371 40.1887 57.1612 40.3112 56.848 40.4474C56.6982 40.5155 56.3986 40.5972 56.1671 40.6245C55.9492 40.6653 55.173 40.856 54.4648 41.0466C53.7567 41.2509 53.0076 41.4552 52.8034 41.496C52.5855 41.5369 52.4221 41.6186 52.4221 41.6867C52.4221 41.7548 52.2995 41.8093 52.1497 41.8093C51.9999 41.8093 51.7684 41.8637 51.6322 41.9318C51.5096 41.9999 51.1556 42.1633 50.856 42.2859C49.8482 42.7081 47.2335 44.0427 47.002 44.2606C46.8794 44.3695 46.607 44.5465 46.4164 44.6419C46.2257 44.7508 45.8853 44.9823 45.681 45.1594C45.4767 45.3364 45.2588 45.4862 45.2044 45.4862C45.1635 45.4862 45.0001 45.5952 44.8503 45.7177C44.7141 45.8539 44.3464 46.1399 44.0468 46.3714C43.325 46.9161 40.4652 49.776 39.9477 50.4569C39.7298 50.7565 39.4438 51.1242 39.3212 51.2604C39.1851 51.4102 39.0761 51.5736 39.0761 51.6145C39.0761 51.6689 38.9263 51.8868 38.7356 52.1047C38.545 52.3226 38.3952 52.5814 38.3952 52.6631C38.3952 52.7584 38.3407 52.8401 38.259 52.8401C38.1909 52.8401 38.1228 52.9218 38.1228 53.0308C38.1228 53.1397 38.082 53.2486 38.0139 53.2759C37.8505 53.344 36.8972 55.019 36.8972 55.2369C36.8972 55.3459 36.8427 55.4276 36.761 55.4276C36.6929 55.4276 36.6248 55.5501 36.6248 55.6999C36.6248 55.8498 36.5703 55.9723 36.4886 55.9723C36.4205 55.9723 36.3524 56.0404 36.3524 56.1085C36.3524 56.1902 36.2026 56.5579 36.012 56.9528C35.8213 57.3341 35.6715 57.7427 35.6715 57.838C35.6715 57.9334 35.6171 58.0151 35.5353 58.0151C35.4673 58.0151 35.3992 58.1512 35.3992 58.3283C35.3992 58.5053 35.3447 58.696 35.2766 58.7641C35.2085 58.8458 34.9906 59.3905 34.7863 59.9897C34.5957 60.5889 34.3778 61.1881 34.3097 61.3107C34.228 61.4469 34.1735 61.6784 34.1735 61.8146C34.1735 61.9644 34.119 62.1278 34.0373 62.1686C33.9692 62.2095 33.9011 62.4683 33.9011 62.727C33.9011 62.9857 33.8467 63.19 33.7922 63.19C33.7377 63.19 33.6015 63.5713 33.5062 64.0344C33.4109 64.511 33.2475 65.2055 33.1385 65.6005C33.0296 65.9818 32.9479 66.5401 32.9479 66.8261C32.9479 67.1121 32.8934 67.4117 32.8253 67.4798C32.6891 67.6296 32.5257 69.8085 32.5257 71.4972C32.5257 74.3843 33.1658 77.6799 34.0509 79.4231C34.119 79.5592 34.1735 79.7635 34.1735 79.8725C34.1735 79.9814 34.2416 80.0767 34.3097 80.0767C34.3914 80.0767 34.4459 80.1857 34.4459 80.3082C34.4595 80.4444 34.6365 80.853 34.868 81.2343C35.0859 81.602 35.3038 82.0242 35.3583 82.1467C35.3992 82.2829 35.4809 82.3919 35.549 82.3919C35.6171 82.3919 35.6715 82.4463 35.6715 82.528C35.6715 82.6778 36.6384 84.0669 36.7882 84.135C36.8563 84.1622 36.8972 84.2576 36.8972 84.3393C36.8972 84.5572 40.22 87.8119 40.8737 88.2477C41.1597 88.4384 41.3912 88.629 41.3912 88.6835C41.3912 88.7516 41.4865 88.7925 41.5955 88.7925C41.7044 88.7925 41.7998 88.8469 41.7998 88.9286C41.7998 88.9967 41.8815 89.0648 41.9768 89.0648C42.0721 89.0648 42.2764 89.1738 42.4262 89.31C42.5624 89.4325 42.9437 89.664 43.2569 89.8138C43.5838 89.9636 43.8425 90.1271 43.8425 90.1815C43.8425 90.2496 43.9651 90.2905 44.1149 90.2905C44.2647 90.2905 44.3873 90.345 44.3873 90.4267C44.3873 90.4948 44.4962 90.5628 44.6324 90.5628C44.7686 90.5628 44.932 90.6173 45.0137 90.6718C45.0818 90.7399 45.572 90.9578 46.0895 91.1621C46.6207 91.3799 47.1518 91.5978 47.2743 91.6659C47.4105 91.734 47.642 91.7885 47.7918 91.7885C47.9416 91.7885 48.0642 91.843 48.0642 91.9247C48.0642 91.9928 48.214 92.0609 48.4047 92.0609C48.5953 92.0609 48.8541 92.1153 48.9902 92.197C49.3307 92.3877 50.9104 92.878 51.5096 92.9733C51.782 93.0141 52.0135 93.0959 52.0135 93.1503C52.0135 93.2048 52.245 93.2865 52.531 93.3274C52.8034 93.3682 53.7703 93.5589 54.6691 93.7495C56.6437 94.1989 57.8558 94.376 59.2993 94.4577C59.8985 94.4985 60.5113 94.5802 60.6748 94.662C61.0833 94.8662 64.6785 94.6483 67.266 94.2534C68.1512 94.1308 69.8535 93.7768 70.8749 93.5316C71.1745 93.4635 71.6511 93.3682 71.9371 93.3274C72.2095 93.2865 72.441 93.2048 72.441 93.1367C72.441 93.0686 72.5908 93.0141 72.7678 93.0141C73.1083 93.0141 75.9954 92.1426 76.4175 91.9111C76.5537 91.843 76.7852 91.7885 76.935 91.7885C77.0848 91.7885 77.2074 91.7204 77.2074 91.6523C77.2074 91.5706 77.33 91.5161 77.4798 91.5161C77.6296 91.5161 78.1062 91.3527 78.5284 91.1484C80.2307 90.3722 81.0886 89.95 81.1567 89.8683C81.1976 89.8275 81.4427 89.6777 81.7151 89.5551C81.9874 89.4325 82.3415 89.201 82.4913 89.0648C82.6547 88.915 82.8181 88.7925 82.859 88.7925C82.9135 88.7925 83.036 88.7108 83.1314 88.629C83.431 88.3567 83.6352 88.2069 84.1527 87.8392C84.7656 87.4034 86.9717 85.2108 87.4892 84.5027C87.7207 84.2031 88.0067 83.8354 88.1429 83.6992C88.2655 83.5494 88.3744 83.3724 88.3744 83.3179C88.3744 83.2498 88.4834 83.0864 88.6195 82.9366C88.7421 82.8004 88.9736 82.4463 89.1234 82.1603C89.2732 81.8744 89.423 81.6156 89.4639 81.5748C89.6001 81.4522 90.3899 79.7363 90.4853 79.355C90.5397 79.1507 90.6351 78.9464 90.7032 78.9056C90.7712 78.8647 90.8257 78.6877 90.8257 78.497C90.8257 78.32 90.8938 78.1702 90.9619 78.1702C91.0436 78.1702 91.0981 77.9931 91.0981 77.7752C91.0981 77.5437 91.1526 77.3258 91.2343 77.285C91.3024 77.2441 91.3704 77.0671 91.3704 76.9173C91.3704 76.7539 91.4249 76.4406 91.5066 76.2091C91.7109 75.5146 92.0514 72.5867 92.0514 71.4291C92.0514 69.6179 91.5475 65.8047 91.2206 65.2055C91.1526 65.0694 91.0981 64.7289 91.0981 64.4429C91.0981 64.1569 91.0436 63.8709 90.9755 63.7892C90.921 63.7211 90.7576 63.2717 90.6351 62.7815C90.3082 61.5831 90.104 60.9702 89.9814 60.8068C89.9269 60.7387 89.8724 60.5072 89.8724 60.3029C89.8724 60.0987 89.818 59.9216 89.7363 59.9216C89.6682 59.9216 89.6001 59.7718 89.6001 59.5812C89.6001 59.3905 89.5592 59.2407 89.4911 59.2407C89.4366 59.2407 89.3141 58.9956 89.2324 58.696C88.9464 57.8244 87.4211 54.5696 87.2577 54.5015C87.1896 54.4743 87.1488 54.3654 87.1488 54.2564C87.1488 54.1475 87.0943 54.0658 87.0126 54.0658C86.9445 54.0658 86.8764 53.9432 86.8764 53.807C86.8764 53.6572 86.8356 53.521 86.7811 53.4938C86.6449 53.4393 85.9231 52.3362 85.9231 52.1864C85.9231 52.1319 85.8006 51.9958 85.6508 51.8868C85.5009 51.7779 85.3784 51.6417 85.3784 51.5736C85.3784 51.2195 81.7832 47.3383 80.8163 46.6438C80.5984 46.494 80.2988 46.2488 80.149 46.099C79.9855 45.9492 79.4817 45.5815 79.0186 45.2819C78.542 44.9823 78.1607 44.6963 78.1607 44.6283C78.1607 44.5738 78.0926 44.5329 78.0109 44.5329C77.9292 44.5329 77.6977 44.424 77.507 44.2742C77.1938 44.0563 76.5673 43.7158 75.0966 42.9396C74.9468 42.8579 74.4293 42.6264 73.939 42.4221C73.4487 42.2178 72.9449 41.9999 72.8223 41.9318C72.6861 41.8637 72.4818 41.8093 72.3729 41.8093C72.2639 41.8093 72.1686 41.7412 72.1686 41.6731C72.1686 41.5914 71.9916 41.5369 71.7873 41.5369C71.583 41.5369 71.3515 41.4824 71.2698 41.4143C71.2017 41.3599 70.6842 41.1964 70.1259 41.0603C69.5675 40.9377 68.9956 40.7743 68.873 40.7062C68.7368 40.6381 68.41 40.5836 68.1512 40.5836C67.8925 40.5836 67.6746 40.5155 67.6746 40.4474C67.6746 40.3657 67.3477 40.3112 66.9664 40.3112C66.5715 40.3112 66.0268 40.2568 65.768 40.1887C65.1007 40.0116 62.1728 39.9436 60.3888 40.0525Z" fill="#333333"/>
</g>
<g filter="url(#filter2_d_489_13361)">
<mask id="mask0_489_13361" style="mask-type:luminance" maskUnits="userSpaceOnUse" x="39" y="28" width="47" height="19">
<path d="M39.5257 28H85.4933V46.6193H39.5257V28Z" fill="white"/>
</mask>
<g mask="url(#mask0_489_13361)">
<path d="M74.5945 35.1372C74.5963 35.1207 74.5984 35.1041 74.6013 35.0873C74.5984 35.1041 74.5961 35.1207 74.5945 35.1372ZM85.2099 44.2881C85.4804 45.4838 81.6131 45.6738 80.7779 45.8255C73.6957 46.5463 66.5619 46.6061 59.4489 46.5649C57.2017 46.4821 39.5392 46.4496 39.6855 44.4255C39.6861 44.4253 39.6865 44.4253 39.6871 44.4253C39.6288 43.4121 42.338 43.2445 43.0946 43.0926C44.4406 42.9115 45.7933 42.7905 47.1471 42.6891C48.2509 42.6075 49.356 42.5393 50.4613 42.485C50.4162 41.6583 50.3677 40.8316 50.3214 40.0051C50.2632 38.9652 50.2051 37.9253 50.1469 36.8852C50.0894 35.8557 50.0317 34.826 49.9741 33.7962C49.9537 33.4285 49.9336 33.0608 49.9125 32.693C49.9096 32.6434 49.9162 32.5951 49.9307 32.55C49.9282 32.4629 49.9286 32.376 49.9336 32.2887C49.9665 31.6004 50.3524 30.9905 50.8218 30.5088C51.8143 29.4921 53.2014 28.9896 54.5533 28.6556C55.1054 28.5304 55.6654 28.447 56.2275 28.3837C56.2848 28.3597 56.3446 28.3487 56.4059 28.3388C56.4853 28.326 56.5648 28.314 56.6442 28.3032C56.7858 28.2842 56.9273 28.2664 57.0693 28.2498C57.347 28.2175 57.6251 28.191 57.9045 28.1708C58.4711 28.1302 59.0385 28.0954 59.6064 28.0702C60.1867 28.0441 60.7673 28.0242 61.3484 28.0189C61.9403 28.0135 62.5325 28.0209 63.1244 28.0329C63.6935 28.0441 64.2621 28.0677 64.8308 28.0901C65.3867 28.112 65.9433 28.1281 66.4988 28.1608C67.0562 28.1935 67.6129 28.2395 68.1696 28.2846C68.4206 28.3049 68.6722 28.3227 68.9233 28.3442C68.9235 28.3442 68.9235 28.3442 68.9235 28.3442C68.9897 28.3417 69.0586 28.3522 69.1246 28.3624C69.2527 28.3746 69.3806 28.388 69.5081 28.4038C69.5404 28.4079 69.5776 28.4096 69.6103 28.4178C69.6211 28.4205 69.6314 28.4234 69.6418 28.4263C69.8841 28.4555 70.126 28.4859 70.3665 28.5284C71.7557 28.786 73.393 29.3377 74.3377 30.4357C75.2163 31.3583 75.3883 32.6403 75.426 33.862C75.4282 34.1354 75.4396 34.4092 75.4409 34.6828C75.4566 34.7283 75.4651 34.7769 75.4651 34.8272C75.4651 34.8353 75.4651 34.8433 75.4651 34.8514C75.4651 34.8516 75.4651 34.8518 75.4651 34.852C75.4651 35.8414 75.4618 36.831 75.4601 37.8206C75.4585 38.8832 75.4564 39.9459 75.4549 41.0085C75.4541 41.5182 75.4533 42.0279 75.4522 42.5376C75.708 42.5519 75.9636 42.5686 76.2192 42.5846C77.6063 42.7367 85.0446 42.9534 85.2099 44.2881Z" fill="#FFEAB2"/>
</g>
<mask id="mask1_489_13361" style="mask-type:luminance" maskUnits="userSpaceOnUse" x="50" y="35" width="26" height="8">
<path d="M50.2678 35.8677H75.5231V42.6903H50.2678V35.8677Z" fill="white"/>
</mask>
<g mask="url(#mask1_489_13361)">
<path d="M75.5016 37.5988C75.5016 38.1355 75.4979 38.6716 75.496 39.2083C75.4938 39.914 75.4913 40.6196 75.4888 41.3259C75.488 41.5683 75.4871 41.8108 75.4863 42.0539V42.0546C75.4863 42.0608 75.4863 42.067 75.4863 42.0726C75.4863 42.0733 75.4863 42.0739 75.4863 42.0739C75.4863 42.0776 75.4863 42.0807 75.4863 42.0845C75.4863 42.0988 75.4863 42.1132 75.4861 42.1275C75.5101 42.3587 75.4695 42.6505 75.3545 42.6474C67.2815 41.3383 59.1844 41.3109 51.1075 42.3313C50.8852 42.3619 50.663 42.3943 50.4407 42.4267C50.3685 42.4367 50.3043 42.279 50.2988 42.0577C50.2975 42.0066 50.2998 41.9561 50.305 41.9087C50.3023 41.5658 50.3017 41.2224 50.3 40.8795C50.2961 40.139 50.2921 39.3984 50.2886 38.6579C50.2863 38.239 50.2853 37.8201 50.2822 37.4006C50.2822 37.395 50.282 37.39 50.282 37.3844C50.282 37.3782 50.282 37.3725 50.282 37.3663C50.2812 37.1488 50.3333 36.9593 50.4076 36.948C50.4252 36.9449 50.4426 36.9536 50.4589 36.9717C50.8931 36.915 51.3273 36.8439 51.7616 36.7934C59.2516 35.9076 66.7549 35.9369 74.2418 37.0129C74.612 37.0715 74.982 37.1276 75.352 37.1943C75.3561 37.1949 75.3601 37.1968 75.3638 37.1986C75.3659 37.198 75.3677 37.198 75.3698 37.198C75.442 37.1992 75.5016 37.3819 75.5016 37.5988Z" fill="#DC9E00"/>
</g>
</g>
<ellipse cx="66.0257" cy="64.22" rx="2.5" ry="3.5" fill="white"/>
<ellipse cx="79.0257" cy="64.22" rx="2.5" ry="3.5" fill="white"/>
<path d="M71.1572 86.3698C69.8401 86.8244 68.7608 87.2121 68.751 87.2326C68.7413 87.253 68.8274 87.5453 68.9406 87.8756C69.5918 89.7688 70.0398 91.8561 70.0634 93.0876C70.0816 94.0052 69.9474 94.5587 69.6235 94.921C69.1665 95.4355 67.9492 95.9229 65.6938 96.4913C64.0637 97.4305 64.0899 98.944 64.3499 99.4343C64.5265 100.146 66.1334 100.909 67.3883 100.887C68.6433 100.865 72.6301 99.4069 73.7934 97.9196C74.2117 97.3915 74.7509 96.2534 74.9171 95.5596C75.4913 93.1829 75.1701 90.4632 73.8118 86.2685C73.6898 85.8937 73.5809 85.5755 73.5705 85.5656C73.5602 85.5556 72.4744 85.9151 71.1572 86.3698Z" fill="#343434"/>
<path d="M60.6709 88.7158C60.0178 88.9444 59.3959 89.1672 59.2871 89.2014C58.8144 89.3593 57.1549 89.9475 57.1432 89.9589C57.1404 89.9686 57.2922 90.4333 57.4846 90.9918C58.278 93.3272 58.7451 94.8573 59.7639 98.4917C59.9124 99.0124 60.3396 100.674 60.8558 102.712C61.4569 105.078 61.3521 104.75 61.6042 105.527C62.0057 107.043 63.2127 107.387 64.3161 107.18C65.4195 106.973 66.4193 106.214 66.4453 104.618C66.3682 104.208 66.3936 103.705 65.9259 101.852C65.7774 101.257 65.617 100.624 65.5693 100.444C65.5217 100.264 65.4036 99.8066 65.3103 99.4323C65.2125 99.0589 65.1047 98.6321 65.0638 98.4876C65.0273 98.3424 64.9225 97.9564 64.834 97.632C64.1574 95.1087 63.3968 92.5551 62.6376 90.2547C62.0475 88.4619 61.9726 88.2593 61.9067 88.2763C61.8808 88.2858 61.3231 88.4827 60.6709 88.7158Z" fill="#343434"/>
<defs>
<filter id="filter0_f_489_13361" x="14.5257" y="69" width="94.8849" height="64.8699" filterUnits="userSpaceOnUse" color-interpolation-filters="sRGB">
<feFlood flood-opacity="0" result="BackgroundImageFix"/>
<feBlend mode="normal" in="SourceGraphic" in2="BackgroundImageFix" result="shape"/>
<feGaussianBlur stdDeviation="10.5" result="effect1_foregroundBlur_489_13361"/>
</filter>
<filter id="filter1_d_489_13361" x="0.525696" y="12" width="123.526" height="118.74" filterUnits="userSpaceOnUse" color-interpolation-filters="sRGB">
<feFlood flood-opacity="0" result="BackgroundImageFix"/>
<feColorMatrix in="SourceAlpha" type="matrix" values="0 0 0 0 0 0 0 0 0 0 0 0 0 0 0 0 0 0 127 0" result="hardAlpha"/>
<feOffset dy="4"/>
<feGaussianBlur stdDeviation="16"/>
<feComposite in2="hardAlpha" operator="out"/>
<feColorMatrix type="matrix" values="0 0 0 0 0 0 0 0 0 0 0 0 0 0 0 0 0 0 0.15 0"/>
<feBlend mode="normal" in2="BackgroundImageFix" result="effect1_dropShadow_489_13361"/>
<feBlend mode="normal" in="SourceGraphic" in2="effect1_dropShadow_489_13361" result="shape"/>
</filter>
<filter id="filter2_d_489_13361" x="7.68457" y="0.0170898" width="109.539" height="82.5576" filterUnits="userSpaceOnUse" color-interpolation-filters="sRGB">
<feFlood flood-opacity="0" result="BackgroundImageFix"/>
<feColorMatrix in="SourceAlpha" type="matrix" values="0 0 0 0 0 0 0 0 0 0 0 0 0 0 0 0 0 0 127 0" result="hardAlpha"/>
<feOffset dy="4"/>
<feGaussianBlur stdDeviation="16"/>
<feComposite in2="hardAlpha" operator="out"/>
<feColorMatrix type="matrix" values="0 0 0 0 0 0 0 0 0 0 0 0 0 0 0 0 0 0 0.15 0"/>
<feBlend mode="normal" in2="BackgroundImageFix" result="effect1_dropShadow_489_13361"/>
<feBlend mode="normal" in="SourceGraphic" in2="effect1_dropShadow_489_13361" result="shape"/>
</filter>
</defs>
</svg>
