<svg width="105" height="147" viewBox="0 0 105 147" fill="none" xmlns="http://www.w3.org/2000/svg">
<g opacity="0.2" filter="url(#filter0_f_513_13642)">
<ellipse cx="49.4424" cy="113.676" rx="26.4424" ry="11.435" fill="black"/>
</g>
<g filter="url(#filter1_d_513_13642)">
<path d="M47.039 21.2069C40.945 22.4995 35.6205 26.5314 33.1276 31.7328C30.9731 36.2263 30.296 41.243 29.8959 55.9854C29.8036 59.1247 29.6805 62.0178 29.5882 62.4487C29.4343 63.3104 28.8187 70.7586 28.6341 73.9902C28.5725 75.1598 28.3878 77.4681 28.2339 79.0685C27.6492 85.2855 28.1416 89.7791 29.9267 94.211C32.8506 101.413 36.0822 104.214 44.2998 106.737C47.2544 107.661 52.7328 107.661 55.749 106.737C61.1351 105.075 63.351 103.906 65.844 101.321C67.4752 99.6586 68.1523 98.5814 69.8143 94.8881C71.7533 90.61 72.0303 88.825 71.7841 81.3768C71.5686 74.3595 71.4763 72.7591 71.1685 70.9125C70.8915 69.035 70.3991 61.2791 70.2144 55.9854C69.8759 46.1058 69.722 43.4282 69.2603 40.4428C68.1523 33.3024 66.8597 30.3478 63.4741 26.9622C60.9504 24.4077 58.8575 23.0843 55.5643 21.9455C53.1021 21.0837 49.2242 20.7452 47.039 21.2069Z" fill="#333333"/>
<ellipse cx="43.5" cy="48.2249" rx="2.5" ry="3.5" fill="white"/>
<ellipse cx="56.5" cy="48.2249" rx="2.5" ry="3.5" fill="white"/>
</g>
<g filter="url(#filter2_d_513_13642)">
<mask id="mask0_513_13642" style="mask-type:luminance" maskUnits="userSpaceOnUse" x="27" y="11" width="46" height="19">
<path d="M27 11H72.9676V29.6193H27V11Z" fill="white"/>
</mask>
<g mask="url(#mask0_513_13642)">
<path d="M62.0688 18.1372C62.0706 18.1207 62.0727 18.1041 62.0756 18.0873C62.0727 18.1041 62.0704 18.1207 62.0688 18.1372ZM72.6842 27.2881C72.9547 28.4838 69.0874 28.6738 68.2522 28.8255C61.17 29.5463 54.0362 29.6061 46.9232 29.5649C44.676 29.4821 27.0135 29.4496 27.1598 27.4255C27.1604 27.4253 27.1608 27.4253 27.1614 27.4253C27.1031 26.4121 29.8123 26.2445 30.5689 26.0926C31.9149 25.9115 33.2676 25.7905 34.6214 25.6891C35.7253 25.6075 36.8303 25.5393 37.9356 25.485C37.8905 24.6583 37.842 23.8316 37.7957 23.0051C37.7375 21.9652 37.6794 20.9253 37.6212 19.8852C37.5637 18.8557 37.506 17.826 37.4484 16.7962C37.428 16.4285 37.4079 16.0608 37.3868 15.693C37.3839 15.6434 37.3905 15.5951 37.405 15.55C37.4025 15.4629 37.4029 15.376 37.4079 15.2887C37.4408 14.6004 37.8267 13.9905 38.2961 13.5088C39.2886 12.4921 40.6757 11.9896 42.0276 11.6556C42.5797 11.5304 43.1397 11.447 43.7018 11.3837C43.7591 11.3597 43.8189 11.3487 43.8802 11.3388C43.9596 11.326 44.0391 11.314 44.1186 11.3032C44.2601 11.2842 44.4016 11.2664 44.5436 11.2498C44.8213 11.2175 45.0994 11.191 45.3788 11.1708C45.9454 11.1302 46.5129 11.0954 47.0807 11.0702C47.661 11.0441 48.2416 11.0242 48.8227 11.0189C49.4146 11.0135 50.0068 11.0209 50.5987 11.0329C51.1678 11.0441 51.7364 11.0677 52.3051 11.0901C52.861 11.112 53.4176 11.1281 53.9731 11.1608C54.5306 11.1935 55.0872 11.2395 55.6439 11.2846C55.8949 11.3049 56.1465 11.3227 56.3976 11.3442C56.3978 11.3442 56.3978 11.3442 56.3978 11.3442C56.464 11.3417 56.5329 11.3522 56.5989 11.3624C56.727 11.3746 56.8549 11.388 56.9824 11.4038C57.0147 11.4079 57.0519 11.4096 57.0846 11.4178C57.0954 11.4205 57.1057 11.4234 57.1161 11.4263C57.3584 11.4555 57.6003 11.4859 57.8408 11.5284C59.23 11.786 60.8673 12.3377 61.812 13.4357C62.6906 14.3583 62.8626 15.6403 62.9003 16.862C62.9025 17.1354 62.9139 17.4092 62.9152 17.6828C62.9309 17.7283 62.9394 17.7769 62.9394 17.8272C62.9394 17.8353 62.9394 17.8433 62.9394 17.8514C62.9394 17.8516 62.9394 17.8518 62.9394 17.852C62.9394 18.8414 62.9361 19.831 62.9344 20.8206C62.9328 21.8832 62.9307 22.9459 62.9292 24.0085C62.9284 24.5182 62.9276 25.0279 62.9265 25.5376C63.1823 25.5519 63.4379 25.5686 63.6935 25.5846C65.0806 25.7367 72.5189 25.9534 72.6842 27.2881Z" fill="#FFEAB2"/>
</g>
<mask id="mask1_513_13642" style="mask-type:luminance" maskUnits="userSpaceOnUse" x="37" y="18" width="26" height="8">
<path d="M37.7421 18.8677H62.9974V25.6903H37.7421V18.8677Z" fill="white"/>
</mask>
<g mask="url(#mask1_513_13642)">
<path d="M62.9759 20.5988C62.9759 21.1355 62.9722 21.6716 62.9703 22.2083C62.9681 22.914 62.9656 23.6196 62.9631 24.3259C62.9623 24.5683 62.9614 24.8108 62.9606 25.0539V25.0546C62.9606 25.0608 62.9606 25.067 62.9606 25.0726C62.9606 25.0733 62.9606 25.0739 62.9606 25.0739C62.9606 25.0776 62.9606 25.0807 62.9606 25.0845C62.9606 25.0988 62.9606 25.1132 62.9604 25.1275C62.9844 25.3587 62.9438 25.6505 62.8288 25.6474C54.7558 24.3383 46.6587 24.3109 38.5818 25.3313C38.3595 25.3619 38.1373 25.3943 37.915 25.4267C37.8428 25.4367 37.7787 25.279 37.7731 25.0577C37.7718 25.0066 37.7741 24.9561 37.7793 24.9087C37.7766 24.5658 37.776 24.2224 37.7743 23.8795C37.7704 23.139 37.7664 22.3984 37.7629 21.6579C37.7607 21.239 37.7596 20.8201 37.7565 20.4006C37.7565 20.395 37.7563 20.39 37.7563 20.3844C37.7563 20.3782 37.7563 20.3725 37.7563 20.3663C37.7555 20.1488 37.8076 19.9593 37.8819 19.948C37.8995 19.9449 37.9169 19.9536 37.9332 19.9717C38.3674 19.915 38.8016 19.8439 39.2359 19.7934C46.7259 18.9076 54.2292 18.9369 61.7161 20.0129C62.0863 20.0715 62.4563 20.1276 62.8263 20.1943C62.8304 20.1949 62.8344 20.1968 62.8381 20.1986C62.8402 20.198 62.842 20.198 62.8441 20.198C62.9163 20.1992 62.9759 20.3819 62.9759 20.5988Z" fill="#5179C8"/>
</g>
</g>
<path d="M42.7217 100.159C42.4953 100.235 42.0928 100.486 41.8287 100.7C40.9859 101.404 40.9733 101.58 41.0111 107.719C41.0362 110.863 41.0991 113.429 41.1746 113.857C41.5897 116.046 44.0551 116.826 45.4387 115.203C45.6525 114.964 45.8538 114.587 45.9167 114.385C46.0551 113.832 46.0928 108.046 45.9796 104.687C45.8915 101.87 45.879 101.782 45.5645 101.279C45.1997 100.7 44.7469 100.348 44.1054 100.134C43.5771 99.9452 43.2752 99.9578 42.7217 100.159Z" fill="#333333"/>
<path d="M55.7959 101.118C55.2757 101.287 54.644 101.71 54.4211 102.039C54.1239 102.48 54 104.11 54 108V111.5L54.4087 112.13C55.5606 113.446 57.9386 113.23 58.6817 111.745C58.9418 111.21 58.979 110.665 58.9914 106.605C59.0161 102.574 59.0038 102.537 58.7313 102.095C58.1863 101.221 56.8363 100.77 55.7959 101.118Z" fill="#333333"/>
<defs>
<filter id="filter0_f_513_13642" x="2" y="81.2415" width="94.8849" height="64.8699" filterUnits="userSpaceOnUse" color-interpolation-filters="sRGB">
<feFlood flood-opacity="0" result="BackgroundImageFix"/>
<feBlend mode="normal" in="SourceGraphic" in2="BackgroundImageFix" result="shape"/>
<feGaussianBlur stdDeviation="10.5" result="effect1_foregroundBlur_513_13642"/>
</filter>
<filter id="filter1_d_513_13642" x="-4" y="-7" width="107.86" height="150.43" filterUnits="userSpaceOnUse" color-interpolation-filters="sRGB">
<feFlood flood-opacity="0" result="BackgroundImageFix"/>
<feColorMatrix in="SourceAlpha" type="matrix" values="0 0 0 0 0 0 0 0 0 0 0 0 0 0 0 0 0 0 127 0" result="hardAlpha"/>
<feOffset dy="4"/>
<feGaussianBlur stdDeviation="16"/>
<feComposite in2="hardAlpha" operator="out"/>
<feColorMatrix type="matrix" values="0 0 0 0 0 0 0 0 0 0 0 0 0 0 0 0 0 0 0.15 0"/>
<feBlend mode="normal" in2="BackgroundImageFix" result="effect1_dropShadow_513_13642"/>
<feBlend mode="normal" in="SourceGraphic" in2="effect1_dropShadow_513_13642" result="shape"/>
</filter>
<filter id="filter2_d_513_13642" x="-4.84113" y="-16.9829" width="109.539" height="82.5576" filterUnits="userSpaceOnUse" color-interpolation-filters="sRGB">
<feFlood flood-opacity="0" result="BackgroundImageFix"/>
<feColorMatrix in="SourceAlpha" type="matrix" values="0 0 0 0 0 0 0 0 0 0 0 0 0 0 0 0 0 0 127 0" result="hardAlpha"/>
<feOffset dy="4"/>
<feGaussianBlur stdDeviation="16"/>
<feComposite in2="hardAlpha" operator="out"/>
<feColorMatrix type="matrix" values="0 0 0 0 0 0 0 0 0 0 0 0 0 0 0 0 0 0 0.15 0"/>
<feBlend mode="normal" in2="BackgroundImageFix" result="effect1_dropShadow_513_13642"/>
<feBlend mode="normal" in="SourceGraphic" in2="effect1_dropShadow_513_13642" result="shape"/>
</filter>
</defs>
</svg>
