<svg width="110" height="147" viewBox="0 0 110 147" fill="none" xmlns="http://www.w3.org/2000/svg">
<g opacity="0.2" filter="url(#filter0_f_513_13657)">
<ellipse cx="54.4424" cy="113.676" rx="26.4424" ry="11.435" fill="black"/>
</g>
<g filter="url(#filter1_d_513_13657)">
<path d="M52.039 21.2069C45.945 22.4995 40.6205 26.5314 38.1276 31.7328C35.9731 36.2263 35.296 41.243 34.8959 55.9854C34.8036 59.1247 34.6805 62.0178 34.5882 62.4487C34.4343 63.3104 33.8187 70.7586 33.6341 73.9902C33.5725 75.1598 33.3878 77.4681 33.2339 79.0685C32.6492 85.2855 33.1416 89.7791 34.9267 94.211C37.8506 101.413 41.0822 104.214 49.2998 106.737C52.2544 107.661 57.7328 107.661 60.749 106.737C66.1351 105.075 68.351 103.906 70.844 101.321C72.4752 99.6586 73.1523 98.5814 74.8143 94.8881C76.7533 90.61 77.0303 88.825 76.7841 81.3768C76.5686 74.3595 76.4763 72.7591 76.1685 70.9125C75.8915 69.035 75.3991 61.2791 75.2144 55.9854C74.8759 46.1058 74.722 43.4282 74.2603 40.4428C73.1523 33.3024 71.8597 30.3478 68.4741 26.9622C65.9504 24.4077 63.8575 23.0843 60.5643 21.9455C58.1021 21.0837 54.2242 20.7452 52.039 21.2069Z" fill="#333333"/>
</g>
<g filter="url(#filter2_d_513_13657)">
<mask id="mask0_513_13657" style="mask-type:luminance" maskUnits="userSpaceOnUse" x="32" y="11" width="46" height="19">
<path d="M32 11H77.9676V29.6193H32V11Z" fill="white"/>
</mask>
<g mask="url(#mask0_513_13657)">
<path d="M67.0687 18.1372C67.0706 18.1207 67.0726 18.1041 67.0755 18.0873C67.0726 18.1041 67.0704 18.1207 67.0687 18.1372ZM77.6841 27.2881C77.9546 28.4838 74.0873 28.6738 73.2521 28.8255C66.17 29.5463 59.0361 29.6061 51.9232 29.5649C49.676 29.4821 32.0134 29.4496 32.1597 27.4255C32.1603 27.4253 32.1607 27.4253 32.1614 27.4253C32.103 26.4121 34.8123 26.2445 35.5689 26.0926C36.9148 25.9115 38.2676 25.7905 39.6214 25.6891C40.7252 25.6075 41.8303 25.5393 42.9355 25.485C42.8904 24.6583 42.842 23.8316 42.7956 23.0051C42.7375 21.9652 42.6793 20.9253 42.6212 19.8852C42.5637 18.8557 42.5059 17.826 42.4484 16.7962C42.4279 16.4285 42.4078 16.0608 42.3867 15.693C42.3838 15.6434 42.3904 15.5951 42.4049 15.55C42.4024 15.4629 42.4029 15.376 42.4078 15.2887C42.4407 14.6004 42.8267 13.9905 43.296 13.5088C44.2885 12.4921 45.6756 11.9896 47.0276 11.6556C47.5797 11.5304 48.1397 11.447 48.7017 11.3837C48.759 11.3597 48.8188 11.3487 48.8801 11.3388C48.9596 11.326 49.039 11.314 49.1185 11.3032C49.26 11.2842 49.4016 11.2664 49.5435 11.2498C49.8213 11.2175 50.0994 11.191 50.3788 11.1708C50.9454 11.1302 51.5128 11.0954 52.0806 11.0702C52.6609 11.0441 53.2416 11.0242 53.8227 11.0189C54.4145 11.0135 55.0068 11.0209 55.5986 11.0329C56.1677 11.0441 56.7364 11.0677 57.3051 11.0901C57.8609 11.112 58.4176 11.1281 58.973 11.1608C59.5305 11.1935 60.0872 11.2395 60.6438 11.2846C60.8948 11.3049 61.1465 11.3227 61.3975 11.3442C61.3977 11.3442 61.3977 11.3442 61.3977 11.3442C61.4639 11.3417 61.5329 11.3522 61.5989 11.3624C61.727 11.3746 61.8549 11.388 61.9823 11.4038C62.0146 11.4079 62.0519 11.4096 62.0846 11.4178C62.0953 11.4205 62.1057 11.4234 62.116 11.4263C62.3583 11.4555 62.6003 11.4859 62.8407 11.5284C64.2299 11.786 65.8672 12.3377 66.8119 13.4357C67.6906 14.3583 67.8625 15.6403 67.9002 16.862C67.9025 17.1354 67.9139 17.4092 67.9151 17.6828C67.9308 17.7283 67.9393 17.7769 67.9393 17.8272C67.9393 17.8353 67.9393 17.8433 67.9393 17.8514C67.9393 17.8516 67.9393 17.8518 67.9393 17.852C67.9393 18.8414 67.936 19.831 67.9343 20.8206C67.9327 21.8832 67.9306 22.9459 67.9292 24.0085C67.9283 24.5182 67.9275 25.0279 67.9265 25.5376C68.1823 25.5519 68.4378 25.5686 68.6934 25.5846C70.0805 25.7367 77.5188 25.9534 77.6841 27.2881Z" fill="#FFEAB2"/>
</g>
<mask id="mask1_513_13657" style="mask-type:luminance" maskUnits="userSpaceOnUse" x="42" y="18" width="26" height="8">
<path d="M42.7421 18.8677H67.9974V25.6903H42.7421V18.8677Z" fill="white"/>
</mask>
<g mask="url(#mask1_513_13657)">
<path d="M67.9759 20.5988C67.9759 21.1355 67.9721 21.6716 67.9703 22.2083C67.968 22.914 67.9655 23.6196 67.963 24.3259C67.9622 24.5683 67.9614 24.8108 67.9606 25.0539V25.0546C67.9606 25.0608 67.9606 25.067 67.9606 25.0726C67.9606 25.0733 67.9606 25.0739 67.9606 25.0739C67.9606 25.0776 67.9606 25.0807 67.9606 25.0845C67.9606 25.0988 67.9606 25.1132 67.9603 25.1275C67.9844 25.3587 67.9438 25.6505 67.8287 25.6474C59.7558 24.3383 51.6586 24.3109 43.5817 25.3313C43.3595 25.3619 43.1372 25.3943 42.915 25.4267C42.8427 25.4367 42.7786 25.279 42.773 25.0577C42.7718 25.0066 42.774 24.9561 42.7792 24.9087C42.7765 24.5658 42.7759 24.2224 42.7742 23.8795C42.7703 23.139 42.7664 22.3984 42.7629 21.6579C42.7606 21.239 42.7596 20.8201 42.7564 20.4006C42.7564 20.395 42.7562 20.39 42.7562 20.3844C42.7562 20.3782 42.7562 20.3725 42.7562 20.3663C42.7554 20.1488 42.8076 19.9593 42.8818 19.948C42.8994 19.9449 42.9168 19.9536 42.9332 19.9717C43.3673 19.915 43.8015 19.8439 44.2359 19.7934C51.7259 18.9076 59.2291 18.9369 66.716 20.0129C67.0862 20.0715 67.4562 20.1276 67.8262 20.1943C67.8304 20.1949 67.8343 20.1968 67.838 20.1986C67.8401 20.198 67.842 20.198 67.844 20.198C67.9163 20.1992 67.9759 20.3819 67.9759 20.5988Z" fill="#5179C8"/>
</g>
</g>
<ellipse cx="41.5" cy="48.22" rx="2.5" ry="3.5" fill="white"/>
<ellipse cx="54.5" cy="48.22" rx="2.5" ry="3.5" fill="white"/>
<path d="M48.2024 98.3374C49.1356 98.8392 49.6937 99.1347 50.9224 99.7772C51.5273 100.096 52.0291 100.359 52.0385 100.363C52.0479 100.373 51.729 101.006 51.3304 101.775C50.9364 102.549 50.5331 103.337 50.444 103.529C50.3502 103.721 50.1157 104.209 49.9235 104.612C49.5108 105.47 49.4451 105.606 49.1028 106.39C47.9773 108.969 47.3254 110.91 46.2749 114.817C46.0267 115.74 44.4833 116.612 42.9826 116.199C41.6414 115.838 41.1012 114.948 41.6899 112.967C42.4355 110.458 43.7425 105.794 44.9243 103.224C45.4448 102.089 47.4989 97.9951 47.5458 97.9998C47.5599 97.9998 47.8553 98.1499 48.2024 98.3374Z" fill="#333333"/>
<path d="M56.1128 99.5132C57.104 99.4881 58.2417 99.4559 58.644 99.4411L59.3693 99.4208L59.3834 99.6326C59.3902 99.7505 59.4116 100.242 59.4312 100.725C59.4509 101.207 59.4918 101.914 59.5189 102.305C59.5497 102.69 59.5793 103.095 59.5836 103.199C59.6223 103.787 59.8694 105.487 60.0038 106.077C60.5464 108.496 61.3135 109.773 62.8668 110.839C62.8668 110.839 65.1169 112.011 64.1862 114.147C63.4448 115.849 62.0465 116.114 60.4188 115.222C59.8318 114.9 59.2777 114.569 58.8859 114.229C56.2273 111.913 54.9434 108.76 54.4782 103.422C54.3733 102.197 54.2522 99.6319 54.2947 99.5767C54.3023 99.5658 55.1216 99.5382 56.1128 99.5132Z" fill="#333333"/>
<defs>
<filter id="filter0_f_513_13657" x="7" y="81.2415" width="94.8849" height="64.8699" filterUnits="userSpaceOnUse" color-interpolation-filters="sRGB">
<feFlood flood-opacity="0" result="BackgroundImageFix"/>
<feBlend mode="normal" in="SourceGraphic" in2="BackgroundImageFix" result="shape"/>
<feGaussianBlur stdDeviation="10.5" result="effect1_foregroundBlur_513_13657"/>
</filter>
<filter id="filter1_d_513_13657" x="1" y="-7" width="107.86" height="150.43" filterUnits="userSpaceOnUse" color-interpolation-filters="sRGB">
<feFlood flood-opacity="0" result="BackgroundImageFix"/>
<feColorMatrix in="SourceAlpha" type="matrix" values="0 0 0 0 0 0 0 0 0 0 0 0 0 0 0 0 0 0 127 0" result="hardAlpha"/>
<feOffset dy="4"/>
<feGaussianBlur stdDeviation="16"/>
<feComposite in2="hardAlpha" operator="out"/>
<feColorMatrix type="matrix" values="0 0 0 0 0 0 0 0 0 0 0 0 0 0 0 0 0 0 0.15 0"/>
<feBlend mode="normal" in2="BackgroundImageFix" result="effect1_dropShadow_513_13657"/>
<feBlend mode="normal" in="SourceGraphic" in2="effect1_dropShadow_513_13657" result="shape"/>
</filter>
<filter id="filter2_d_513_13657" x="0.158813" y="-16.9829" width="109.539" height="82.5576" filterUnits="userSpaceOnUse" color-interpolation-filters="sRGB">
<feFlood flood-opacity="0" result="BackgroundImageFix"/>
<feColorMatrix in="SourceAlpha" type="matrix" values="0 0 0 0 0 0 0 0 0 0 0 0 0 0 0 0 0 0 127 0" result="hardAlpha"/>
<feOffset dy="4"/>
<feGaussianBlur stdDeviation="16"/>
<feComposite in2="hardAlpha" operator="out"/>
<feColorMatrix type="matrix" values="0 0 0 0 0 0 0 0 0 0 0 0 0 0 0 0 0 0 0.15 0"/>
<feBlend mode="normal" in2="BackgroundImageFix" result="effect1_dropShadow_513_13657"/>
<feBlend mode="normal" in="SourceGraphic" in2="effect1_dropShadow_513_13657" result="shape"/>
</filter>
</defs>
</svg>
