<svg width="114" height="142" viewBox="0 0 114 142" fill="none" xmlns="http://www.w3.org/2000/svg">
<g opacity="0.2" filter="url(#filter0_f_513_13050)">
<ellipse cx="55.9681" cy="108.676" rx="26.4424" ry="11.435" fill="black"/>
</g>
<g filter="url(#filter1_d_513_13050)">
<path d="M45.6399 42.7909C44.6267 42.9884 43.4293 43.2452 42.9687 43.3834C41.495 43.7785 38.6396 44.8451 38.5843 45.0031C38.5475 45.0821 38.4369 45.1611 38.3264 45.1611C38.1053 45.1611 36.1526 46.7807 35.7842 47.2745C35.1394 48.1633 34.6789 48.9139 34.6789 49.1114C34.6789 49.2102 34.6052 49.3089 34.5315 49.3089C34.0157 49.3089 32.763 54.5431 32.5788 57.5059C32.3761 60.5871 32.7998 86.5803 33.0762 88.8123C33.3709 91.0837 33.6657 92.5453 34.0157 93.4539C34.1446 93.7699 34.3657 94.3625 34.4946 94.7378C35.3973 97.266 37.8106 99.1621 41.495 100.209C45.5478 101.355 46.3215 101.414 57.0615 101.414C66.1066 101.414 68.133 101.315 70.2331 100.802C70.8963 100.624 71.8542 100.387 72.3516 100.268C72.8674 100.15 73.5306 99.9127 73.8622 99.7547C74.1754 99.5967 74.4886 99.4782 74.5438 99.4782C74.6175 99.4782 75.1886 99.2214 75.8149 98.9054C76.9203 98.3326 77.9703 97.345 78.9467 95.9229C79.5362 95.0538 80.4388 92.1305 80.7152 90.2146C80.8441 89.4048 80.9915 88.6542 81.0468 88.5357C81.1757 88.3382 81.5257 67.5792 81.5257 60.7649C81.5257 59.1848 81.4336 57.0911 81.3047 56.1233C81.0652 54.1876 80.5678 51.6989 80.3652 51.3829C80.2915 51.2643 80.1809 50.9286 80.1073 50.5928C79.7941 49.2497 77.1966 45.7536 76.4966 45.7536C76.386 45.7536 76.3123 45.6746 76.3123 45.5956C76.3123 45.3981 74.8202 44.5685 74.4886 44.5685C74.378 44.5685 74.1386 44.4895 73.9543 44.3908C73.7885 44.2723 73.0148 43.9957 72.2595 43.7785C71.5042 43.5414 70.6384 43.2649 70.3252 43.1662C68.3357 42.5341 65.9777 42.3958 56.7667 42.4156C48.6611 42.4353 47.2426 42.4748 45.6399 42.7909Z" fill="#333333"/>
</g>
<g filter="url(#filter2_d_513_13050)">
<mask id="mask0_513_13050" style="mask-type:luminance" maskUnits="userSpaceOnUse" x="33" y="28" width="47" height="19">
<path d="M33.5257 28.2415H79.4933V46.8607H33.5257V28.2415Z" fill="white"/>
</mask>
<g mask="url(#mask0_513_13050)">
<path d="M68.5945 35.3787C68.5963 35.3621 68.5984 35.3456 68.6013 35.3288C68.5984 35.3456 68.5961 35.3621 68.5945 35.3787ZM79.2099 44.5296C79.4804 45.7253 75.6131 45.9152 74.7778 46.0669C67.6957 46.7877 60.5619 46.8475 53.4489 46.8063C51.2017 46.7236 33.5392 46.6911 33.6855 44.667C33.6861 44.6668 33.6865 44.6668 33.6871 44.6668C33.6288 43.6536 36.338 43.486 37.0946 43.3341C38.4406 43.153 39.7933 43.0319 41.1471 42.9305C42.2509 42.849 43.356 42.7807 44.4613 42.7265C44.4162 41.8998 44.3677 41.073 44.3214 40.2465C44.2632 39.2066 44.2051 38.1668 44.1469 37.1267C44.0894 36.0972 44.0317 35.0674 43.9741 34.0377C43.9537 33.67 43.9336 33.3022 43.9125 32.9345C43.9096 32.8848 43.9162 32.8366 43.9307 32.7915C43.9282 32.7044 43.9286 32.6175 43.9336 32.5301C43.9665 31.8418 44.3524 31.232 44.8218 30.7502C45.8143 29.7335 47.2014 29.2311 48.5533 28.8971C49.1054 28.7719 49.6654 28.6885 50.2275 28.6252C50.2848 28.6012 50.3446 28.5902 50.4059 28.5803C50.4853 28.5674 50.5648 28.5554 50.6442 28.5447C50.7858 28.5256 50.9273 28.5078 51.0693 28.4913C51.347 28.459 51.6251 28.4325 51.9045 28.4122C52.4711 28.3717 53.0385 28.3369 53.6064 28.3116C54.1867 28.2856 54.7673 28.2657 55.3484 28.2603C55.9403 28.2549 56.5325 28.2624 57.1244 28.2744C57.6935 28.2856 58.2621 28.3092 58.8308 28.3315C59.3867 28.3534 59.9433 28.3696 60.4987 28.4023C61.0562 28.435 61.6129 28.4809 62.1696 28.526C62.4206 28.5463 62.6722 28.5641 62.9233 28.5856C62.9235 28.5856 62.9235 28.5856 62.9235 28.5856C62.9897 28.5832 63.0586 28.5937 63.1246 28.6038C63.2527 28.6161 63.3806 28.6295 63.5081 28.6452C63.5404 28.6494 63.5776 28.651 63.6103 28.6593C63.6211 28.662 63.6314 28.6649 63.6418 28.6678C63.8841 28.697 64.126 28.7274 64.3665 28.7698C65.7557 29.0275 67.393 29.5792 68.3377 30.6772C69.2163 31.5997 69.3883 32.8817 69.426 34.1035C69.4282 34.3769 69.4396 34.6506 69.4409 34.9242C69.4566 34.9697 69.4651 35.0184 69.4651 35.0687C69.4651 35.0767 69.4651 35.0848 69.4651 35.0929C69.4651 35.0931 69.4651 35.0933 69.4651 35.0935C69.4651 36.0829 69.4618 37.0725 69.4601 38.0621C69.4584 39.1247 69.4564 40.1873 69.4549 41.25C69.4541 41.7597 69.4533 42.2694 69.4522 42.7791C69.708 42.7933 69.9636 42.8101 70.2192 42.826C71.6063 42.9781 79.0445 43.1948 79.2099 44.5296Z" fill="#FFEAB2"/>
</g>
<mask id="mask1_513_13050" style="mask-type:luminance" maskUnits="userSpaceOnUse" x="44" y="36" width="26" height="7">
<path d="M44.2678 36.1091H69.5231V42.9318H44.2678V36.1091Z" fill="white"/>
</mask>
<g mask="url(#mask1_513_13050)">
<path d="M69.5016 37.8403C69.5016 38.377 69.4979 38.9131 69.496 39.4498C69.4938 40.1554 69.4913 40.861 69.4888 41.5673C69.488 41.8098 69.4871 42.0523 69.4863 42.2954V42.296C69.4863 42.3022 69.4863 42.3085 69.4863 42.3141C69.4863 42.3147 69.4863 42.3153 69.4863 42.3153C69.4863 42.3191 69.4863 42.3222 69.4863 42.3259C69.4863 42.3403 69.4863 42.3546 69.4861 42.3689C69.5101 42.6002 69.4695 42.8919 69.3545 42.8888C61.2815 41.5798 53.1844 41.5523 45.1075 42.5728C44.8852 42.6033 44.663 42.6357 44.4407 42.6681C44.3685 42.6781 44.3043 42.5204 44.2988 42.2991C44.2975 42.248 44.2998 42.1975 44.305 42.1501C44.3023 41.8073 44.3017 41.4638 44.3 41.121C44.2961 40.3804 44.2921 39.6399 44.2886 38.8993C44.2863 38.4805 44.2853 38.0616 44.2822 37.642C44.2822 37.6364 44.282 37.6314 44.282 37.6258C44.282 37.6196 44.282 37.614 44.282 37.6078C44.2812 37.3902 44.3333 37.2007 44.4076 37.1895C44.4252 37.1864 44.4426 37.1951 44.4589 37.2132C44.8931 37.1564 45.3273 37.0854 45.7616 37.0349C53.2516 36.1491 60.7549 36.1784 68.2418 37.2543C68.612 37.3129 68.982 37.369 69.352 37.4357C69.3561 37.4363 69.3601 37.4382 69.3638 37.4401C69.3659 37.4395 69.3677 37.4395 69.3698 37.4395C69.442 37.4407 69.5016 37.6233 69.5016 37.8403Z" fill="#27A924"/>
</g>
</g>
<ellipse cx="60.0257" cy="65.6338" rx="2.5" ry="3.5" fill="white"/>
<ellipse cx="73.0257" cy="65.6338" rx="2.5" ry="3.5" fill="white"/>
<path d="M64.7976 93.3374C63.8644 93.8392 63.3063 94.1347 62.0776 94.7772C61.4727 95.0961 60.9709 95.3587 60.9615 95.3634C60.9521 95.3728 61.271 96.0059 61.6696 96.775C62.0636 97.5488 62.4669 98.3366 62.556 98.5289C62.6498 98.7212 62.8843 99.2089 63.0765 99.6122C63.4892 100.47 63.5549 100.606 63.8972 101.39C65.0227 103.969 65.6746 105.91 66.7251 109.817C66.9733 110.74 68.5167 111.612 70.0174 111.199C71.3586 110.838 71.8988 109.948 71.3101 107.967C70.5645 105.458 69.2575 100.794 68.0757 98.2241C67.5552 97.0892 65.5011 92.9951 65.4542 92.9998C65.4401 92.9998 65.1447 93.1499 64.7976 93.3374Z" fill="#333333"/>
<path d="M56.8872 94.5132C55.896 94.4881 54.7583 94.4559 54.356 94.4411L53.6307 94.4208L53.6166 94.6326C53.6098 94.7505 53.5884 95.2422 53.5688 95.7246C53.5491 96.207 53.5082 96.9144 53.4811 97.3049C53.4503 97.6901 53.4207 98.0945 53.4164 98.1986C53.3777 98.7872 53.1306 100.487 52.9962 101.077C52.4536 103.496 51.6865 104.773 50.1332 105.839C50.1332 105.839 47.8831 107.011 48.8138 109.147C49.5552 110.849 50.9535 111.114 52.5812 110.222C53.1682 109.9 53.7223 109.569 54.1141 109.229C56.7727 106.913 58.0566 103.76 58.5218 98.4219C58.6267 97.1972 58.7478 94.6319 58.7053 94.5767C58.6977 94.5658 57.8784 94.5382 56.8872 94.5132Z" fill="#333333"/>
<defs>
<filter id="filter0_f_513_13050" x="8.5257" y="76.2415" width="94.8849" height="64.8699" filterUnits="userSpaceOnUse" color-interpolation-filters="sRGB">
<feFlood flood-opacity="0" result="BackgroundImageFix"/>
<feBlend mode="normal" in="SourceGraphic" in2="BackgroundImageFix" result="shape"/>
<feGaussianBlur stdDeviation="10.5" result="effect1_foregroundBlur_513_13050"/>
</filter>
<filter id="filter1_d_513_13050" x="0.525696" y="14.4138" width="113" height="123" filterUnits="userSpaceOnUse" color-interpolation-filters="sRGB">
<feFlood flood-opacity="0" result="BackgroundImageFix"/>
<feColorMatrix in="SourceAlpha" type="matrix" values="0 0 0 0 0 0 0 0 0 0 0 0 0 0 0 0 0 0 127 0" result="hardAlpha"/>
<feOffset dy="4"/>
<feGaussianBlur stdDeviation="16"/>
<feComposite in2="hardAlpha" operator="out"/>
<feColorMatrix type="matrix" values="0 0 0 0 0 0 0 0 0 0 0 0 0 0 0 0 0 0 0.15 0"/>
<feBlend mode="normal" in2="BackgroundImageFix" result="effect1_dropShadow_513_13050"/>
<feBlend mode="normal" in="SourceGraphic" in2="effect1_dropShadow_513_13050" result="shape"/>
</filter>
<filter id="filter2_d_513_13050" x="1.68457" y="0.258545" width="109.539" height="82.5576" filterUnits="userSpaceOnUse" color-interpolation-filters="sRGB">
<feFlood flood-opacity="0" result="BackgroundImageFix"/>
<feColorMatrix in="SourceAlpha" type="matrix" values="0 0 0 0 0 0 0 0 0 0 0 0 0 0 0 0 0 0 127 0" result="hardAlpha"/>
<feOffset dy="4"/>
<feGaussianBlur stdDeviation="16"/>
<feComposite in2="hardAlpha" operator="out"/>
<feColorMatrix type="matrix" values="0 0 0 0 0 0 0 0 0 0 0 0 0 0 0 0 0 0 0.15 0"/>
<feBlend mode="normal" in2="BackgroundImageFix" result="effect1_dropShadow_513_13050"/>
<feBlend mode="normal" in="SourceGraphic" in2="effect1_dropShadow_513_13050" result="shape"/>
</filter>
</defs>
</svg>
