<svg width="100" height="169" viewBox="0 0 100 169" fill="none" xmlns="http://www.w3.org/2000/svg">
<g opacity="0.2" filter="url(#filter0_f_224_7121)">
<ellipse cx="49.4424" cy="130.849" rx="26.4424" ry="11.435" fill="black"/>
</g>
<g filter="url(#filter1_d_224_7121)">
<path d="M47.039 38.3792C40.945 39.6719 35.6205 43.7037 33.1276 48.9051C30.9731 53.3986 30.296 58.4154 29.8959 73.1578C29.8036 76.2971 29.6805 79.1901 29.5882 79.621C29.4343 80.4828 28.8187 87.9309 28.6341 91.1626C28.5725 92.3321 28.3878 94.6404 28.2339 96.2409C27.6492 102.458 28.1416 106.951 29.9267 111.383C32.8506 118.585 36.0822 121.386 44.2998 123.91C47.2544 124.833 52.7328 124.833 55.749 123.91C61.1351 122.248 63.351 121.078 65.844 118.493C67.4752 116.831 68.1523 115.754 69.8143 112.06C71.7533 107.782 72.0303 105.997 71.7841 98.5492C71.5686 91.5319 71.4763 89.9315 71.1685 88.0848C70.8915 86.2074 70.3991 78.4515 70.2144 73.1578C69.8759 63.2782 69.722 60.6006 69.2603 57.6151C68.1523 50.4748 66.8597 47.5201 63.4741 44.1346C60.9504 41.5801 58.8575 40.2566 55.5643 39.1179C53.1021 38.2561 49.2242 37.9176 47.039 38.3792Z" fill="#333333"/>
<path d="M42.4869 116.85C42.2605 116.925 41.858 117.177 41.5938 117.391C40.751 118.095 40.7385 118.271 40.7762 124.409C40.8014 127.554 40.8643 130.12 40.9397 130.548C41.3548 132.736 43.8202 133.516 45.2038 131.894C45.4177 131.655 45.6189 131.277 45.6818 131.076C45.8202 130.523 45.8579 124.736 45.7447 121.378C45.6567 118.56 45.6441 118.472 45.3296 117.969C44.9648 117.391 44.512 117.038 43.8705 116.825C43.3422 116.636 43.0403 116.648 42.4869 116.85Z" fill="#333333"/>
<path d="M55.8705 116.85C55.3422 117.076 54.7007 117.642 54.4742 118.083C54.1724 118.674 54.0466 120.913 54.0466 126.12V130.988L54.4617 131.592C55.6315 133.353 58.0465 133.064 58.8012 131.076C59.0654 130.359 59.1031 129.63 59.1157 124.196C59.1409 118.8 59.1283 118.749 58.8516 118.158C58.2981 116.988 56.9271 116.384 55.8705 116.85Z" fill="#333333"/>
</g>
<g filter="url(#filter2_d_224_7121)">
<mask id="mask0_224_7121" style="mask-type:luminance" maskUnits="userSpaceOnUse" x="27" y="28" width="46" height="19">
<path d="M27 28.1724H72.9676V46.7916H27V28.1724Z" fill="white"/>
</mask>
<g mask="url(#mask0_224_7121)">
<path d="M62.0688 35.3096C62.0706 35.293 62.0727 35.2765 62.0756 35.2597C62.0727 35.2765 62.0704 35.293 62.0688 35.3096ZM72.6842 44.4605C72.9547 45.6562 69.0874 45.8462 68.2522 45.9978C61.17 46.7186 54.0362 46.7784 46.9232 46.7372C44.676 46.6545 27.0135 46.622 27.1598 44.5979C27.1604 44.5977 27.1608 44.5977 27.1614 44.5977C27.1031 43.5845 29.8123 43.4169 30.5689 43.265C31.9149 43.0839 33.2676 42.9628 34.6214 42.8614C35.7253 42.7799 36.8303 42.7116 37.9356 42.6574C37.8905 41.8307 37.842 41.0039 37.7957 40.1774C37.7375 39.1376 37.6794 38.0977 37.6212 37.0576C37.5637 36.0281 37.506 34.9983 37.4484 33.9686C37.428 33.6009 37.4079 33.2331 37.3868 32.8654C37.3839 32.8157 37.3905 32.7675 37.405 32.7224C37.4025 32.6353 37.4029 32.5484 37.4079 32.461C37.4408 31.7727 37.8267 31.1629 38.2961 30.6811C39.2886 29.6644 40.6757 29.162 42.0276 28.828C42.5797 28.7028 43.1397 28.6194 43.7018 28.5561C43.7591 28.5321 43.8189 28.5211 43.8802 28.5112C43.9596 28.4983 44.0391 28.4863 44.1186 28.4756C44.2601 28.4565 44.4016 28.4387 44.5436 28.4222C44.8213 28.3899 45.0994 28.3634 45.3788 28.3431C45.9454 28.3026 46.5129 28.2678 47.0807 28.2426C47.661 28.2165 48.2416 28.1966 48.8227 28.1912C49.4146 28.1859 50.0068 28.1933 50.5987 28.2053C51.1678 28.2165 51.7364 28.2401 52.3051 28.2624C52.861 28.2844 53.4176 28.3005 53.9731 28.3332C54.5306 28.3659 55.0872 28.4118 55.6439 28.4569C55.8949 28.4772 56.1465 28.495 56.3976 28.5165C56.3978 28.5165 56.3978 28.5165 56.3978 28.5165C56.464 28.5141 56.5329 28.5246 56.5989 28.5348C56.727 28.547 56.8549 28.5604 56.9824 28.5761C57.0147 28.5803 57.0519 28.5819 57.0846 28.5902C57.0954 28.5929 57.1057 28.5958 57.1161 28.5987C57.3584 28.6279 57.6003 28.6583 57.8408 28.7007C59.23 28.9584 60.8673 29.5101 61.812 30.6081C62.6906 31.5306 62.8626 32.8126 62.9003 34.0344C62.9025 34.3078 62.9139 34.5816 62.9152 34.8551C62.9309 34.9007 62.9394 34.9493 62.9394 34.9996C62.9394 35.0076 62.9394 35.0157 62.9394 35.0238C62.9394 35.024 62.9394 35.0242 62.9394 35.0244C62.9394 36.0138 62.9361 37.0034 62.9344 37.993C62.9328 39.0556 62.9307 40.1182 62.9292 41.1809C62.9284 41.6906 62.9276 42.2003 62.9265 42.71C63.1823 42.7242 63.4379 42.741 63.6935 42.7569C65.0806 42.909 72.5189 43.1257 72.6842 44.4605Z" fill="#FFEAB2"/>
</g>
<mask id="mask1_224_7121" style="mask-type:luminance" maskUnits="userSpaceOnUse" x="37" y="36" width="26" height="7">
<path d="M37.7421 36.04H62.9974V42.8627H37.7421V36.04Z" fill="white"/>
</mask>
<g mask="url(#mask1_224_7121)">
<path d="M62.9759 37.7712C62.9759 38.3079 62.9722 38.844 62.9703 39.3807C62.9681 40.0863 62.9656 40.792 62.9631 41.4982C62.9623 41.7407 62.9614 41.9832 62.9606 42.2263V42.2269C62.9606 42.2331 62.9606 42.2394 62.9606 42.245C62.9606 42.2456 62.9606 42.2462 62.9606 42.2462C62.9606 42.25 62.9606 42.2531 62.9606 42.2568C62.9606 42.2712 62.9606 42.2855 62.9604 42.2998C62.9844 42.5311 62.9438 42.8229 62.8288 42.8197C54.7558 41.5107 46.6587 41.4833 38.5818 42.5037C38.3595 42.5342 38.1373 42.5666 37.915 42.5991C37.8428 42.609 37.7787 42.4513 37.7731 42.23C37.7718 42.1789 37.7741 42.1284 37.7793 42.081C37.7766 41.7382 37.776 41.3947 37.7743 41.0519C37.7704 40.3114 37.7664 39.5708 37.7629 38.8303C37.7607 38.4114 37.7596 37.9925 37.7565 37.573C37.7565 37.5673 37.7563 37.5624 37.7563 37.5567C37.7563 37.5505 37.7563 37.5449 37.7563 37.5387C37.7555 37.3211 37.8076 37.1316 37.8819 37.1204C37.8995 37.1173 37.9169 37.126 37.9332 37.1441C38.3674 37.0874 38.8016 37.0163 39.2359 36.9658C46.7259 36.08 54.2292 36.1093 61.7161 37.1852C62.0863 37.2438 62.4563 37.2999 62.8263 37.3666C62.8304 37.3673 62.8344 37.3691 62.8381 37.371C62.8402 37.3704 62.842 37.3704 62.8441 37.3704C62.9163 37.3716 62.9759 37.5542 62.9759 37.7712Z" fill="#5179C8"/>
</g>
</g>
<ellipse cx="36.5" cy="65.3923" rx="2.5" ry="3.5" fill="white"/>
<ellipse cx="49.5" cy="65.3923" rx="2.5" ry="3.5" fill="white"/>
<defs>
<filter id="filter0_f_224_7121" x="2" y="98.4138" width="94.8849" height="64.8699" filterUnits="userSpaceOnUse" color-interpolation-filters="sRGB">
<feFlood flood-opacity="0" result="BackgroundImageFix"/>
<feBlend mode="normal" in="SourceGraphic" in2="BackgroundImageFix" result="shape"/>
<feGaussianBlur stdDeviation="10.5" result="effect1_foregroundBlur_224_7121"/>
</filter>
<filter id="filter1_d_224_7121" x="-4" y="10.1724" width="107.86" height="158.586" filterUnits="userSpaceOnUse" color-interpolation-filters="sRGB">
<feFlood flood-opacity="0" result="BackgroundImageFix"/>
<feColorMatrix in="SourceAlpha" type="matrix" values="0 0 0 0 0 0 0 0 0 0 0 0 0 0 0 0 0 0 127 0" result="hardAlpha"/>
<feOffset dy="4"/>
<feGaussianBlur stdDeviation="16"/>
<feComposite in2="hardAlpha" operator="out"/>
<feColorMatrix type="matrix" values="0 0 0 0 0 0 0 0 0 0 0 0 0 0 0 0 0 0 0.15 0"/>
<feBlend mode="normal" in2="BackgroundImageFix" result="effect1_dropShadow_224_7121"/>
<feBlend mode="normal" in="SourceGraphic" in2="effect1_dropShadow_224_7121" result="shape"/>
</filter>
<filter id="filter2_d_224_7121" x="-4.84113" y="0.189453" width="109.539" height="82.5576" filterUnits="userSpaceOnUse" color-interpolation-filters="sRGB">
<feFlood flood-opacity="0" result="BackgroundImageFix"/>
<feColorMatrix in="SourceAlpha" type="matrix" values="0 0 0 0 0 0 0 0 0 0 0 0 0 0 0 0 0 0 127 0" result="hardAlpha"/>
<feOffset dy="4"/>
<feGaussianBlur stdDeviation="16"/>
<feComposite in2="hardAlpha" operator="out"/>
<feColorMatrix type="matrix" values="0 0 0 0 0 0 0 0 0 0 0 0 0 0 0 0 0 0 0.15 0"/>
<feBlend mode="normal" in2="BackgroundImageFix" result="effect1_dropShadow_224_7121"/>
<feBlend mode="normal" in="SourceGraphic" in2="effect1_dropShadow_224_7121" result="shape"/>
</filter>
</defs>
</svg>
