<svg width="110" height="109" viewBox="0 0 110 109" fill="none" xmlns="http://www.w3.org/2000/svg">
<path d="M39.1292 44.3312C33.4025 44.8532 31.1616 45.7365 29.3476 48.1053C27.3557 50.6347 27 51.799 27 55.5329C27 60.1902 27.8181 62.4787 37.3507 83.8381C40.1607 90.1014 43.0418 95.5216 44.5713 97.2881C46.8477 99.8978 48.3061 100.299 55.7756 100.299C61.7869 100.299 61.8224 100.299 63.9566 99.0948C65.7351 98.0911 66.3753 97.4086 67.9404 94.8792C69.7189 91.9483 80.0695 69.1033 82.2037 63.3218C84.2667 57.7812 84.4446 54.0072 82.9151 50.5142C80.9944 46.2182 78.7535 45.0138 71.2483 44.3312C66.5176 43.8896 43.7532 43.8896 39.1292 44.3312Z" fill="#333333"/>
<path d="M47.4869 92.6774C47.2605 92.7529 46.858 93.0044 46.5938 93.2183C45.751 93.9227 45.7385 94.0988 45.7762 100.237C45.8014 103.382 45.8643 105.948 45.9397 106.375C46.3548 108.564 48.8202 109.344 50.2038 107.721C50.4177 107.482 50.6189 107.105 50.6818 106.904C50.8202 106.35 50.8579 100.564 50.7447 97.2057C50.6567 94.3881 50.6441 94.3 50.3296 93.7969C49.9649 93.2183 49.512 92.8661 48.8705 92.6522C48.3422 92.4636 48.0403 92.4761 47.4869 92.6774Z" fill="#333333"/>
<path d="M60.8703 92.6775C60.342 92.9039 59.7005 93.47 59.4741 93.9102C59.1722 94.5014 59.0464 96.7404 59.0464 101.948V106.816L59.4615 107.42C60.6313 109.181 63.0464 108.891 63.8011 106.904C64.0652 106.187 64.103 105.457 64.1155 100.023C64.1407 94.6272 64.1281 94.5769 63.8514 93.9857C63.2979 92.8159 61.9269 92.2121 60.8703 92.6775Z" fill="#333333"/>
<ellipse cx="57.5" cy="68.2249" rx="2.5" ry="3.5" fill="white"/>
<ellipse cx="70.5" cy="68.2249" rx="2.5" ry="3.5" fill="white"/>
<g filter="url(#filter0_d_888_21743)">
<mask id="mask0_888_21743" style="mask-type:luminance" maskUnits="userSpaceOnUse" x="32" y="28" width="46" height="19">
<path d="M32 28H77.9676V46.6193H32V28Z" fill="white"/>
</mask>
<g mask="url(#mask0_888_21743)">
<path d="M67.0686 35.1372C67.0705 35.1207 67.0725 35.1041 67.0754 35.0873C67.0725 35.1041 67.0702 35.1207 67.0686 35.1372ZM77.684 44.2881C77.9545 45.4838 74.0872 45.6738 73.252 45.8255C66.1698 46.5463 59.036 46.6061 51.923 46.5649C49.6759 46.4821 32.0133 46.4496 32.1596 44.4255C32.1602 44.4253 32.1606 44.4253 32.1612 44.4253C32.1029 43.4121 34.8122 43.2445 35.5687 43.0926C36.9147 42.9115 38.2674 42.7905 39.6212 42.6891C40.7251 42.6075 41.8301 42.5393 42.9354 42.485C42.8903 41.6583 42.8419 40.8316 42.7955 40.0051C42.7374 38.9652 42.6792 37.9253 42.6211 36.8852C42.5635 35.8557 42.5058 34.826 42.4483 33.7962C42.4278 33.4285 42.4077 33.0608 42.3866 32.693C42.3837 32.6434 42.3903 32.5951 42.4048 32.55C42.4023 32.4629 42.4027 32.376 42.4077 32.2887C42.4406 31.6004 42.8265 30.9905 43.2959 30.5088C44.2884 29.4921 45.6755 28.9896 47.0274 28.6556C47.5796 28.5304 48.1395 28.447 48.7016 28.3837C48.7589 28.3597 48.8187 28.3487 48.88 28.3388C48.9594 28.326 49.0389 28.314 49.1184 28.3032C49.2599 28.2842 49.4015 28.2664 49.5434 28.2498C49.8211 28.2175 50.0993 28.191 50.3786 28.1708C50.9452 28.1302 51.5127 28.0954 52.0805 28.0702C52.6608 28.0441 53.2414 28.0242 53.8225 28.0189C54.4144 28.0135 55.0067 28.0209 55.5985 28.0329C56.1676 28.0441 56.7363 28.0677 57.3049 28.0901C57.8608 28.112 58.4174 28.1281 58.9729 28.1608C59.5304 28.1935 60.087 28.2395 60.6437 28.2846C60.8947 28.3049 61.1464 28.3227 61.3974 28.3442C61.3976 28.3442 61.3976 28.3442 61.3976 28.3442C61.4638 28.3417 61.5327 28.3522 61.5987 28.3624C61.7268 28.3746 61.8547 28.388 61.9822 28.4038C62.0145 28.4079 62.0517 28.4096 62.0844 28.4178C62.0952 28.4205 62.1055 28.4234 62.1159 28.4263C62.3582 28.4555 62.6001 28.4859 62.8406 28.5284C64.2298 28.786 65.8671 29.3377 66.8118 30.4357C67.6905 31.3583 67.8624 32.6403 67.9001 33.862C67.9024 34.1354 67.9137 34.4092 67.915 34.6828C67.9307 34.7283 67.9392 34.7769 67.9392 34.8272C67.9392 34.8353 67.9392 34.8433 67.9392 34.8514C67.9392 34.8516 67.9392 34.8518 67.9392 34.852C67.9392 35.8414 67.9359 36.831 67.9342 37.8206C67.9326 38.8832 67.9305 39.9459 67.9291 41.0085C67.9282 41.5182 67.9274 42.0279 67.9264 42.5376C68.1821 42.5519 68.4377 42.5686 68.6933 42.5846C70.0804 42.7367 77.5187 42.9534 77.684 44.2881Z" fill="#FFEAB2"/>
</g>
<mask id="mask1_888_21743" style="mask-type:luminance" maskUnits="userSpaceOnUse" x="42" y="35" width="26" height="8">
<path d="M42.7422 35.8677H67.9975V42.6903H42.7422V35.8677Z" fill="white"/>
</mask>
<g mask="url(#mask1_888_21743)">
<path d="M67.976 37.5988C67.976 38.1355 67.9723 38.6716 67.9704 39.2083C67.9681 39.914 67.9656 40.6196 67.9632 41.3259C67.9623 41.5683 67.9615 41.8108 67.9607 42.0539V42.0546C67.9607 42.0608 67.9607 42.067 67.9607 42.0726C67.9607 42.0733 67.9607 42.0739 67.9607 42.0739C67.9607 42.0776 67.9607 42.0807 67.9607 42.0845C67.9607 42.0988 67.9607 42.1132 67.9605 42.1275C67.9845 42.3587 67.9439 42.6505 67.8289 42.6474C59.7559 41.3383 51.6587 41.3109 43.5819 42.3313C43.3596 42.3619 43.1373 42.3943 42.9151 42.4267C42.8429 42.4367 42.7787 42.279 42.7731 42.0577C42.7719 42.0066 42.7742 41.9561 42.7793 41.9087C42.7766 41.5658 42.776 41.2224 42.7744 40.8795C42.7704 40.139 42.7665 39.3984 42.763 38.6579C42.7607 38.239 42.7597 37.8201 42.7566 37.4006C42.7566 37.395 42.7564 37.39 42.7564 37.3844C42.7564 37.3782 42.7564 37.3725 42.7564 37.3663C42.7555 37.1488 42.8077 36.9593 42.882 36.948C42.8996 36.9449 42.9169 36.9536 42.9333 36.9717C43.3675 36.915 43.8016 36.8439 44.236 36.7934C51.726 35.9076 59.2292 35.9369 66.7161 37.0129C67.0863 37.0715 67.4564 37.1276 67.8264 37.1943C67.8305 37.1949 67.8344 37.1968 67.8382 37.1986C67.8402 37.198 67.8421 37.198 67.8442 37.198C67.9164 37.1992 67.976 37.3819 67.976 37.5988Z" fill="#814747"/>
</g>
</g>
<defs>
<filter id="filter0_d_888_21743" x="0.158691" y="0.0170898" width="109.539" height="82.5576" filterUnits="userSpaceOnUse" color-interpolation-filters="sRGB">
<feFlood flood-opacity="0" result="BackgroundImageFix"/>
<feColorMatrix in="SourceAlpha" type="matrix" values="0 0 0 0 0 0 0 0 0 0 0 0 0 0 0 0 0 0 127 0" result="hardAlpha"/>
<feOffset dy="4"/>
<feGaussianBlur stdDeviation="16"/>
<feComposite in2="hardAlpha" operator="out"/>
<feColorMatrix type="matrix" values="0 0 0 0 0 0 0 0 0 0 0 0 0 0 0 0 0 0 0.15 0"/>
<feBlend mode="normal" in2="BackgroundImageFix" result="effect1_dropShadow_888_21743"/>
<feBlend mode="normal" in="SourceGraphic" in2="effect1_dropShadow_888_21743" result="shape"/>
</filter>
</defs>
</svg>
