<svg width="100" height="140" viewBox="0 0 100 140" fill="none" xmlns="http://www.w3.org/2000/svg">
<g opacity="0.2" filter="url(#filter0_f_224_6402)">
<ellipse cx="49.4424" cy="101.435" rx="26.4424" ry="11.435" fill="black"/>
</g>
<g filter="url(#filter1_d_224_6402)">
<path d="M47.8631 40.0525C45.7114 40.1887 44.6355 40.3112 44.3223 40.4474C44.1725 40.5155 43.8729 40.5972 43.6414 40.6245C43.4235 40.6653 42.6473 40.856 41.9391 41.0466C41.231 41.2509 40.482 41.4552 40.2777 41.496C40.0598 41.5369 39.8964 41.6186 39.8964 41.6867C39.8964 41.7548 39.7738 41.8093 39.624 41.8093C39.4742 41.8093 39.2427 41.8637 39.1065 41.9318C38.9839 41.9999 38.6299 42.1633 38.3303 42.2859C37.3225 42.7081 34.7078 44.0427 34.4763 44.2606C34.3537 44.3695 34.0813 44.5465 33.8907 44.6419C33.7 44.7508 33.3596 44.9823 33.1553 45.1594C32.951 45.3364 32.7331 45.4862 32.6787 45.4862C32.6378 45.4862 32.4744 45.5952 32.3246 45.7177C32.1884 45.8539 31.8207 46.1399 31.5211 46.3714C30.7993 46.9161 27.9395 49.776 27.422 50.4569C27.2041 50.7565 26.9181 51.1242 26.7955 51.2604C26.6594 51.4102 26.5504 51.5736 26.5504 51.6145C26.5504 51.6689 26.4006 51.8868 26.21 52.1047C26.0193 52.3226 25.8695 52.5814 25.8695 52.6631C25.8695 52.7584 25.815 52.8401 25.7333 52.8401C25.6652 52.8401 25.5971 52.9218 25.5971 53.0308C25.5971 53.1397 25.5563 53.2486 25.4882 53.2759C25.3248 53.344 24.3715 55.019 24.3715 55.2369C24.3715 55.3459 24.317 55.4276 24.2353 55.4276C24.1672 55.4276 24.0991 55.5501 24.0991 55.6999C24.0991 55.8498 24.0446 55.9723 23.9629 55.9723C23.8948 55.9723 23.8267 56.0404 23.8267 56.1085C23.8267 56.1902 23.6769 56.5579 23.4863 56.9528C23.2956 57.3341 23.1458 57.7427 23.1458 57.838C23.1458 57.9334 23.0914 58.0151 23.0096 58.0151C22.9416 58.0151 22.8735 58.1512 22.8735 58.3283C22.8735 58.5053 22.819 58.696 22.7509 58.7641C22.6828 58.8458 22.4649 59.3905 22.2606 59.9897C22.07 60.5889 21.8521 61.1881 21.784 61.3107C21.7023 61.4469 21.6478 61.6784 21.6478 61.8146C21.6478 61.9644 21.5933 62.1278 21.5116 62.1686C21.4435 62.2095 21.3755 62.4683 21.3755 62.727C21.3755 62.9857 21.321 63.19 21.2665 63.19C21.212 63.19 21.0758 63.5713 20.9805 64.0344C20.8852 64.511 20.7218 65.2055 20.6128 65.6005C20.5039 65.9818 20.4222 66.5401 20.4222 66.8261C20.4222 67.1121 20.3677 67.4117 20.2996 67.4798C20.1634 67.6296 20 69.8085 20 71.4972C20 74.3843 20.6401 77.6799 21.5253 79.4231C21.5933 79.5592 21.6478 79.7635 21.6478 79.8725C21.6478 79.9814 21.7159 80.0767 21.784 80.0767C21.8657 80.0767 21.9202 80.1857 21.9202 80.3082C21.9338 80.4444 22.1108 80.853 22.3424 81.2343C22.5602 81.602 22.7781 82.0242 22.8326 82.1467C22.8735 82.2829 22.9552 82.3919 23.0233 82.3919C23.0914 82.3919 23.1458 82.4463 23.1458 82.528C23.1458 82.6778 24.1127 84.0669 24.2625 84.135C24.3306 84.1622 24.3715 84.2576 24.3715 84.3393C24.3715 84.5572 27.6943 87.8119 28.348 88.2477C28.634 88.4384 28.8655 88.629 28.8655 88.6835C28.8655 88.7516 28.9609 88.7925 29.0698 88.7925C29.1787 88.7925 29.2741 88.8469 29.2741 88.9286C29.2741 88.9967 29.3558 89.0648 29.4511 89.0648C29.5464 89.0648 29.7507 89.1738 29.9005 89.31C30.0367 89.4325 30.418 89.664 30.7312 89.8138C31.0581 89.9636 31.3168 90.1271 31.3168 90.1815C31.3168 90.2496 31.4394 90.2905 31.5892 90.2905C31.739 90.2905 31.8616 90.345 31.8616 90.4267C31.8616 90.4948 31.9705 90.5628 32.1067 90.5628C32.2429 90.5628 32.4063 90.6173 32.488 90.6718C32.5561 90.7399 33.0463 90.9578 33.5638 91.1621C34.095 91.3799 34.6261 91.5978 34.7486 91.6659C34.8848 91.734 35.1163 91.7885 35.2661 91.7885C35.4159 91.7885 35.5385 91.843 35.5385 91.9247C35.5385 91.9928 35.6883 92.0609 35.879 92.0609C36.0696 92.0609 36.3284 92.1153 36.4645 92.197C36.805 92.3877 38.3847 92.878 38.9839 92.9733C39.2563 93.0141 39.4878 93.0959 39.4878 93.1503C39.4878 93.2048 39.7193 93.2865 40.0053 93.3274C40.2777 93.3682 41.2446 93.5589 42.1434 93.7495C44.118 94.1989 45.3301 94.376 46.7736 94.4577C47.3728 94.4985 47.9856 94.5802 48.1491 94.662C48.5576 94.8662 52.1528 94.6483 54.7403 94.2534C55.6255 94.1308 57.3278 93.7768 58.3492 93.5316C58.6488 93.4635 59.1254 93.3682 59.4114 93.3274C59.6838 93.2865 59.9153 93.2048 59.9153 93.1367C59.9153 93.0686 60.0651 93.0141 60.2421 93.0141C60.5826 93.0141 63.4697 92.1426 63.8918 91.9111C64.028 91.843 64.2595 91.7885 64.4093 91.7885C64.5591 91.7885 64.6817 91.7204 64.6817 91.6523C64.6817 91.5706 64.8043 91.5161 64.9541 91.5161C65.1039 91.5161 65.5805 91.3527 66.0027 91.1484C67.705 90.3722 68.5629 89.95 68.631 89.8683C68.6719 89.8275 68.917 89.6777 69.1894 89.5551C69.4617 89.4325 69.8158 89.201 69.9656 89.0648C70.129 88.915 70.2924 88.7925 70.3333 88.7925C70.3878 88.7925 70.5103 88.7108 70.6057 88.629C70.9053 88.3567 71.1096 88.2069 71.627 87.8392C72.2399 87.4034 74.446 85.2108 74.9635 84.5027C75.195 84.2031 75.481 83.8354 75.6172 83.6992C75.7398 83.5494 75.8487 83.3724 75.8487 83.3179C75.8487 83.2498 75.9577 83.0864 76.0939 82.9366C76.2164 82.8004 76.4479 82.4463 76.5977 82.1603C76.7475 81.8744 76.8973 81.6156 76.9382 81.5748C77.0744 81.4522 77.8642 79.7363 77.9596 79.355C78.014 79.1507 78.1094 78.9464 78.1775 78.9056C78.2455 78.8647 78.3 78.6877 78.3 78.497C78.3 78.32 78.3681 78.1702 78.4362 78.1702C78.5179 78.1702 78.5724 77.9931 78.5724 77.7752C78.5724 77.5437 78.6269 77.3258 78.7086 77.285C78.7767 77.2441 78.8448 77.0671 78.8448 76.9173C78.8448 76.7539 78.8992 76.4406 78.9809 76.2091C79.1852 75.5146 79.5257 72.5867 79.5257 71.4291C79.5257 69.6179 79.0218 65.8047 78.695 65.2055C78.6269 65.0694 78.5724 64.7289 78.5724 64.4429C78.5724 64.1569 78.5179 63.8709 78.4498 63.7892C78.3953 63.7211 78.2319 63.2717 78.1094 62.7815C77.7825 61.5831 77.5783 60.9702 77.4557 60.8068C77.4012 60.7387 77.3467 60.5072 77.3467 60.3029C77.3467 60.0987 77.2923 59.9216 77.2106 59.9216C77.1425 59.9216 77.0744 59.7718 77.0744 59.5812C77.0744 59.3905 77.0335 59.2407 76.9654 59.2407C76.9109 59.2407 76.7884 58.9956 76.7067 58.696C76.4207 57.8244 74.8954 54.5696 74.732 54.5015C74.6639 54.4743 74.6231 54.3654 74.6231 54.2564C74.6231 54.1475 74.5686 54.0658 74.4869 54.0658C74.4188 54.0658 74.3507 53.9432 74.3507 53.807C74.3507 53.6572 74.3099 53.521 74.2554 53.4938C74.1192 53.4393 73.3974 52.3362 73.3974 52.1864C73.3974 52.1319 73.2749 51.9958 73.1251 51.8868C72.9753 51.7779 72.8527 51.6417 72.8527 51.5736C72.8527 51.2195 69.2575 47.3383 68.2906 46.6438C68.0727 46.494 67.7731 46.2488 67.6233 46.099C67.4598 45.9492 66.956 45.5815 66.4929 45.2819C66.0163 44.9823 65.635 44.6963 65.635 44.6283C65.635 44.5738 65.5669 44.5329 65.4852 44.5329C65.4035 44.5329 65.172 44.424 64.9813 44.2742C64.6681 44.0563 64.0416 43.7158 62.5709 42.9396C62.4211 42.8579 61.9036 42.6264 61.4133 42.4221C60.923 42.2178 60.4192 41.9999 60.2966 41.9318C60.1604 41.8637 59.9561 41.8093 59.8472 41.8093C59.7383 41.8093 59.6429 41.7412 59.6429 41.6731C59.6429 41.5914 59.4659 41.5369 59.2616 41.5369C59.0573 41.5369 58.8258 41.4824 58.7441 41.4143C58.676 41.3599 58.1585 41.1964 57.6002 41.0603C57.0418 40.9377 56.4699 40.7743 56.3473 40.7062C56.2111 40.6381 55.8843 40.5836 55.6255 40.5836C55.3668 40.5836 55.1489 40.5155 55.1489 40.4474C55.1489 40.3657 54.822 40.3112 54.4407 40.3112C54.0458 40.3112 53.5011 40.2568 53.2423 40.1887C52.575 40.0116 49.6471 39.9436 47.8631 40.0525Z" fill="#333333"/>
<path d="M42.4869 87.6774C42.2605 87.7529 41.858 88.0044 41.5938 88.2183C40.751 88.9227 40.7385 89.0988 40.7762 95.2371C40.8014 98.3817 40.8643 100.948 40.9397 101.375C41.3548 103.564 43.8202 104.344 45.2038 102.721C45.4177 102.482 45.6189 102.105 45.6818 101.904C45.8202 101.35 45.8579 95.5641 45.7447 92.2057C45.6567 89.3881 45.6441 89.3 45.3296 88.7969C44.9648 88.2183 44.512 87.8661 43.8705 87.6522C43.3422 87.4636 43.0403 87.4761 42.4869 87.6774Z" fill="#333333"/>
<path d="M55.8705 87.6775C55.3422 87.9039 54.7007 88.47 54.4742 88.9102C54.1724 89.5014 54.0466 91.7404 54.0466 96.9479V101.816L54.4617 102.42C55.6315 104.181 58.0465 103.891 58.8012 101.904C59.0654 101.187 59.1031 100.457 59.1157 95.0234C59.1409 89.6272 59.1283 89.5769 58.8516 88.9857C58.2981 87.8159 56.9271 87.2121 55.8705 87.6775Z" fill="#333333"/>
<ellipse cx="43.5" cy="64.2249" rx="2.5" ry="3.5" fill="white"/>
<ellipse cx="56.5" cy="64.2249" rx="2.5" ry="3.5" fill="white"/>
</g>
<g filter="url(#filter2_d_224_6402)">
<mask id="mask0_224_6402" style="mask-type:luminance" maskUnits="userSpaceOnUse" x="27" y="28" width="46" height="19">
<path d="M27 28H72.9676V46.6193H27V28Z" fill="white"/>
</mask>
<g mask="url(#mask0_224_6402)">
<path d="M62.0688 35.1372C62.0706 35.1207 62.0727 35.1041 62.0756 35.0873C62.0727 35.1041 62.0704 35.1207 62.0688 35.1372ZM72.6842 44.2881C72.9547 45.4838 69.0874 45.6738 68.2522 45.8255C61.17 46.5463 54.0362 46.6061 46.9232 46.5649C44.676 46.4821 27.0135 46.4496 27.1598 44.4255C27.1604 44.4253 27.1608 44.4253 27.1614 44.4253C27.1031 43.4121 29.8123 43.2445 30.5689 43.0926C31.9149 42.9115 33.2676 42.7905 34.6214 42.6891C35.7253 42.6075 36.8303 42.5393 37.9356 42.485C37.8905 41.6583 37.842 40.8316 37.7957 40.0051C37.7375 38.9652 37.6794 37.9253 37.6212 36.8852C37.5637 35.8557 37.506 34.826 37.4484 33.7962C37.428 33.4285 37.4079 33.0608 37.3868 32.693C37.3839 32.6434 37.3905 32.5951 37.405 32.55C37.4025 32.4629 37.4029 32.376 37.4079 32.2887C37.4408 31.6004 37.8267 30.9905 38.2961 30.5088C39.2886 29.4921 40.6757 28.9896 42.0276 28.6556C42.5797 28.5304 43.1397 28.447 43.7018 28.3837C43.7591 28.3597 43.8189 28.3487 43.8802 28.3388C43.9596 28.326 44.0391 28.314 44.1186 28.3032C44.2601 28.2842 44.4016 28.2664 44.5436 28.2498C44.8213 28.2175 45.0994 28.191 45.3788 28.1708C45.9454 28.1302 46.5129 28.0954 47.0807 28.0702C47.661 28.0441 48.2416 28.0242 48.8227 28.0189C49.4146 28.0135 50.0068 28.0209 50.5987 28.0329C51.1678 28.0441 51.7364 28.0677 52.3051 28.0901C52.861 28.112 53.4176 28.1281 53.9731 28.1608C54.5306 28.1935 55.0872 28.2395 55.6439 28.2846C55.8949 28.3049 56.1465 28.3227 56.3976 28.3442C56.3978 28.3442 56.3978 28.3442 56.3978 28.3442C56.464 28.3417 56.5329 28.3522 56.5989 28.3624C56.727 28.3746 56.8549 28.388 56.9824 28.4038C57.0147 28.4079 57.0519 28.4096 57.0846 28.4178C57.0954 28.4205 57.1057 28.4234 57.1161 28.4263C57.3584 28.4555 57.6003 28.4859 57.8408 28.5284C59.23 28.786 60.8673 29.3377 61.812 30.4357C62.6906 31.3583 62.8626 32.6403 62.9003 33.862C62.9025 34.1354 62.9139 34.4092 62.9152 34.6828C62.9309 34.7283 62.9394 34.7769 62.9394 34.8272C62.9394 34.8353 62.9394 34.8433 62.9394 34.8514C62.9394 34.8516 62.9394 34.8518 62.9394 34.852C62.9394 35.8414 62.9361 36.831 62.9344 37.8206C62.9328 38.8832 62.9307 39.9459 62.9292 41.0085C62.9284 41.5182 62.9276 42.0279 62.9265 42.5376C63.1823 42.5519 63.4379 42.5686 63.6935 42.5846C65.0806 42.7367 72.5189 42.9534 72.6842 44.2881Z" fill="#FFEAB2"/>
</g>
<mask id="mask1_224_6402" style="mask-type:luminance" maskUnits="userSpaceOnUse" x="37" y="35" width="26" height="8">
<path d="M37.7421 35.8677H62.9974V42.6903H37.7421V35.8677Z" fill="white"/>
</mask>
<g mask="url(#mask1_224_6402)">
<path d="M62.976 37.5988C62.976 38.1355 62.9722 38.6716 62.9704 39.2083C62.9681 39.914 62.9656 40.6196 62.9631 41.3259C62.9623 41.5683 62.9615 41.8108 62.9606 42.0539V42.0546C62.9606 42.0608 62.9606 42.067 62.9606 42.0726C62.9606 42.0733 62.9606 42.0739 62.9606 42.0739C62.9606 42.0776 62.9606 42.0807 62.9606 42.0845C62.9606 42.0988 62.9606 42.1132 62.9604 42.1275C62.9844 42.3587 62.9439 42.6505 62.8288 42.6474C54.7559 41.3383 46.6587 41.3109 38.5818 42.3313C38.3596 42.3619 38.1373 42.3943 37.9151 42.4267C37.8428 42.4367 37.7787 42.279 37.7731 42.0577C37.7719 42.0066 37.7741 41.9561 37.7793 41.9087C37.7766 41.5658 37.776 41.2224 37.7743 40.8795C37.7704 40.139 37.7665 39.3984 37.763 38.6579C37.7607 38.239 37.7596 37.8201 37.7565 37.4006C37.7565 37.395 37.7563 37.39 37.7563 37.3844C37.7563 37.3782 37.7563 37.3725 37.7563 37.3663C37.7555 37.1488 37.8077 36.9593 37.8819 36.948C37.8995 36.9449 37.9169 36.9536 37.9333 36.9717C38.3674 36.915 38.8016 36.8439 39.236 36.7934C46.726 35.9076 54.2292 35.9369 61.7161 37.0129C62.0863 37.0715 62.4563 37.1276 62.8263 37.1943C62.8305 37.1949 62.8344 37.1968 62.8381 37.1986C62.8402 37.198 62.8421 37.198 62.8441 37.198C62.9164 37.1992 62.976 37.3819 62.976 37.5988Z" fill="#DC9E00"/>
</g>
</g>
<defs>
<filter id="filter0_f_224_6402" x="2" y="69" width="94.8849" height="64.8699" filterUnits="userSpaceOnUse" color-interpolation-filters="sRGB">
<feFlood flood-opacity="0" result="BackgroundImageFix"/>
<feBlend mode="normal" in="SourceGraphic" in2="BackgroundImageFix" result="shape"/>
<feGaussianBlur stdDeviation="10.5" result="effect1_foregroundBlur_224_6402"/>
</filter>
<filter id="filter1_d_224_6402" x="-12" y="12" width="123.526" height="127.586" filterUnits="userSpaceOnUse" color-interpolation-filters="sRGB">
<feFlood flood-opacity="0" result="BackgroundImageFix"/>
<feColorMatrix in="SourceAlpha" type="matrix" values="0 0 0 0 0 0 0 0 0 0 0 0 0 0 0 0 0 0 127 0" result="hardAlpha"/>
<feOffset dy="4"/>
<feGaussianBlur stdDeviation="16"/>
<feComposite in2="hardAlpha" operator="out"/>
<feColorMatrix type="matrix" values="0 0 0 0 0 0 0 0 0 0 0 0 0 0 0 0 0 0 0.15 0"/>
<feBlend mode="normal" in2="BackgroundImageFix" result="effect1_dropShadow_224_6402"/>
<feBlend mode="normal" in="SourceGraphic" in2="effect1_dropShadow_224_6402" result="shape"/>
</filter>
<filter id="filter2_d_224_6402" x="-4.84113" y="0.0170898" width="109.539" height="82.5576" filterUnits="userSpaceOnUse" color-interpolation-filters="sRGB">
<feFlood flood-opacity="0" result="BackgroundImageFix"/>
<feColorMatrix in="SourceAlpha" type="matrix" values="0 0 0 0 0 0 0 0 0 0 0 0 0 0 0 0 0 0 127 0" result="hardAlpha"/>
<feOffset dy="4"/>
<feGaussianBlur stdDeviation="16"/>
<feComposite in2="hardAlpha" operator="out"/>
<feColorMatrix type="matrix" values="0 0 0 0 0 0 0 0 0 0 0 0 0 0 0 0 0 0 0.15 0"/>
<feBlend mode="normal" in2="BackgroundImageFix" result="effect1_dropShadow_224_6402"/>
<feBlend mode="normal" in="SourceGraphic" in2="effect1_dropShadow_224_6402" result="shape"/>
</filter>
</defs>
</svg>
