<svg width="100" height="150" viewBox="0 0 100 150" fill="none" xmlns="http://www.w3.org/2000/svg">
<g opacity="0.2" filter="url(#filter0_f_224_7084)">
<ellipse cx="49.4424" cy="111.676" rx="26.4424" ry="11.435" fill="black"/>
</g>
<g filter="url(#filter1_d_224_7084)">
<path d="M47.039 19.2069C40.945 20.4995 35.6205 24.5314 33.1276 29.7328C30.9731 34.2263 30.296 39.243 29.8959 53.9854C29.8036 57.1247 29.6805 60.0178 29.5882 60.4487C29.4343 61.3104 28.8187 68.7586 28.6341 71.9902C28.5725 73.1598 28.3878 75.4681 28.2339 77.0685C27.6492 83.2855 28.1416 87.7791 29.9267 92.211C32.8506 99.4129 36.0822 102.214 44.2998 104.737C47.2544 105.661 52.7328 105.661 55.749 104.737C61.1351 103.075 63.351 101.906 65.844 99.3206C67.4752 97.6586 68.1523 96.5814 69.8143 92.8881C71.7533 88.61 72.0303 86.825 71.7841 79.3768C71.5686 72.3595 71.4763 70.7591 71.1685 68.9125C70.8915 67.035 70.3991 59.2791 70.2144 53.9854C69.8759 44.1058 69.722 41.4282 69.2603 38.4428C68.1523 31.3024 66.8597 28.3478 63.4741 24.9622C60.9504 22.4077 58.8575 21.0843 55.5643 19.9455C53.1021 19.0837 49.2242 18.7452 47.039 19.2069Z" fill="#333333"/>
<path d="M42.4869 97.6774C42.2605 97.7529 41.858 98.0044 41.5938 98.2183C40.751 98.9227 40.7385 99.0988 40.7762 105.237C40.8014 108.382 40.8643 110.948 40.9397 111.375C41.3548 113.564 43.8202 114.344 45.2038 112.721C45.4177 112.482 45.6189 112.105 45.6818 111.904C45.8202 111.35 45.8579 105.564 45.7447 102.206C45.6567 99.3881 45.6441 99.3 45.3296 98.7969C44.9648 98.2183 44.512 97.8661 43.8705 97.6522C43.3422 97.4636 43.0403 97.4761 42.4869 97.6774Z" fill="#333333"/>
<path d="M55.8705 97.6775C55.3422 97.9039 54.7007 98.47 54.4742 98.9102C54.1724 99.5014 54.0466 101.74 54.0466 106.948V111.816L54.4617 112.42C55.6315 114.181 58.0465 113.891 58.8012 111.904C59.0654 111.187 59.1031 110.457 59.1157 105.023C59.1409 99.6272 59.1283 99.5769 58.8516 98.9857C58.2981 97.8159 56.9271 97.2121 55.8705 97.6775Z" fill="#333333"/>
<ellipse cx="43.5" cy="46.2249" rx="2.5" ry="3.5" fill="white"/>
<ellipse cx="56.5" cy="46.2249" rx="2.5" ry="3.5" fill="white"/>
</g>
<g filter="url(#filter2_d_224_7084)">
<mask id="mask0_224_7084" style="mask-type:luminance" maskUnits="userSpaceOnUse" x="27" y="9" width="46" height="19">
<path d="M27 9H72.9676V27.6193H27V9Z" fill="white"/>
</mask>
<g mask="url(#mask0_224_7084)">
<path d="M62.0688 16.1372C62.0706 16.1207 62.0727 16.1041 62.0756 16.0873C62.0727 16.1041 62.0704 16.1207 62.0688 16.1372ZM72.6842 25.2881C72.9547 26.4838 69.0874 26.6738 68.2522 26.8255C61.17 27.5463 54.0362 27.6061 46.9232 27.5649C44.676 27.4821 27.0135 27.4496 27.1598 25.4255C27.1604 25.4253 27.1608 25.4253 27.1614 25.4253C27.1031 24.4121 29.8123 24.2445 30.5689 24.0926C31.9149 23.9115 33.2676 23.7905 34.6214 23.6891C35.7253 23.6075 36.8303 23.5393 37.9356 23.485C37.8905 22.6583 37.842 21.8316 37.7957 21.0051C37.7375 19.9652 37.6794 18.9253 37.6212 17.8852C37.5637 16.8557 37.506 15.826 37.4484 14.7962C37.428 14.4285 37.4079 14.0608 37.3868 13.693C37.3839 13.6434 37.3905 13.5951 37.405 13.55C37.4025 13.4629 37.4029 13.376 37.4079 13.2887C37.4408 12.6004 37.8267 11.9905 38.2961 11.5088C39.2886 10.4921 40.6757 9.98962 42.0276 9.65562C42.5797 9.53042 43.1397 9.44702 43.7018 9.3837C43.7591 9.3597 43.8189 9.34873 43.8802 9.3388C43.9596 9.32597 44.0391 9.31396 44.1186 9.3032C44.2601 9.28416 44.4016 9.26637 44.5436 9.24981C44.8213 9.21753 45.0994 9.19104 45.3788 9.17076C45.9454 9.1302 46.5129 9.09543 47.0807 9.07019C47.661 9.04411 48.2416 9.02425 48.8227 9.01887C49.4146 9.01349 50.0068 9.02094 50.5987 9.03294C51.1678 9.04411 51.7364 9.0677 52.3051 9.09006C52.861 9.11199 53.4176 9.12813 53.9731 9.16083C54.5306 9.19352 55.0872 9.23947 55.6439 9.28458C55.8949 9.30486 56.1465 9.32266 56.3976 9.34417C56.3978 9.34417 56.3978 9.34417 56.3978 9.34417C56.464 9.3417 56.5329 9.35225 56.5989 9.36239C56.727 9.3746 56.8549 9.38805 56.9824 9.40377C57.0147 9.40792 57.0519 9.40957 57.0846 9.41785C57.0954 9.42054 57.1057 9.42343 57.1161 9.42633C57.3584 9.45551 57.6003 9.48593 57.8408 9.52835C59.23 9.786 60.8673 10.3377 61.812 11.4357C62.6906 12.3583 62.8626 13.6403 62.9003 14.862C62.9025 15.1354 62.9139 15.4092 62.9152 15.6828C62.9309 15.7283 62.9394 15.7769 62.9394 15.8272C62.9394 15.8353 62.9394 15.8433 62.9394 15.8514C62.9394 15.8516 62.9394 15.8518 62.9394 15.852C62.9394 16.8414 62.9361 17.831 62.9344 18.8206C62.9328 19.8832 62.9307 20.9459 62.9292 22.0085C62.9284 22.5182 62.9276 23.0279 62.9265 23.5376C63.1823 23.5519 63.4379 23.5686 63.6935 23.5846C65.0806 23.7367 72.5189 23.9534 72.6842 25.2881Z" fill="#FFEAB2"/>
</g>
<mask id="mask1_224_7084" style="mask-type:luminance" maskUnits="userSpaceOnUse" x="37" y="16" width="26" height="8">
<path d="M37.7421 16.8677H62.9974V23.6903H37.7421V16.8677Z" fill="white"/>
</mask>
<g mask="url(#mask1_224_7084)">
<path d="M62.9759 18.5988C62.9759 19.1355 62.9722 19.6716 62.9703 20.2083C62.9681 20.914 62.9656 21.6196 62.9631 22.3259C62.9623 22.5683 62.9614 22.8108 62.9606 23.0539V23.0546C62.9606 23.0608 62.9606 23.067 62.9606 23.0726C62.9606 23.0733 62.9606 23.0739 62.9606 23.0739C62.9606 23.0776 62.9606 23.0807 62.9606 23.0845C62.9606 23.0988 62.9606 23.1132 62.9604 23.1275C62.9844 23.3587 62.9438 23.6505 62.8288 23.6474C54.7558 22.3383 46.6587 22.3109 38.5818 23.3313C38.3595 23.3619 38.1373 23.3943 37.915 23.4267C37.8428 23.4367 37.7787 23.279 37.7731 23.0577C37.7718 23.0066 37.7741 22.9561 37.7793 22.9087C37.7766 22.5658 37.776 22.2224 37.7743 21.8795C37.7704 21.139 37.7664 20.3984 37.7629 19.6579C37.7607 19.239 37.7596 18.8201 37.7565 18.4006C37.7565 18.395 37.7563 18.39 37.7563 18.3844C37.7563 18.3782 37.7563 18.3725 37.7563 18.3663C37.7555 18.1488 37.8076 17.9593 37.8819 17.948C37.8995 17.9449 37.9169 17.9536 37.9332 17.9717C38.3674 17.915 38.8016 17.8439 39.2359 17.7934C46.7259 16.9076 54.2292 16.9369 61.7161 18.0129C62.0863 18.0715 62.4563 18.1276 62.8263 18.1943C62.8304 18.1949 62.8344 18.1968 62.8381 18.1986C62.8402 18.198 62.842 18.198 62.8441 18.198C62.9163 18.1992 62.9759 18.3819 62.9759 18.5988Z" fill="#5179C8"/>
</g>
</g>
<defs>
<filter id="filter0_f_224_7084" x="2" y="79.2415" width="94.8849" height="64.8699" filterUnits="userSpaceOnUse" color-interpolation-filters="sRGB">
<feFlood flood-opacity="0" result="BackgroundImageFix"/>
<feBlend mode="normal" in="SourceGraphic" in2="BackgroundImageFix" result="shape"/>
<feGaussianBlur stdDeviation="10.5" result="effect1_foregroundBlur_224_7084"/>
</filter>
<filter id="filter1_d_224_7084" x="-4" y="-9" width="107.86" height="158.586" filterUnits="userSpaceOnUse" color-interpolation-filters="sRGB">
<feFlood flood-opacity="0" result="BackgroundImageFix"/>
<feColorMatrix in="SourceAlpha" type="matrix" values="0 0 0 0 0 0 0 0 0 0 0 0 0 0 0 0 0 0 127 0" result="hardAlpha"/>
<feOffset dy="4"/>
<feGaussianBlur stdDeviation="16"/>
<feComposite in2="hardAlpha" operator="out"/>
<feColorMatrix type="matrix" values="0 0 0 0 0 0 0 0 0 0 0 0 0 0 0 0 0 0 0.15 0"/>
<feBlend mode="normal" in2="BackgroundImageFix" result="effect1_dropShadow_224_7084"/>
<feBlend mode="normal" in="SourceGraphic" in2="effect1_dropShadow_224_7084" result="shape"/>
</filter>
<filter id="filter2_d_224_7084" x="-4.84113" y="-18.9829" width="109.539" height="82.5576" filterUnits="userSpaceOnUse" color-interpolation-filters="sRGB">
<feFlood flood-opacity="0" result="BackgroundImageFix"/>
<feColorMatrix in="SourceAlpha" type="matrix" values="0 0 0 0 0 0 0 0 0 0 0 0 0 0 0 0 0 0 127 0" result="hardAlpha"/>
<feOffset dy="4"/>
<feGaussianBlur stdDeviation="16"/>
<feComposite in2="hardAlpha" operator="out"/>
<feColorMatrix type="matrix" values="0 0 0 0 0 0 0 0 0 0 0 0 0 0 0 0 0 0 0.15 0"/>
<feBlend mode="normal" in2="BackgroundImageFix" result="effect1_dropShadow_224_7084"/>
<feBlend mode="normal" in="SourceGraphic" in2="effect1_dropShadow_224_7084" result="shape"/>
</filter>
</defs>
</svg>
