<svg width="390" height="407" viewBox="0 0 390 407" fill="none" xmlns="http://www.w3.org/2000/svg">
<rect opacity="0.5" x="58" y="162.243" width="6" height="5" transform="rotate(-45 58 162.243)" fill="white"/>
<rect opacity="0.5" x="355" y="297.243" width="6" height="5" transform="rotate(-45 355 297.243)" fill="white"/>
<rect opacity="0.5" x="359" y="22.5355" width="5" height="5" transform="rotate(-45 359 22.5355)" fill="white"/>
<rect opacity="0.5" x="170.971" y="210.286" width="3" height="3" transform="rotate(-45 170.971 210.286)" fill="white"/>
<rect opacity="0.5" x="107.757" y="145.121" width="3" height="3" transform="rotate(-45 107.757 145.121)" fill="white"/>
<rect opacity="0.5" x="15" y="201.121" width="3" height="3" transform="rotate(-45 15 201.121)" fill="white"/>
<rect opacity="0.5" x="130" y="70.4142" width="2" height="2" transform="rotate(-45 130 70.4142)" fill="white"/>
<rect opacity="0.5" x="280" y="98.4142" width="2" height="2" transform="rotate(-45 280 98.4142)" fill="white"/>
<rect opacity="0.5" x="230.05" y="205.121" width="2" height="2.66667" transform="rotate(-45 230.05 205.121)" fill="white"/>
<rect opacity="0.5" x="43" y="353.121" width="3" height="3" transform="rotate(-45 43 353.121)" fill="white"/>
<rect opacity="0.5" x="322.999" y="237.863" width="2" height="2" transform="rotate(-45 322.999 237.863)" fill="white"/>
<rect opacity="0.5" x="363.172" y="78.4142" width="2" height="2" transform="rotate(-45 363.172 78.4142)" fill="white"/>
<rect opacity="0.5" x="193" y="12.1213" width="3" height="3" transform="rotate(-45 193 12.1213)" fill="white"/>
<rect opacity="0.5" x="222" y="114.121" width="3" height="3" transform="rotate(-45 222 114.121)" fill="white"/>
<rect opacity="0.5" x="74.1716" y="15.4142" width="2" height="2" transform="rotate(-45 74.1716 15.4142)" fill="white"/>
<rect opacity="0.5" x="132" y="51.1213" width="3" height="3" transform="rotate(-45 132 51.1213)" fill="white"/>
<rect opacity="0.5" x="257.945" y="15.8317" width="2" height="2" transform="rotate(-45 257.945 15.8317)" fill="white"/>
<rect opacity="0.5" x="10" y="100.828" width="4" height="3" transform="rotate(-45 10 100.828)" fill="white"/>
<rect opacity="0.5" x="226.126" y="331.908" width="3" height="3" transform="rotate(-45 226.126 331.908)" fill="white"/>
<rect opacity="0.5" x="132.788" y="218.771" width="2" height="2" transform="rotate(-45 132.788 218.771)" fill="white"/>
<rect opacity="0.5" x="41" y="49.8284" width="4" height="4" transform="rotate(-45 41 49.8284)" fill="white"/>
<rect opacity="0.5" x="149" y="63.8284" width="4" height="4" transform="rotate(-45 149 63.8284)" fill="white"/>
<rect opacity="0.5" x="333" y="200.828" width="4" height="4" transform="rotate(-45 333 200.828)" fill="white"/>
<rect opacity="0.5" x="155" y="158.828" width="4" height="4" transform="rotate(-45 155 158.828)" fill="white"/>
<rect opacity="0.5" x="371" y="157.828" width="4" height="4" transform="rotate(-45 371 157.828)" fill="white"/>
<rect opacity="0.5" x="136" y="303.121" width="3" height="3" transform="rotate(-45 136 303.121)" fill="white"/>
<rect opacity="0.5" x="5.75732" y="252.121" width="3" height="3" transform="rotate(-45 5.75732 252.121)" fill="white"/>
</svg>
