<svg width="121" height="140" viewBox="0 0 121 140" fill="none" xmlns="http://www.w3.org/2000/svg">
<g opacity="0.2" filter="url(#filter0_f_513_12754)">
<ellipse cx="59.4424" cy="106.849" rx="26.4424" ry="11.435" fill="black"/>
</g>
<g filter="url(#filter1_d_513_12754)">
<path d="M44.1292 44.3312C38.4025 44.8532 36.1616 45.7365 34.3476 48.1053C32.3557 50.6347 32 51.799 32 55.5329C32 60.1902 32.8181 62.4787 42.3507 83.8381C45.1607 90.1014 48.0418 95.5216 49.5713 97.2881C51.8477 99.8978 53.3061 100.299 60.7756 100.299C66.7869 100.299 66.8224 100.299 68.9566 99.0948C70.7351 98.0911 71.3753 97.4086 72.9404 94.8792C74.7189 91.9483 85.0695 69.1033 87.2037 63.3218C89.2667 57.7812 89.4446 54.0072 87.9151 50.5142C85.9944 46.2182 83.7535 45.0138 76.2483 44.3312C71.5176 43.8896 48.7532 43.8896 44.1292 44.3312Z" fill="#333333"/>
</g>
<g filter="url(#filter2_d_513_12754)">
<mask id="mask0_513_12754" style="mask-type:luminance" maskUnits="userSpaceOnUse" x="37" y="28" width="46" height="20">
<path d="M37 28.4141H82.9676V47.0333H37V28.4141Z" fill="white"/>
</mask>
<g mask="url(#mask0_513_12754)">
<path d="M72.0687 35.5513C72.0706 35.5347 72.0726 35.5182 72.0755 35.5014C72.0726 35.5182 72.0704 35.5347 72.0687 35.5513ZM82.6841 44.7022C82.9546 45.8979 79.0873 46.0879 78.2521 46.2395C71.17 46.9603 64.0361 47.0201 56.9232 46.9789C54.676 46.8962 37.0134 46.8637 37.1597 44.8396C37.1603 44.8394 37.1607 44.8394 37.1614 44.8394C37.103 43.8262 39.8123 43.6586 40.5689 43.5067C41.9148 43.3256 43.2676 43.2045 44.6214 43.1031C45.7252 43.0216 46.8303 42.9533 47.9355 42.8991C47.8904 42.0724 47.842 41.2456 47.7956 40.4191C47.7375 39.3793 47.6793 38.3394 47.6212 37.2993C47.5637 36.2698 47.5059 35.24 47.4484 34.2103C47.4279 33.8426 47.4078 33.4748 47.3867 33.1071C47.3838 33.0574 47.3904 33.0092 47.4049 32.9641C47.4024 32.877 47.4029 32.7901 47.4078 32.7027C47.4407 32.0144 47.8267 31.4046 48.296 30.9228C49.2885 29.9061 50.6756 29.4037 52.0276 29.0697C52.5797 28.9445 53.1397 28.8611 53.7017 28.7978C53.759 28.7738 53.8188 28.7628 53.8801 28.7529C53.9596 28.74 54.039 28.728 54.1185 28.7173C54.26 28.6982 54.4016 28.6804 54.5435 28.6639C54.8213 28.6316 55.0994 28.6051 55.3788 28.5848C55.9454 28.5443 56.5128 28.5095 57.0806 28.4843C57.6609 28.4582 58.2416 28.4383 58.8227 28.4329C59.4145 28.4276 60.0068 28.435 60.5986 28.447C61.1677 28.4582 61.7364 28.4818 62.3051 28.5041C62.8609 28.5261 63.4176 28.5422 63.973 28.5749C64.5305 28.6076 65.0872 28.6535 65.6438 28.6986C65.8948 28.7189 66.1465 28.7367 66.3975 28.7582C66.3977 28.7582 66.3977 28.7582 66.3977 28.7582C66.4639 28.7558 66.5329 28.7663 66.5989 28.7765C66.727 28.7887 66.8549 28.8021 66.9823 28.8178C67.0146 28.822 67.0519 28.8236 67.0846 28.8319C67.0953 28.8346 67.1057 28.8375 67.116 28.8404C67.3583 28.8696 67.6003 28.9 67.8407 28.9424C69.2299 29.2001 70.8672 29.7518 71.8119 30.8498C72.6906 31.7723 72.8625 33.0543 72.9002 34.2761C72.9025 34.5495 72.9139 34.8232 72.9151 35.0968C72.9308 35.1424 72.9393 35.191 72.9393 35.2413C72.9393 35.2493 72.9393 35.2574 72.9393 35.2655C72.9393 35.2657 72.9393 35.2659 72.9393 35.2661C72.9393 36.2555 72.936 37.2451 72.9343 38.2347C72.9327 39.2973 72.9306 40.3599 72.9292 41.4226C72.9283 41.9323 72.9275 42.442 72.9265 42.9517C73.1823 42.9659 73.4378 42.9827 73.6934 42.9986C75.0805 43.1507 82.5188 43.3674 82.6841 44.7022Z" fill="#FFEAB2"/>
</g>
<mask id="mask1_513_12754" style="mask-type:luminance" maskUnits="userSpaceOnUse" x="47" y="36" width="26" height="8">
<path d="M47.7421 36.2817H72.9974V43.1044H47.7421V36.2817Z" fill="white"/>
</mask>
<g mask="url(#mask1_513_12754)">
<path d="M72.9759 38.0129C72.9759 38.5496 72.9721 39.0857 72.9703 39.6224C72.968 40.328 72.9655 41.0337 72.963 41.7399C72.9622 41.9824 72.9614 42.2249 72.9606 42.468V42.4686C72.9606 42.4748 72.9606 42.4811 72.9606 42.4867C72.9606 42.4873 72.9606 42.4879 72.9606 42.4879C72.9606 42.4917 72.9606 42.4948 72.9606 42.4985C72.9606 42.5129 72.9606 42.5272 72.9603 42.5415C72.9844 42.7728 72.9438 43.0645 72.8287 43.0614C64.7558 41.7524 56.6586 41.725 48.5817 42.7454C48.3595 42.7759 48.1372 42.8083 47.915 42.8408C47.8427 42.8507 47.7786 42.693 47.773 42.4717C47.7718 42.4206 47.774 42.3701 47.7792 42.3227C47.7765 41.9799 47.7759 41.6364 47.7742 41.2936C47.7703 40.5531 47.7664 39.8125 47.7629 39.072C47.7606 38.6531 47.7596 38.2342 47.7564 37.8147C47.7564 37.809 47.7562 37.8041 47.7562 37.7984C47.7562 37.7922 47.7562 37.7866 47.7562 37.7804C47.7554 37.5628 47.8076 37.3733 47.8818 37.3621C47.8994 37.359 47.9168 37.3677 47.9332 37.3858C48.3673 37.3291 48.8015 37.258 49.2359 37.2075C56.7259 36.3217 64.2291 36.351 71.716 37.4269C72.0862 37.4855 72.4562 37.5416 72.8262 37.6083C72.8304 37.609 72.8343 37.6108 72.838 37.6127C72.8401 37.6121 72.842 37.6121 72.844 37.6121C72.9163 37.6133 72.9759 37.7959 72.9759 38.0129Z" fill="#814747"/>
</g>
</g>
<ellipse cx="44.5" cy="68.22" rx="2.5" ry="3.5" fill="white"/>
<ellipse cx="57.5" cy="68.22" rx="2.5" ry="3.5" fill="white"/>
<path d="M53.2024 91.3374C54.1356 91.8392 54.6937 92.1347 55.9224 92.7772C56.5273 93.0961 57.0291 93.3587 57.0385 93.3634C57.0479 93.3728 56.729 94.0059 56.3304 94.775C55.9364 95.5488 55.5331 96.3366 55.444 96.5289C55.3502 96.7212 55.1157 97.2089 54.9235 97.6122C54.5108 98.4704 54.4451 98.6064 54.1028 99.3896C52.9773 101.969 52.3254 103.91 51.2749 107.817C51.0267 108.74 49.4833 109.612 47.9826 109.199C46.6414 108.838 46.1012 107.948 46.6899 105.967C47.4355 103.458 48.7425 98.794 49.9243 96.2241C50.4448 95.0892 52.4989 90.9951 52.5458 90.9998C52.5599 90.9998 52.8553 91.1499 53.2024 91.3374Z" fill="#333333"/>
<path d="M61.1128 92.5132C62.104 92.4881 63.2417 92.4559 63.644 92.4411L64.3693 92.4208L64.3834 92.6326C64.3902 92.7505 64.4116 93.2422 64.4312 93.7246C64.4509 94.207 64.4918 94.9144 64.5189 95.3049C64.5497 95.6901 64.5793 96.0945 64.5836 96.1986C64.6223 96.7872 64.8694 98.4866 65.0038 99.0772C65.5464 101.496 66.3135 102.773 67.8668 103.839C67.8668 103.839 70.1169 105.011 69.1862 107.147C68.4448 108.849 67.0465 109.114 65.4188 108.222C64.8318 107.9 64.2777 107.569 63.8859 107.229C61.2273 104.913 59.9434 101.76 59.4782 96.4219C59.3733 95.1972 59.2522 92.6319 59.2947 92.5767C59.3023 92.5658 60.1216 92.5382 61.1128 92.5132Z" fill="#333333"/>
<defs>
<filter id="filter0_f_513_12754" x="12" y="74.4138" width="94.8849" height="64.8699" filterUnits="userSpaceOnUse" color-interpolation-filters="sRGB">
<feFlood flood-opacity="0" result="BackgroundImageFix"/>
<feBlend mode="normal" in="SourceGraphic" in2="BackgroundImageFix" result="shape"/>
<feGaussianBlur stdDeviation="10.5" result="effect1_foregroundBlur_513_12754"/>
</filter>
<filter id="filter1_d_513_12754" x="0" y="16" width="120.927" height="120.299" filterUnits="userSpaceOnUse" color-interpolation-filters="sRGB">
<feFlood flood-opacity="0" result="BackgroundImageFix"/>
<feColorMatrix in="SourceAlpha" type="matrix" values="0 0 0 0 0 0 0 0 0 0 0 0 0 0 0 0 0 0 127 0" result="hardAlpha"/>
<feOffset dy="4"/>
<feGaussianBlur stdDeviation="16"/>
<feComposite in2="hardAlpha" operator="out"/>
<feColorMatrix type="matrix" values="0 0 0 0 0 0 0 0 0 0 0 0 0 0 0 0 0 0 0.15 0"/>
<feBlend mode="normal" in2="BackgroundImageFix" result="effect1_dropShadow_513_12754"/>
<feBlend mode="normal" in="SourceGraphic" in2="effect1_dropShadow_513_12754" result="shape"/>
</filter>
<filter id="filter2_d_513_12754" x="5.15881" y="0.431152" width="109.539" height="82.5576" filterUnits="userSpaceOnUse" color-interpolation-filters="sRGB">
<feFlood flood-opacity="0" result="BackgroundImageFix"/>
<feColorMatrix in="SourceAlpha" type="matrix" values="0 0 0 0 0 0 0 0 0 0 0 0 0 0 0 0 0 0 127 0" result="hardAlpha"/>
<feOffset dy="4"/>
<feGaussianBlur stdDeviation="16"/>
<feComposite in2="hardAlpha" operator="out"/>
<feColorMatrix type="matrix" values="0 0 0 0 0 0 0 0 0 0 0 0 0 0 0 0 0 0 0.15 0"/>
<feBlend mode="normal" in2="BackgroundImageFix" result="effect1_dropShadow_513_12754"/>
<feBlend mode="normal" in="SourceGraphic" in2="effect1_dropShadow_513_12754" result="shape"/>
</filter>
</defs>
</svg>
