<svg width="72" height="36" viewBox="0 0 72 36" fill="none" xmlns="http://www.w3.org/2000/svg">
<path fill-rule="evenodd" clip-rule="evenodd" d="M18 4C10.268 4 4 10.268 4 18C4 25.732 10.268 32 18 32H38C45.732 32 52 25.732 52 18C52 10.268 45.732 4 38 4H18ZM24.3726 20.576C24.6552 19.8507 24.7966 19.064 24.7966 18.216C24.7966 17.6507 24.7326 17.112 24.6046 16.6C24.4819 16.088 24.3006 15.6133 24.0606 15.176C23.8206 14.7387 23.5272 14.344 23.1806 13.992C22.8392 13.6347 22.4526 13.3333 22.0206 13.088C21.5886 12.8373 21.1139 12.6453 20.5966 12.512C20.0792 12.3733 19.5272 12.304 18.9406 12.304C18.0659 12.304 17.2686 12.4533 16.5486 12.752C15.8286 13.0453 15.2099 13.456 14.6926 13.984C14.1806 14.512 13.7832 15.1387 13.5006 15.864C13.2179 16.584 13.0766 17.368 13.0766 18.216C13.0766 19.064 13.2179 19.8507 13.5006 20.576C13.7832 21.296 14.1806 21.92 14.6926 22.448C15.2099 22.976 15.8286 23.3893 16.5486 23.688C17.2686 23.9813 18.0659 24.128 18.9406 24.128C19.8206 24.128 20.6206 23.9813 21.3406 23.688C22.0606 23.3893 22.6766 22.976 23.1886 22.448C23.7006 21.92 24.0952 21.296 24.3726 20.576ZM22.3406 16.512C22.5112 17.0133 22.5966 17.5813 22.5966 18.216C22.5966 18.8507 22.5112 19.4213 22.3406 19.928C22.1699 20.4293 21.9272 20.856 21.6126 21.208C21.2979 21.5547 20.9139 21.8213 20.4606 22.008C20.0126 22.1947 19.5059 22.288 18.9406 22.288C18.3752 22.288 17.8659 22.1947 17.4126 22.008C16.9646 21.8213 16.5806 21.5547 16.2606 21.208C15.9459 20.856 15.7032 20.4293 15.5326 19.928C15.3619 19.4213 15.2766 18.8507 15.2766 18.216C15.2766 17.5813 15.3619 17.0133 15.5326 16.512C15.7032 16.0053 15.9459 15.576 16.2606 15.224C16.5806 14.872 16.9646 14.6027 17.4126 14.416C17.8659 14.2293 18.3752 14.136 18.9406 14.136C19.5059 14.136 20.0126 14.2293 20.4606 14.416C20.9139 14.6027 21.2979 14.872 21.6126 15.224C21.9272 15.576 22.1699 16.0053 22.3406 16.512ZM28.8464 17.568V14.144H33.9824V12.432H26.6864V24H28.8464V19.288H33.1824V17.568H28.8464ZM37.9089 17.568V14.144H43.0449V12.432H35.7489V24H37.9089V19.288H42.2449V17.568H37.9089Z" fill="white" fill-opacity="0.4"/>
<rect x="1" y="1" width="70" height="34" rx="17" stroke="white" stroke-opacity="0.4" stroke-width="2"/>
</svg>
