<svg width="54" height="54" viewBox="0 0 54 54" fill="none" xmlns="http://www.w3.org/2000/svg">
<g clip-path="url(#clip0_195_10751)">
<rect width="54" height="54" rx="2" fill="white" fill-opacity="0.1"/>
<path d="M20.4729 17.6756C20.3013 17.7463 20.0995 17.9885 20.044 18.1802C20.0036 18.3063 19.9935 21.2428 20.0036 27.4286L20.0188 36.4955L20.1247 36.6368C20.1802 36.7124 20.3064 36.8335 20.4022 36.8941C20.5486 36.995 20.6192 37.0101 20.8765 36.995C21.1742 36.9698 21.3458 36.8789 28.9191 32.4994C33.1775 30.0422 36.7145 27.9736 36.7851 27.913C36.9415 27.7667 37.0475 27.5245 37.0475 27.3076C37.0475 27.1057 36.881 26.7626 36.7296 26.6567C36.669 26.6163 33.1321 24.5628 28.8686 22.1056C21.1591 17.6554 21.1187 17.6302 20.8462 17.6353C20.6949 17.6353 20.5284 17.6554 20.4729 17.6756Z" fill="white"/>
</g>
<rect x="0.75" y="0.75" width="52.5" height="52.5" rx="1.25" stroke="white" stroke-width="1.5"/>
<defs>
<clipPath id="clip0_195_10751">
<rect width="54" height="54" rx="2" fill="white"/>
</clipPath>
</defs>
</svg>
