<svg width="192" height="192" viewBox="0 0 192 192" fill="none" xmlns="http://www.w3.org/2000/svg">
<g clip-path="url(#clip0_206_7823)">
<mask id="mask0_206_7823" style="mask-type:luminance" maskUnits="userSpaceOnUse" x="0" y="0" width="192" height="192">
<path d="M192 192L192 0L0 0L0 192L192 192Z" fill="white"/>
</mask>
<g mask="url(#mask0_206_7823)">
<mask id="mask1_206_7823" style="mask-type:luminance" maskUnits="userSpaceOnUse" x="0" y="0" width="192" height="192">
<path d="M192 192L192 0L0 0L0 192L192 192Z" fill="white"/>
</mask>
<g mask="url(#mask1_206_7823)">
<mask id="mask2_206_7823" style="mask-type:luminance" maskUnits="userSpaceOnUse" x="1" y="0" width="192" height="192">
<path d="M193 192L193 0L1 0L1 192L193 192Z" fill="white"/>
</mask>
<g mask="url(#mask2_206_7823)">
<path fill-rule="evenodd" clip-rule="evenodd" d="M15.7842 108.628C14.3702 122.138 27.3102 123.386 36.0442 126.017C41.7762 127.743 47.2662 130.986 58.2142 131.353C62.9092 131.511 65.6772 123.849 67.2722 116.61C67.9752 113.417 74.5172 116.382 73.6942 107.386C73.3532 103.67 71.9802 100.481 67.9452 99.5832C61.7962 98.2152 53.8882 101.219 45.4012 101.865C31.4152 102.931 17.5962 91.3161 15.7842 108.628Z" fill="#99CC99" stroke="#663300" stroke-width="5.315" stroke-miterlimit="22.9256"/>
<path fill-rule="evenodd" clip-rule="evenodd" d="M47.8541 109.742C47.3891 99.0186 39.6111 96.5787 33.4701 96.9953C27.3291 97.4121 14.0821 102.607 14.5481 113.33C15.0371 124.585 49.0861 138.113 47.8541 109.742Z" fill="#996633" stroke="#663300" stroke-width="5.315" stroke-miterlimit="22.9256"/>
<path fill-rule="evenodd" clip-rule="evenodd" d="M72.0275 112.34L59.2965 113.047L66.0155 117.291L65.6615 124.009L57.8825 122.241L62.4795 130.021L65.6615 127.192C65.6615 127.192 66.7525 120.47 69.4745 116.403C71.0015 114.122 72.1545 112.34 72.0275 112.34Z" fill="#663300"/>
<path fill-rule="evenodd" clip-rule="evenodd" d="M68.912 73.3377C67.498 59.8277 80.438 58.5797 89.172 55.9487C94.9036 54.2227 100.394 50.9797 111.342 50.6127C116.037 50.4547 118.805 58.1167 120.399 65.3547C121.102 68.5487 127.645 65.5837 126.822 74.5797C126.481 78.2957 125.108 81.4847 121.073 82.3827C114.924 83.7507 107.016 80.7467 98.5291 80.1007C84.543 79.0347 70.724 90.6497 68.912 73.3377Z" fill="#99CC99" stroke="#663300" stroke-width="5.315" stroke-miterlimit="22.9256"/>
<path fill-rule="evenodd" clip-rule="evenodd" d="M100.982 72.2259C100.516 82.9489 92.738 85.3889 86.598 84.9719C80.457 84.5559 67.21 79.3619 67.676 68.6379C68.165 57.3829 102.214 43.8549 100.982 72.2259Z" fill="#996633" stroke="#663300" stroke-width="5.315" stroke-miterlimit="22.9256"/>
<path fill-rule="evenodd" clip-rule="evenodd" d="M125.155 69.627L112.425 68.92L119.144 64.677L118.79 57.958L111.011 59.726L115.608 51.946L118.79 54.775C118.79 54.775 119.881 61.497 122.603 65.564C124.13 67.846 125.283 69.627 125.155 69.627Z" fill="#663300"/>
<path fill-rule="evenodd" clip-rule="evenodd" d="M161.391 54.7739C160.933 49.9699 152.723 47.8119 144.475 45.7849C143.264 45.4879 128.312 45.6019 113.979 47.5709C96.9633 40.2919 80.74 43.8069 77.604 45.2879C73.014 47.4559 76.251 62.9059 78.67 63.0469C81.451 63.2089 96.31 60.3159 109.699 60.8159C119.787 61.1919 129.415 64.9179 130.311 65.3519C132.481 66.4049 134.746 84.5669 143.322 81.7139C147.26 80.4039 141.937 71.0469 143.303 71.9439C145.579 73.4399 150.848 75.1829 153.799 74.5349C162.094 72.7139 161.849 59.5779 161.391 54.7739Z" fill="#99CC99" stroke="#663300" stroke-width="5.315" stroke-miterlimit="22.9256"/>
<path fill-rule="evenodd" clip-rule="evenodd" d="M60.6741 62.5589C63.0621 70.7519 74.0161 68.0139 85.2021 66.6889L82.6201 40.6969C67.1621 39.2409 55.8771 46.0999 60.6741 62.5589Z" fill="#DB0000" stroke="#663300" stroke-width="5.315" stroke-miterlimit="22.9256"/>
<path fill-rule="evenodd" clip-rule="evenodd" d="M178.453 134.841C176.693 138.597 162.162 136.849 156.285 137.481C155.045 137.614 145.08 141.211 130.696 139.656C113.897 147.42 96.0431 142.69 92.866 141.299C88.216 139.264 93.1142 129.161 95.5279 128.951C98.3027 128.709 114.055 132.328 127.424 131.443C133.719 131.027 139.479 128.857 143.13 127.175C145.319 126.167 146.607 124.397 152.953 136.416C153.391 136.298 148.607 128.949 147.768 124.206C147.574 123.112 156.674 121.478 156.833 120.977C157.212 119.78 148.463 121.145 150.37 116.431C152.245 111.797 154.956 107.226 159.616 108.432C163.634 109.472 157.793 120.527 159.131 119.591C161.363 118.032 167.327 114.745 170.296 115.307C178.639 116.888 180.213 131.085 178.453 134.841Z" fill="#E8E8CF" stroke="#663300" stroke-width="5.315" stroke-miterlimit="22.9256" stroke-linecap="round" stroke-linejoin="round"/>
<path fill-rule="evenodd" clip-rule="evenodd" d="M121.166 144.966C108.24 148.154 97.2354 145.975 94.6868 144.859C90.037 142.825 92.828 127.288 95.2417 127.077C97.7928 126.855 110.624 128.92 123.065 128.567L116.932 136.29L121.104 142.688L121.166 144.966Z" fill="#99CC99" stroke="#663300" stroke-width="5.315" stroke-miterlimit="22.9256"/>
<path fill-rule="evenodd" clip-rule="evenodd" d="M77.269 128.082C79.42 119.823 90.448 122.245 101.668 123.247L99.834 149.303C84.424 151.202 72.947 144.671 77.269 128.082Z" fill="#DB0000" stroke="#663300" stroke-width="5.315" stroke-miterlimit="22.9256"/>
<path fill-rule="evenodd" clip-rule="evenodd" d="M51.9328 46.1938C41.6148 49.1738 41.4238 59.1928 43.5568 66.5768C45.6888 73.9608 54.4728 88.9228 64.7908 85.9428C75.6198 82.8158 79.2298 38.3108 51.9328 46.1938Z" fill="#DB0000" stroke="#663300" stroke-width="5.315" stroke-miterlimit="22.9256"/>
<path fill-rule="evenodd" clip-rule="evenodd" d="M72.1301 151.243C61.6221 153.458 56.748 144.702 55.163 137.181C53.578 129.66 54.3081 112.326 64.8171 110.111C75.8451 107.786 99.9325 145.384 72.1301 151.243Z" fill="#DB0000" stroke="#663300" stroke-width="5.315" stroke-miterlimit="22.9256"/>
<path fill-rule="evenodd" clip-rule="evenodd" d="M112.559 98.3194C112.559 130.069 97.1827 129.112 78.223 129.112C59.263 129.112 43.887 115.323 43.887 98.3194C43.887 81.3162 59.263 67.5272 78.223 67.5272C97.1827 67.5272 112.559 66.5702 112.559 98.3194Z" fill="#E6E6E6" stroke="#663300" stroke-width="5.315" stroke-miterlimit="22.9256" stroke-linecap="round" stroke-linejoin="round"/>
<path fill-rule="evenodd" clip-rule="evenodd" d="M92.7354 98.3165C92.7354 117.276 84.446 132.652 65.486 132.652C46.527 132.652 31.151 117.276 31.151 98.3165C31.151 79.3563 46.527 63.9803 65.486 63.9803C84.446 63.9803 92.7354 79.3563 92.7354 98.3165Z" fill="#336699"/>
<mask id="mask3_206_7823" style="mask-type:luminance" maskUnits="userSpaceOnUse" x="31" y="63" width="62" height="70">
<path fill-rule="evenodd" clip-rule="evenodd" d="M92.7363 98.3165C92.7363 117.276 84.447 132.652 65.487 132.652C46.527 132.652 31.151 117.276 31.151 98.3165C31.151 79.3563 46.527 63.9803 65.487 63.9803C84.447 63.9803 92.7363 79.3563 92.7363 98.3165Z" fill="white"/>
</mask>
<g mask="url(#mask3_206_7823)">
<path fill-rule="evenodd" clip-rule="evenodd" d="M105.486 97.2182C105.486 102.3 101.956 135.484 90.619 135.484C79.283 135.484 58.762 103.268 58.762 98.1869C58.762 93.105 79.991 61.8574 91.327 61.8574C102.664 61.8574 105.486 92.136 105.486 97.2182Z" fill="white" stroke="#663300" stroke-width="2.6575" stroke-miterlimit="22.9256" stroke-linecap="round" stroke-linejoin="round"/>
</g>
<path d="M92.7354 98.3165C92.7354 117.276 84.446 132.652 65.486 132.652C46.527 132.652 31.151 117.276 31.151 98.3165C31.151 79.3563 46.527 63.9803 65.486 63.9803C84.446 63.9803 92.7354 79.3563 92.7354 98.3165Z" stroke="#663300" stroke-width="5.315" stroke-miterlimit="22.9256" stroke-linecap="round" stroke-linejoin="round"/>
<path fill-rule="evenodd" clip-rule="evenodd" d="M68.6729 98.3192C68.6729 102.033 65.6609 105.045 61.9469 105.045C58.2329 105.045 55.2219 102.033 55.2219 98.3192C55.2219 94.6054 58.2329 91.5939 61.9469 91.5939C65.6609 91.5939 68.6729 94.6054 68.6729 98.3192Z" fill="#336699" stroke="#663300" stroke-width="2.6575" stroke-miterlimit="22.9256" stroke-linecap="round" stroke-linejoin="round"/>
<path fill-rule="evenodd" clip-rule="evenodd" d="M90.6123 99.0251C90.6123 105.866 88.5523 111.414 86.0103 111.414C83.4693 111.414 81.4093 105.866 81.4093 99.0251C81.4093 92.184 83.4693 86.6361 86.0103 86.6361C88.5523 86.6361 90.6123 92.1839 90.6123 99.0251Z" fill="#FFCC00" stroke="#663300" stroke-width="2.6575" stroke-miterlimit="22.9256" stroke-linecap="round" stroke-linejoin="round"/>
<path fill-rule="evenodd" clip-rule="evenodd" d="M37.516 98.3171C37.516 105.158 39.702 111.414 37.162 111.414C34.621 111.414 30.436 105.158 30.436 98.3171C30.436 91.4761 34.621 86.6361 37.162 86.6361C39.702 86.6361 37.516 91.4761 37.516 98.3171Z" fill="#CCCCCC" stroke="#663300" stroke-width="2.6575" stroke-miterlimit="22.9256" stroke-linecap="round" stroke-linejoin="round"/>
<path fill-rule="evenodd" clip-rule="evenodd" d="M106.551 110.6C107.446 111.105 107.951 112.104 108.044 113.31C108.136 114.517 106.712 115.525 105.959 116.861C105.205 118.196 105.264 119.607 104.183 120.151C103.103 120.695 101.986 120.779 101.091 120.274C100.196 119.769 97.0845 121.514 96.6235 117.472C96.2241 113.976 99.8252 114.942 100.578 113.607C101.331 112.271 100.168 108.821 101.155 108.122C105.057 105.356 105.655 110.094 106.551 110.6Z" fill="#BA0000"/>
<path fill-rule="evenodd" clip-rule="evenodd" d="M107.71 103.257C107.575 104.498 106.466 105.352 105.232 105.164C103.999 104.976 103.107 103.818 103.242 102.577C103.377 101.336 104.487 100.483 105.721 100.67C106.954 100.858 107.845 102.017 107.71 103.257Z" fill="#BA0000"/>
<path fill-rule="evenodd" clip-rule="evenodd" d="M104.567 78.8014C104.432 80.0424 103.322 80.8964 102.088 80.7084C100.855 80.5204 99.9638 79.3624 100.099 78.1214C100.234 76.8804 101.343 76.0274 102.577 76.2144C103.81 76.4024 104.701 77.5604 104.567 78.8014Z" fill="#BA0000"/>
<path fill-rule="evenodd" clip-rule="evenodd" d="M100.008 110.9C99.8419 112.624 98.4771 113.875 96.9595 113.691C95.4424 113.507 94.3463 111.96 94.5122 110.235C94.678 108.509 96.0429 107.259 97.5605 107.443C99.0777 107.626 100.174 109.174 100.008 110.9Z" fill="#BA0000"/>
<path fill-rule="evenodd" clip-rule="evenodd" d="M102.113 84.7926C101.903 86.7206 100.178 88.0486 98.2606 87.7566C96.3425 87.4646 94.9578 85.6636 95.1673 83.7346C95.377 81.8056 97.1019 80.4786 99.0199 80.7706C100.937 81.0626 102.322 82.8626 102.113 84.7926Z" fill="#BA0000"/>
<path fill-rule="evenodd" clip-rule="evenodd" d="M84.7498 77.5074C85.5018 79.2854 85.4478 80.7804 84.6288 80.8454C83.8108 80.9114 82.5378 79.5214 81.7868 77.7434C81.0358 75.9654 81.0888 74.4704 81.9078 74.4054C82.7258 74.3394 83.9988 75.7284 84.7498 77.5074Z" fill="#BA0000"/>
<path d="M193.469 192.697L193.469 -0.602722L0.169006 -0.602722L0.169006 192.697L193.469 192.697Z" stroke="#D6D6D6" stroke-miterlimit="22.9256" stroke-dasharray="1 2"/>
</g>
</g>
</g>
</g>
<defs>
<clipPath id="clip0_206_7823">
<rect width="192" height="192" fill="white"/>
</clipPath>
</defs>
</svg>
