<svg width="113" height="142" viewBox="0 0 113 142" fill="none" xmlns="http://www.w3.org/2000/svg">
<g opacity="0.2" filter="url(#filter0_f_513_13065)">
<ellipse cx="55.4424" cy="109.263" rx="26.4424" ry="11.435" fill="black"/>
</g>
<g filter="url(#filter1_d_513_13065)">
<path d="M45.1142 43.3771C44.101 43.5746 42.9036 43.8313 42.443 43.9696C40.9693 44.3646 38.1139 45.4312 38.0586 45.5892C38.0218 45.6683 37.9112 45.7473 37.8007 45.7473C37.5796 45.7473 35.6269 47.3669 35.2585 47.8607C34.6137 48.7495 34.1532 49.5001 34.1532 49.6976C34.1532 49.7964 34.0795 49.8951 34.0058 49.8951C33.49 49.8951 32.2373 55.1293 32.0531 58.092C31.8504 61.1733 32.2741 87.1665 32.5505 89.3984C32.8452 91.6699 33.14 93.1315 33.49 94.0401C33.6189 94.3561 33.84 94.9487 33.9689 95.3239C34.8716 97.8522 37.2849 99.7483 40.9693 100.795C45.0221 101.941 45.7958 102 56.5358 102C65.5809 102 67.6073 101.901 69.7074 101.388C70.3706 101.21 71.3285 100.973 71.8259 100.854C72.3418 100.736 73.0049 100.499 73.3365 100.341C73.6497 100.183 73.9629 100.064 74.0181 100.064C74.0918 100.064 74.6629 99.8076 75.2893 99.4915C76.3946 98.9187 77.4446 97.9312 78.421 96.509C79.0105 95.64 79.9132 92.7167 80.1895 90.8008C80.3184 89.991 80.4658 89.2404 80.5211 89.1219C80.65 88.9244 81 68.1654 81 61.3511C81 59.7709 80.9079 57.6773 80.779 56.7094C80.5395 54.7738 80.0421 52.2851 79.8395 51.969C79.7658 51.8505 79.6552 51.5147 79.5816 51.179C79.2684 49.8359 76.6709 46.3398 75.9709 46.3398C75.8603 46.3398 75.7866 46.2608 75.7866 46.1818C75.7866 45.9843 74.2945 45.1547 73.9629 45.1547C73.8523 45.1547 73.6129 45.0757 73.4286 44.9769C73.2628 44.8584 72.4891 44.5819 71.7338 44.3646C70.9785 44.1276 70.1127 43.8511 69.7995 43.7523C67.81 43.1203 65.452 42.982 56.241 43.0018C48.1354 43.0215 46.7169 43.061 45.1142 43.3771Z" fill="#333333"/>
</g>
<g filter="url(#filter2_d_513_13065)">
<mask id="mask0_513_13065" style="mask-type:luminance" maskUnits="userSpaceOnUse" x="33" y="28" width="46" height="20">
<path d="M33 28.8276H78.9676V47.4469H33V28.8276Z" fill="white"/>
</mask>
<g mask="url(#mask0_513_13065)">
<path d="M68.0688 35.9648C68.0706 35.9483 68.0727 35.9317 68.0756 35.915C68.0727 35.9317 68.0704 35.9483 68.0688 35.9648ZM78.6842 45.1158C78.9547 46.3115 75.0874 46.5014 74.2522 46.6531C67.17 47.3739 60.0362 47.4337 52.9232 47.3925C50.676 47.3097 33.0135 47.2772 33.1598 45.2532C33.1604 45.2529 33.1608 45.2529 33.1614 45.2529C33.1031 44.2398 35.8123 44.0721 36.5689 43.9203C37.9149 43.7392 39.2676 43.6181 40.6214 43.5167C41.7253 43.4352 42.8303 43.3669 43.9356 43.3127C43.8905 42.486 43.842 41.6592 43.7957 40.8327C43.7375 39.7928 43.6794 38.7529 43.6212 37.7129C43.5637 36.6833 43.506 35.6536 43.4484 34.6239C43.428 34.2561 43.4079 33.8884 43.3868 33.5207C43.3839 33.471 43.3905 33.4228 43.405 33.3777C43.4025 33.2905 43.4029 33.2036 43.4079 33.1163C43.4408 32.428 43.8267 31.8182 44.2961 31.3364C45.2886 30.3197 46.6757 29.8173 48.0276 29.4833C48.5797 29.3581 49.1397 29.2747 49.7018 29.2113C49.7591 29.1873 49.8189 29.1764 49.8802 29.1664C49.9596 29.1536 50.0391 29.1416 50.1186 29.1308C50.2601 29.1118 50.4016 29.094 50.5436 29.0774C50.8213 29.0452 51.0994 29.0187 51.3788 28.9984C51.9454 28.9578 52.5129 28.9231 53.0807 28.8978C53.661 28.8718 54.2416 28.8519 54.8227 28.8465C55.4146 28.8411 56.0068 28.8486 56.5987 28.8606C57.1678 28.8718 57.7364 28.8953 58.3051 28.9177C58.861 28.9396 59.4176 28.9558 59.9731 28.9885C60.5306 29.0212 61.0872 29.0671 61.6439 29.1122C61.8949 29.1325 62.1465 29.1503 62.3976 29.1718C62.3978 29.1718 62.3978 29.1718 62.3978 29.1718C62.464 29.1693 62.5329 29.1799 62.5989 29.19C62.727 29.2022 62.8549 29.2157 62.9824 29.2314C63.0147 29.2356 63.0519 29.2372 63.0846 29.2455C63.0954 29.2482 63.1057 29.2511 63.1161 29.254C63.3584 29.2831 63.6003 29.3136 63.8408 29.356C65.23 29.6136 66.8673 30.1653 67.812 31.2634C68.6906 32.1859 68.8626 33.4679 68.9003 34.6897C68.9025 34.963 68.9139 35.2368 68.9152 35.5104C68.9309 35.5559 68.9394 35.6046 68.9394 35.6548C68.9394 35.6629 68.9394 35.671 68.9394 35.6791C68.9394 35.6793 68.9394 35.6795 68.9394 35.6797C68.9394 36.6691 68.9361 37.6587 68.9344 38.6482C68.9328 39.7109 68.9307 40.7735 68.9292 41.8362C68.9284 42.3458 68.9276 42.8555 68.9265 43.3652C69.1823 43.3795 69.4379 43.3963 69.6935 43.4122C71.0806 43.5643 78.5189 43.781 78.6842 45.1158Z" fill="#FFEAB2"/>
</g>
<mask id="mask1_513_13065" style="mask-type:luminance" maskUnits="userSpaceOnUse" x="43" y="36" width="26" height="8">
<path d="M43.7421 36.6953H68.9974V43.5179H43.7421V36.6953Z" fill="white"/>
</mask>
<g mask="url(#mask1_513_13065)">
<path d="M68.9759 38.4265C68.9759 38.9632 68.9722 39.4993 68.9703 40.0359C68.9681 40.7416 68.9656 41.4472 68.9631 42.1535C68.9623 42.396 68.9614 42.6385 68.9606 42.8816V42.8822C68.9606 42.8884 68.9606 42.8947 68.9606 42.9003C68.9606 42.9009 68.9606 42.9015 68.9606 42.9015C68.9606 42.9053 68.9606 42.9084 68.9606 42.9121C68.9606 42.9264 68.9606 42.9408 68.9604 42.9551C68.9844 43.1864 68.9438 43.4781 68.8288 43.475C60.7558 42.166 52.6587 42.1385 44.5818 43.159C44.3595 43.1895 44.1373 43.2219 43.915 43.2543C43.8428 43.2643 43.7787 43.1066 43.7731 42.8853C43.7718 42.8342 43.7741 42.7837 43.7793 42.7363C43.7766 42.3935 43.776 42.05 43.7743 41.7072C43.7704 40.9666 43.7664 40.2261 43.7629 39.4855C43.7607 39.0666 43.7596 38.6477 43.7565 38.2282C43.7565 38.2226 43.7563 38.2176 43.7563 38.212C43.7563 38.2058 43.7563 38.2002 43.7563 38.1939C43.7555 37.9764 43.8076 37.7869 43.8819 37.7757C43.8995 37.7725 43.9169 37.7813 43.9332 37.7994C44.3674 37.7426 44.8016 37.6716 45.2359 37.6211C52.7259 36.7353 60.2292 36.7646 67.7161 37.8405C68.0863 37.8991 68.4563 37.9552 68.8263 38.0219C68.8304 38.0225 68.8344 38.0244 68.8381 38.0263C68.8402 38.0256 68.842 38.0256 68.8441 38.0256C68.9163 38.0269 68.9759 38.2095 68.9759 38.4265Z" fill="#27A924"/>
</g>
</g>
<ellipse cx="40.5" cy="66.22" rx="2.5" ry="3.5" fill="white"/>
<ellipse cx="53.5" cy="66.22" rx="2.5" ry="3.5" fill="white"/>
<path d="M46.5023 94.3698C47.8195 94.8244 48.8987 95.2121 48.9085 95.2326C48.9183 95.253 48.8321 95.5453 48.7189 95.8756C48.0677 97.7688 47.6198 99.8561 47.5961 101.088C47.578 102.005 47.7121 102.559 48.0361 102.921C48.4931 103.436 49.7104 103.923 51.9657 104.491C53.5958 105.431 53.5697 106.944 53.3097 107.434C53.1331 108.146 51.5262 108.909 50.2712 108.887C49.0163 108.865 45.0295 107.407 43.8662 105.92C43.4479 105.391 42.9086 104.253 42.7425 103.56C42.1682 101.183 42.4895 98.4632 43.8477 94.2685C43.9698 93.8937 44.0787 93.5755 44.089 93.5656C44.0993 93.5556 45.1851 93.9151 46.5023 94.3698Z" fill="#343434"/>
<path d="M56.9886 96.7158C57.6417 96.9444 58.2636 97.1672 58.3724 97.2014C58.8452 97.3593 60.5047 97.9475 60.5164 97.9589C60.5192 97.9686 60.3674 98.4333 60.1749 98.9918C59.3815 101.327 58.9145 102.857 57.8956 106.492C57.7472 107.012 57.3199 108.674 56.8037 110.712C56.2026 113.078 56.3074 112.75 56.0554 113.527C55.6538 115.043 54.4469 115.387 53.3435 115.18C52.2401 114.973 51.2403 114.214 51.2142 112.618C51.2914 112.208 51.266 111.705 51.7337 109.852C51.8821 109.257 52.0426 108.624 52.0902 108.444C52.1379 108.264 52.256 107.807 52.3493 107.432C52.447 107.059 52.5548 106.632 52.5958 106.488C52.6323 106.342 52.737 105.956 52.8256 105.632C53.5021 103.109 54.2628 100.555 55.0219 98.2547C55.612 96.4619 55.6869 96.2593 55.7529 96.2763C55.7788 96.2858 56.3364 96.4827 56.9886 96.7158Z" fill="#343434"/>
<defs>
<filter id="filter0_f_513_13065" x="8" y="76.8276" width="94.8849" height="64.8699" filterUnits="userSpaceOnUse" color-interpolation-filters="sRGB">
<feFlood flood-opacity="0" result="BackgroundImageFix"/>
<feBlend mode="normal" in="SourceGraphic" in2="BackgroundImageFix" result="shape"/>
<feGaussianBlur stdDeviation="10.5" result="effect1_foregroundBlur_513_13065"/>
</filter>
<filter id="filter1_d_513_13065" x="0" y="15" width="113" height="123" filterUnits="userSpaceOnUse" color-interpolation-filters="sRGB">
<feFlood flood-opacity="0" result="BackgroundImageFix"/>
<feColorMatrix in="SourceAlpha" type="matrix" values="0 0 0 0 0 0 0 0 0 0 0 0 0 0 0 0 0 0 127 0" result="hardAlpha"/>
<feOffset dy="4"/>
<feGaussianBlur stdDeviation="16"/>
<feComposite in2="hardAlpha" operator="out"/>
<feColorMatrix type="matrix" values="0 0 0 0 0 0 0 0 0 0 0 0 0 0 0 0 0 0 0.15 0"/>
<feBlend mode="normal" in2="BackgroundImageFix" result="effect1_dropShadow_513_13065"/>
<feBlend mode="normal" in="SourceGraphic" in2="effect1_dropShadow_513_13065" result="shape"/>
</filter>
<filter id="filter2_d_513_13065" x="1.15887" y="0.844727" width="109.539" height="82.5576" filterUnits="userSpaceOnUse" color-interpolation-filters="sRGB">
<feFlood flood-opacity="0" result="BackgroundImageFix"/>
<feColorMatrix in="SourceAlpha" type="matrix" values="0 0 0 0 0 0 0 0 0 0 0 0 0 0 0 0 0 0 127 0" result="hardAlpha"/>
<feOffset dy="4"/>
<feGaussianBlur stdDeviation="16"/>
<feComposite in2="hardAlpha" operator="out"/>
<feColorMatrix type="matrix" values="0 0 0 0 0 0 0 0 0 0 0 0 0 0 0 0 0 0 0.15 0"/>
<feBlend mode="normal" in2="BackgroundImageFix" result="effect1_dropShadow_513_13065"/>
<feBlend mode="normal" in="SourceGraphic" in2="effect1_dropShadow_513_13065" result="shape"/>
</filter>
</defs>
</svg>
