<svg width="100" height="147" viewBox="0 0 100 147" fill="none" xmlns="http://www.w3.org/2000/svg">
<g opacity="0.2" filter="url(#filter0_f_224_6983)">
<ellipse cx="49.4424" cy="108.435" rx="26.4424" ry="11.435" fill="black"/>
</g>
<g filter="url(#filter1_d_224_6983)">
<path d="M39.1142 42.5494C38.101 42.7469 36.9036 43.0037 36.443 43.142C34.9693 43.537 32.1139 44.6036 32.0586 44.7616C32.0218 44.8406 31.9112 44.9196 31.8007 44.9196C31.5796 44.9196 29.6269 46.5393 29.2585 47.0331C28.6137 47.9219 28.1532 48.6724 28.1532 48.87C28.1532 48.9687 28.0795 49.0675 28.0058 49.0675C27.49 49.0675 26.2373 54.3017 26.0531 57.2644C25.8504 60.3457 26.2741 86.3389 26.5505 88.5708C26.8452 90.8422 27.14 92.3039 27.49 93.2124C27.6189 93.5285 27.84 94.121 27.9689 94.4963C28.8716 97.0245 31.2849 98.9207 34.9693 99.9675C39.0221 101.113 39.7958 101.172 50.5358 101.172C59.5809 101.172 61.6073 101.074 63.7074 100.56C64.3706 100.382 65.3285 100.145 65.8259 100.027C66.3418 99.9083 67.0049 99.6712 67.3365 99.5132C67.6497 99.3552 67.9629 99.2367 68.0181 99.2367C68.0918 99.2367 68.6629 98.9799 69.2893 98.6639C70.3946 98.0911 71.4446 97.1035 72.421 95.6814C73.0105 94.8123 73.9132 91.8891 74.1895 89.9732C74.3184 89.1634 74.4658 88.4128 74.5211 88.2943C74.65 88.0968 75 67.3378 75 60.5234C75 58.9433 74.9079 56.8496 74.779 55.8818C74.5395 53.9461 74.0421 51.4574 73.8395 51.1414C73.7658 51.0229 73.6552 50.6871 73.5816 50.3513C73.2684 49.0082 70.6709 45.5122 69.9709 45.5122C69.8603 45.5122 69.7866 45.4332 69.7866 45.3542C69.7866 45.1566 68.2945 44.3271 67.9629 44.3271C67.8523 44.3271 67.6129 44.2481 67.4286 44.1493C67.2628 44.0308 66.4891 43.7543 65.7338 43.537C64.9785 43.3 64.1127 43.0235 63.7995 42.9247C61.81 42.2927 59.452 42.1544 50.241 42.1741C42.1354 42.1939 40.7169 42.2334 39.1142 42.5494Z" fill="#333333"/>
<path d="M42.4869 94.8498C42.2605 94.9252 41.858 95.1768 41.5938 95.3906C40.751 96.095 40.7385 96.2711 40.7762 102.409C40.8014 105.554 40.8643 108.12 40.9397 108.548C41.3548 110.736 43.8202 111.516 45.2038 109.894C45.4177 109.655 45.6189 109.277 45.6818 109.076C45.8202 108.523 45.8579 102.736 45.7447 99.378C45.6567 96.5604 45.6441 96.4724 45.3296 95.9692C44.9648 95.3906 44.512 95.0384 43.8705 94.8246C43.3422 94.6359 43.0403 94.6485 42.4869 94.8498Z" fill="#333333"/>
<path d="M55.8705 94.8499C55.3422 95.0763 54.7007 95.6423 54.4742 96.0826C54.1724 96.6738 54.0466 98.9128 54.0466 104.12V108.988L54.4617 109.592C55.6315 111.353 58.0465 111.064 58.8012 109.076C59.0654 108.359 59.1031 107.63 59.1157 102.196C59.1409 96.7996 59.1283 96.7492 58.8516 96.1581C58.2981 94.9883 56.9271 94.3845 55.8705 94.8499Z" fill="#333333"/>
</g>
<g filter="url(#filter2_d_224_6983)">
<mask id="mask0_224_6983" style="mask-type:luminance" maskUnits="userSpaceOnUse" x="27" y="28" width="46" height="19">
<path d="M27 28H72.9676V46.6193H27V28Z" fill="white"/>
</mask>
<g mask="url(#mask0_224_6983)">
<path d="M62.0688 35.1372C62.0706 35.1207 62.0727 35.1041 62.0756 35.0873C62.0727 35.1041 62.0704 35.1207 62.0688 35.1372ZM72.6842 44.2881C72.9547 45.4838 69.0874 45.6738 68.2522 45.8255C61.17 46.5463 54.0362 46.6061 46.9232 46.5649C44.676 46.4821 27.0135 46.4496 27.1598 44.4255C27.1604 44.4253 27.1608 44.4253 27.1614 44.4253C27.1031 43.4121 29.8123 43.2445 30.5689 43.0926C31.9149 42.9115 33.2676 42.7905 34.6214 42.6891C35.7253 42.6075 36.8303 42.5393 37.9356 42.485C37.8905 41.6583 37.842 40.8316 37.7957 40.0051C37.7375 38.9652 37.6794 37.9253 37.6212 36.8852C37.5637 35.8557 37.506 34.826 37.4484 33.7962C37.428 33.4285 37.4079 33.0608 37.3868 32.693C37.3839 32.6434 37.3905 32.5951 37.405 32.55C37.4025 32.4629 37.4029 32.376 37.4079 32.2887C37.4408 31.6004 37.8267 30.9905 38.2961 30.5088C39.2886 29.4921 40.6757 28.9896 42.0276 28.6556C42.5797 28.5304 43.1397 28.447 43.7018 28.3837C43.7591 28.3597 43.8189 28.3487 43.8802 28.3388C43.9596 28.326 44.0391 28.314 44.1186 28.3032C44.2601 28.2842 44.4016 28.2664 44.5436 28.2498C44.8213 28.2175 45.0994 28.191 45.3788 28.1708C45.9454 28.1302 46.5129 28.0954 47.0807 28.0702C47.661 28.0441 48.2416 28.0242 48.8227 28.0189C49.4146 28.0135 50.0068 28.0209 50.5987 28.0329C51.1678 28.0441 51.7364 28.0677 52.3051 28.0901C52.861 28.112 53.4176 28.1281 53.9731 28.1608C54.5306 28.1935 55.0872 28.2395 55.6439 28.2846C55.8949 28.3049 56.1465 28.3227 56.3976 28.3442C56.3978 28.3442 56.3978 28.3442 56.3978 28.3442C56.464 28.3417 56.5329 28.3522 56.5989 28.3624C56.727 28.3746 56.8549 28.388 56.9824 28.4038C57.0147 28.4079 57.0519 28.4096 57.0846 28.4178C57.0954 28.4205 57.1057 28.4234 57.1161 28.4263C57.3584 28.4555 57.6003 28.4859 57.8408 28.5284C59.23 28.786 60.8673 29.3377 61.812 30.4357C62.6906 31.3583 62.8626 32.6403 62.9003 33.862C62.9025 34.1354 62.9139 34.4092 62.9152 34.6828C62.9309 34.7283 62.9394 34.7769 62.9394 34.8272C62.9394 34.8353 62.9394 34.8433 62.9394 34.8514C62.9394 34.8516 62.9394 34.8518 62.9394 34.852C62.9394 35.8414 62.9361 36.831 62.9344 37.8206C62.9328 38.8832 62.9307 39.9459 62.9292 41.0085C62.9284 41.5182 62.9276 42.0279 62.9265 42.5376C63.1823 42.5519 63.4379 42.5686 63.6935 42.5846C65.0806 42.7367 72.5189 42.9534 72.6842 44.2881Z" fill="#FFEAB2"/>
</g>
<mask id="mask1_224_6983" style="mask-type:luminance" maskUnits="userSpaceOnUse" x="37" y="35" width="26" height="8">
<path d="M37.7421 35.8677H62.9974V42.6903H37.7421V35.8677Z" fill="white"/>
</mask>
<g mask="url(#mask1_224_6983)">
<path d="M62.9759 37.5988C62.9759 38.1355 62.9722 38.6716 62.9703 39.2083C62.9681 39.914 62.9656 40.6196 62.9631 41.3259C62.9623 41.5683 62.9614 41.8108 62.9606 42.0539V42.0546C62.9606 42.0608 62.9606 42.067 62.9606 42.0726C62.9606 42.0733 62.9606 42.0739 62.9606 42.0739C62.9606 42.0776 62.9606 42.0807 62.9606 42.0845C62.9606 42.0988 62.9606 42.1132 62.9604 42.1275C62.9844 42.3587 62.9438 42.6505 62.8288 42.6474C54.7558 41.3383 46.6587 41.3109 38.5818 42.3313C38.3595 42.3619 38.1373 42.3943 37.915 42.4267C37.8428 42.4367 37.7787 42.279 37.7731 42.0577C37.7718 42.0066 37.7741 41.9561 37.7793 41.9087C37.7766 41.5658 37.776 41.2224 37.7743 40.8795C37.7704 40.139 37.7664 39.3984 37.7629 38.6579C37.7607 38.239 37.7596 37.8201 37.7565 37.4006C37.7565 37.395 37.7563 37.39 37.7563 37.3844C37.7563 37.3782 37.7563 37.3725 37.7563 37.3663C37.7555 37.1488 37.8076 36.9593 37.8819 36.948C37.8995 36.9449 37.9169 36.9536 37.9332 36.9717C38.3674 36.915 38.8016 36.8439 39.2359 36.7934C46.7259 35.9076 54.2292 35.9369 61.7161 37.0129C62.0863 37.0715 62.4563 37.1276 62.8263 37.1943C62.8304 37.1949 62.8344 37.1968 62.8381 37.1986C62.8402 37.198 62.842 37.198 62.8441 37.198C62.9163 37.1992 62.9759 37.3819 62.9759 37.5988Z" fill="#27A924"/>
</g>
</g>
<ellipse cx="34.5" cy="65.3923" rx="2.5" ry="3.5" fill="white"/>
<ellipse cx="47.5" cy="65.3923" rx="2.5" ry="3.5" fill="white"/>
<defs>
<filter id="filter0_f_224_6983" x="2" y="76" width="94.8849" height="64.8699" filterUnits="userSpaceOnUse" color-interpolation-filters="sRGB">
<feFlood flood-opacity="0" result="BackgroundImageFix"/>
<feBlend mode="normal" in="SourceGraphic" in2="BackgroundImageFix" result="shape"/>
<feGaussianBlur stdDeviation="10.5" result="effect1_foregroundBlur_224_6983"/>
</filter>
<filter id="filter1_d_224_6983" x="-6" y="14.1724" width="113" height="132.586" filterUnits="userSpaceOnUse" color-interpolation-filters="sRGB">
<feFlood flood-opacity="0" result="BackgroundImageFix"/>
<feColorMatrix in="SourceAlpha" type="matrix" values="0 0 0 0 0 0 0 0 0 0 0 0 0 0 0 0 0 0 127 0" result="hardAlpha"/>
<feOffset dy="4"/>
<feGaussianBlur stdDeviation="16"/>
<feComposite in2="hardAlpha" operator="out"/>
<feColorMatrix type="matrix" values="0 0 0 0 0 0 0 0 0 0 0 0 0 0 0 0 0 0 0.15 0"/>
<feBlend mode="normal" in2="BackgroundImageFix" result="effect1_dropShadow_224_6983"/>
<feBlend mode="normal" in="SourceGraphic" in2="effect1_dropShadow_224_6983" result="shape"/>
</filter>
<filter id="filter2_d_224_6983" x="-4.84113" y="0.0170898" width="109.539" height="82.5576" filterUnits="userSpaceOnUse" color-interpolation-filters="sRGB">
<feFlood flood-opacity="0" result="BackgroundImageFix"/>
<feColorMatrix in="SourceAlpha" type="matrix" values="0 0 0 0 0 0 0 0 0 0 0 0 0 0 0 0 0 0 127 0" result="hardAlpha"/>
<feOffset dy="4"/>
<feGaussianBlur stdDeviation="16"/>
<feComposite in2="hardAlpha" operator="out"/>
<feColorMatrix type="matrix" values="0 0 0 0 0 0 0 0 0 0 0 0 0 0 0 0 0 0 0.15 0"/>
<feBlend mode="normal" in2="BackgroundImageFix" result="effect1_dropShadow_224_6983"/>
<feBlend mode="normal" in="SourceGraphic" in2="effect1_dropShadow_224_6983" result="shape"/>
</filter>
</defs>
</svg>
