<svg width="51" height="70" viewBox="0 0 51 70" fill="none" xmlns="http://www.w3.org/2000/svg">
<mask id="mask0_487_12626" style="mask-type:luminance" maskUnits="userSpaceOnUse" x="0" y="0" width="51" height="70">
<path d="M0 0H50.4002V69.4711H0V0Z" fill="white"/>
</mask>
<g mask="url(#mask0_487_12626)">
<path d="M49.8954 39.9393C50.3866 42.1529 50.1572 43.8073 48.9031 45.7268C48.3822 46.5606 47.7956 47.3506 47.1999 48.1318C46.9066 48.5166 46.6106 48.9002 46.2987 49.2705C46.2527 49.3246 46.1872 49.3547 46.1213 49.3547C46.083 49.3547 46.0443 49.3445 46.0095 49.3227C45.934 49.2963 45.8743 49.229 45.8623 49.1451C45.8512 48.9748 45.9487 48.8165 46.0144 48.6646C46.0482 48.5934 46.0822 48.5224 46.1183 48.4524C46.1205 48.4462 46.1228 48.44 46.1256 48.434C46.2726 48.1115 46.3992 47.7803 46.5064 47.4727C46.8604 46.4885 47.0921 45.475 47.2292 44.4446C47.5043 42.284 47.4356 40.5385 47.0551 39.0189C46.8116 38.4509 46.5214 37.902 46.1782 37.3796C44.9102 35.2268 43.1931 33.3777 41.2509 31.8228C38.2698 29.5046 35.0408 27.488 32.3046 24.8653C29.1997 21.8961 26.8028 18.3028 24.4831 14.7097C24.484 14.9242 24.4848 15.1388 24.4857 15.3534C24.4959 17.8495 24.5056 20.3457 24.5156 22.8418C24.5257 25.3515 24.536 27.8613 24.5458 30.371C24.5554 32.8121 24.565 35.2533 24.5751 37.6943C24.5856 40.2377 24.5956 42.7809 24.6057 45.3244C24.6157 47.8396 24.6256 50.3548 24.6358 52.87C24.6427 54.5086 24.6491 56.1471 24.6555 57.7853C24.6557 57.8146 24.6497 57.8426 24.6386 57.8683C24.6358 57.9468 24.6281 58.0249 24.6125 58.1034C24.5556 58.3434 24.4799 58.5813 24.3845 58.8089C24.3813 58.8164 24.3779 58.8236 24.3742 58.8309C24.3287 59.0084 24.2741 59.1839 24.2144 59.3565C24.0953 59.7013 23.9451 60.0325 23.7689 60.3518C23.412 60.9981 22.9759 61.6028 22.4978 62.1643C22.2563 62.448 22.003 62.7211 21.7395 62.9842C21.5972 63.1263 21.4528 63.266 21.3026 63.3997C21.1651 63.5222 21.0278 63.6448 20.8902 63.7674C20.8337 63.8179 20.7771 63.8681 20.7204 63.9186C20.6904 63.9456 20.6611 63.9744 20.6295 63.9993C20.3982 64.1813 20.1687 64.3655 19.9381 64.5484C19.8833 64.5918 19.8264 64.632 19.7697 64.6731C19.6206 64.7803 19.4718 64.8874 19.3229 64.9948C19.2223 65.0671 19.122 65.1392 19.0217 65.2117C18.9425 65.2686 18.8572 65.3185 18.7753 65.3715C18.6144 65.4755 18.4533 65.5797 18.2922 65.6838C18.2124 65.7354 18.1342 65.7916 18.052 65.8391C17.7883 65.9908 17.5249 66.1433 17.2614 66.2954C17.1641 66.3517 17.0667 66.4079 16.9694 66.464C16.9046 66.5014 16.8348 66.5322 16.7681 66.566C16.4453 66.729 16.1225 66.8918 15.7997 67.055C15.7298 67.0903 15.6607 67.1299 15.5888 67.1609C15.5067 67.1964 15.4245 67.2324 15.3424 67.2681C15.0046 67.4148 14.6666 67.5614 14.3288 67.7081C14.2324 67.75 14.1359 67.792 14.0394 67.8339C13.9879 67.8563 13.9331 67.8726 13.8803 67.8914C13.5401 68.0129 13.1998 68.1342 12.8595 68.2559C12.733 68.3011 12.6066 68.3462 12.48 68.3913C12.2667 68.4673 12.0479 68.5295 11.8308 68.5935C11.0964 68.8098 10.3513 68.9867 9.59921 69.1291C8.83233 69.2744 8.05561 69.3768 7.27653 69.4263C6.95502 69.4468 6.63287 69.4575 6.31093 69.4575C5.86149 69.4575 5.41227 69.4367 4.96455 69.3925C4.58529 69.355 4.20901 69.2949 3.8368 69.2123C3.47058 69.1311 3.11185 69.02 2.76103 68.8872C2.09576 68.6354 1.46749 68.2662 0.975277 67.7477C0.734193 67.4936 0.53119 67.2033 0.374604 66.8901C0.21845 66.5774 0.118335 66.2441 0.0669961 65.8988C0.0137346 65.5412 0.0269998 65.1745 0.0708532 64.8168C0.116202 64.4478 0.207971 64.0859 0.329472 63.7351C0.570555 63.0386 0.937203 62.3943 1.36353 61.7951C1.80141 61.1797 2.29833 60.6055 2.83483 60.0746C3.07399 59.838 3.33089 59.6196 3.58203 59.3958C3.68364 59.3054 3.78525 59.2149 3.88686 59.1244C3.93584 59.0808 3.98932 59.042 4.04131 59.002C4.32709 58.7817 4.61288 58.5614 4.89867 58.341C4.98381 58.2754 5.06894 58.2097 5.1543 58.144C5.25184 58.0689 5.35645 58.0013 5.45784 57.9314C5.61528 57.8229 5.77422 57.7168 5.93401 57.6122C6.57618 57.1919 7.24102 56.8073 7.91956 56.4494C9.26935 55.7377 10.6765 55.14 12.1287 54.6709C13.6045 54.1943 15.1302 53.8514 16.674 53.6946C17.4466 53.6161 18.2229 53.5986 18.9984 53.6381C19.3719 53.6574 19.7454 53.6903 20.1139 53.7554C20.4808 53.8202 20.8393 53.9259 21.1968 54.0298C21.3157 54.0645 21.4346 54.0998 21.5529 54.1366C21.5978 54.1171 21.6494 54.112 21.6992 54.1263C21.7401 54.1378 21.7803 54.1556 21.8199 54.1712C21.8757 54.193 21.9313 54.2159 21.9867 54.239C21.9983 54.2439 22.009 54.2497 22.0193 54.2564C22.0338 54.2628 22.0486 54.2694 22.0631 54.276C22.126 54.3051 22.1882 54.3351 22.2503 54.3652C22.2623 54.3691 22.274 54.3729 22.286 54.3768C22.3172 54.3871 22.3453 54.4031 22.3688 54.4236C22.3953 54.4369 22.4218 54.4502 22.4484 54.4634C22.4685 54.4735 22.4884 54.484 22.5083 54.4947C22.505 53.0886 22.5016 51.6828 22.498 50.2769C22.4916 47.8135 22.4862 45.3501 22.4798 42.8866C22.4732 40.2856 22.467 37.6849 22.4606 35.0839C22.4548 32.7054 22.4486 30.3269 22.443 27.9484C22.437 25.3119 22.43 22.6752 22.4238 20.0387C22.4178 17.5823 22.4103 15.126 22.4056 12.6694C22.4007 10.142 22.3927 7.61461 22.387 5.08721C22.3833 3.52565 22.3791 1.96386 22.3754 0.402287C22.3752 0.365065 22.385 0.329774 22.4017 0.29897C22.3848 0.0136112 22.7397 0.0465491 22.938 0.0379953C23.294 0.0270867 23.6506 0.0223772 24.0067 0.0174595C24.0067 0.0166053 24.0065 0.0157469 24.0065 0.0148926C24.0144 0.0155333 24.0221 0.016391 24.03 0.0170317C24.0324 0.0172453 24.0347 0.0174599 24.0371 0.0176735C24.0431 0.0181006 24.0491 0.0185265 24.0551 0.0189536C24.0591 0.0191672 24.0632 0.0196024 24.0671 0.0198159C24.0711 0.0200295 24.0752 0.0204543 24.079 0.0204543C24.1023 0.0215222 24.1257 0.0221656 24.149 0.0234525C24.1492 0.0232389 24.1496 0.0234525 24.1498 0.0234525C24.15 0.0234525 24.1505 0.0234525 24.1507 0.0234525C24.1509 0.0234525 24.1511 0.0234525 24.1513 0.0234525C24.158 0.0240932 24.1644 0.0245197 24.1708 0.0251604C24.1787 0.0258012 24.1864 0.0266592 24.1943 0.0275135C24.1945 0.0275135 24.1948 0.0277274 24.195 0.0277274C24.207 0.0290088 24.2187 0.0307223 24.2307 0.032858C24.2724 0.0422716 24.3141 0.0510454 24.3563 0.0587449C24.3565 0.0587449 24.3565 0.0587449 24.3567 0.0587449C24.3749 0.0685856 24.3931 0.0786406 24.4106 0.0899763C24.4127 0.0914768 24.4151 0.0931856 24.4174 0.0948997C24.441 0.150302 24.4624 0.206344 24.4846 0.262174C24.5246 0.610213 24.5772 0.956967 24.6183 1.30479C24.7978 2.7408 25.1576 4.15048 25.6733 5.5022C26.7014 8.2664 28.2837 10.7803 30.0038 13.1616C31.3239 14.9921 32.7006 16.7894 34.2025 18.4741C38.847 23.5595 44.9087 27.518 47.8887 33.941C48.8008 35.8484 49.4956 37.8618 49.8954 39.9393Z" fill="#FAFAFA"/>
</g>
</svg>
