<svg width="192" height="192" viewBox="0 0 192 192" fill="none" xmlns="http://www.w3.org/2000/svg">
<g clip-path="url(#clip0_206_7867)">
<mask id="mask0_206_7867" style="mask-type:luminance" maskUnits="userSpaceOnUse" x="0" y="0" width="192" height="192">
<path d="M192 192V0H0V192H192Z" fill="white"/>
</mask>
<g mask="url(#mask0_206_7867)">
<mask id="mask1_206_7867" style="mask-type:luminance" maskUnits="userSpaceOnUse" x="0" y="0" width="192" height="192">
<path d="M192 192V0H0V192H192Z" fill="white"/>
</mask>
<g mask="url(#mask1_206_7867)">
<mask id="mask2_206_7867" style="mask-type:luminance" maskUnits="userSpaceOnUse" x="1" y="0" width="192" height="192">
<path d="M193 192V0H1V192H193Z" fill="white"/>
</mask>
<g mask="url(#mask2_206_7867)">
<path fill-rule="evenodd" clip-rule="evenodd" d="M76.5587 77.1998C75.1447 63.6903 87.7317 60.3206 96.4658 57.6901C102.197 55.9634 113.705 54.4891 124.647 53.7679C130.012 53.4139 132.861 62.4143 134.319 71.5628C135.269 77.5291 135.531 84.8085 128.72 86.2452C122.551 87.5463 114.309 89.5599 105.823 88.9137C91.8357 87.8478 78.3707 94.5121 76.5587 77.1998Z" fill="#808080" stroke="#663300" stroke-width="5.315" stroke-miterlimit="22.9256"/>
<path d="M112.512 60.9121C115.694 67.7069 116.2 75.224 114.885 83.606" stroke="#663300" stroke-width="5.315" stroke-miterlimit="22.9256"/>
<path d="M106.694 62.2324C109.507 68.2369 109.954 74.8795 108.792 82.2869" stroke="#663300" stroke-width="5.315" stroke-miterlimit="22.9256"/>
<path fill-rule="evenodd" clip-rule="evenodd" d="M108.629 76.0863C108.164 86.8095 100.386 89.2495 94.2454 88.8327C88.1045 88.4161 74.8585 83.2218 75.3245 72.4988C75.8135 61.2438 109.862 47.7155 108.629 76.0863Z" fill="#336699" stroke="#663300" stroke-width="5.315" stroke-miterlimit="22.9256"/>
<path fill-rule="evenodd" clip-rule="evenodd" d="M23.0001 110.489C21.5861 123.999 34.1731 127.369 42.9081 129.999C48.6391 131.726 60.1471 133.2 71.0881 133.921C76.4531 134.275 79.3031 125.275 80.7601 116.126C81.7111 110.16 81.9731 102.881 75.1621 101.444C68.9921 100.143 60.7511 98.1293 52.2641 98.7755C38.2771 99.8414 24.8121 93.1772 23.0001 110.489Z" fill="#808080" stroke="#663300" stroke-width="5.315" stroke-miterlimit="22.9256"/>
<path d="M58.9531 126.778C62.1361 119.983 62.6411 112.466 61.3271 104.084" stroke="#663300" stroke-width="5.315" stroke-miterlimit="22.9256"/>
<path d="M53.1357 125.459C55.9487 119.454 56.3947 112.812 55.2327 105.404" stroke="#663300" stroke-width="5.315" stroke-miterlimit="22.9256"/>
<path fill-rule="evenodd" clip-rule="evenodd" d="M55.0709 111.603C54.6049 100.879 46.8269 98.4396 40.6869 98.8562C34.5459 99.2729 21.2989 104.467 21.7649 115.19C22.2539 126.445 56.3029 139.973 55.0709 111.603Z" fill="#336699" stroke="#663300" stroke-width="5.315" stroke-miterlimit="22.9256"/>
<path fill-rule="evenodd" clip-rule="evenodd" d="M158.347 151.676C157.187 156.36 148.6 157.593 140.356 155.551C137.893 154.941 120.244 155.289 114.455 152.278C109.951 149.935 111.821 138.349 114.235 138.565C119.1 139.001 126.95 137.334 129.161 136.641C131.462 135.918 136.375 118.287 144.437 122.371C148.14 124.246 141.499 132.718 142.982 132.032C145.452 130.887 150.921 129.939 153.744 131.014C161.681 134.034 159.507 146.992 158.347 151.676Z" fill="#99CC99" stroke="#663300" stroke-width="5.31503" stroke-miterlimit="22.9256"/>
<path fill-rule="evenodd" clip-rule="evenodd" d="M59.8704 129.148C64.4024 120.328 77.3044 127.37 90.0594 129.957C96.8736 131.34 107.869 132.76 117.477 132.942C117.817 138.355 116.303 152.699 116.83 156.951C110.016 160.192 105.886 159.926 86.6504 156.514C71.6894 153.859 54.4074 139.778 59.8704 129.148Z" fill="#E6E6E6" stroke="#663300" stroke-width="5.31486" stroke-miterlimit="22.9256"/>
<path d="M106.356 133.061L106.139 158.164" stroke="#663300" stroke-width="5.31486" stroke-miterlimit="22.9256"/>
<path fill-rule="evenodd" clip-rule="evenodd" d="M94.7823 151.569C94.6168 152.583 93.8532 153.402 92.7526 153.905C91.6526 154.408 90.2146 153.419 88.7016 153.173C87.1876 152.926 85.8836 153.467 85.0006 152.641C84.1176 151.814 83.6536 150.795 83.8186 149.781C83.9836 148.766 81.2726 146.448 84.9066 144.621C88.0516 143.04 88.3866 146.754 89.8996 147C91.4126 147.246 94.2504 144.965 95.2472 145.65C99.1891 148.358 94.9478 150.554 94.7823 151.569Z" fill="#BA0000"/>
<path fill-rule="evenodd" clip-rule="evenodd" d="M100.986 144.103C100.82 145.332 99.4552 146.086 97.9376 145.787C96.4203 145.488 95.3245 144.249 95.4902 143.021C95.6561 141.792 97.0209 141.038 98.5386 141.337C100.056 141.636 101.152 142.874 100.986 144.103Z" fill="#BA0000"/>
<path fill-rule="evenodd" clip-rule="evenodd" d="M111.172 143.554C109.852 143.458 108.898 141.783 109.041 139.813C109.184 137.844 110.371 136.324 111.691 136.42C113.012 136.516 113.966 138.191 113.823 140.161C113.679 142.13 112.492 143.65 111.172 143.554Z" fill="#BA0000"/>
<path fill-rule="evenodd" clip-rule="evenodd" d="M151.477 41.7275C150.436 37.0156 141.883 35.5683 133.59 37.4014C131.112 37.9492 113.478 37.1568 107.614 40.0215C103.054 42.2499 104.631 53.8797 107.05 53.7242C111.925 53.411 119.73 55.2748 121.923 56.0239C124.205 56.8038 128.672 74.5525 136.835 70.6734C140.584 68.8918 134.158 60.2557 135.622 60.9793C138.064 62.1855 143.506 63.2711 146.356 62.2677C154.367 59.4476 152.519 46.4394 151.477 41.7275Z" fill="#99CC99" stroke="#663300" stroke-width="5.31497" stroke-miterlimit="22.9256"/>
<path fill-rule="evenodd" clip-rule="evenodd" d="M52.4707 61.7614C56.7797 70.6926 69.8547 63.9772 82.6707 61.7111C89.5177 60.5005 100.547 59.3573 110.156 59.4175C110.632 54.0145 109.479 39.6375 110.114 35.3993C103.382 31.9883 99.2473 32.1506 79.9317 35.0777C64.9077 37.3547 47.2777 50.9971 52.4707 61.7614Z" fill="#E6E6E6" stroke="#663300" stroke-width="5.31488" stroke-miterlimit="22.9256"/>
<path d="M99.042 59.0207L99.4561 33.9199" stroke="#663300" stroke-width="5.31488" stroke-miterlimit="22.9256"/>
<path fill-rule="evenodd" clip-rule="evenodd" d="M76.6102 44.1177C76.2462 43.1563 76.4982 42.0657 77.2002 41.0795C77.9012 40.0938 79.6402 40.2309 81.0742 39.6882C82.5082 39.1449 83.3672 38.0242 84.5452 38.2984C85.7242 38.5727 86.6352 39.2237 86.9992 40.1842C87.3632 41.1452 93.9292 42.0363 91.8952 45.559C87.6242 52.9582 84.5562 45.0899 83.1232 45.633C81.6902 46.1763 80.7352 50.2947 79.1672 48.7519C75.7582 45.3978 76.9742 45.0793 76.6102 44.1177Z" fill="#BA0000"/>
<path fill-rule="evenodd" clip-rule="evenodd" d="M96.1517 39.7301C95.9859 40.9586 94.6211 41.7126 93.1035 41.4135C91.5863 41.1145 90.4903 39.8761 90.6563 38.6476C90.8223 37.4189 92.1863 36.6649 93.7043 36.9639C95.2215 37.2629 96.3175 38.5014 96.1517 39.7301Z" fill="#BA0000"/>
<path fill-rule="evenodd" clip-rule="evenodd" d="M54.9741 44.6366C44.2771 45.5921 42.1781 55.3913 42.8621 63.0466C43.5461 70.7023 49.3141 87.0647 60.0111 86.1093C71.2371 85.1062 83.2741 42.1076 54.9741 44.6366Z" fill="#E6E6E6" stroke="#663300" stroke-width="5.30178" stroke-miterlimit="22.9256"/>
<path fill-rule="evenodd" clip-rule="evenodd" d="M78.3196 52.4872C78.7956 57.8212 75.0346 62.518 69.9196 62.9746C64.8046 63.4317 60.2706 59.4767 59.7936 54.1426C59.3176 48.8085 63.0786 44.1118 68.1936 43.6551C73.3086 43.1981 77.8426 47.1531 78.3196 52.4872Z" fill="#E6E6E6"/>
<path fill-rule="evenodd" clip-rule="evenodd" d="M64.4426 150.613C53.7466 151.569 49.9426 142.298 49.2586 134.642C48.5746 126.987 51.3506 109.86 62.0476 108.905C73.2736 107.902 92.7424 148.085 64.4426 150.613Z" fill="#E6E6E6" stroke="#663300" stroke-width="5.30178" stroke-miterlimit="22.9256"/>
<path fill-rule="evenodd" clip-rule="evenodd" d="M85.8285 136.525C86.3055 141.859 82.5445 146.555 77.4295 147.012C72.3145 147.469 67.7795 143.514 67.3035 138.18C66.8265 132.846 70.5885 128.149 75.7025 127.692C80.8185 127.235 85.3525 131.191 85.8285 136.525Z" fill="#E6E6E6"/>
<path fill-rule="evenodd" clip-rule="evenodd" d="M100.377 94.2491C100.811 102.538 98.1148 110.267 93.3237 116.29C97.245 121.651 97.0207 128.541 95.1292 134.207L84.5382 124.038C79.6572 127.51 81.6742 127.954 69.4522 128.595C57.2302 129.236 35.7242 109.456 35.1072 97.67C34.4892 85.8845 36.0672 89.4369 38.2722 84.7324C34.8282 79.812 31.4762 76.6362 33.2412 71.0064C36.4642 71.3469 39.7072 72.0517 42.9912 73.555C37.6692 69.4629 38.6472 65.0399 39.2542 60.6367C43.9572 62.8673 48.2302 65.2675 49.4922 68.8475C54.2422 65.6433 59.2442 63.6805 66.0312 63.3244C72.8192 62.9687 78.0922 61.6928 83.8002 65.5953C85.3052 61.9087 89.0662 62.1991 93.1486 63.0577C93.5815 67.3896 92.331 70.206 90.3162 72.3342C91.4322 73.3997 92.474 74.5441 93.4319 75.7602C95.058 72.3823 99.2066 71.2778 104.504 71.2056C104.219 76.8107 102.098 80.7635 98.1435 83.0637C99.9655 86.8503 100.143 89.7913 100.377 94.2491Z" fill="#996633" stroke="#663300" stroke-width="5.315" stroke-miterlimit="22.9256" stroke-linecap="round" stroke-linejoin="round"/>
<path fill-rule="evenodd" clip-rule="evenodd" d="M96.0316 94.4781C96.8504 110.101 84.8448 123.434 69.2218 124.253C53.5988 125.072 40.2658 113.066 39.4468 97.4435C38.6278 81.8207 50.6338 68.4872 66.2558 67.6684C81.8788 66.8495 95.2131 78.8552 96.0316 94.4781Z" fill="url(#paint0_radial_206_7867)"/>
<path fill-rule="evenodd" clip-rule="evenodd" d="M78.8536 75.6645L69.9826 94.4188L90.2636 83.8554L70.1766 98.1081C70.1766 98.1081 82.6436 113.39 81.7036 111.732C80.7626 110.074 67.7556 100.796 67.7556 100.796L61.4846 95.1487L47.8516 79.3587L63.1736 89.3688L60.6376 73.5664L66.9066 90.0268L78.8536 75.6645Z" fill="#663300" fill-opacity="0.5"/>
<path fill-rule="evenodd" clip-rule="evenodd" d="M59.4243 89.9877C61.4513 91.9789 62.9003 92.9519 64.9283 94.9433C69.3903 93.3726 74.1193 96.4953 73.8713 105.487C81.3723 112.483 83.0953 118.879 81.0093 122.882C74.2943 135.768 44.8883 124.366 41.3153 114.711C30.1703 99.3629 41.0953 86.7494 59.4243 89.9877Z" fill="#FF9999"/>
<mask id="mask3_206_7867" style="mask-type:luminance" maskUnits="userSpaceOnUse" x="36" y="89" width="46" height="40">
<path fill-rule="evenodd" clip-rule="evenodd" d="M59.423 89.9877C61.45 91.9789 62.9 92.9519 64.927 94.9433C69.389 93.3726 74.119 96.4953 73.87 105.487C81.371 112.483 83.094 118.879 81.009 122.882C74.293 135.768 44.887 124.366 41.315 114.711C30.169 99.3629 41.094 86.7494 59.423 89.9877Z" fill="white"/>
</mask>
<g mask="url(#mask3_206_7867)">
<path d="M53.9902 126.608C57.7912 124.432 59.0171 120.575 53.6501 119.571C48.6831 119.78 44.3301 113.491 50.3421 111.915C55.8471 109.952 51.3401 105.093 49.5371 103.604M76.6231 107.968C72.4571 106.615 68.7781 108.299 71.6401 112.948C75.1321 116.486 71.9191 122.368 66.7121 118.975C60.8101 114.162 61.4882 124.498 62.3892 126.544M63.3541 91.3789C59.5021 93.4634 58.1841 97.2895 63.5261 98.4226C68.4961 98.333 70.5411 104.717 64.4931 106.148C58.9421 107.978 65.4871 112.952 67.2541 114.484M38.2451 102.307C40.9841 107.966 44.3091 110.809 43.3131 102.51C43.3321 96.8685 54.6312 94.7656 54.9042 100.975C56.9392 106.179 59.8362 104.255 61.6712 102.807" stroke="#FF6666" stroke-width="2.6575" stroke-miterlimit="2.61313" stroke-linecap="round" stroke-linejoin="round"/>
</g>
<path d="M59.4263 89.9876C61.4533 91.9787 62.9023 92.952 64.9303 94.9429C69.3923 93.3725 74.1223 96.4951 73.8733 105.487C81.3743 112.483 83.0973 118.879 81.0123 122.881C74.2963 135.768 44.8903 124.366 41.3173 114.711C30.1723 99.3628 41.0973 86.7494 59.4263 89.9876Z" stroke="#663300" stroke-width="5.315" stroke-miterlimit="22.9256"/>
<path d="M193.469 192.698V-0.601562H0.168945V192.698H193.469Z" stroke="#D6D6D6" stroke-miterlimit="22.9256" stroke-dasharray="1 2"/>
</g>
</g>
</g>
</g>
<defs>
<radialGradient id="paint0_radial_206_7867" cx="0" cy="0" r="1" gradientUnits="userSpaceOnUse" gradientTransform="translate(67.7388 95.9606) rotate(90) scale(27.1985 27.1985)">
<stop stop-color="#CC9933"/>
<stop offset="1" stop-color="#996633"/>
</radialGradient>
<clipPath id="clip0_206_7867">
<rect width="192" height="192" fill="white"/>
</clipPath>
</defs>
</svg>
