<svg width="100" height="129" viewBox="0 0 100 129" fill="none" xmlns="http://www.w3.org/2000/svg">
<g opacity="0.2" filter="url(#filter0_f_224_6649)">
<ellipse cx="49.4424" cy="106.607" rx="26.4424" ry="11.435" fill="black"/>
</g>
<g filter="url(#filter1_d_224_6649)">
<path d="M34.1292 44.0898C28.4025 44.6117 26.1616 45.495 24.3476 47.8638C22.3557 50.3932 22 51.5575 22 55.2914C22 59.9487 22.8181 62.2372 32.3507 83.5967C35.1607 89.8599 38.0418 95.2801 39.5713 97.0467C41.8477 99.6564 43.3061 100.058 50.7756 100.058C56.7869 100.058 56.8224 100.058 58.9566 98.8534C60.7351 97.8497 61.3753 97.1671 62.9404 94.6377C64.7189 91.7068 75.0695 68.8619 77.2037 63.0804C79.2667 57.5398 79.4446 53.7657 77.9151 50.2728C75.9944 45.9768 73.7535 44.7723 66.2483 44.0898C61.5176 43.6481 38.7532 43.6481 34.1292 44.0898Z" fill="#333333"/>
<path d="M42.4869 92.4359C42.2605 92.5114 41.858 92.763 41.5938 92.9768C40.751 93.6812 40.7385 93.8573 40.7762 99.9956C40.8014 103.14 40.8643 105.706 40.9397 106.134C41.3548 108.323 43.8202 109.102 45.2038 107.48C45.4177 107.241 45.6189 106.863 45.6818 106.662C45.8202 106.109 45.8579 100.323 45.7447 96.9642C45.6567 94.1466 45.6441 94.0586 45.3296 93.5554C44.9648 92.9768 44.512 92.6246 43.8705 92.4108C43.3422 92.2221 43.0403 92.2347 42.4869 92.4359Z" fill="#333333"/>
<path d="M55.8705 92.4361C55.3422 92.6625 54.7007 93.2285 54.4742 93.6688C54.1724 94.26 54.0466 96.4989 54.0466 101.706V106.574L54.4617 107.178C55.6315 108.939 58.0465 108.65 58.8012 106.662C59.0654 105.945 59.1031 105.216 59.1157 99.7819C59.1409 94.3857 59.1283 94.3354 58.8516 93.7442C58.2981 92.5744 56.9271 91.9707 55.8705 92.4361Z" fill="#333333"/>
</g>
<g filter="url(#filter2_d_224_6649)">
<mask id="mask0_224_6649" style="mask-type:luminance" maskUnits="userSpaceOnUse" x="27" y="28" width="46" height="19">
<path d="M27 28.1724H72.9676V46.7916H27V28.1724Z" fill="white"/>
</mask>
<g mask="url(#mask0_224_6649)">
<path d="M62.0688 35.3096C62.0706 35.293 62.0727 35.2765 62.0756 35.2597C62.0727 35.2765 62.0704 35.293 62.0688 35.3096ZM72.6842 44.4605C72.9547 45.6562 69.0874 45.8462 68.2522 45.9978C61.17 46.7186 54.0362 46.7784 46.9232 46.7372C44.676 46.6545 27.0135 46.622 27.1598 44.5979C27.1604 44.5977 27.1608 44.5977 27.1614 44.5977C27.1031 43.5845 29.8123 43.4169 30.5689 43.265C31.9149 43.0839 33.2676 42.9628 34.6214 42.8614C35.7253 42.7799 36.8303 42.7116 37.9356 42.6574C37.8905 41.8307 37.842 41.0039 37.7957 40.1774C37.7375 39.1376 37.6794 38.0977 37.6212 37.0576C37.5637 36.0281 37.506 34.9983 37.4484 33.9686C37.428 33.6009 37.4079 33.2331 37.3868 32.8654C37.3839 32.8157 37.3905 32.7675 37.405 32.7224C37.4025 32.6353 37.4029 32.5484 37.4079 32.461C37.4408 31.7727 37.8267 31.1629 38.2961 30.6811C39.2886 29.6644 40.6757 29.162 42.0276 28.828C42.5797 28.7028 43.1397 28.6194 43.7018 28.5561C43.7591 28.5321 43.8189 28.5211 43.8802 28.5112C43.9596 28.4983 44.0391 28.4863 44.1186 28.4756C44.2601 28.4565 44.4016 28.4387 44.5436 28.4222C44.8213 28.3899 45.0994 28.3634 45.3788 28.3431C45.9454 28.3026 46.5129 28.2678 47.0807 28.2426C47.661 28.2165 48.2416 28.1966 48.8227 28.1912C49.4146 28.1859 50.0068 28.1933 50.5987 28.2053C51.1678 28.2165 51.7364 28.2401 52.3051 28.2624C52.861 28.2844 53.4176 28.3005 53.9731 28.3332C54.5306 28.3659 55.0872 28.4118 55.6439 28.4569C55.8949 28.4772 56.1465 28.495 56.3976 28.5165C56.3978 28.5165 56.3978 28.5165 56.3978 28.5165C56.464 28.5141 56.5329 28.5246 56.5989 28.5348C56.727 28.547 56.8549 28.5604 56.9824 28.5761C57.0147 28.5803 57.0519 28.5819 57.0846 28.5902C57.0954 28.5929 57.1057 28.5958 57.1161 28.5987C57.3584 28.6279 57.6003 28.6583 57.8408 28.7007C59.23 28.9584 60.8673 29.5101 61.812 30.6081C62.6906 31.5306 62.8626 32.8126 62.9003 34.0344C62.9025 34.3078 62.9139 34.5816 62.9152 34.8551C62.9309 34.9007 62.9394 34.9493 62.9394 34.9996C62.9394 35.0076 62.9394 35.0157 62.9394 35.0238C62.9394 35.024 62.9394 35.0242 62.9394 35.0244C62.9394 36.0138 62.9361 37.0034 62.9344 37.993C62.9328 39.0556 62.9307 40.1182 62.9292 41.1809C62.9284 41.6906 62.9276 42.2003 62.9265 42.71C63.1823 42.7242 63.4379 42.741 63.6935 42.7569C65.0806 42.909 72.5189 43.1257 72.6842 44.4605Z" fill="#FFEAB2"/>
</g>
<mask id="mask1_224_6649" style="mask-type:luminance" maskUnits="userSpaceOnUse" x="37" y="36" width="26" height="7">
<path d="M37.7421 36.04H62.9974V42.8627H37.7421V36.04Z" fill="white"/>
</mask>
<g mask="url(#mask1_224_6649)">
<path d="M62.9759 37.7712C62.9759 38.3079 62.9722 38.844 62.9703 39.3807C62.9681 40.0863 62.9656 40.792 62.9631 41.4982C62.9623 41.7407 62.9614 41.9832 62.9606 42.2263V42.2269C62.9606 42.2331 62.9606 42.2394 62.9606 42.245C62.9606 42.2456 62.9606 42.2462 62.9606 42.2462C62.9606 42.25 62.9606 42.2531 62.9606 42.2568C62.9606 42.2712 62.9606 42.2855 62.9604 42.2998C62.9844 42.5311 62.9438 42.8229 62.8288 42.8197C54.7558 41.5107 46.6587 41.4833 38.5818 42.5037C38.3595 42.5342 38.1373 42.5666 37.915 42.5991C37.8428 42.609 37.7787 42.4513 37.7731 42.23C37.7718 42.1789 37.7741 42.1284 37.7793 42.081C37.7766 41.7382 37.776 41.3947 37.7743 41.0519C37.7704 40.3114 37.7664 39.5708 37.7629 38.8303C37.7607 38.4114 37.7596 37.9925 37.7565 37.573C37.7565 37.5673 37.7563 37.5624 37.7563 37.5567C37.7563 37.5505 37.7563 37.5449 37.7563 37.5387C37.7555 37.3211 37.8076 37.1316 37.8819 37.1204C37.8995 37.1173 37.9169 37.126 37.9332 37.1441C38.3674 37.0874 38.8016 37.0163 39.2359 36.9658C46.7259 36.08 54.2292 36.1093 61.7161 37.1852C62.0863 37.2438 62.4563 37.2999 62.8263 37.3666C62.8304 37.3673 62.8344 37.3691 62.8381 37.371C62.8402 37.3704 62.842 37.3704 62.8441 37.3704C62.9163 37.3716 62.9759 37.5542 62.9759 37.7712Z" fill="#814747"/>
</g>
</g>
<defs>
<filter id="filter0_f_224_6649" x="2" y="74.1724" width="94.8849" height="64.8699" filterUnits="userSpaceOnUse" color-interpolation-filters="sRGB">
<feFlood flood-opacity="0" result="BackgroundImageFix"/>
<feBlend mode="normal" in="SourceGraphic" in2="BackgroundImageFix" result="shape"/>
<feGaussianBlur stdDeviation="10.5" result="effect1_foregroundBlur_224_6649"/>
</filter>
<filter id="filter1_d_224_6649" x="-10" y="15.7585" width="120.927" height="128.586" filterUnits="userSpaceOnUse" color-interpolation-filters="sRGB">
<feFlood flood-opacity="0" result="BackgroundImageFix"/>
<feColorMatrix in="SourceAlpha" type="matrix" values="0 0 0 0 0 0 0 0 0 0 0 0 0 0 0 0 0 0 127 0" result="hardAlpha"/>
<feOffset dy="4"/>
<feGaussianBlur stdDeviation="16"/>
<feComposite in2="hardAlpha" operator="out"/>
<feColorMatrix type="matrix" values="0 0 0 0 0 0 0 0 0 0 0 0 0 0 0 0 0 0 0.15 0"/>
<feBlend mode="normal" in2="BackgroundImageFix" result="effect1_dropShadow_224_6649"/>
<feBlend mode="normal" in="SourceGraphic" in2="effect1_dropShadow_224_6649" result="shape"/>
</filter>
<filter id="filter2_d_224_6649" x="-4.84113" y="0.189453" width="109.539" height="82.5576" filterUnits="userSpaceOnUse" color-interpolation-filters="sRGB">
<feFlood flood-opacity="0" result="BackgroundImageFix"/>
<feColorMatrix in="SourceAlpha" type="matrix" values="0 0 0 0 0 0 0 0 0 0 0 0 0 0 0 0 0 0 127 0" result="hardAlpha"/>
<feOffset dy="4"/>
<feGaussianBlur stdDeviation="16"/>
<feComposite in2="hardAlpha" operator="out"/>
<feColorMatrix type="matrix" values="0 0 0 0 0 0 0 0 0 0 0 0 0 0 0 0 0 0 0.15 0"/>
<feBlend mode="normal" in2="BackgroundImageFix" result="effect1_dropShadow_224_6649"/>
<feBlend mode="normal" in="SourceGraphic" in2="effect1_dropShadow_224_6649" result="shape"/>
</filter>
</defs>
</svg>
