<svg width="100" height="141" viewBox="0 0 100 141" fill="none" xmlns="http://www.w3.org/2000/svg">
<g opacity="0.2" filter="url(#filter0_f_224_6404)">
<ellipse cx="49.4424" cy="102.021" rx="26.4424" ry="11.435" fill="black"/>
</g>
<g filter="url(#filter1_d_224_6404)">
<path d="M47.8631 40.6387C45.7114 40.7749 44.6355 40.8974 44.3223 41.0336C44.1725 41.1017 43.8729 41.1834 43.6414 41.2106C43.4235 41.2515 42.6473 41.4422 41.9391 41.6328C41.231 41.8371 40.482 42.0414 40.2777 42.0822C40.0598 42.1231 39.8964 42.2048 39.8964 42.2729C39.8964 42.341 39.7738 42.3954 39.624 42.3954C39.4742 42.3954 39.2427 42.4499 39.1065 42.518C38.9839 42.5861 38.6299 42.7495 38.3303 42.8721C37.3225 43.2943 34.7078 44.6288 34.4763 44.8467C34.3537 44.9557 34.0813 45.1327 33.8907 45.2281C33.7 45.337 33.3596 45.5685 33.1553 45.7455C32.951 45.9226 32.7331 46.0724 32.6787 46.0724C32.6378 46.0724 32.4744 46.1813 32.3246 46.3039C32.1884 46.4401 31.8207 46.7261 31.5211 46.9576C30.7993 47.5023 27.9395 50.3622 27.422 51.0431C27.2041 51.3427 26.9181 51.7104 26.7955 51.8466C26.6594 51.9964 26.5504 52.1598 26.5504 52.2006C26.5504 52.2551 26.4006 52.473 26.21 52.6909C26.0193 52.9088 25.8695 53.1675 25.8695 53.2492C25.8695 53.3446 25.815 53.4263 25.7333 53.4263C25.6652 53.4263 25.5971 53.508 25.5971 53.6169C25.5971 53.7259 25.5563 53.8348 25.4882 53.8621C25.3248 53.9302 24.3715 55.6052 24.3715 55.8231C24.3715 55.9321 24.317 56.0138 24.2353 56.0138C24.1672 56.0138 24.0991 56.1363 24.0991 56.2861C24.0991 56.4359 24.0446 56.5585 23.9629 56.5585C23.8948 56.5585 23.8267 56.6266 23.8267 56.6947C23.8267 56.7764 23.6769 57.1441 23.4863 57.539C23.2956 57.9203 23.1458 58.3289 23.1458 58.4242C23.1458 58.5195 23.0914 58.6012 23.0096 58.6012C22.9416 58.6012 22.8735 58.7374 22.8735 58.9145C22.8735 59.0915 22.819 59.2822 22.7509 59.3503C22.6828 59.432 22.4649 59.9767 22.2606 60.5759C22.07 61.1751 21.8521 61.7743 21.784 61.8969C21.7023 62.0331 21.6478 62.2646 21.6478 62.4008C21.6478 62.5506 21.5933 62.714 21.5116 62.7548C21.4435 62.7957 21.3755 63.0544 21.3755 63.3132C21.3755 63.5719 21.321 63.7762 21.2665 63.7762C21.212 63.7762 21.0758 64.1575 20.9805 64.6205C20.8852 65.0972 20.7218 65.7917 20.6128 66.1866C20.5039 66.568 20.4222 67.1263 20.4222 67.4123C20.4222 67.6983 20.3677 67.9979 20.2996 68.066C20.1634 68.2158 20 70.3947 20 72.0834C20 74.9705 20.6401 78.2661 21.5253 80.0092C21.5933 80.1454 21.6478 80.3497 21.6478 80.4586C21.6478 80.5676 21.7159 80.6629 21.784 80.6629C21.8657 80.6629 21.9202 80.7719 21.9202 80.8944C21.9338 81.0306 22.1108 81.4392 22.3424 81.8205C22.5602 82.1882 22.7781 82.6103 22.8326 82.7329C22.8735 82.8691 22.9552 82.978 23.0233 82.978C23.0914 82.978 23.1458 83.0325 23.1458 83.1142C23.1458 83.264 24.1127 84.6531 24.2625 84.7212C24.3306 84.7484 24.3715 84.8437 24.3715 84.9255C24.3715 85.1433 27.6943 88.3981 28.348 88.8339C28.634 89.0246 28.8655 89.2152 28.8655 89.2697C28.8655 89.3378 28.9609 89.3786 29.0698 89.3786C29.1787 89.3786 29.2741 89.4331 29.2741 89.5148C29.2741 89.5829 29.3558 89.651 29.4511 89.651C29.5464 89.651 29.7507 89.76 29.9005 89.8961C30.0367 90.0187 30.418 90.2502 30.7312 90.4C31.0581 90.5498 31.3168 90.7132 31.3168 90.7677C31.3168 90.8358 31.4394 90.8767 31.5892 90.8767C31.739 90.8767 31.8616 90.9311 31.8616 91.0128C31.8616 91.0809 31.9705 91.149 32.1067 91.149C32.2429 91.149 32.4063 91.2035 32.488 91.258C32.5561 91.3261 33.0463 91.544 33.5638 91.7482C34.095 91.9661 34.6261 92.184 34.7486 92.2521C34.8848 92.3202 35.1163 92.3747 35.2661 92.3747C35.4159 92.3747 35.5385 92.4291 35.5385 92.5109C35.5385 92.579 35.6883 92.647 35.879 92.647C36.0696 92.647 36.3284 92.7015 36.4645 92.7832C36.805 92.9739 38.3847 93.4641 38.9839 93.5595C39.2563 93.6003 39.4878 93.682 39.4878 93.7365C39.4878 93.791 39.7193 93.8727 40.0053 93.9135C40.2777 93.9544 41.2446 94.1451 42.1434 94.3357C44.118 94.7851 45.3301 94.9622 46.7736 95.0439C47.3728 95.0847 47.9856 95.1664 48.1491 95.2481C48.5576 95.4524 52.1528 95.2345 54.7403 94.8396C55.6255 94.717 57.3278 94.363 58.3492 94.1178C58.6488 94.0497 59.1254 93.9544 59.4114 93.9135C59.6838 93.8727 59.9153 93.791 59.9153 93.7229C59.9153 93.6548 60.0651 93.6003 60.2421 93.6003C60.5826 93.6003 63.4697 92.7288 63.8918 92.4972C64.028 92.4291 64.2595 92.3747 64.4093 92.3747C64.5591 92.3747 64.6817 92.3066 64.6817 92.2385C64.6817 92.1568 64.8043 92.1023 64.9541 92.1023C65.1039 92.1023 65.5805 91.9389 66.0027 91.7346C67.705 90.9584 68.5629 90.5362 68.631 90.4545C68.6719 90.4136 68.917 90.2638 69.1894 90.1413C69.4617 90.0187 69.8158 89.7872 69.9656 89.651C70.129 89.5012 70.2924 89.3786 70.3333 89.3786C70.3878 89.3786 70.5103 89.2969 70.6057 89.2152C70.9053 88.9429 71.1096 88.7931 71.627 88.4254C72.2399 87.9896 74.446 85.797 74.9635 85.0889C75.195 84.7893 75.481 84.4216 75.6172 84.2854C75.7398 84.1356 75.8487 83.9586 75.8487 83.9041C75.8487 83.836 75.9577 83.6726 76.0939 83.5228C76.2164 83.3866 76.4479 83.0325 76.5977 82.7465C76.7475 82.4605 76.8973 82.2018 76.9382 82.1609C77.0744 82.0384 77.8642 80.3225 77.9596 79.9411C78.014 79.7369 78.1094 79.5326 78.1775 79.4917C78.2455 79.4509 78.3 79.2739 78.3 79.0832C78.3 78.9062 78.3681 78.7564 78.4362 78.7564C78.5179 78.7564 78.5724 78.5793 78.5724 78.3614C78.5724 78.1299 78.6269 77.912 78.7086 77.8712C78.7767 77.8303 78.8448 77.6533 78.8448 77.5035C78.8448 77.34 78.8992 77.0268 78.9809 76.7953C79.1852 76.1008 79.5257 73.1728 79.5257 72.0153C79.5257 70.204 79.0218 66.3909 78.695 65.7917C78.6269 65.6555 78.5724 65.3151 78.5724 65.0291C78.5724 64.7431 78.5179 64.4571 78.4498 64.3754C78.3953 64.3073 78.2319 63.8579 78.1094 63.3677C77.7825 62.1692 77.5783 61.5564 77.4557 61.393C77.4012 61.3249 77.3467 61.0934 77.3467 60.8891C77.3467 60.6848 77.2923 60.5078 77.2106 60.5078C77.1425 60.5078 77.0744 60.358 77.0744 60.1674C77.0744 59.9767 77.0335 59.8269 76.9654 59.8269C76.9109 59.8269 76.7884 59.5818 76.7067 59.2822C76.4207 58.4106 74.8954 55.1558 74.732 55.0877C74.6639 55.0605 74.6231 54.9515 74.6231 54.8426C74.6231 54.7336 74.5686 54.6519 74.4869 54.6519C74.4188 54.6519 74.3507 54.5294 74.3507 54.3932C74.3507 54.2434 74.3099 54.1072 74.2554 54.08C74.1192 54.0255 73.3974 52.9224 73.3974 52.7726C73.3974 52.7181 73.2749 52.5819 73.1251 52.473C72.9753 52.3641 72.8527 52.2279 72.8527 52.1598C72.8527 51.8057 69.2575 47.9245 68.2906 47.2299C68.0727 47.0801 67.7731 46.835 67.6233 46.6852C67.4598 46.5354 66.956 46.1677 66.4929 45.8681C66.0163 45.5685 65.635 45.2825 65.635 45.2144C65.635 45.16 65.5669 45.1191 65.4852 45.1191C65.4035 45.1191 65.172 45.0102 64.9813 44.8604C64.6681 44.6425 64.0416 44.302 62.5709 43.5258C62.4211 43.444 61.9036 43.2125 61.4133 43.0083C60.923 42.804 60.4192 42.5861 60.2966 42.518C60.1604 42.4499 59.9561 42.3954 59.8472 42.3954C59.7383 42.3954 59.6429 42.3274 59.6429 42.2593C59.6429 42.1775 59.4659 42.1231 59.2616 42.1231C59.0573 42.1231 58.8258 42.0686 58.7441 42.0005C58.676 41.946 58.1585 41.7826 57.6002 41.6464C57.0418 41.5239 56.4699 41.3604 56.3473 41.2924C56.2111 41.2243 55.8843 41.1698 55.6255 41.1698C55.3668 41.1698 55.1489 41.1017 55.1489 41.0336C55.1489 40.9519 54.822 40.8974 54.4407 40.8974C54.0458 40.8974 53.5011 40.843 53.2423 40.7749C52.575 40.5978 49.6471 40.5297 47.8631 40.6387Z" fill="#333333"/>
<path d="M42.4869 88.2636C42.2605 88.339 41.858 88.5906 41.5938 88.8044C40.751 89.5088 40.7385 89.6849 40.7762 95.8233C40.8014 98.9679 40.8643 101.534 40.9397 101.962C41.3548 104.15 43.8202 104.93 45.2038 103.307C45.4177 103.068 45.6189 102.691 45.6818 102.49C45.8202 101.936 45.8579 96.1503 45.7447 92.7918C45.6567 89.9742 45.6441 89.8862 45.3296 89.3831C44.9648 88.8044 44.512 88.4522 43.8705 88.2384C43.3422 88.0497 43.0403 88.0623 42.4869 88.2636Z" fill="#333333"/>
<path d="M55.8705 88.2637C55.3422 88.4901 54.7007 89.0562 54.4742 89.4964C54.1724 90.0876 54.0466 92.3266 54.0466 97.5341V102.402L54.4617 103.006C55.6315 104.767 58.0465 104.477 58.8012 102.49C59.0654 101.773 59.1031 101.043 59.1157 95.6096C59.1409 90.2134 59.1283 90.1631 58.8516 89.5719C58.2981 88.4021 56.9271 87.7983 55.8705 88.2637Z" fill="#333333"/>
</g>
<g filter="url(#filter2_d_224_6404)">
<mask id="mask0_224_6404" style="mask-type:luminance" maskUnits="userSpaceOnUse" x="27" y="28" width="46" height="20">
<path d="M27 28.5864H72.9676V47.2057H27V28.5864Z" fill="white"/>
</mask>
<g mask="url(#mask0_224_6404)">
<path d="M62.0688 35.7236C62.0706 35.7071 62.0727 35.6905 62.0756 35.6738C62.0727 35.6905 62.0704 35.7071 62.0688 35.7236ZM72.6842 44.8745C72.9547 46.0702 69.0874 46.2602 68.2522 46.4119C61.17 47.1327 54.0362 47.1925 46.9232 47.1513C44.676 47.0685 27.0135 47.036 27.1598 45.0119C27.1604 45.0117 27.1608 45.0117 27.1614 45.0117C27.1031 43.9986 29.8123 43.8309 30.5689 43.679C31.9149 43.498 33.2676 43.3769 34.6214 43.2755C35.7253 43.194 36.8303 43.1257 37.9356 43.0715C37.8905 42.2447 37.842 41.418 37.7957 40.5915C37.7375 39.5516 37.6794 38.5117 37.6212 37.4717C37.5637 36.4421 37.506 35.4124 37.4484 34.3827C37.428 34.0149 37.4079 33.6472 37.3868 33.2795C37.3839 33.2298 37.3905 33.1816 37.405 33.1365C37.4025 33.0493 37.4029 32.9624 37.4079 32.8751C37.4408 32.1868 37.8267 31.577 38.2961 31.0952C39.2886 30.0785 40.6757 29.576 42.0276 29.242C42.5797 29.1169 43.1397 29.0334 43.7018 28.9701C43.7591 28.9461 43.8189 28.9352 43.8802 28.9252C43.9596 28.9124 44.0391 28.9004 44.1186 28.8896C44.2601 28.8706 44.4016 28.8528 44.5436 28.8362C44.8213 28.804 45.0994 28.7775 45.3788 28.7572C45.9454 28.7166 46.5129 28.6819 47.0807 28.6566C47.661 28.6305 48.2416 28.6107 48.8227 28.6053C49.4146 28.5999 50.0068 28.6074 50.5987 28.6194C51.1678 28.6305 51.7364 28.6541 52.3051 28.6765C52.861 28.6984 53.4176 28.7146 53.9731 28.7473C54.5306 28.78 55.0872 28.8259 55.6439 28.871C55.8949 28.8913 56.1465 28.9091 56.3976 28.9306C56.3978 28.9306 56.3978 28.9306 56.3978 28.9306C56.464 28.9281 56.5329 28.9387 56.5989 28.9488C56.727 28.961 56.8549 28.9745 56.9824 28.9902C57.0147 28.9943 57.0519 28.996 57.0846 29.0043C57.0954 29.007 57.1057 29.0099 57.1161 29.0128C57.3584 29.0419 57.6003 29.0724 57.8408 29.1148C59.23 29.3724 60.8673 29.9241 61.812 31.0221C62.6906 31.9447 62.8626 33.2267 62.9003 34.4485C62.9025 34.7218 62.9139 34.9956 62.9152 35.2692C62.9309 35.3147 62.9394 35.3633 62.9394 35.4136C62.9394 35.4217 62.9394 35.4298 62.9394 35.4378C62.9394 35.4381 62.9394 35.4383 62.9394 35.4385C62.9394 36.4278 62.9361 37.4174 62.9344 38.407C62.9328 39.4697 62.9307 40.5323 62.9292 41.5949C62.9284 42.1046 62.9276 42.6143 62.9265 43.124C63.1823 43.1383 63.4379 43.1551 63.6935 43.171C65.0806 43.3231 72.5189 43.5398 72.6842 44.8745Z" fill="#FFEAB2"/>
</g>
<mask id="mask1_224_6404" style="mask-type:luminance" maskUnits="userSpaceOnUse" x="37" y="36" width="26" height="8">
<path d="M37.7421 36.4541H62.9974V43.2767H37.7421V36.4541Z" fill="white"/>
</mask>
<g mask="url(#mask1_224_6404)">
<path d="M62.976 38.1852C62.976 38.722 62.9722 39.258 62.9704 39.7947C62.9681 40.5004 62.9656 41.206 62.9631 41.9123C62.9623 42.1548 62.9615 42.3972 62.9606 42.6404V42.641C62.9606 42.6472 62.9606 42.6534 62.9606 42.6591C62.9606 42.6597 62.9606 42.6603 62.9606 42.6603C62.9606 42.664 62.9606 42.6672 62.9606 42.6709C62.9606 42.6852 62.9606 42.6996 62.9604 42.7139C62.9844 42.9452 62.9439 43.2369 62.8288 43.2338C54.7559 41.9247 46.6587 41.8973 38.5818 42.9178C38.3596 42.9483 38.1373 42.9807 37.9151 43.0131C37.8428 43.0231 37.7787 42.8654 37.7731 42.6441C37.7719 42.593 37.7741 42.5425 37.7793 42.4951C37.7766 42.1523 37.776 41.8088 37.7743 41.466C37.7704 40.7254 37.7665 39.9849 37.763 39.2443C37.7607 38.8254 37.7596 38.4065 37.7565 37.987C37.7565 37.9814 37.7563 37.9764 37.7563 37.9708C37.7563 37.9646 37.7563 37.959 37.7563 37.9527C37.7555 37.7352 37.8077 37.5457 37.8819 37.5345C37.8995 37.5313 37.9169 37.5401 37.9333 37.5581C38.3674 37.5014 38.8016 37.4304 39.236 37.3799C46.726 36.4941 54.2292 36.5234 61.7161 37.5993C62.0863 37.6579 62.4563 37.714 62.8263 37.7807C62.8305 37.7813 62.8344 37.7832 62.8381 37.7851C62.8402 37.7844 62.8421 37.7844 62.8441 37.7844C62.9164 37.7857 62.976 37.9683 62.976 38.1852Z" fill="#DC9E00"/>
</g>
</g>
<ellipse cx="53.5" cy="64.8062" rx="2.5" ry="3.5" fill="white"/>
<ellipse cx="66.5" cy="64.8062" rx="2.5" ry="3.5" fill="white"/>
<defs>
<filter id="filter0_f_224_6404" x="2" y="69.5862" width="94.8849" height="64.8699" filterUnits="userSpaceOnUse" color-interpolation-filters="sRGB">
<feFlood flood-opacity="0" result="BackgroundImageFix"/>
<feBlend mode="normal" in="SourceGraphic" in2="BackgroundImageFix" result="shape"/>
<feGaussianBlur stdDeviation="10.5" result="effect1_foregroundBlur_224_6404"/>
</filter>
<filter id="filter1_d_224_6404" x="-12" y="12.5862" width="123.526" height="127.586" filterUnits="userSpaceOnUse" color-interpolation-filters="sRGB">
<feFlood flood-opacity="0" result="BackgroundImageFix"/>
<feColorMatrix in="SourceAlpha" type="matrix" values="0 0 0 0 0 0 0 0 0 0 0 0 0 0 0 0 0 0 127 0" result="hardAlpha"/>
<feOffset dy="4"/>
<feGaussianBlur stdDeviation="16"/>
<feComposite in2="hardAlpha" operator="out"/>
<feColorMatrix type="matrix" values="0 0 0 0 0 0 0 0 0 0 0 0 0 0 0 0 0 0 0.15 0"/>
<feBlend mode="normal" in2="BackgroundImageFix" result="effect1_dropShadow_224_6404"/>
<feBlend mode="normal" in="SourceGraphic" in2="effect1_dropShadow_224_6404" result="shape"/>
</filter>
<filter id="filter2_d_224_6404" x="-4.84113" y="0.603516" width="109.539" height="82.5576" filterUnits="userSpaceOnUse" color-interpolation-filters="sRGB">
<feFlood flood-opacity="0" result="BackgroundImageFix"/>
<feColorMatrix in="SourceAlpha" type="matrix" values="0 0 0 0 0 0 0 0 0 0 0 0 0 0 0 0 0 0 127 0" result="hardAlpha"/>
<feOffset dy="4"/>
<feGaussianBlur stdDeviation="16"/>
<feComposite in2="hardAlpha" operator="out"/>
<feColorMatrix type="matrix" values="0 0 0 0 0 0 0 0 0 0 0 0 0 0 0 0 0 0 0.15 0"/>
<feBlend mode="normal" in2="BackgroundImageFix" result="effect1_dropShadow_224_6404"/>
<feBlend mode="normal" in="SourceGraphic" in2="effect1_dropShadow_224_6404" result="shape"/>
</filter>
</defs>
</svg>
