<svg width="326" height="169" viewBox="0 0 326 169" fill="none" xmlns="http://www.w3.org/2000/svg">
<g opacity="0.2" filter="url(#filter0_f_529_13788)">
<ellipse cx="61.4424" cy="130.435" rx="26.4424" ry="11.435" fill="black"/>
</g>
<g filter="url(#filter1_d_529_13788)">
<path d="M59.8631 69.0525C57.7114 69.1887 56.6355 69.3112 56.3223 69.4474C56.1725 69.5155 55.8729 69.5972 55.6414 69.6245C55.4235 69.6653 54.6473 69.856 53.9391 70.0466C53.231 70.2509 52.482 70.4552 52.2777 70.496C52.0598 70.5369 51.8964 70.6186 51.8964 70.6867C51.8964 70.7548 51.7738 70.8093 51.624 70.8093C51.4742 70.8093 51.2427 70.8637 51.1065 70.9318C50.9839 70.9999 50.6299 71.1633 50.3303 71.2859C49.3225 71.7081 46.7078 73.0427 46.4763 73.2606C46.3537 73.3695 46.0813 73.5465 45.8907 73.6419C45.7 73.7508 45.3596 73.9823 45.1553 74.1594C44.951 74.3364 44.7331 74.4862 44.6787 74.4862C44.6378 74.4862 44.4744 74.5952 44.3246 74.7177C44.1884 74.8539 43.8207 75.1399 43.5211 75.3714C42.7993 75.9161 39.9395 78.776 39.422 79.4569C39.2041 79.7565 38.9181 80.1242 38.7955 80.2604C38.6594 80.4102 38.5504 80.5736 38.5504 80.6145C38.5504 80.6689 38.4006 80.8868 38.21 81.1047C38.0193 81.3226 37.8695 81.5814 37.8695 81.6631C37.8695 81.7584 37.815 81.8401 37.7333 81.8401C37.6652 81.8401 37.5971 81.9218 37.5971 82.0308C37.5971 82.1397 37.5563 82.2486 37.4882 82.2759C37.3248 82.344 36.3715 84.019 36.3715 84.2369C36.3715 84.3459 36.317 84.4276 36.2353 84.4276C36.1672 84.4276 36.0991 84.5501 36.0991 84.6999C36.0991 84.8498 36.0446 84.9723 35.9629 84.9723C35.8948 84.9723 35.8267 85.0404 35.8267 85.1085C35.8267 85.1902 35.6769 85.5579 35.4863 85.9528C35.2956 86.3341 35.1458 86.7427 35.1458 86.838C35.1458 86.9334 35.0914 87.0151 35.0096 87.0151C34.9416 87.0151 34.8735 87.1512 34.8735 87.3283C34.8735 87.5053 34.819 87.696 34.7509 87.7641C34.6828 87.8458 34.4649 88.3905 34.2606 88.9897C34.07 89.5889 33.8521 90.1881 33.784 90.3107C33.7023 90.4469 33.6478 90.6784 33.6478 90.8146C33.6478 90.9644 33.5933 91.1278 33.5116 91.1686C33.4435 91.2095 33.3755 91.4683 33.3755 91.727C33.3755 91.9857 33.321 92.19 33.2665 92.19C33.212 92.19 33.0758 92.5713 32.9805 93.0344C32.8852 93.511 32.7218 94.2055 32.6128 94.6005C32.5039 94.9818 32.4222 95.5401 32.4222 95.8261C32.4222 96.1121 32.3677 96.4117 32.2996 96.4798C32.1634 96.6296 32 98.8085 32 100.497C32 103.384 32.6401 106.68 33.5253 108.423C33.5933 108.559 33.6478 108.764 33.6478 108.872C33.6478 108.981 33.7159 109.077 33.784 109.077C33.8657 109.077 33.9202 109.186 33.9202 109.308C33.9338 109.444 34.1108 109.853 34.3424 110.234C34.5602 110.602 34.7781 111.024 34.8326 111.147C34.8735 111.283 34.9552 111.392 35.0233 111.392C35.0914 111.392 35.1458 111.446 35.1458 111.528C35.1458 111.678 36.1127 113.067 36.2625 113.135C36.3306 113.162 36.3715 113.258 36.3715 113.339C36.3715 113.557 39.6943 116.812 40.348 117.248C40.634 117.438 40.8655 117.629 40.8655 117.684C40.8655 117.752 40.9609 117.792 41.0698 117.792C41.1787 117.792 41.2741 117.847 41.2741 117.929C41.2741 117.997 41.3558 118.065 41.4511 118.065C41.5464 118.065 41.7507 118.174 41.9005 118.31C42.0367 118.433 42.418 118.664 42.7312 118.814C43.0581 118.964 43.3168 119.127 43.3168 119.182C43.3168 119.25 43.4394 119.29 43.5892 119.29C43.739 119.29 43.8616 119.345 43.8616 119.427C43.8616 119.495 43.9705 119.563 44.1067 119.563C44.2429 119.563 44.4063 119.617 44.488 119.672C44.5561 119.74 45.0463 119.958 45.5638 120.162C46.095 120.38 46.6261 120.598 46.7486 120.666C46.8848 120.734 47.1163 120.788 47.2661 120.788C47.4159 120.788 47.5385 120.843 47.5385 120.925C47.5385 120.993 47.6883 121.061 47.879 121.061C48.0696 121.061 48.3284 121.115 48.4645 121.197C48.805 121.388 50.3847 121.878 50.9839 121.973C51.2563 122.014 51.4878 122.096 51.4878 122.15C51.4878 122.205 51.7193 122.287 52.0053 122.327C52.2777 122.368 53.2446 122.559 54.1434 122.75C56.118 123.199 57.3301 123.376 58.7736 123.458C59.3728 123.499 59.9856 123.58 60.1491 123.662C60.5576 123.866 64.1528 123.648 66.7403 123.253C67.6255 123.131 69.3278 122.777 70.3492 122.532C70.6488 122.464 71.1254 122.368 71.4114 122.327C71.6838 122.287 71.9153 122.205 71.9153 122.137C71.9153 122.069 72.0651 122.014 72.2421 122.014C72.5826 122.014 75.4697 121.143 75.8918 120.911C76.028 120.843 76.2595 120.788 76.4093 120.788C76.5591 120.788 76.6817 120.72 76.6817 120.652C76.6817 120.571 76.8043 120.516 76.9541 120.516C77.1039 120.516 77.5805 120.353 78.0027 120.148C79.705 119.372 80.5629 118.95 80.631 118.868C80.6719 118.827 80.917 118.678 81.1894 118.555C81.4617 118.433 81.8158 118.201 81.9656 118.065C82.129 117.915 82.2924 117.792 82.3333 117.792C82.3878 117.792 82.5103 117.711 82.6057 117.629C82.9053 117.357 83.1096 117.207 83.627 116.839C84.2399 116.403 86.446 114.211 86.9635 113.503C87.195 113.203 87.481 112.835 87.6172 112.699C87.7398 112.549 87.8487 112.372 87.8487 112.318C87.8487 112.25 87.9577 112.086 88.0939 111.937C88.2164 111.8 88.4479 111.446 88.5977 111.16C88.7475 110.874 88.8973 110.616 88.9382 110.575C89.0744 110.452 89.8642 108.736 89.9596 108.355C90.014 108.151 90.1094 107.946 90.1775 107.906C90.2455 107.865 90.3 107.688 90.3 107.497C90.3 107.32 90.3681 107.17 90.4362 107.17C90.5179 107.17 90.5724 106.993 90.5724 106.775C90.5724 106.544 90.6269 106.326 90.7086 106.285C90.7767 106.244 90.8448 106.067 90.8448 105.917C90.8448 105.754 90.8992 105.441 90.9809 105.209C91.1852 104.515 91.5257 101.587 91.5257 100.429C91.5257 98.6179 91.0218 94.8047 90.695 94.2055C90.6269 94.0694 90.5724 93.7289 90.5724 93.4429C90.5724 93.1569 90.5179 92.8709 90.4498 92.7892C90.3953 92.7211 90.2319 92.2717 90.1094 91.7815C89.7825 90.5831 89.5783 89.9702 89.4557 89.8068C89.4012 89.7387 89.3467 89.5072 89.3467 89.3029C89.3467 89.0987 89.2923 88.9216 89.2106 88.9216C89.1425 88.9216 89.0744 88.7718 89.0744 88.5812C89.0744 88.3905 89.0335 88.2407 88.9654 88.2407C88.9109 88.2407 88.7884 87.9956 88.7067 87.696C88.4207 86.8244 86.8954 83.5696 86.732 83.5015C86.6639 83.4743 86.6231 83.3654 86.6231 83.2564C86.6231 83.1475 86.5686 83.0658 86.4869 83.0658C86.4188 83.0658 86.3507 82.9432 86.3507 82.807C86.3507 82.6572 86.3099 82.521 86.2554 82.4938C86.1192 82.4393 85.3974 81.3362 85.3974 81.1864C85.3974 81.1319 85.2749 80.9958 85.1251 80.8868C84.9753 80.7779 84.8527 80.6417 84.8527 80.5736C84.8527 80.2195 81.2575 76.3383 80.2906 75.6438C80.0727 75.494 79.7731 75.2488 79.6233 75.099C79.4598 74.9492 78.956 74.5815 78.4929 74.2819C78.0163 73.9823 77.635 73.6963 77.635 73.6283C77.635 73.5738 77.5669 73.5329 77.4852 73.5329C77.4035 73.5329 77.172 73.424 76.9813 73.2742C76.6681 73.0563 76.0416 72.7158 74.5709 71.9396C74.4211 71.8579 73.9036 71.6264 73.4133 71.4221C72.923 71.2178 72.4192 70.9999 72.2966 70.9318C72.1604 70.8637 71.9561 70.8093 71.8472 70.8093C71.7383 70.8093 71.6429 70.7412 71.6429 70.6731C71.6429 70.5914 71.4659 70.5369 71.2616 70.5369C71.0573 70.5369 70.8258 70.4824 70.7441 70.4143C70.676 70.3599 70.1585 70.1964 69.6002 70.0603C69.0418 69.9377 68.4699 69.7743 68.3473 69.7062C68.2111 69.6381 67.8843 69.5836 67.6255 69.5836C67.3668 69.5836 67.1489 69.5155 67.1489 69.4474C67.1489 69.3657 66.822 69.3112 66.4407 69.3112C66.0458 69.3112 65.5011 69.2568 65.2423 69.1887C64.575 69.0116 61.6471 68.9436 59.8631 69.0525Z" fill="#333333"/>
<path d="M54.4869 116.677C54.2605 116.753 53.858 117.004 53.5938 117.218C52.751 117.923 52.7385 118.099 52.7762 124.237C52.8014 127.382 52.8643 129.948 52.9397 130.375C53.3548 132.564 55.8202 133.344 57.2038 131.721C57.4177 131.482 57.6189 131.105 57.6818 130.904C57.8202 130.35 57.8579 124.564 57.7447 121.206C57.6567 118.388 57.6441 118.3 57.3296 117.797C56.9648 117.218 56.512 116.866 55.8705 116.652C55.3422 116.464 55.0403 116.476 54.4869 116.677Z" fill="#333333"/>
<path d="M67.8705 116.678C67.3422 116.904 66.7007 117.47 66.4743 117.91C66.1724 118.501 66.0466 120.74 66.0466 125.948V130.816L66.4617 131.42C67.6315 133.181 70.0466 132.891 70.8013 130.904C71.0655 130.187 71.1032 129.457 71.1158 124.023C71.1409 118.627 71.1284 118.577 70.8516 117.986C70.2982 116.816 68.9271 116.212 67.8705 116.678Z" fill="#333333"/>
<ellipse cx="55.5" cy="93.2249" rx="2.5" ry="3.5" fill="white"/>
<ellipse cx="68.5" cy="93.2249" rx="2.5" ry="3.5" fill="white"/>
</g>
<g filter="url(#filter2_d_529_13788)">
<mask id="mask0_529_13788" style="mask-type:luminance" maskUnits="userSpaceOnUse" x="39" y="57" width="46" height="19">
<path d="M39 57H84.9676V75.6193H39V57Z" fill="white"/>
</mask>
<g mask="url(#mask0_529_13788)">
<path d="M74.0688 64.1372C74.0707 64.1207 74.0728 64.1041 74.0757 64.0873C74.0728 64.1041 74.0705 64.1207 74.0688 64.1372ZM84.6843 73.2881C84.9547 74.4838 81.0874 74.6738 80.2522 74.8255C73.1701 75.5463 66.0362 75.6061 58.9233 75.5649C56.6761 75.4821 39.0135 75.4496 39.1598 73.4255C39.1605 73.4253 39.1609 73.4253 39.1615 73.4253C39.1031 72.4121 41.8124 72.2445 42.569 72.0926C43.9149 71.9115 45.2677 71.7905 46.6215 71.6891C47.7253 71.6075 48.8304 71.5393 49.9356 71.485C49.8905 70.6583 49.8421 69.8316 49.7958 69.0051C49.7376 67.9652 49.6795 66.9253 49.6213 65.8852C49.5638 64.8557 49.506 63.826 49.4485 62.7962C49.428 62.4285 49.4079 62.0608 49.3868 61.693C49.3839 61.6434 49.3906 61.5951 49.405 61.55C49.4026 61.4629 49.403 61.376 49.4079 61.2887C49.4408 60.6004 49.8268 59.9905 50.2961 59.5088C51.2886 58.4921 52.6757 57.9896 54.0277 57.6556C54.5798 57.5304 55.1398 57.447 55.7018 57.3837C55.7592 57.3597 55.819 57.3487 55.8802 57.3388C55.9597 57.326 56.0391 57.314 56.1186 57.3032C56.2602 57.2842 56.4017 57.2664 56.5437 57.2498C56.8214 57.2175 57.0995 57.191 57.3789 57.1708C57.9455 57.1302 58.5129 57.0954 59.0808 57.0702C59.661 57.0441 60.2417 57.0242 60.8228 57.0189C61.4146 57.0135 62.0069 57.0209 62.5987 57.0329C63.1678 57.0441 63.7365 57.0677 64.3052 57.0901C64.861 57.112 65.4177 57.1281 65.9731 57.1608C66.5306 57.1935 67.0873 57.2395 67.644 57.2846C67.895 57.3049 68.1466 57.3227 68.3976 57.3442C68.3978 57.3442 68.3978 57.3442 68.3978 57.3442C68.4641 57.3417 68.533 57.3522 68.599 57.3624C68.7271 57.3746 68.855 57.388 68.9825 57.4038C69.0147 57.4079 69.052 57.4096 69.0847 57.4178C69.0954 57.4205 69.1058 57.4234 69.1161 57.4263C69.3585 57.4555 69.6004 57.4859 69.8408 57.5284C71.23 57.786 72.8673 58.3377 73.812 59.4357C74.6907 60.3583 74.8627 61.6403 74.9003 62.862C74.9026 63.1354 74.914 63.4092 74.9152 63.6828C74.931 63.7283 74.9394 63.7769 74.9394 63.8272C74.9394 63.8353 74.9394 63.8433 74.9394 63.8514C74.9394 63.8516 74.9394 63.8518 74.9394 63.852C74.9394 64.8414 74.9361 65.831 74.9345 66.8206C74.9328 67.8832 74.9307 68.9459 74.9293 70.0085C74.9285 70.5182 74.9276 71.0279 74.9266 71.5376C75.1824 71.5519 75.438 71.5686 75.6935 71.5846C77.0807 71.7367 84.5189 71.9534 84.6843 73.2881Z" fill="#FFEAB2"/>
</g>
<mask id="mask1_529_13788" style="mask-type:luminance" maskUnits="userSpaceOnUse" x="49" y="64" width="26" height="8">
<path d="M49.7422 64.8677H74.9975V71.6903H49.7422V64.8677Z" fill="white"/>
</mask>
<g mask="url(#mask1_529_13788)">
<path d="M74.976 66.5988C74.976 67.1355 74.9723 67.6716 74.9704 68.2083C74.9681 68.914 74.9656 69.6196 74.9632 70.3259C74.9623 70.5683 74.9615 70.8108 74.9607 71.0539V71.0546C74.9607 71.0608 74.9607 71.067 74.9607 71.0726C74.9607 71.0733 74.9607 71.0739 74.9607 71.0739C74.9607 71.0776 74.9607 71.0807 74.9607 71.0845C74.9607 71.0988 74.9607 71.1132 74.9605 71.1275C74.9845 71.3587 74.9439 71.6505 74.8289 71.6474C66.7559 70.3383 58.6587 70.3109 50.5819 71.3313C50.3596 71.3619 50.1373 71.3943 49.9151 71.4267C49.8429 71.4367 49.7787 71.279 49.7731 71.0577C49.7719 71.0066 49.7742 70.9561 49.7793 70.9087C49.7766 70.5658 49.776 70.2224 49.7744 69.8795C49.7704 69.139 49.7665 68.3984 49.763 67.6579C49.7607 67.239 49.7597 66.8201 49.7566 66.4006C49.7566 66.395 49.7564 66.39 49.7564 66.3844C49.7564 66.3782 49.7564 66.3725 49.7564 66.3663C49.7555 66.1488 49.8077 65.9593 49.882 65.948C49.8996 65.9449 49.9169 65.9536 49.9333 65.9717C50.3675 65.915 50.8016 65.8439 51.236 65.7934C58.726 64.9076 66.2292 64.9369 73.7161 66.0129C74.0863 66.0715 74.4564 66.1276 74.8264 66.1943C74.8305 66.1949 74.8344 66.1968 74.8382 66.1986C74.8402 66.198 74.8421 66.198 74.8442 66.198C74.9164 66.1992 74.976 66.3819 74.976 66.5988Z" fill="#DC9E00"/>
</g>
</g>
<g opacity="0.2" filter="url(#filter3_f_529_13788)">
<ellipse cx="130.968" cy="130.849" rx="26.4424" ry="11.435" fill="black"/>
</g>
<g filter="url(#filter4_d_529_13788)">
<path d="M115.655 68.3312C109.928 68.8532 107.687 69.7365 105.873 72.1053C103.881 74.6347 103.526 75.799 103.526 79.5329C103.526 84.1902 104.344 86.4787 113.876 107.838C116.686 114.101 119.567 119.522 121.097 121.288C123.373 123.898 124.832 124.299 132.301 124.299C138.313 124.299 138.348 124.299 140.482 123.095C142.261 122.091 142.901 121.409 144.466 118.879C146.244 115.948 156.595 93.1033 158.729 87.3218C160.792 81.7812 160.97 78.0072 159.441 74.5142C157.52 70.2182 155.279 69.0138 147.774 68.3312C143.043 67.8896 120.279 67.8896 115.655 68.3312Z" fill="#333333"/>
<path d="M124.013 116.677C123.786 116.753 123.384 117.004 123.119 117.218C122.277 117.923 122.264 118.099 122.302 124.237C122.327 127.382 122.39 129.948 122.465 130.375C122.88 132.564 125.346 133.344 126.729 131.721C126.943 131.482 127.145 131.105 127.207 130.904C127.346 130.35 127.384 124.564 127.27 121.206C127.182 118.388 127.17 118.3 126.855 117.797C126.49 117.218 126.038 116.866 125.396 116.652C124.868 116.464 124.566 116.476 124.013 116.677Z" fill="#333333"/>
<path d="M137.396 116.678C136.868 116.904 136.226 117.47 136 117.91C135.698 118.501 135.572 120.74 135.572 125.948V130.816L135.987 131.42C137.157 133.181 139.572 132.891 140.327 130.904C140.591 130.187 140.629 129.457 140.641 124.023C140.667 118.627 140.654 118.577 140.377 117.986C139.824 116.816 138.453 116.212 137.396 116.678Z" fill="#333333"/>
<ellipse cx="125.026" cy="92.2249" rx="2.5" ry="3.5" fill="white"/>
<ellipse cx="138.026" cy="92.2249" rx="2.5" ry="3.5" fill="white"/>
</g>
<g filter="url(#filter5_d_529_13788)">
<mask id="mask2_529_13788" style="mask-type:luminance" maskUnits="userSpaceOnUse" x="108" y="52" width="47" height="20">
<path d="M108.526 52.4141H154.493V71.0333H108.526V52.4141Z" fill="white"/>
</mask>
<g mask="url(#mask2_529_13788)">
<path d="M143.594 59.5513C143.596 59.5347 143.598 59.5182 143.601 59.5014C143.598 59.5182 143.596 59.5347 143.594 59.5513ZM154.21 68.7022C154.48 69.8979 150.613 70.0879 149.778 70.2395C142.696 70.9603 135.562 71.0201 128.449 70.9789C126.202 70.8962 108.539 70.8637 108.685 68.8396C108.686 68.8394 108.687 68.8394 108.687 68.8394C108.629 67.8262 111.338 67.6586 112.095 67.5067C113.441 67.3256 114.793 67.2045 116.147 67.1031C117.251 67.0216 118.356 66.9533 119.461 66.8991C119.416 66.0724 119.368 65.2456 119.321 64.4191C119.263 63.3793 119.205 62.3394 119.147 61.2993C119.089 60.2698 119.032 59.24 118.974 58.2103C118.954 57.8426 118.934 57.4748 118.912 57.1071C118.91 57.0574 118.916 57.0092 118.931 56.9641C118.928 56.877 118.929 56.7901 118.934 56.7027C118.966 56.0144 119.352 55.4046 119.822 54.9228C120.814 53.9061 122.201 53.4037 123.553 53.0697C124.105 52.9445 124.665 52.8611 125.227 52.7978C125.285 52.7738 125.345 52.7628 125.406 52.7529C125.485 52.74 125.565 52.728 125.644 52.7173C125.786 52.6982 125.927 52.6804 126.069 52.6639C126.347 52.6316 126.625 52.6051 126.905 52.5848C127.471 52.5443 128.039 52.5095 128.606 52.4843C129.187 52.4582 129.767 52.4383 130.348 52.4329C130.94 52.4276 131.533 52.435 132.124 52.447C132.693 52.4582 133.262 52.4818 133.831 52.5041C134.387 52.5261 134.943 52.5422 135.499 52.5749C136.056 52.6076 136.613 52.6535 137.17 52.6986C137.421 52.7189 137.672 52.7367 137.923 52.7582C137.923 52.7582 137.923 52.7582 137.923 52.7582C137.99 52.7558 138.059 52.7663 138.125 52.7765C138.253 52.7887 138.381 52.8021 138.508 52.8178C138.54 52.822 138.578 52.8236 138.61 52.8319C138.621 52.8346 138.631 52.8375 138.642 52.8404C138.884 52.8696 139.126 52.9 139.366 52.9424C140.756 53.2001 142.393 53.7518 143.338 54.8498C144.216 55.7723 144.388 57.0543 144.426 58.2761C144.428 58.5495 144.44 58.8232 144.441 59.0968C144.457 59.1424 144.465 59.191 144.465 59.2413C144.465 59.2493 144.465 59.2574 144.465 59.2655C144.465 59.2657 144.465 59.2659 144.465 59.2661C144.465 60.2555 144.462 61.2451 144.46 62.2347C144.458 63.2973 144.456 64.3599 144.455 65.4226C144.454 65.9323 144.453 66.442 144.452 66.9517C144.708 66.9659 144.964 66.9827 145.219 66.9986C146.606 67.1507 154.045 67.3674 154.21 68.7022Z" fill="#FFEAB2"/>
</g>
<mask id="mask3_529_13788" style="mask-type:luminance" maskUnits="userSpaceOnUse" x="119" y="60" width="26" height="8">
<path d="M119.268 60.2817H144.523V67.1044H119.268V60.2817Z" fill="white"/>
</mask>
<g mask="url(#mask3_529_13788)">
<path d="M144.502 62.0129C144.502 62.5496 144.498 63.0857 144.496 63.6224C144.494 64.328 144.491 65.0337 144.489 65.7399C144.488 65.9824 144.487 66.2249 144.486 66.468V66.4686C144.486 66.4748 144.486 66.4811 144.486 66.4867C144.486 66.4873 144.486 66.4879 144.486 66.4879C144.486 66.4917 144.486 66.4948 144.486 66.4985C144.486 66.5129 144.486 66.5272 144.486 66.5415C144.51 66.7728 144.47 67.0645 144.354 67.0614C136.282 65.7524 128.184 65.725 120.107 66.7454C119.885 66.7759 119.663 66.8083 119.441 66.8408C119.368 66.8507 119.304 66.693 119.299 66.4717C119.298 66.4206 119.3 66.3701 119.305 66.3227C119.302 65.9799 119.302 65.6364 119.3 65.2936C119.296 64.5531 119.292 63.8125 119.289 63.072C119.286 62.6531 119.285 62.2342 119.282 61.8147C119.282 61.809 119.282 61.8041 119.282 61.7984C119.282 61.7922 119.282 61.7866 119.282 61.7804C119.281 61.5628 119.333 61.3733 119.408 61.3621C119.425 61.359 119.443 61.3677 119.459 61.3858C119.893 61.3291 120.327 61.258 120.762 61.2075C128.252 60.3217 135.755 60.351 143.242 61.4269C143.612 61.4855 143.982 61.5416 144.352 61.6083C144.356 61.609 144.36 61.6108 144.364 61.6127C144.366 61.6121 144.368 61.6121 144.37 61.6121C144.442 61.6133 144.502 61.7959 144.502 62.0129Z" fill="#814747"/>
</g>
</g>
<g opacity="0.2" filter="url(#filter6_f_529_13788)">
<ellipse cx="200.494" cy="130.263" rx="26.4424" ry="11.435" fill="black"/>
</g>
<g filter="url(#filter7_d_529_13788)">
<path d="M190.165 64.3771C189.152 64.5746 187.955 64.8313 187.494 64.9696C186.021 65.3646 183.165 66.4312 183.11 66.5892C183.073 66.6683 182.962 66.7473 182.852 66.7473C182.631 66.7473 180.678 68.3669 180.31 68.8607C179.665 69.7495 179.204 70.5001 179.204 70.6976C179.204 70.7964 179.131 70.8951 179.057 70.8951C178.541 70.8951 177.289 76.1293 177.104 79.092C176.902 82.1733 177.325 108.166 177.602 110.398C177.896 112.67 178.191 114.132 178.541 115.04C178.67 115.356 178.891 115.949 179.02 116.324C179.923 118.852 182.336 120.748 186.021 121.795C190.073 122.941 190.847 123 201.587 123C210.632 123 212.659 122.901 214.759 122.388C215.422 122.21 216.38 121.973 216.877 121.854C217.393 121.736 218.056 121.499 218.388 121.341C218.701 121.183 219.014 121.064 219.069 121.064C219.143 121.064 219.714 120.808 220.341 120.492C221.446 119.919 222.496 118.931 223.472 117.509C224.062 116.64 224.964 113.717 225.241 111.801C225.37 110.991 225.517 110.24 225.572 110.122C225.701 109.924 226.051 89.1654 226.051 82.3511C226.051 80.7709 225.959 78.6773 225.83 77.7094C225.591 75.7738 225.093 73.2851 224.891 72.969C224.817 72.8505 224.707 72.5147 224.633 72.179C224.32 70.8359 221.722 67.3398 221.022 67.3398C220.912 67.3398 220.838 67.2608 220.838 67.1818C220.838 66.9843 219.346 66.1547 219.014 66.1547C218.904 66.1547 218.664 66.0757 218.48 65.9769C218.314 65.8584 217.54 65.5819 216.785 65.3646C216.03 65.1276 215.164 64.8511 214.851 64.7523C212.861 64.1203 210.503 63.982 201.292 64.0018C193.187 64.0215 191.768 64.061 190.165 64.3771Z" fill="#333333"/>
<path d="M193.538 116.677C193.312 116.753 192.909 117.004 192.645 117.218C191.802 117.923 191.79 118.099 191.827 124.237C191.853 127.382 191.916 129.948 191.991 130.375C192.406 132.564 194.871 133.344 196.255 131.721C196.469 131.482 196.67 131.105 196.733 130.904C196.871 130.35 196.909 124.564 196.796 121.206C196.708 118.388 196.695 118.3 196.381 117.797C196.016 117.218 195.563 116.866 194.922 116.652C194.393 116.464 194.092 116.476 193.538 116.677Z" fill="#333333"/>
<path d="M206.922 116.678C206.393 116.904 205.752 117.47 205.526 117.91C205.224 118.501 205.098 120.74 205.098 125.948V130.816L205.513 131.42C206.683 133.181 209.098 132.891 209.853 130.904C210.117 130.187 210.154 129.457 210.167 124.023C210.192 118.627 210.18 118.577 209.903 117.986C209.349 116.816 207.978 116.212 206.922 116.678Z" fill="#333333"/>
<ellipse cx="194.551" cy="87.2249" rx="2.5" ry="3.5" fill="white"/>
<ellipse cx="207.551" cy="87.2249" rx="2.5" ry="3.5" fill="white"/>
</g>
<g filter="url(#filter8_d_529_13788)">
<mask id="mask4_529_13788" style="mask-type:luminance" maskUnits="userSpaceOnUse" x="178" y="49" width="47" height="20">
<path d="M178.051 49.8276H224.019V68.4469H178.051V49.8276Z" fill="white"/>
</mask>
<g mask="url(#mask4_529_13788)">
<path d="M213.12 56.9648C213.122 56.9483 213.124 56.9317 213.127 56.915C213.124 56.9317 213.122 56.9483 213.12 56.9648ZM223.736 66.1158C224.006 67.3115 220.139 67.5014 219.303 67.6531C212.221 68.3739 205.088 68.4337 197.975 68.3925C195.727 68.3097 178.065 68.2772 178.211 66.2532C178.212 66.2529 178.212 66.2529 178.213 66.2529C178.154 65.2398 180.864 65.0721 181.62 64.9203C182.966 64.7392 184.319 64.6181 185.673 64.5167C186.777 64.4352 187.882 64.3669 188.987 64.3127C188.942 63.486 188.893 62.6592 188.847 61.8327C188.789 60.7928 188.731 59.7529 188.673 58.7129C188.615 57.6833 188.557 56.6536 188.5 55.6239C188.479 55.2561 188.459 54.8884 188.438 54.5207C188.435 54.471 188.442 54.4228 188.456 54.3777C188.454 54.2905 188.454 54.2036 188.459 54.1163C188.492 53.428 188.878 52.8182 189.347 52.3364C190.34 51.3197 191.727 50.8173 193.079 50.4833C193.631 50.3581 194.191 50.2747 194.753 50.2113C194.81 50.1873 194.87 50.1764 194.931 50.1664C195.011 50.1536 195.09 50.1416 195.17 50.1308C195.311 50.1118 195.453 50.094 195.595 50.0774C195.873 50.0452 196.151 50.0187 196.43 49.9984C196.997 49.9578 197.564 49.9231 198.132 49.8978C198.712 49.8718 199.293 49.8519 199.874 49.8465C200.466 49.8411 201.058 49.8486 201.65 49.8606C202.219 49.8718 202.788 49.8953 203.356 49.9177C203.912 49.9396 204.469 49.9558 205.024 49.9885C205.582 50.0212 206.139 50.0671 206.695 50.1122C206.946 50.1325 207.198 50.1503 207.449 50.1718C207.449 50.1718 207.449 50.1718 207.449 50.1718C207.515 50.1693 207.584 50.1799 207.65 50.19C207.778 50.2022 207.906 50.2157 208.034 50.2314C208.066 50.2356 208.103 50.2372 208.136 50.2455C208.147 50.2482 208.157 50.2511 208.167 50.254C208.41 50.2831 208.652 50.3136 208.892 50.356C210.281 50.6136 211.919 51.1653 212.863 52.2634C213.742 53.1859 213.914 54.4679 213.952 55.6897C213.954 55.963 213.965 56.2368 213.966 56.5104C213.982 56.5559 213.991 56.6046 213.991 56.6548C213.991 56.6629 213.991 56.671 213.991 56.6791C213.991 56.6793 213.991 56.6795 213.991 56.6797C213.991 57.6691 213.987 58.6587 213.986 59.6482C213.984 60.7109 213.982 61.7735 213.981 62.8362C213.98 63.3458 213.979 63.8555 213.978 64.3652C214.234 64.3795 214.489 64.3963 214.745 64.4122C216.132 64.5643 223.57 64.781 223.736 66.1158Z" fill="#FFEAB2"/>
</g>
<mask id="mask5_529_13788" style="mask-type:luminance" maskUnits="userSpaceOnUse" x="188" y="57" width="27" height="8">
<path d="M188.793 57.6953H214.049V64.5179H188.793V57.6953Z" fill="white"/>
</mask>
<g mask="url(#mask5_529_13788)">
<path d="M214.027 59.4265C214.027 59.9632 214.024 60.4993 214.022 61.0359C214.019 61.7416 214.017 62.4472 214.014 63.1535C214.014 63.396 214.013 63.6385 214.012 63.8816V63.8822C214.012 63.8884 214.012 63.8947 214.012 63.9003C214.012 63.9009 214.012 63.9015 214.012 63.9015C214.012 63.9053 214.012 63.9084 214.012 63.9121C214.012 63.9264 214.012 63.9408 214.012 63.9551C214.036 64.1864 213.995 64.4781 213.88 64.475C205.807 63.166 197.71 63.1385 189.633 64.159C189.411 64.1895 189.189 64.2219 188.966 64.2543C188.894 64.2643 188.83 64.1066 188.824 63.8853C188.823 63.8342 188.825 63.7837 188.831 63.7363C188.828 63.3935 188.827 63.05 188.826 62.7072C188.822 61.9666 188.818 61.2261 188.814 60.4855C188.812 60.0666 188.811 59.6477 188.808 59.2282C188.808 59.2226 188.808 59.2176 188.808 59.212C188.808 59.2058 188.808 59.2002 188.808 59.1939C188.807 58.9764 188.859 58.7869 188.933 58.7757C188.951 58.7725 188.968 58.7813 188.985 58.7994C189.419 58.7426 189.853 58.6716 190.287 58.6211C197.777 57.7353 205.28 57.7646 212.767 58.8405C213.138 58.8991 213.508 58.9552 213.878 59.0219C213.882 59.0225 213.886 59.0244 213.889 59.0263C213.891 59.0256 213.893 59.0256 213.895 59.0256C213.968 59.0269 214.027 59.2095 214.027 59.4265Z" fill="#27A924"/>
</g>
</g>
<g opacity="0.2" filter="url(#filter9_f_529_13788)">
<ellipse cx="270.02" cy="130.676" rx="26.4424" ry="11.435" fill="black"/>
</g>
<g filter="url(#filter10_d_529_13788)">
<path d="M267.616 38.2069C261.522 39.4995 256.198 43.5314 253.705 48.7328C251.55 53.2263 250.873 58.243 250.473 72.9854C250.381 76.1247 250.258 79.0178 250.165 79.4487C250.011 80.3104 249.396 87.7586 249.211 90.9902C249.15 92.1598 248.965 94.4681 248.811 96.0685C248.226 102.286 248.719 106.779 250.504 111.211C253.428 118.413 256.659 121.214 264.877 123.737C267.832 124.661 273.31 124.661 276.326 123.737C281.712 122.075 283.928 120.906 286.421 118.321C288.052 116.659 288.729 115.581 290.391 111.888C292.33 107.61 292.607 105.825 292.361 98.3768C292.146 91.3595 292.053 89.7591 291.746 87.9125C291.469 86.035 290.976 78.2791 290.792 72.9854C290.453 63.1058 290.299 60.4282 289.837 57.4428C288.729 50.3024 287.437 47.3478 284.051 43.9622C281.528 41.4077 279.435 40.0843 276.141 38.9455C273.679 38.0837 269.801 37.7452 267.616 38.2069Z" fill="#333333"/>
<path d="M263.064 116.677C262.838 116.753 262.435 117.004 262.171 117.218C261.328 117.923 261.316 118.099 261.353 124.237C261.379 127.382 261.441 129.948 261.517 130.375C261.932 132.564 264.397 133.344 265.781 131.721C265.995 131.482 266.196 131.105 266.259 130.904C266.397 130.35 266.435 124.564 266.322 121.206C266.234 118.388 266.221 118.3 265.907 117.797C265.542 117.218 265.089 116.866 264.448 116.652C263.919 116.464 263.617 116.476 263.064 116.677Z" fill="#333333"/>
<path d="M276.448 116.678C275.919 116.904 275.278 117.47 275.051 117.91C274.75 118.501 274.624 120.74 274.624 125.948V130.816L275.039 131.42C276.209 133.181 278.624 132.891 279.378 130.904C279.643 130.187 279.68 129.457 279.693 124.023C279.718 118.627 279.706 118.577 279.429 117.986C278.875 116.816 277.504 116.212 276.448 116.678Z" fill="#333333"/>
<ellipse cx="264.077" cy="65.2249" rx="2.5" ry="3.5" fill="white"/>
<ellipse cx="277.077" cy="65.2249" rx="2.5" ry="3.5" fill="white"/>
</g>
<g filter="url(#filter11_d_529_13788)">
<mask id="mask6_529_13788" style="mask-type:luminance" maskUnits="userSpaceOnUse" x="247" y="28" width="47" height="19">
<path d="M247.577 28H293.545V46.6193H247.577V28Z" fill="white"/>
</mask>
<g mask="url(#mask6_529_13788)">
<path d="M282.646 35.1372C282.648 35.1207 282.65 35.1041 282.653 35.0873C282.65 35.1041 282.648 35.1207 282.646 35.1372ZM293.261 44.2881C293.532 45.4838 289.665 45.6738 288.829 45.8255C281.747 46.5463 274.613 46.6061 267.5 46.5649C265.253 46.4821 247.591 46.4496 247.737 44.4255C247.738 44.4253 247.738 44.4253 247.739 44.4253C247.68 43.4121 250.39 43.2445 251.146 43.0926C252.492 42.9115 253.845 42.7905 255.199 42.6891C256.302 42.6075 257.408 42.5393 258.513 42.485C258.468 41.6583 258.419 40.8316 258.373 40.0051C258.315 38.9652 258.257 37.9253 258.198 36.8852C258.141 35.8557 258.083 34.826 258.026 33.7962C258.005 33.4285 257.985 33.0608 257.964 32.693C257.961 32.6434 257.968 32.5951 257.982 32.55C257.98 32.4629 257.98 32.376 257.985 32.2887C258.018 31.6004 258.404 30.9905 258.873 30.5088C259.866 29.4921 261.253 28.9896 262.605 28.6556C263.157 28.5304 263.717 28.447 264.279 28.3837C264.336 28.3597 264.396 28.3487 264.457 28.3388C264.537 28.326 264.616 28.314 264.696 28.3032C264.837 28.2842 264.979 28.2664 265.121 28.2498C265.399 28.2175 265.677 28.191 265.956 28.1708C266.523 28.1302 267.09 28.0954 267.658 28.0702C268.238 28.0441 268.819 28.0242 269.4 28.0189C269.992 28.0135 270.584 28.0209 271.176 28.0329C271.745 28.0441 272.314 28.0677 272.882 28.0901C273.438 28.112 273.995 28.1281 274.55 28.1608C275.108 28.1935 275.664 28.2395 276.221 28.2846C276.472 28.3049 276.724 28.3227 276.975 28.3442C276.975 28.3442 276.975 28.3442 276.975 28.3442C277.041 28.3417 277.11 28.3522 277.176 28.3624C277.304 28.3746 277.432 28.388 277.56 28.4038C277.592 28.4079 277.629 28.4096 277.662 28.4178C277.673 28.4205 277.683 28.4234 277.693 28.4263C277.936 28.4555 278.178 28.4859 278.418 28.5284C279.807 28.786 281.444 29.3377 282.389 30.4357C283.268 31.3583 283.44 32.6403 283.477 33.862C283.48 34.1354 283.491 34.4092 283.492 34.6828C283.508 34.7283 283.517 34.7769 283.517 34.8272C283.517 34.8353 283.517 34.8433 283.517 34.8514C283.517 34.8516 283.517 34.8518 283.517 34.852C283.517 35.8414 283.513 36.831 283.512 37.8206C283.51 38.8832 283.508 39.9459 283.506 41.0085C283.506 41.5182 283.505 42.0279 283.504 42.5376C283.76 42.5519 284.015 42.5686 284.271 42.5846C285.658 42.7367 293.096 42.9534 293.261 44.2881Z" fill="#FFEAB2"/>
</g>
<mask id="mask7_529_13788" style="mask-type:luminance" maskUnits="userSpaceOnUse" x="258" y="35" width="26" height="8">
<path d="M258.319 35.8677H283.575V42.6903H258.319V35.8677Z" fill="white"/>
</mask>
<g mask="url(#mask7_529_13788)">
<path d="M283.553 37.5988C283.553 38.1355 283.549 38.6716 283.548 39.2083C283.545 39.914 283.543 40.6196 283.54 41.3259C283.539 41.5683 283.539 41.8108 283.538 42.0539V42.0546C283.538 42.0608 283.538 42.067 283.538 42.0726C283.538 42.0733 283.538 42.0739 283.538 42.0739C283.538 42.0776 283.538 42.0807 283.538 42.0845C283.538 42.0988 283.538 42.1132 283.538 42.1275C283.562 42.3587 283.521 42.6505 283.406 42.6474C275.333 41.3383 267.236 41.3109 259.159 42.3313C258.937 42.3619 258.714 42.3943 258.492 42.4267C258.42 42.4367 258.356 42.279 258.35 42.0577C258.349 42.0066 258.351 41.9561 258.356 41.9087C258.354 41.5658 258.353 41.2224 258.352 40.8795C258.348 40.139 258.344 39.3984 258.34 38.6579C258.338 38.239 258.337 37.8201 258.334 37.4006C258.334 37.395 258.334 37.39 258.334 37.3844C258.334 37.3782 258.334 37.3725 258.334 37.3663C258.333 37.1488 258.385 36.9593 258.459 36.948C258.477 36.9449 258.494 36.9536 258.51 36.9717C258.945 36.915 259.379 36.8439 259.813 36.7934C267.303 35.9076 274.806 35.9369 282.293 37.0129C282.663 37.0715 283.034 37.1276 283.404 37.1943C283.408 37.1949 283.412 37.1968 283.415 37.1986C283.417 37.198 283.419 37.198 283.421 37.198C283.494 37.1992 283.553 37.3819 283.553 37.5988Z" fill="#5179C8"/>
</g>
</g>
<defs>
<filter id="filter0_f_529_13788" x="14" y="98" width="94.8848" height="64.8699" filterUnits="userSpaceOnUse" color-interpolation-filters="sRGB">
<feFlood flood-opacity="0" result="BackgroundImageFix"/>
<feBlend mode="normal" in="SourceGraphic" in2="BackgroundImageFix" result="shape"/>
<feGaussianBlur stdDeviation="10.5" result="effect1_foregroundBlur_529_13788"/>
</filter>
<filter id="filter1_d_529_13788" x="0" y="41" width="123.526" height="127.586" filterUnits="userSpaceOnUse" color-interpolation-filters="sRGB">
<feFlood flood-opacity="0" result="BackgroundImageFix"/>
<feColorMatrix in="SourceAlpha" type="matrix" values="0 0 0 0 0 0 0 0 0 0 0 0 0 0 0 0 0 0 127 0" result="hardAlpha"/>
<feOffset dy="4"/>
<feGaussianBlur stdDeviation="16"/>
<feComposite in2="hardAlpha" operator="out"/>
<feColorMatrix type="matrix" values="0 0 0 0 0 0 0 0 0 0 0 0 0 0 0 0 0 0 0.15 0"/>
<feBlend mode="normal" in2="BackgroundImageFix" result="effect1_dropShadow_529_13788"/>
<feBlend mode="normal" in="SourceGraphic" in2="effect1_dropShadow_529_13788" result="shape"/>
</filter>
<filter id="filter2_d_529_13788" x="7.15894" y="29.0171" width="109.539" height="82.5576" filterUnits="userSpaceOnUse" color-interpolation-filters="sRGB">
<feFlood flood-opacity="0" result="BackgroundImageFix"/>
<feColorMatrix in="SourceAlpha" type="matrix" values="0 0 0 0 0 0 0 0 0 0 0 0 0 0 0 0 0 0 127 0" result="hardAlpha"/>
<feOffset dy="4"/>
<feGaussianBlur stdDeviation="16"/>
<feComposite in2="hardAlpha" operator="out"/>
<feColorMatrix type="matrix" values="0 0 0 0 0 0 0 0 0 0 0 0 0 0 0 0 0 0 0.15 0"/>
<feBlend mode="normal" in2="BackgroundImageFix" result="effect1_dropShadow_529_13788"/>
<feBlend mode="normal" in="SourceGraphic" in2="effect1_dropShadow_529_13788" result="shape"/>
</filter>
<filter id="filter3_f_529_13788" x="83.5256" y="98.4138" width="94.8848" height="64.8699" filterUnits="userSpaceOnUse" color-interpolation-filters="sRGB">
<feFlood flood-opacity="0" result="BackgroundImageFix"/>
<feBlend mode="normal" in="SourceGraphic" in2="BackgroundImageFix" result="shape"/>
<feGaussianBlur stdDeviation="10.5" result="effect1_foregroundBlur_529_13788"/>
</filter>
<filter id="filter4_d_529_13788" x="71.5256" y="40" width="120.927" height="128.586" filterUnits="userSpaceOnUse" color-interpolation-filters="sRGB">
<feFlood flood-opacity="0" result="BackgroundImageFix"/>
<feColorMatrix in="SourceAlpha" type="matrix" values="0 0 0 0 0 0 0 0 0 0 0 0 0 0 0 0 0 0 127 0" result="hardAlpha"/>
<feOffset dy="4"/>
<feGaussianBlur stdDeviation="16"/>
<feComposite in2="hardAlpha" operator="out"/>
<feColorMatrix type="matrix" values="0 0 0 0 0 0 0 0 0 0 0 0 0 0 0 0 0 0 0.15 0"/>
<feBlend mode="normal" in2="BackgroundImageFix" result="effect1_dropShadow_529_13788"/>
<feBlend mode="normal" in="SourceGraphic" in2="effect1_dropShadow_529_13788" result="shape"/>
</filter>
<filter id="filter5_d_529_13788" x="76.6846" y="24.4312" width="109.539" height="82.5576" filterUnits="userSpaceOnUse" color-interpolation-filters="sRGB">
<feFlood flood-opacity="0" result="BackgroundImageFix"/>
<feColorMatrix in="SourceAlpha" type="matrix" values="0 0 0 0 0 0 0 0 0 0 0 0 0 0 0 0 0 0 127 0" result="hardAlpha"/>
<feOffset dy="4"/>
<feGaussianBlur stdDeviation="16"/>
<feComposite in2="hardAlpha" operator="out"/>
<feColorMatrix type="matrix" values="0 0 0 0 0 0 0 0 0 0 0 0 0 0 0 0 0 0 0.15 0"/>
<feBlend mode="normal" in2="BackgroundImageFix" result="effect1_dropShadow_529_13788"/>
<feBlend mode="normal" in="SourceGraphic" in2="effect1_dropShadow_529_13788" result="shape"/>
</filter>
<filter id="filter6_f_529_13788" x="153.051" y="97.8276" width="94.8848" height="64.8699" filterUnits="userSpaceOnUse" color-interpolation-filters="sRGB">
<feFlood flood-opacity="0" result="BackgroundImageFix"/>
<feBlend mode="normal" in="SourceGraphic" in2="BackgroundImageFix" result="shape"/>
<feGaussianBlur stdDeviation="10.5" result="effect1_foregroundBlur_529_13788"/>
</filter>
<filter id="filter7_d_529_13788" x="145.051" y="36" width="113" height="132.586" filterUnits="userSpaceOnUse" color-interpolation-filters="sRGB">
<feFlood flood-opacity="0" result="BackgroundImageFix"/>
<feColorMatrix in="SourceAlpha" type="matrix" values="0 0 0 0 0 0 0 0 0 0 0 0 0 0 0 0 0 0 127 0" result="hardAlpha"/>
<feOffset dy="4"/>
<feGaussianBlur stdDeviation="16"/>
<feComposite in2="hardAlpha" operator="out"/>
<feColorMatrix type="matrix" values="0 0 0 0 0 0 0 0 0 0 0 0 0 0 0 0 0 0 0.15 0"/>
<feBlend mode="normal" in2="BackgroundImageFix" result="effect1_dropShadow_529_13788"/>
<feBlend mode="normal" in="SourceGraphic" in2="effect1_dropShadow_529_13788" result="shape"/>
</filter>
<filter id="filter8_d_529_13788" x="146.21" y="21.8447" width="109.539" height="82.5576" filterUnits="userSpaceOnUse" color-interpolation-filters="sRGB">
<feFlood flood-opacity="0" result="BackgroundImageFix"/>
<feColorMatrix in="SourceAlpha" type="matrix" values="0 0 0 0 0 0 0 0 0 0 0 0 0 0 0 0 0 0 127 0" result="hardAlpha"/>
<feOffset dy="4"/>
<feGaussianBlur stdDeviation="16"/>
<feComposite in2="hardAlpha" operator="out"/>
<feColorMatrix type="matrix" values="0 0 0 0 0 0 0 0 0 0 0 0 0 0 0 0 0 0 0.15 0"/>
<feBlend mode="normal" in2="BackgroundImageFix" result="effect1_dropShadow_529_13788"/>
<feBlend mode="normal" in="SourceGraphic" in2="effect1_dropShadow_529_13788" result="shape"/>
</filter>
<filter id="filter9_f_529_13788" x="222.577" y="98.2415" width="94.8848" height="64.8699" filterUnits="userSpaceOnUse" color-interpolation-filters="sRGB">
<feFlood flood-opacity="0" result="BackgroundImageFix"/>
<feBlend mode="normal" in="SourceGraphic" in2="BackgroundImageFix" result="shape"/>
<feGaussianBlur stdDeviation="10.5" result="effect1_foregroundBlur_529_13788"/>
</filter>
<filter id="filter10_d_529_13788" x="216.577" y="10" width="107.86" height="158.586" filterUnits="userSpaceOnUse" color-interpolation-filters="sRGB">
<feFlood flood-opacity="0" result="BackgroundImageFix"/>
<feColorMatrix in="SourceAlpha" type="matrix" values="0 0 0 0 0 0 0 0 0 0 0 0 0 0 0 0 0 0 127 0" result="hardAlpha"/>
<feOffset dy="4"/>
<feGaussianBlur stdDeviation="16"/>
<feComposite in2="hardAlpha" operator="out"/>
<feColorMatrix type="matrix" values="0 0 0 0 0 0 0 0 0 0 0 0 0 0 0 0 0 0 0.15 0"/>
<feBlend mode="normal" in2="BackgroundImageFix" result="effect1_dropShadow_529_13788"/>
<feBlend mode="normal" in="SourceGraphic" in2="effect1_dropShadow_529_13788" result="shape"/>
</filter>
<filter id="filter11_d_529_13788" x="215.736" y="0.0170898" width="109.539" height="82.5576" filterUnits="userSpaceOnUse" color-interpolation-filters="sRGB">
<feFlood flood-opacity="0" result="BackgroundImageFix"/>
<feColorMatrix in="SourceAlpha" type="matrix" values="0 0 0 0 0 0 0 0 0 0 0 0 0 0 0 0 0 0 127 0" result="hardAlpha"/>
<feOffset dy="4"/>
<feGaussianBlur stdDeviation="16"/>
<feComposite in2="hardAlpha" operator="out"/>
<feColorMatrix type="matrix" values="0 0 0 0 0 0 0 0 0 0 0 0 0 0 0 0 0 0 0.15 0"/>
<feBlend mode="normal" in2="BackgroundImageFix" result="effect1_dropShadow_529_13788"/>
<feBlend mode="normal" in="SourceGraphic" in2="effect1_dropShadow_529_13788" result="shape"/>
</filter>
</defs>
</svg>
