<svg width="192" height="192" viewBox="0 0 192 192" fill="none" xmlns="http://www.w3.org/2000/svg">
<path fill-rule="evenodd" clip-rule="evenodd" d="M70.8106 72.1483C69.8363 59.9116 80.4749 55.6669 89.2323 54.9695C97.9899 54.2717 121.425 47.043 123.118 68.3509C123.982 79.2297 112.291 84.9358 96.9849 83.3865C84.3729 82.1095 72.0598 87.8286 70.8106 72.1483Z" fill="#996633" stroke="#663300" stroke-width="3.76803" stroke-miterlimit="22.9256"/>
<path fill-rule="evenodd" clip-rule="evenodd" d="M96.0723 70.0001C95.9362 75.4858 91.031 79.8153 85.1179 79.6684C79.2051 79.5214 74.5209 74.954 74.657 69.4687C74.793 63.9835 79.6983 59.654 85.6109 59.8005C91.5237 59.9474 96.2084 64.5148 96.0723 70.0001Z" fill="#663300"/>
<path d="M103.684 58.2402C106.407 64.4498 106.695 71.2526 105.32 78.7955" stroke="#663300" stroke-width="3.77723" stroke-miterlimit="22.9256"/>
<path d="M98.3691 59.3184C100.775 64.8054 101.03 70.8166 99.8143 77.4824" stroke="#663300" stroke-width="3.77732" stroke-miterlimit="22.9256"/>
<path fill-rule="evenodd" clip-rule="evenodd" d="M98.7726 73.2005C98.0064 82.8749 89.1704 84.8612 82.2464 84.3125C75.3227 83.7643 60.484 78.7007 61.2501 69.0263C62.0545 58.8719 100.8 47.6046 98.7726 73.2005Z" fill="#669933" stroke="#663300" stroke-width="3.76796" stroke-miterlimit="22.9256"/>
<path fill-rule="evenodd" clip-rule="evenodd" d="M18.0929 111.533C16.5123 123.706 26.9277 128.473 35.6396 129.605C44.3517 130.736 67.3991 139.118 70.1474 117.921C71.5501 107.098 60.1567 100.819 44.7926 101.607C32.1329 102.256 20.1184 95.9335 18.0929 111.533Z" fill="#996633" stroke="#663300" stroke-width="3.76804" stroke-miterlimit="22.9256"/>
<path fill-rule="evenodd" clip-rule="evenodd" d="M43.2129 114.944C43.3491 109.458 38.6643 104.891 32.7517 104.744C26.8389 104.597 21.9338 108.926 21.7971 114.412C21.661 119.897 26.3459 124.465 32.2585 124.611C38.1713 124.758 43.0769 120.429 43.2129 114.944Z" fill="#663300"/>
<path d="M50.2314 127.049C53.2595 120.982 53.8846 114.202 52.8844 106.6" stroke="#663300" stroke-width="3.77724" stroke-miterlimit="22.9256"/>
<path d="M44.9834 125.709C47.6591 120.348 48.2114 114.357 47.3279 107.639" stroke="#663300" stroke-width="3.77727" stroke-miterlimit="22.9256"/>
<path fill-rule="evenodd" clip-rule="evenodd" d="M60.5005 136.291C55.8647 127.764 62.1866 121.28 68.2885 117.961C74.3903 114.644 89.5888 110.792 94.2243 119.318C99.09 128.267 72.765 158.848 60.5005 136.291Z" fill="#669933" stroke="#663300" stroke-width="3.76796" stroke-miterlimit="22.9256"/>
<path fill-rule="evenodd" clip-rule="evenodd" d="M21.6434 110.907C22.4095 101.233 31.2455 99.2467 38.1696 99.7949C45.0933 100.344 59.932 105.407 59.1659 115.081C58.3615 125.236 19.6158 136.503 21.6434 110.907Z" fill="#4A7024" stroke="#663300" stroke-width="3.76796" stroke-miterlimit="22.9256"/>
<path fill-rule="evenodd" clip-rule="evenodd" d="M127.367 104.852C128.609 100.158 123.747 90.0698 115.487 87.8844C107.227 85.6986 103.401 90.9417 102.158 95.6346C100.917 100.328 106.608 105.907 114.869 108.092C123.129 110.278 126.125 109.545 127.367 104.852Z" fill="#CFA173"/>
<mask id="mask0_225_15864" style="mask-type:luminance" maskUnits="userSpaceOnUse" x="101" y="87" width="27" height="23">
<path fill-rule="evenodd" clip-rule="evenodd" d="M127.366 104.854C128.608 100.16 123.746 90.0717 115.485 87.8863C107.226 85.7006 103.4 90.9436 102.157 95.6366C100.916 100.33 106.607 105.909 114.868 108.094C123.128 110.28 126.124 109.547 127.366 104.854Z" fill="white"/>
</mask>
<g mask="url(#mask0_225_15864)">
<path fill-rule="evenodd" clip-rule="evenodd" d="M123.226 107.656C124.776 104.803 122.829 96.8078 117.808 94.0794C112.787 91.3513 112.486 91.7956 110.935 94.6486C109.385 97.5015 110.896 98.0516 115.917 100.78C120.938 103.508 121.675 110.509 123.226 107.656Z" fill="#FFCC99"/>
<path fill-rule="evenodd" clip-rule="evenodd" d="M126.316 101.813C127.108 100.355 124.232 92.8449 121.665 91.4501C119.098 90.0546 118.864 89.1312 118.072 90.59C117.279 92.0483 118.344 91.9597 120.911 93.3547C123.478 94.7495 125.523 103.272 126.316 101.813Z" fill="#FFCC99"/>
<path fill-rule="evenodd" clip-rule="evenodd" d="M120.496 95.9765C121.738 91.2829 116.875 81.1952 108.615 79.0093C100.355 76.8239 96.529 82.0664 95.2873 86.7598C94.0454 91.4534 99.7373 97.0317 107.997 99.2176C116.257 101.403 119.254 100.67 120.496 95.9765Z" fill="#FFCC99"/>
</g>
<path d="M127.367 104.838C128.608 100.145 123.746 90.0568 115.486 87.8714C107.226 85.6855 103.4 90.9286 102.158 95.6216C100.917 100.315 106.608 105.894 114.868 108.079C123.128 110.264 126.125 109.532 127.367 104.838Z" stroke="#663300" stroke-width="3.77719" stroke-miterlimit="22.9256"/>
<path fill-rule="evenodd" clip-rule="evenodd" d="M109.487 89.9216C116.438 85.6476 109.002 82.4475 100.536 77.004C97.8909 75.303 92.2253 70.4315 90.146 67.6286C87.5048 64.07 74.6367 49.1928 72.5057 48.2215C64.8924 44.7516 71.0619 62.0333 70.3944 64.5541C69.1531 69.2476 87.739 94.7168 95.9991 96.9025C104.259 99.088 102.536 94.1958 109.487 89.9216Z" fill="#669933" stroke="#663300" stroke-width="3.77719" stroke-miterlimit="22.9256"/>
<path d="M93.376 95.6074C97.0632 89.9175 102.216 85.1 108.835 81.155" stroke="#663300" stroke-width="3.77719" stroke-miterlimit="22.9256"/>
<path fill-rule="evenodd" clip-rule="evenodd" d="M104.545 119.099C104.424 123.952 96.9341 132.278 88.3925 132.066C79.8509 131.854 77.6441 125.75 77.7643 120.896C77.8851 116.043 84.9101 112.28 93.4517 112.491C101.993 112.704 104.665 114.245 104.545 119.099Z" fill="#CFA173" stroke="#663300" stroke-width="3.77724" stroke-miterlimit="22.9256"/>
<path fill-rule="evenodd" clip-rule="evenodd" d="M169.338 116.486L169.557 107.697L108.735 106.188L108.517 114.977L169.338 116.486Z" fill="#666666" stroke="#663300" stroke-width="3.77724" stroke-miterlimit="22.9256"/>
<path fill-rule="evenodd" clip-rule="evenodd" d="M175.96 118.939L176.292 105.579L162.229 105.23L161.897 118.59L175.96 118.939Z" fill="#666666" stroke="#663300" stroke-width="3.77724" stroke-miterlimit="22.9256"/>
<path fill-rule="evenodd" clip-rule="evenodd" d="M117.943 117.85L118.292 103.788L90.1665 103.089L89.8174 117.152L117.943 117.85Z" fill="#666666" stroke="#663300" stroke-width="3.77724" stroke-miterlimit="22.9256"/>
<path fill-rule="evenodd" clip-rule="evenodd" d="M174.28 115.901L174.463 108.519L169.541 108.396L169.358 115.779L174.28 115.901Z" fill="#CCCCCC"/>
<path fill-rule="evenodd" clip-rule="evenodd" d="M59.2848 43.3073C49.5829 43.0664 46.6913 51.6489 46.5189 58.5921C46.3467 65.5357 49.8445 80.8193 59.5467 81.0597C69.7294 81.3129 84.9529 43.9445 59.2848 43.3073Z" fill="#669933" stroke="#663300" stroke-width="3.76795" stroke-miterlimit="22.9256"/>
<path fill-rule="evenodd" clip-rule="evenodd" d="M69.4156 145.335C59.7135 145.094 57.2513 136.379 57.4235 129.435C57.5961 122.492 61.8477 107.401 71.5496 107.642C81.7324 107.894 95.0839 145.972 69.4156 145.335Z" fill="#669933" stroke="#663300" stroke-width="3.76795" stroke-miterlimit="22.9256"/>
<path fill-rule="evenodd" clip-rule="evenodd" d="M49.8954 123.368L49.7979 127.303C49.7644 128.642 48.6413 129.711 47.3016 129.678L38.8698 129.469C37.5297 129.436 36.4614 128.312 36.4944 126.972L36.5918 123.038C36.6254 121.698 37.7485 120.629 39.0881 120.662L47.5199 120.871C48.8601 120.905 49.9284 122.028 49.8954 123.368Z" fill="#808080" stroke="#663300" stroke-width="3.77735" stroke-miterlimit="22.9256"/>
<path fill-rule="evenodd" clip-rule="evenodd" d="M62.9415 73.7931L61.9233 114.827C61.841 118.125 59.0764 120.756 55.7784 120.674L37.9784 120.232C34.6807 120.15 32.0497 117.386 32.1315 114.088L33.1503 73.0539C33.2319 69.7563 35.9966 67.1247 39.2947 67.207L57.0945 67.6487C60.3927 67.7304 63.0237 70.4959 62.9415 73.7931Z" fill="#385217"/>
<mask id="mask1_225_15864" style="mask-type:luminance" maskUnits="userSpaceOnUse" x="32" y="67" width="31" height="54">
<path fill-rule="evenodd" clip-rule="evenodd" d="M62.9437 73.7931L61.9255 114.827C61.8433 118.125 59.0786 120.756 55.7806 120.674L37.9807 120.232C34.683 120.15 32.0519 117.386 32.1337 114.087L33.1526 73.0538C33.2342 69.7561 35.9988 67.1247 39.2969 67.207L57.0968 67.6487C60.3949 67.7304 63.026 70.4959 62.9437 73.7931Z" fill="white"/>
</mask>
<g mask="url(#mask1_225_15864)">
<path fill-rule="evenodd" clip-rule="evenodd" d="M67.9878 73.9163L66.969 114.95C66.8872 118.248 64.1227 120.879 60.8246 120.797L43.0248 120.356C39.7266 120.274 37.0956 117.508 37.1777 114.211L38.1961 73.1767C38.2783 69.8794 41.0429 67.2482 44.3409 67.33L62.1407 67.7718C65.4384 67.8536 68.0696 70.6186 67.9878 73.9163Z" fill="#47661F"/>
</g>
<path d="M62.9372 73.8176L61.9182 114.852C61.8359 118.15 59.0713 120.781 55.7732 120.699L37.9731 120.257C34.6753 120.175 32.0442 117.41 32.126 114.112L33.1454 73.0781C33.2272 69.7803 35.9918 67.1488 39.29 67.2309L57.0902 67.673C60.3882 67.7548 63.0193 70.5204 62.9372 73.8176Z" stroke="#663300" stroke-width="3.77735" stroke-miterlimit="22.9256"/>
<path fill-rule="evenodd" clip-rule="evenodd" d="M51.2607 76.1266L51.0515 84.5582L32.8765 84.1073L33.086 75.6758L51.2607 76.1266ZM50.582 103.482L50.3729 111.914L32.1977 111.463L32.407 103.032L50.582 103.482Z" fill="#663300"/>
<path fill-rule="evenodd" clip-rule="evenodd" d="M108.242 95.4141C107.736 115.769 100.026 119.711 88.8451 124.853C85.5196 130.811 77.0562 134.916 67.2496 134.672C54.7116 134.361 44.719 127.061 44.9347 118.369C45.1612 109.247 41.4369 103.26 41.6727 93.7617C41.9083 84.2627 45.9253 78.4687 46.1517 69.3461C46.3674 60.6549 56.71 53.8592 69.2476 54.1704C79.0542 54.414 87.3036 58.933 90.3292 65.0492C101.241 70.7392 108.747 75.0589 108.242 95.4141Z" fill="#5E822B"/>
<mask id="mask2_225_15864" style="mask-type:luminance" maskUnits="userSpaceOnUse" x="41" y="54" width="68" height="81">
<path fill-rule="evenodd" clip-rule="evenodd" d="M108.246 95.4179C107.74 115.773 100.03 119.715 88.8491 124.857C85.5237 130.814 77.0602 134.92 67.2537 134.676C54.7156 134.365 44.723 127.065 44.9387 118.373C45.1653 109.251 41.441 103.264 41.6768 93.7656C41.9124 84.2666 45.9293 78.4726 46.1557 69.35C46.3714 60.6588 56.7141 53.8631 69.2517 54.1743C79.0582 54.4179 87.3077 58.9369 90.3332 65.0531C101.245 70.7431 108.751 75.0627 108.246 95.4179Z" fill="white"/>
</mask>
<g mask="url(#mask2_225_15864)">
<path fill-rule="evenodd" clip-rule="evenodd" d="M106.18 95.3658C105.717 114.024 99.0702 117.648 89.4329 122.377C86.5606 127.843 79.2651 131.617 70.8191 131.407C60.0203 131.139 51.4235 124.461 51.621 116.495C51.8288 108.132 48.6293 102.65 48.8454 93.9426C49.0616 85.2353 52.5288 79.9188 52.7366 71.5563C52.9341 63.5896 61.8518 57.3459 72.6505 57.6138C81.0969 57.8238 88.1959 61.9545 90.7935 67.5568C100.184 72.7577 106.643 76.7067 106.18 95.3658Z" fill="#669933"/>
</g>
<path d="M108.239 95.4381C107.734 115.793 100.023 119.735 88.8421 124.877C85.5164 130.835 77.0528 134.94 67.2462 134.696C54.7079 134.385 44.7152 127.084 44.9311 118.393C45.1578 109.27 41.4336 103.284 41.6693 93.7848C41.9051 84.2855 45.9221 78.4915 46.1488 69.3688C46.3647 60.6774 56.7076 53.8817 69.2454 54.1932C79.0521 54.4369 87.3016 58.9562 90.327 65.0725C101.239 70.7628 108.745 75.0825 108.239 95.4381Z" stroke="#663300" stroke-width="3.77735" stroke-miterlimit="22.9256"/>
<path fill-rule="evenodd" clip-rule="evenodd" d="M68.1865 65.7635C59.5946 66.9267 53.274 71.9333 47.9861 78.6877C48.048 76.1932 48.1101 73.6991 48.1719 71.2049C53.3471 67.0211 59.0215 63.6276 68.1865 65.7635ZM66.7647 123.044C58.241 121.456 52.177 116.142 47.2309 109.134C47.1687 111.628 47.107 114.122 47.0447 116.616C52.0061 121.051 57.5049 124.722 66.7647 123.044Z" fill="#5E822B"/>
<path fill-rule="evenodd" clip-rule="evenodd" d="M43.0968 123.156C43.0611 124.594 41.8658 125.731 40.4278 125.695C38.9902 125.659 37.8527 124.464 37.8885 123.026C37.924 121.588 39.1195 120.451 40.5575 120.487C41.9954 120.522 43.1325 121.717 43.0968 123.156Z" fill="#808080" stroke="#663300" stroke-width="3.77735" stroke-miterlimit="22.9256"/>
</svg>
